<?xml version="1.0" encoding="iso-8859-1"?>
<!-- Generator: Adobe Illustrator 22.0.1, SVG Export Plug-In . SVG Version: 6.00 Build 0)  -->
<svg version="1.1" id="&#x56FE;&#x5C42;_1" xmlns="http://www.w3.org/2000/svg" xmlns:xlink="http://www.w3.org/1999/xlink" x="0px"
	 y="0px" viewBox="0 0 102.105 82.317" style="enable-background:new 0 0 102.105 82.317;" xml:space="preserve">
<g>
	<defs>
		<rect id="SVGID_1_" width="102.105" height="82.317"/>
	</defs>
	<clipPath id="SVGID_2_">
		<use xlink:href="#SVGID_1_"  style="overflow:visible;"/>
	</clipPath>
	<g style="clip-path:url(#SVGID_2_);">
		<defs>
			<rect id="SVGID_3_" y="0" width="102.105" height="82.317"/>
		</defs>
		<clipPath id="SVGID_4_">
			<use xlink:href="#SVGID_3_"  style="overflow:visible;"/>
		</clipPath>
		<path style="clip-path:url(#SVGID_4_);fill:#84C8D8;" d="M60.245,39.537H41.859c-6.6,0-12-5.4-12-12V12c0-6.6,5.4-12,12-12h18.386
			c6.601,0,12,5.4,12,12v15.537C72.245,34.137,66.846,39.537,60.245,39.537"/>
		<defs>
			<filter id="Adobe_OpacityMaskFilter" filterUnits="userSpaceOnUse" x="29.859" y="0" width="42.386" height="39.537">
				
					<feColorMatrix  type="matrix" values="-1 0 0 0 1  0 -1 0 0 1  0 0 -1 0 1  0 0 0 1 0" color-interpolation-filters="sRGB" result="source"/>
			</filter>
		</defs>
		<mask maskUnits="userSpaceOnUse" x="29.859" y="0" width="42.386" height="39.537" id="SVGID_5_">
			<g style="filter:url(#Adobe_OpacityMaskFilter);">
				<g style="enable-background:new    ;">
					<g>
						<defs>
							<rect id="SVGID_6_" x="26.882" y="-2.882" width="48" height="45"/>
						</defs>
						<clipPath id="SVGID_7_" style="clip-path:url(#SVGID_4_);">
							<use xlink:href="#SVGID_6_"  style="overflow:visible;"/>
						</clipPath>
						<g style="clip-path:url(#SVGID_7_);">
							
								<image style="overflow:visible;" width="48" height="45" xlink:href="7454B2BD.jpg"  transform="matrix(1 0 0 1 26.8818 -2.8815)">
							</image>
						</g>
					</g>
				</g>
			</g>
		</mask>
		<g style="opacity:0.75;clip-path:url(#SVGID_4_);mask:url(#SVGID_5_);">
			<g>
				<defs>
					<rect id="SVGID_8_" x="29.859" width="42.386" height="39.537"/>
				</defs>
				<clipPath id="SVGID_9_">
					<use xlink:href="#SVGID_8_"  style="overflow:visible;"/>
				</clipPath>
				<path style="clip-path:url(#SVGID_9_);fill:#E1C501;" d="M60.245,39.537H41.859c-6.6,0-12-5.4-12-12V12c0-6.6,5.4-12,12-12
					h18.386c6.601,0,12,5.4,12,12v15.537C72.245,34.137,66.846,39.537,60.245,39.537"/>
			</g>
		</g>
		<path style="clip-path:url(#SVGID_4_);fill:#FFFFFF;" d="M43.017,14.315c1.485-1.488,3.432-2.625,6.072-3.235
			c1.31-0.14,2.066-0.25,3.963,0.122c2.191,0.277,3.958,1.269,5.436,2.749c1.672,2.073,1.913,3.907,0.855,5.523
			c-0.883,1.127-3.765,1.923-12.241,1.799c-2.643-0.115-4.375-0.726-5.144-1.644C40.959,18.235,41.02,16.546,43.017,14.315"/>
		<polygon style="clip-path:url(#SVGID_4_);" points="44.005,23.258 45.301,25.422 41.137,29.593 45.227,33.298 44.431,35.555 
			38.761,30.281 38.6,28.914 		"/>
		<polygon style="clip-path:url(#SVGID_4_);" points="52.643,23.588 54.457,24.49 48.744,35.581 47.387,33.939 		"/>
		<polygon style="clip-path:url(#SVGID_4_);" points="59.086,23.206 62.987,28.821 62.93,30.019 58.378,35.581 57.297,33.387 
			60.234,29.216 57.537,24.766 		"/>
		<path style="clip-path:url(#SVGID_4_);" d="M60.878,14.253c-0.66-1.667-1.687-3.178-3.354-4.419
			c-1.437-1.119-2.974-1.92-4.655-2.262l-1.954-4.219c0.366,1.54-0.294,2.968-1.923,4.291c-3.831,0.665-5.817,2.877-7.448,5.387
			c-1.892,3.44-1.547,5.431-0.662,7.073c0.861,1.183,2.935,2.337,6.556,2.616c6.019,0.222,10.85-0.157,12.865-1.957
			C61.959,18.996,62.078,16.806,60.878,14.253 M59.182,19.51c-0.866,1.106-3.7,1.889-12.035,1.768
			c-2.599-0.113-4.301-0.714-5.058-1.615c-0.983-1.371-0.922-3.033,1.042-5.225c1.461-1.464,3.373-2.583,5.971-3.181
			c1.287-0.138,2.029-0.246,3.895,0.117c2.154,0.275,3.892,1.25,5.346,2.705C59.987,16.118,60.223,17.922,59.182,19.51"/>
		<polygon style="clip-path:url(#SVGID_4_);fill:#336699;" points="49.151,15.179 50.687,15.081 50.433,18.401 48.691,18.546 		"/>
		<polygon style="clip-path:url(#SVGID_4_);" points="54.787,15.125 54.828,18.444 56.322,18.319 56.617,15.029 		"/>
		<path style="clip-path:url(#SVGID_4_);" d="M48.968,14.153l2.443-0.204c0.522-0.043,0.95,0.405,0.883,0.923l-0.475,3.694
			c-0.036,0.272-0.267,0.476-0.541,0.476l-4.242,0.009c-0.38,0.001-0.634-0.392-0.478-0.739l1.617-3.597
			C48.318,14.397,48.621,14.182,48.968,14.153"/>
		<path style="clip-path:url(#SVGID_4_);fill:none;stroke:#000000;stroke-width:0.25;stroke-miterlimit:10;" d="M48.968,14.153
			l2.443-0.204c0.522-0.043,0.95,0.405,0.883,0.923l-0.475,3.694c-0.036,0.272-0.267,0.476-0.541,0.476l-4.242,0.009
			c-0.38,0.001-0.634-0.392-0.478-0.739l1.617-3.597C48.318,14.397,48.621,14.182,48.968,14.153z"/>
		<path style="clip-path:url(#SVGID_4_);fill:#828282;" d="M49.231,14.702l1.787-0.144c0.381-0.03,0.696,0.313,0.651,0.707
			l-0.332,2.809c-0.024,0.207-0.193,0.361-0.393,0.36l-3.104-0.013c-0.279-0.001-0.466-0.301-0.354-0.564l1.167-2.731
			C48.755,14.885,48.977,14.723,49.231,14.702"/>
		<path style="clip-path:url(#SVGID_4_);fill:#F40000;" d="M50.866,16.335c0.088,0.573-0.305,1.109-0.878,1.198
			c-0.573,0.088-1.109-0.305-1.197-0.878c-0.089-0.573,0.304-1.109,0.877-1.197C50.241,15.369,50.777,15.762,50.866,16.335"/>
		<path style="clip-path:url(#SVGID_4_);fill:none;stroke:#000000;stroke-width:0.5;stroke-miterlimit:10;" d="M50.866,16.335
			c0.088,0.573-0.305,1.109-0.878,1.198c-0.573,0.088-1.109-0.305-1.197-0.878c-0.089-0.573,0.304-1.109,0.877-1.197
			C50.241,15.369,50.777,15.762,50.866,16.335z"/>
		<path style="clip-path:url(#SVGID_4_);fill:#2B2B2B;" d="M50.915,3.353c0.817,1.983,1.437,3.743,1.279,4.632
			c6.88,1.971,12.017,10.534,7.067,13.5c5.261-2.562,1.472-12.172-6.393-13.913L50.915,3.353z"/>
		<polygon style="clip-path:url(#SVGID_4_);fill:#2B2B2B;" points="59.086,23.206 58.626,23.669 62.62,28.993 62.663,29.959 
			58.378,35.581 62.93,30.019 62.987,28.821 		"/>
		<g style="opacity:0.53;clip-path:url(#SVGID_4_);">
			<g>
				<defs>
					<rect id="SVGID_10_" x="29.859" width="42.386" height="39.537"/>
				</defs>
				<clipPath id="SVGID_11_">
					<use xlink:href="#SVGID_10_"  style="overflow:visible;"/>
				</clipPath>
				<path style="clip-path:url(#SVGID_11_);fill:#84C8D8;" d="M60.245,39.537H41.859c-6.6,0-12-5.4-12-12V12c0-6.6,5.4-12,12-12
					h18.386c6.601,0,12,5.4,12,12v15.537C72.245,34.137,66.846,39.537,60.245,39.537"/>
				<defs>
					<filter id="Adobe_OpacityMaskFilter_1_" filterUnits="userSpaceOnUse" x="29.859" y="0" width="42.386" height="39.537">
						
							<feColorMatrix  type="matrix" values="-1 0 0 0 1  0 -1 0 0 1  0 0 -1 0 1  0 0 0 1 0" color-interpolation-filters="sRGB" result="source"/>
					</filter>
				</defs>
				<mask maskUnits="userSpaceOnUse" x="29.859" y="0" width="42.386" height="39.537" id="SVGID_12_">
					<g style="filter:url(#Adobe_OpacityMaskFilter_1_);">
						<g style="enable-background:new    ;">
							<g>
								<defs>
									<rect id="SVGID_13_" x="26.882" y="-2.882" width="48" height="45"/>
								</defs>
								<clipPath id="SVGID_14_" style="clip-path:url(#SVGID_11_);">
									<use xlink:href="#SVGID_13_"  style="overflow:visible;"/>
								</clipPath>
								<g style="clip-path:url(#SVGID_14_);">
									
										<image style="overflow:visible;" width="48" height="45" xlink:href="7454B2BF.jpg"  transform="matrix(1 0 0 1 26.8818 -2.8815)">
									</image>
								</g>
							</g>
						</g>
					</g>
				</mask>
				<g style="opacity:0.75;clip-path:url(#SVGID_11_);mask:url(#SVGID_12_);">
					<g>
						<defs>
							<rect id="SVGID_15_" x="29.859" width="42.386" height="39.537"/>
						</defs>
						<clipPath id="SVGID_16_">
							<use xlink:href="#SVGID_15_"  style="overflow:visible;"/>
						</clipPath>
						<path style="clip-path:url(#SVGID_16_);fill:#E1C501;" d="M60.245,39.537H41.859c-6.6,0-12-5.4-12-12V12c0-6.6,5.4-12,12-12
							h18.386c6.601,0,12,5.4,12,12v15.537C72.245,34.137,66.846,39.537,60.245,39.537"/>
					</g>
				</g>
			</g>
		</g>
		<path style="clip-path:url(#SVGID_4_);fill:#FFC501;" d="M78.296,39.537H23.809c-3.631,0-6.602-2.971-6.602-6.602
			c0-3.63,2.971-6.601,6.602-6.601h54.487c3.631,0,6.602,2.971,6.602,6.601C84.898,36.566,81.927,39.537,78.296,39.537"/>
		<path style="clip-path:url(#SVGID_4_);fill:#1C3951;" d="M91.147,55.869h-80.19C4.906,55.869,0,50.963,0,44.912
			s4.905-10.957,10.957-10.957h80.19c6.052,0,10.957,4.906,10.957,10.957S97.199,55.869,91.147,55.869"/>
		<line style="clip-path:url(#SVGID_4_);fill:#336699;" x1="17.207" y1="44.912" x2="84.897" y2="44.912"/>
		
			<line style="clip-path:url(#SVGID_4_);fill:none;stroke:#336699;stroke-width:4;stroke-miterlimit:10;" x1="17.207" y1="44.912" x2="84.897" y2="44.912"/>
		<path style="clip-path:url(#SVGID_4_);fill:#FFC501;" d="M22.582,44.912c0,2.969-2.406,5.375-5.375,5.375
			s-5.375-2.406-5.375-5.375c0-2.968,2.406-5.375,5.375-5.375S22.582,41.944,22.582,44.912"/>
		
			<circle style="clip-path:url(#SVGID_4_);fill:none;stroke:#FFFFFF;stroke-width:3;stroke-miterlimit:10;" cx="17.207" cy="44.912" r="5.375"/>
		<path style="clip-path:url(#SVGID_4_);fill:#FFC501;" d="M56.428,44.912c0,2.969-2.407,5.375-5.375,5.375
			c-2.969,0-5.375-2.406-5.375-5.375c0-2.968,2.406-5.375,5.375-5.375C54.021,39.537,56.428,41.944,56.428,44.912"/>
		
			<circle style="clip-path:url(#SVGID_4_);fill:none;stroke:#FFFFFF;stroke-width:3;stroke-miterlimit:10;" cx="51.053" cy="44.912" r="5.375"/>
		<path style="clip-path:url(#SVGID_4_);fill:#FFC501;" d="M90.272,44.912c0,2.969-2.406,5.375-5.375,5.375
			c-2.969,0-5.375-2.406-5.375-5.375c0-2.968,2.406-5.375,5.375-5.375C87.866,39.537,90.272,41.944,90.272,44.912"/>
		
			<circle style="clip-path:url(#SVGID_4_);fill:none;stroke:#FFFFFF;stroke-width:3;stroke-miterlimit:10;" cx="84.897" cy="44.912" r="5.375"/>
		<polygon style="clip-path:url(#SVGID_4_);fill:#FFC501;" points="19.644,27.824 13.731,17.27 26.731,26.333 		"/>
		<polygon style="clip-path:url(#SVGID_4_);fill:#FFC501;" points="82.61,27.824 88.522,17.27 75.522,26.333 		"/>
		<path style="clip-path:url(#SVGID_4_);fill:#A37902;" d="M79.476,26.633c3.609,1.928,4.609,3.661,5.338,7.322
			c0.308-1.814-0.019-3.768-2.203-6.131C80.847,26.631,79.476,26.633,79.476,26.633"/>
		<polygon style="clip-path:url(#SVGID_4_);fill:#A37902;" points="79.476,26.633 86.731,19.305 87.382,19.305 82.611,27.824 		"/>
		<path style="clip-path:url(#SVGID_4_);fill:#A37902;" d="M22.527,26.805c-3.61,1.928-4.61,3.661-5.339,7.322
			c-0.307-1.814,0.02-3.768,2.204-6.131C21.156,26.803,22.527,26.805,22.527,26.805"/>
		<polygon style="clip-path:url(#SVGID_4_);fill:#A37902;" points="22.527,26.805 15.939,20.207 15.543,20.504 19.392,27.996 		"/>
		<path style="clip-path:url(#SVGID_4_);fill:#FFFFFF;" d="M84.967,17.27c0-1.787,1.448-3.234,3.234-3.234
			c1.787,0,3.235,1.447,3.235,3.234c0,1.786-1.448,3.234-3.235,3.234C86.415,20.504,84.967,19.056,84.967,17.27"/>
		<path style="clip-path:url(#SVGID_4_);fill:none;stroke:#FFFFFF;stroke-miterlimit:10;" d="M84.967,17.27
			c0-1.787,1.448-3.234,3.234-3.234c1.787,0,3.235,1.447,3.235,3.234c0,1.786-1.448,3.234-3.235,3.234
			C86.415,20.504,84.967,19.056,84.967,17.27z"/>
		<path style="clip-path:url(#SVGID_4_);fill:#FFFFFF;" d="M10.496,17.27c0-1.787,1.448-3.234,3.234-3.234
			c1.787,0,3.235,1.447,3.235,3.234c0,1.786-1.448,3.234-3.235,3.234C11.944,20.504,10.496,19.056,10.496,17.27"/>
		<path style="clip-path:url(#SVGID_4_);fill:none;stroke:#FFFFFF;stroke-miterlimit:10;" d="M10.496,17.27
			c0-1.787,1.448-3.234,3.234-3.234c1.787,0,3.235,1.447,3.235,3.234c0,1.786-1.448,3.234-3.235,3.234
			C11.944,20.504,10.496,19.056,10.496,17.27z"/>
		<path style="clip-path:url(#SVGID_4_);fill:none;stroke:#FFFFFF;stroke-width:2;stroke-linecap:round;stroke-miterlimit:10;" d="
			M24.861,28.838c-1.853,0.311-2.928,1.396-3.226,3.255"/>
		<path style="clip-path:url(#SVGID_4_);fill:none;stroke:#5FCEFF;stroke-width:2;stroke-linecap:round;stroke-miterlimit:10;" d="
			M10.632,36.82c-3.634,0.609-5.744,2.738-6.328,6.385"/>
		<path style="clip-path:url(#SVGID_4_);fill:#112330;" d="M1.982,51.192c0,3.117,98.14,3.117,98.14,0
			c-1.971,2.736-4.709,4.338-8.303,4.676C65.198,58.4,37.776,58.445,9.476,55.76C5.895,54.828,3.173,53.426,1.982,51.192"/>
		<path style="clip-path:url(#SVGID_4_);fill:none;stroke:#000000;stroke-width:2;stroke-linecap:round;stroke-miterlimit:10;" d="
			M37.084,75.762c9.271,7.438,18.585,7.375,27.937,0"/>
		<path style="clip-path:url(#SVGID_4_);fill:none;stroke:#000000;stroke-width:2;stroke-linecap:round;stroke-miterlimit:10;" d="
			M41.011,68.774c6.665,5.347,13.36,5.301,20.083,0"/>
		<path style="clip-path:url(#SVGID_4_);fill:none;stroke:#000000;stroke-width:2;stroke-linecap:round;stroke-miterlimit:10;" d="
			M44.068,61.439c4.636,3.72,9.292,3.688,13.969,0"/>
	</g>
</g>
</svg>
