<svg id="图层_1" data-name="图层 1" xmlns="http://www.w3.org/2000/svg" viewBox="0 0 95 111"><defs><style>.cls-1{fill:#3270a3;}.cls-2,.cls-3{fill:#fff;}.cls-3{stroke:#333;stroke-linejoin:round;stroke-width:0.5px;}.cls-4{fill:#333;}</style></defs><title>2D形象 码趣学园</title><path class="cls-1" d="M71.29,58.53c-5.17,5.48-17.6,6.64-33.08,6-8.88-1.62-14.64-4.37-16.84-8-2.28-5-3.16-11.07,1.7-21.55,4.2-7.65,9.31-14.38,19.15-16.41,4.2-4,5.89-8.37,5-13.06l5,12.84a27.16,27.16,0,0,1,12,6.89A30.13,30.13,0,0,1,72.77,38.7C75.86,46.47,75.56,53.14,71.29,58.53Z"/><path class="cls-2" d="M71,54.19c-1.82,3.23-7.7,5.51-25,5.16-5.19-.64-8.94-2.08-10.51-4.73-2.05-4-1.93-8.87,2.16-15.29A24,24,0,0,1,50.05,30c1.8-.49,4.22-.71,8.1.36,4.48.79,8.1,3.66,11.11,7.91C72.69,44.25,73.18,49.54,71,54.19Z"/><polygon class="cls-1" points="54.74 68.7 58.87 71.39 44.12 101.5 41.16 96.81 54.74 68.7"/><polygon class="cls-1" points="66.07 67.18 70.11 83.66 69.2 86.44 56.94 96.99 56.39 91.26 64.7 83.08 62.66 71.17 66.07 67.18"/><polygon class="cls-1" points="48.68 40.1 52.63 39.8 51.98 49.91 47.5 50.36 48.68 40.1"/><polygon class="cls-1" points="60.7 40.52 60.8 49.65 64.26 49.31 64.95 40.25 60.7 40.52"/><polygon class="cls-2" points="66.07 67.18 63.84 67.6 60.75 71.51 63.28 83.11 54.78 90.77 55.17 95.25 56.94 96.99 56.39 91.26 64.7 83.08 62.66 71.17 66.07 67.18"/><polygon class="cls-2" points="54.74 68.7 51.91 70.62 39.05 97.03 41.86 101.33 44.12 101.5 41.16 96.81 54.74 68.7"/><polygon class="cls-3" points="54.74 68.7 51.91 70.62 39.05 97.03 41.86 101.33 44.12 101.5 41.16 96.81 54.74 68.7"/><line class="cls-3" x1="41.16" y1="96.81" x2="39.05" y2="97.03"/><polygon class="cls-3" points="66.07 67.18 63.84 67.6 60.75 71.51 62.66 82.7 54.78 90.77 55.17 95.25 56.94 96.99 56.39 91.26 64.7 83.08 62.66 71.17 66.07 67.18"/><line class="cls-3" x1="62.66" y1="71.17" x2="60.75" y2="71.51"/><line class="cls-3" x1="64.7" y1="83.08" x2="62.66" y2="82.7"/><polygon class="cls-4" points="42.67 93.11 44.2 93.86 44.44 101.5 39.8 98.69 42.67 93.11"/><line class="cls-3" x1="56.39" y1="91.26" x2="54.78" y2="90.77"/><polygon class="cls-1" points="31.34 67.59 36.97 71.87 30.68 86.88 43.81 94.36 43.9 101.39 25.58 90.63 23.97 86.85 31.34 67.59"/><polygon class="cls-2" points="31.42 67.56 28.72 69.68 22.49 87.49 24.05 92.5 39.63 101.66 43.9 101.39 26.7 90.28 25.12 86.49 31.42 67.56"/><polygon class="cls-3" points="31.42 67.56 28.72 69.68 22.49 87.49 24.05 92.5 39.63 101.66 43.9 101.39 26.7 90.28 25.12 86.49 31.42 67.56"/><polygon class="cls-3" points="26.7 90.28 24.05 92.5 22.49 87.49 25.12 86.49 26.7 90.28"/></svg>