<svg id="图层_1" data-name="图层 1" xmlns="http://www.w3.org/2000/svg" viewBox="0 0 95 111"><defs><style>.cls-1{fill:#3270a3;}.cls-2,.cls-3{fill:#fff;}.cls-3{stroke:#333;stroke-linejoin:round;stroke-width:0.5px;}</style></defs><title>2D形象 码趣学园2</title><path class="cls-1" d="M71.29,58.53c-5.17,5.48-17.6,6.64-33.08,6-8.88-1.62-14.64-4.37-16.84-8-2.28-5-3.16-11.07,1.7-21.55,4.2-7.65,9.31-14.38,19.15-16.41,4.2-4,5.89-8.37,5-13.06l5,12.84a27.16,27.16,0,0,1,12,6.89A30.13,30.13,0,0,1,72.77,38.7C75.86,46.47,75.56,53.14,71.29,58.53Z"/><path class="cls-2" d="M71,54.19c-1.82,3.23-7.7,5.51-25,5.16-5.19-.64-8.94-2.08-10.51-4.73-2.05-4-1.93-8.87,2.16-15.29A24,24,0,0,1,50.05,30c1.8-.49,4.22-.71,8.1.36,4.48.79,8.1,3.66,11.11,7.91C72.69,44.25,73.18,49.54,71,54.19Z"/><polygon class="cls-1" points="54.74 68.7 58.87 71.39 44.12 101.5 41.16 96.81 54.74 68.7"/><polygon class="cls-1" points="66 67.17 74.22 82.24 73.97 85.16 64.02 98.29 62.04 92.84 68.53 82.95 63.48 71.85 66 67.17"/><polygon class="cls-1" points="48.68 40.1 52.63 39.8 51.98 49.91 47.5 50.36 48.68 40.1"/><polygon class="cls-1" points="60.7 40.52 60.8 49.65 64.26 49.31 64.95 40.25 60.7 40.52"/><polygon class="cls-1" points="31.96 67.33 35.8 73.28 24.76 85.24 34.55 96.75 32.24 103.39 18.69 87.02 18.47 82.93 31.96 67.33"/><polygon class="cls-2" points="32.05 67.33 28.79 68.41 16.86 83.02 16.62 88.27 28.14 102.19 32.24 103.39 19.86 87.08 19.67 82.98 32.05 67.33"/><polygon class="cls-2" points="66 67.17 63.81 68.1 61.62 72.62 67.08 83.3 60.27 92.75 61.78 97.02 64.02 98.29 62.04 92.84 68.53 82.95 63.48 71.85 66 67.17"/><polygon class="cls-2" points="54.74 68.7 51.91 70.62 39.05 97.03 41.86 101.33 44.12 101.5 41.16 96.81 54.74 68.7"/><polygon class="cls-3" points="54.74 68.7 51.91 70.62 39.05 97.03 41.86 101.33 44.12 101.5 41.16 96.81 54.74 68.7"/><line class="cls-3" x1="41.16" y1="96.81" x2="39.05" y2="97.03"/><polygon class="cls-3" points="32.05 67.33 28.79 68.41 16.86 83.02 16.62 88.27 28.14 102.19 32.24 103.39 19.86 87.08 19.67 82.98 32.05 67.33"/><polygon class="cls-3" points="19.86 87.08 16.62 88.27 16.86 83.02 19.67 82.98 19.86 87.08"/><polygon class="cls-3" points="66 67.17 63.81 68.1 61.62 72.62 66.34 83.06 60.27 92.75 61.78 97.02 64.02 98.29 62.04 92.84 68.53 82.95 63.48 71.85 66 67.17"/><line class="cls-3" x1="63.48" y1="71.85" x2="61.62" y2="72.62"/><line class="cls-3" x1="68.53" y1="82.95" x2="66.35" y2="83.06"/><line class="cls-3" x1="62.04" y1="92.84" x2="60.27" y2="92.75"/></svg>