<?xml version="1.0" encoding="iso-8859-1"?>
<!-- Generator: Adobe Illustrator 22.0.1, SVG Export Plug-In . SVG Version: 6.00 Build 0)  -->
<svg version="1.1" id="&#x56FE;&#x5C42;_1" xmlns="http://www.w3.org/2000/svg" xmlns:xlink="http://www.w3.org/1999/xlink" x="0px"
	 y="0px" viewBox="0 0 9.423 10.327" style="enable-background:new 0 0 9.423 10.327;" xml:space="preserve">
<g>
	<defs>
		<rect id="SVGID_1_" y="0" width="9.423" height="10.327"/>
	</defs>
	<clipPath id="SVGID_2_">
		<use xlink:href="#SVGID_1_"  style="overflow:visible;"/>
	</clipPath>
	<path style="clip-path:url(#SVGID_2_);" d="M3.547,3.341c1.676-0.495,2.876,0.705,2.676,2.305c-0.199,1.2-1.199,1.799-2.199,1.799
		c-1.601,0-3.201-1.199-3.401-3c-0.2,1.801,1.401,3.201,3,3.401c1.401,0,3-0.8,3.2-2.401c-0.799,0.201-0.4,1.401-1.2,1.801
		c0.8-0.6,1-1.4,0.8-2.4c-0.2-1.6-2.8-2.401-3.643-0.599L3.547,3.341z"/>
	<path style="clip-path:url(#SVGID_2_);fill:#336699;" d="M6.849,4.718c0.174,0.528-0.026,1.128-0.426,1.728c0.8-1,0.4-2.6-0.4-3.4
		c-1.2-1-2.4-0.6-3.4,0.4c-0.8,1-0.2,2.6,1.2,2.8c0.6,0,1.2-0.6,1.6-1c-0.8,0.2-2.2,0.6-2.6-0.4c-0.2-0.6,0-1.2,0.4-1.6
		c0.8-1,2.4-0.4,3.012,0.409C6.683,4.265,6.849,4.718,6.849,4.718"/>
	<path style="clip-path:url(#SVGID_2_);" d="M1.879,4.223c0.145,0.623,0.345,1.223,0.745,1.823c-1.2-1.6-0.4-3.8,1.4-4.4
		c1.4-0.4,2.8,0.2,3.4,1.6c0.4,0.8,0.8,2,0,2.8c0.2-1.4-0.4-3-1.8-3.8c-1.4-0.6-2.8,0.2-3.462,1.414
		C1.961,3.995,1.879,4.223,1.879,4.223"/>
	<path style="clip-path:url(#SVGID_2_);" d="M3.731,5.635c0.292-0.389,0.492-0.989,1.092-0.789c0.4,0.4,0.4,1,0,1.4
		c-0.8,0.4-2,0.2-2.6-0.4c-1.4-1.4-0.2-3.6,1.4-4.2c2.4-0.6,4.8,1,4.6,3.4c0,2.8-3.2,5-6,4c2.8,1.4,6-0.8,6.4-3.6
		c0.4-3-2.6-5.6-5.4-4.6c-1.4,0.6-2.2,2-2.4,3.4c-0.4,2.4,2.2,3.6,4.2,3.2c1.2-0.4,1.8-1.8,1.2-3s-2.4-1.4-3.221-0.314
		C2.949,4.764,3.214,5.327,3.731,5.635"/>
	<path style="clip-path:url(#SVGID_2_);fill:#303030;" d="M2.681,9.192c1.542,0.253,3.343,0.054,4.542-1.346
		c1.4-1.6,1.4-3.8,0.201-5.401c-1.201-1.199-3-1.599-4.4-0.399c-1,1-1.801,3-0.6,4.2c-1.201-1.6-0.201-3.801,1.4-4.4
		c1.2-0.2,2.2,0,3.2,0.8V2.445c1,1,1.4,2.201,1.199,3.601c-0.399,2-2.6,3.399-4.691,3.206C2.985,9.239,2.681,9.192,2.681,9.192"/>
	<path style="clip-path:url(#SVGID_2_);fill:#303030;" d="M1.877,4.231C1.823,4.246,1.823,4.445,1.823,4.445
		c0.6-1.599,2.2-3,3.8-2.4c1.4,0.601,2.4,2.4,1.8,4c0.2-1.399-0.4-3-1.8-3.799c-1.4-0.6-2.8,0.199-3.465,1.422
		C1.959,4.004,1.877,4.231,1.877,4.231"/>
	<path style="clip-path:url(#SVGID_2_);fill:#303030;" d="M2.226,5.94C1.024,4.045,3.024,2.045,4.824,2.045c2.6,0.2,3.4,4,1.4,5.6
		c-1.601,1.4-3.8,1-5.2-0.4c-2-2.4-1-6.4,2.4-7c2.6-0.4,5.6,1.2,6,4c-0.2-1.2-0.801-2.2-1.801-3c-2.199-1.4-5.599-1.2-6.799,1.2
		c0.6-1.6,2.4-2.2,3.799-2c2.601,0,4.801,2.2,4.801,4.8c-0.2,3.6-4.2,6.2-7.6,4.6c2.799,1,6.2,0,7.2-3c0.8-2.2-0.2-4.4-2-5.8
		c-1.6-1-3.6-1-5.2,0.2c-1,1-1.4,2.2-1.201,3.6c0.401,1.8,1.801,3,3.601,2.8c1.399-0.2,2.8-1.8,2-3.2c-0.601-1-1.601-1.2-2.601-1
		c-0.399,0.2-0.599,0.8-0.599,1.2c0.599,0.6,2-1,2.2,0.6c0,0.8-0.601,1-1.253,1.184C3.476,6.475,2.874,6.336,2.226,5.94"/>
	<path style="clip-path:url(#SVGID_2_);fill:#424242;" d="M4.635,6.519C3.623,7.045,2.623,5.845,2.223,5.045c-0.2-1,0-2.4,1.2-2.8
		c1.8-0.6,3.6,0.6,4,2.2c0.2,1-0.4,2-1,2.8c-1,1.2-2.8,1.6-4.2,0.8c-1.6-1-2.2-2.6-2.2-4.2c0-2.4,2.6-3.8,4.8-3.6
		c2.2,0.2,4.2,1.6,4.6,4c-0.6-2.8-3.8-5-6.6-4c-3.2,1.4-4,6.6-0.4,8c1.8,0.8,4.2-0.6,4.8-2.6c0.4-2-1.2-4-3.2-3.6
		c-2,0.4-2.8,2.4-1.78,3.916L4.635,6.519z"/>
	<path style="clip-path:url(#SVGID_2_);fill:#FFFFFF;" d="M2.844,6.149c0.779,0.096,1.779,0.096,2.379-0.504c-1,1-2.6,0.2-2.6-1
		c0-2.2,2.8-2.4,3.8-0.6c0.6,1.2,0.2,2.6-0.8,3.2c-1,0.8-2.2,0.8-3.4,0.4c1,0.2,2.2,0.4,3.2,0c1.8-1.2,1.4-3.6,0.2-5.2
		c0.8,1.4,1.6,3.2,0.4,4.6c1.4-1,1-3,0.2-4c-1.2-1.2-3-0.6-3.8,0.6c-0.2,0.4,0.4,1,0.213,1.33C2.77,5.603,2.844,6.149,2.844,6.149"
		/>
</g>
</svg>
