<?xml version="1.0" encoding="iso-8859-1"?>
<!-- Generator: Adobe Illustrator 22.0.1, SVG Export Plug-In . SVG Version: 6.00 Build 0)  -->
<svg version="1.1" id="&#x56FE;&#x5C42;_1" xmlns="http://www.w3.org/2000/svg" xmlns:xlink="http://www.w3.org/1999/xlink" x="0px"
	 y="0px" viewBox="0 0 29.4 30.252" style="enable-background:new 0 0 29.4 30.252;" xml:space="preserve">
<g>
	<defs>
		<rect id="SVGID_1_" y="0" width="29.4" height="30.252"/>
	</defs>
	<clipPath id="SVGID_2_">
		<use xlink:href="#SVGID_1_"  style="overflow:visible;"/>
	</clipPath>
	<path style="clip-path:url(#SVGID_2_);" d="M17.858,18.042c-0.458,1.29-1.658,3.09-2.858,3.69c-4.2,1.8-9.6,0-11.4-4.2
		c2.4,3.6,6.6,6.6,10.8,6c-1.8,0-2.4,2.4-4.8,0c5.4,1.2,10.8-4.2,7.847-9.556L17.858,18.042z"/>
	<path style="clip-path:url(#SVGID_2_);fill:#336699;" d="M18.836,20.847c2.764-2.714,1.564-6.915-1.436-8.714
		c-3.6-1.201-6,2.4-6.6,5.4c0.6-3,2.4-6.601,6-5.4c1.2,0.6,1.8,1.799,2.342,2.644C19.75,18.189,18.836,20.847,18.836,20.847"/>
	<path style="clip-path:url(#SVGID_2_);" d="M11.852,9.208C10.8,9.732,10.2,10.332,9.6,11.532c4.2-4.2,12-1.2,12,4.2
		c0.6-2.4-1.8-3.6-1.8-6c3.599,3,6,8.4,2.4,12.6c1.199-4.2,1.199-10.2-3.315-12.447C14.912,8.678,11.852,9.208,11.852,9.208"/>
	<path style="clip-path:url(#SVGID_2_);" d="M15.43,13.576c-1.03,0.957-1.629,3.356-3.43,3.957c-3,0-3.6-3-3-4.8
		c0-2.401,2.4-4.801,5.4-5.401c4.801-0.599,7.801,2.401,9.6,6c0-3-2.4-4.199-4.199-5.4c3,2.4,5.4,5.4,5.4,9
		c0,6.601-6.601,13.801-13.801,13.201c7.2,0.6,13.2-4.201,15-10.801c1.801-7.199-3.599-15-11.4-15.599c-6.6-0.6-12,6-10.199,12.599
		c1.199,3.6,4.799,5.401,8.4,4.801c3-0.6,4.199-2.4,4.199-5.4c0,0,0.6,0.599,0.32,0.826C17.331,15.181,16.504,14.123,15.43,13.576"
		/>
	<path style="clip-path:url(#SVGID_2_);fill:#303030;" d="M11.913,30.252c4.887-0.72,9.687-3.12,12.086-7.32
		c1.201-3,1.801-6.6,0-10.2c-3-4.8-10.799-7.8-14.399-2.4c6.6-6,16.2,1.8,15.6,9.6c0-1.8,0-4.2-0.6-6c2.399,6-2.4,11.4-7.237,14.868
		C14.233,29.928,11.913,30.252,11.913,30.252"/>
	<path style="clip-path:url(#SVGID_2_);fill:#303030;" d="M11.838,9.212C12,9.132,11.4,9.733,11.4,9.733c3.6-1.801,8.4,0,10.2,3.599
		c1.8,3.6,1.2,8.401-1.2,12c0.6-1.8,3-2.4,2.4-4.8c0,0.6-0.6,0.6-0.6,1.201c0-4.201,0.6-9-3.529-11.812
		C14.9,8.679,11.838,9.212,11.838,9.212"/>
	<path style="clip-path:url(#SVGID_2_);fill:#303030;" d="M9.255,10.383C12.6,9.133,16.8,8.532,19.8,11.532c2.4,3,2.4,7.8,0,10.8
		c-3,3-7.2,4.801-11.4,3.6c-4.2-1.199-6.6-4.199-7.8-8.4c-1.8-8.399,3.6-16.2,12-17.399c8.4-1.201,13.2,6,16.8,12
		c-3-5.4-7.8-9.601-13.8-10.201c-5.4-0.6-10.2,2.4-12,7.201c-1.8,4.199-0.6,10.199,3.6,12.6c4.2,2.4,11.4-0.6,9-5.401
		c-1.2-3-4.8,2.401-7.024-0.375C8.54,14.524,8.466,12.595,9.255,10.383"/>
	<path style="clip-path:url(#SVGID_2_);fill:#424242;" d="M8.182,15.144c0.817-4.812,6.817-6.611,10.417-4.812
		c4.201,3,4.201,9,1.201,12.601c-2.401,2.399-6,4.2-9.6,3.6c-10.801-1.8-12.601-15.6-6-22.8c-2.4,3-4.201,6-4.201,9.599
		c0.6,7.201,6.6,15.601,15,13.201c6-1.8,9.6-9,5.4-14.4c-3-3.6-7.8-3.6-11.175-1.709L8.182,15.144z"/>
	<path style="clip-path:url(#SVGID_2_);fill:#FFFFFF;" d="M9.472,12.821c0.127,0.511,0.127,1.711,0.127,2.312
		c3.601-3.601,11.4-3.601,9.601,3.6c-1.201,2.4-3,6-6.601,4.799c3.601,0.601,6-2.399,7.201-5.399v-4.801c1.199,4.2-0.6,9-3.6,11.401
		c1.199-1.201,2.399-1.801,3.6-3c2.4-4.801-0.6-10.201-5.413-11.418L9.472,12.821z"/>
</g>
</svg>
