<?xml version="1.0" encoding="iso-8859-1"?>
<!-- Generator: Adobe Illustrator 22.0.1, SVG Export Plug-In . SVG Version: 6.00 Build 0)  -->
<svg version="1.1" id="&#x56FE;&#x5C42;_1" xmlns="http://www.w3.org/2000/svg" xmlns:xlink="http://www.w3.org/1999/xlink" x="0px"
	 y="0px" viewBox="0 0 33.743 50.732" style="enable-background:new 0 0 33.743 50.732;" xml:space="preserve">
<polygon points="25.565,11.638 30.515,16.123 25.475,21.173 27.044,23.792 33.587,16.944 33.391,15.29 28.277,10.533 26.529,8.907 
	"/>
<polygon style="fill:#336699;" points="22.95,10.862 21.309,8.875 14.391,22.3 16.588,23.392 "/>
<polygon points="0.612,24.89 0.02,26.221 1.903,34.731 4.27,32.941 3.371,26.818 8.717,23.461 7.896,20.927 "/>
<g>
	<defs>
		<rect id="SVGID_1_" y="0" width="33.743" height="50.732"/>
	</defs>
	<clipPath id="SVGID_2_">
		<use xlink:href="#SVGID_1_"  style="overflow:visible;"/>
	</clipPath>
	<path style="clip-path:url(#SVGID_2_);" d="M22.89,24.443c-7.287-0.268-13.135,0.19-15.574,2.369
		c-2.005,2.139-2.149,4.79-0.696,7.881c0.798,2.017,2.043,3.846,4.06,5.349c1.74,1.354,3.6,2.323,5.635,2.737l2.288,4.941
		c0.067,0.257,0.109,0.345,0.077,0.166c-0.135-0.753-0.132-1.423,0.029-2.058c0.181-0.655,0.528-1.29,1.04-1.908
		c0.34-0.401,0.756-0.805,1.26-1.227c4.636-0.806,7.041-3.483,9.015-6.521c1.504-2.498,2.556-5.896,0.879-8.409
		c-0.026-0.051-0.05-0.103-0.077-0.153c-0.143-0.195-0.317-0.389-0.515-0.58c-0.984-1.012-2.53-1.822-4.836-2.278
		c0.076,0.03,0.144,0.068,0.217,0.101C24.857,24.667,23.93,24.523,22.89,24.443"/>
	<path style="clip-path:url(#SVGID_2_);fill:#303030;" d="M18.72,47.945c-0.993-2.409-1.745-4.545-1.554-5.626
		C8.809,39.925,2.62,29.549,8.633,25.946c-6.391,3.112-1.838,14.76,7.714,16.875L18.72,47.945z"/>
	<polygon style="clip-path:url(#SVGID_2_);fill:#303030;" points="7.892,20.95 8.137,21.703 0.895,25.297 0.321,26.322 
		1.898,34.761 0,26.241 0.592,24.909 	"/>
	<path style="clip-path:url(#SVGID_2_);fill:#303030;" d="M28.457,25.749l5.287-22.68c-8.381,5.109-19.449-7.7-30.787-1.167
		l5.56,24.117C14.353,24.17,20.942,23.876,28.457,25.749"/>
	<polygon style="clip-path:url(#SVGID_2_);fill:#424242;" points="10.652,25.41 2.956,1.902 8.555,26.019 	"/>
	<polygon style="clip-path:url(#SVGID_2_);fill:#FFFFFF;" points="11.57,19.189 13.957,21.576 18.705,16.828 23.454,21.576 
		25.841,19.189 21.092,14.44 25.841,9.692 23.454,7.305 18.705,12.053 13.957,7.305 11.57,9.692 16.319,14.44 	"/>
	<path style="clip-path:url(#SVGID_2_);fill:#FF0000;" d="M26.476,50.732c3.139-3.02,3.264-8.861,1.64-12.003l-3.586,2.824
		C26.423,42.763,27.049,47.817,26.476,50.732"/>
	<path style="clip-path:url(#SVGID_2_);fill:#FF1717;" d="M9.012,38.557c-1.053,2.936-0.157,8.731,2.12,11.957
		c-0.367-2.772-0.29-7.827,1.466-9.132C11.198,40.615,10.026,39.646,9.012,38.557"/>
</g>
</svg>
