<?xml version="1.0" encoding="iso-8859-1"?>
<!-- Generator: Adobe Illustrator 22.0.1, SVG Export Plug-In . SVG Version: 6.00 Build 0)  -->
<svg version="1.1" id="&#x56FE;&#x5C42;_1" xmlns="http://www.w3.org/2000/svg" xmlns:xlink="http://www.w3.org/1999/xlink" x="0px"
	 y="0px" viewBox="0 0 33.587 50.232" style="enable-background:new 0 0 33.587 50.232;" xml:space="preserve">
<polygon points="25.565,11.138 30.515,15.623 25.475,20.673 27.044,23.292 33.587,16.444 33.391,14.79 28.277,10.033 26.529,8.407 
	"/>
<polygon style="fill:#336699;" points="22.95,10.362 21.309,8.375 14.391,21.8 16.588,22.892 "/>
<polygon points="0.612,24.39 0.02,25.721 1.903,34.231 4.27,32.441 3.371,26.318 8.717,22.962 7.896,20.427 "/>
<g>
	<defs>
		<rect id="SVGID_1_" y="0" width="33.587" height="50.232"/>
	</defs>
	<clipPath id="SVGID_2_">
		<use xlink:href="#SVGID_1_"  style="overflow:visible;"/>
	</clipPath>
	<path style="clip-path:url(#SVGID_2_);" d="M22.89,23.943c-7.287-0.268-13.135,0.19-15.574,2.369
		c-2.005,2.139-2.149,4.79-0.696,7.881c0.798,2.017,2.043,3.846,4.06,5.349c1.74,1.354,3.6,2.323,5.635,2.737l2.288,4.941
		c0.067,0.257,0.109,0.345,0.077,0.166c-0.135-0.753-0.132-1.423,0.029-2.058c0.181-0.655,0.528-1.29,1.04-1.908
		c0.34-0.401,0.756-0.805,1.26-1.227c4.636-0.806,7.041-3.483,9.015-6.521c1.504-2.498,2.555-5.896,0.879-8.409
		c-0.026-0.051-0.051-0.103-0.077-0.153c-0.143-0.195-0.317-0.389-0.515-0.58c-0.984-1.012-2.53-1.821-4.836-2.278
		c0.076,0.03,0.144,0.068,0.217,0.101C24.857,24.167,23.93,24.023,22.89,23.943"/>
	<path style="clip-path:url(#SVGID_2_);fill:#303030;" d="M18.72,47.445c-0.993-2.409-1.745-4.545-1.554-5.626
		C8.809,39.425,2.62,29.049,8.633,25.446c-6.391,3.112-1.838,14.76,7.714,16.875L18.72,47.445z"/>
	<polygon style="clip-path:url(#SVGID_2_);fill:#303030;" points="7.892,20.45 8.138,21.203 0.896,24.797 0.322,25.822 
		1.899,34.261 0,25.741 0.593,24.409 	"/>
	<path style="clip-path:url(#SVGID_2_);fill:#303030;" d="M8.087,25.749L2.8,3.069c8.381,5.109,19.448-7.7,30.787-1.167
		l-5.44,23.169C22.311,23.222,15.602,23.876,8.087,25.749"/>
	<polygon style="clip-path:url(#SVGID_2_);fill:#424242;" points="10.272,25.235 2.801,3.068 8.108,25.749 	"/>
	<polygon style="clip-path:url(#SVGID_2_);fill:#FFFFFF;" points="11.57,18.689 13.957,21.076 18.705,16.328 23.454,21.076 
		25.841,18.689 21.092,13.94 25.841,9.192 23.454,6.805 18.705,11.553 13.957,6.805 11.57,9.192 16.319,13.94 	"/>
	<path style="clip-path:url(#SVGID_2_);fill:#FF0000;" d="M26.476,50.232c3.139-3.02,3.264-8.861,1.64-12.003l-3.586,2.824
		C26.423,42.263,27.049,47.317,26.476,50.232"/>
	<path style="clip-path:url(#SVGID_2_);fill:#FF1717;" d="M9.012,38.057c-1.053,2.936-0.157,8.731,2.12,11.957
		c-0.367-2.772-0.29-7.827,1.466-9.132C11.198,40.115,10.026,39.146,9.012,38.057"/>
</g>
</svg>
