<?xml version="1.0" encoding="iso-8859-1"?>
<!-- Generator: Adobe Illustrator 22.0.1, SVG Export Plug-In . SVG Version: 6.00 Build 0)  -->
<svg version="1.1" id="&#x56FE;&#x5C42;_1" xmlns="http://www.w3.org/2000/svg" xmlns:xlink="http://www.w3.org/1999/xlink" x="0px"
	 y="0px" viewBox="0 0 476 100" style="enable-background:new 0 0 476 100;" xml:space="preserve">
<g>
	<defs>
		<rect id="SVGID_1_" width="476" height="100"/>
	</defs>
	<clipPath id="SVGID_2_">
		<use xlink:href="#SVGID_1_"  style="overflow:visible;"/>
	</clipPath>
	<g style="clip-path:url(#SVGID_2_);">
		<defs>
			<rect id="SVGID_3_" width="476" height="100"/>
		</defs>
		<clipPath id="SVGID_4_">
			<use xlink:href="#SVGID_3_"  style="overflow:visible;"/>
		</clipPath>
		<g style="clip-path:url(#SVGID_4_);">
			<g>
				<defs>
					<rect id="SVGID_5_" width="476" height="100"/>
				</defs>
				<clipPath id="SVGID_6_">
					<use xlink:href="#SVGID_5_"  style="overflow:visible;"/>
				</clipPath>
				<g style="clip-path:url(#SVGID_6_);">
					<g>
						<defs>
							<rect id="SVGID_7_" width="33" height="100"/>
						</defs>
						<clipPath id="SVGID_8_">
							<use xlink:href="#SVGID_7_"  style="overflow:visible;"/>
						</clipPath>
						<g style="opacity:0.75;clip-path:url(#SVGID_8_);">
							<g>
								<defs>
									<rect id="SVGID_9_" width="33" height="100"/>
								</defs>
								<clipPath id="SVGID_10_">
									<use xlink:href="#SVGID_9_"  style="overflow:visible;"/>
								</clipPath>
								<g style="clip-path:url(#SVGID_10_);">
									<defs>
										<rect id="SVGID_11_" width="33" height="100"/>
									</defs>
									<clipPath id="SVGID_12_">
										<use xlink:href="#SVGID_11_"  style="overflow:visible;"/>
									</clipPath>
									<image style="overflow:visible;clip-path:url(#SVGID_12_);" width="33" height="100" xlink:href="E0D57480.png" >
									</image>
								</g>
							</g>
						</g>
						<path style="clip-path:url(#SVGID_8_);fill:#FFFFFF;" d="M16.709,86.395L16.709,86.395c-1.381,0-2.5-1.119-2.5-2.5V16.661
							c0-1.381,1.119-2.5,2.5-2.5c1.38,0,2.5,1.119,2.5,2.5v67.233C19.209,85.275,18.089,86.395,16.709,86.395"/>
						<path style="clip-path:url(#SVGID_8_);fill:none;stroke:#B9E4EF;stroke-width:3;stroke-miterlimit:10;" d="M16.709,86.395
							L16.709,86.395c-1.381,0-2.5-1.119-2.5-2.5V16.661c0-1.381,1.119-2.5,2.5-2.5c1.38,0,2.5,1.119,2.5,2.5v67.233
							C19.209,85.275,18.089,86.395,16.709,86.395z"/>
					</g>
				</g>
				<g style="clip-path:url(#SVGID_6_);">
					<g>
						<defs>
							<rect id="SVGID_13_" x="21" width="33" height="100"/>
						</defs>
						<clipPath id="SVGID_14_">
							<use xlink:href="#SVGID_13_"  style="overflow:visible;"/>
						</clipPath>
						<g style="opacity:0.75;clip-path:url(#SVGID_14_);">
							<g>
								<defs>
									<rect id="SVGID_15_" x="21" width="33" height="100"/>
								</defs>
								<clipPath id="SVGID_16_">
									<use xlink:href="#SVGID_15_"  style="overflow:visible;"/>
								</clipPath>
								<g style="clip-path:url(#SVGID_16_);">
									<defs>
										<rect id="SVGID_17_" x="21" width="33" height="100"/>
									</defs>
									<clipPath id="SVGID_18_">
										<use xlink:href="#SVGID_17_"  style="overflow:visible;"/>
									</clipPath>
									<g style="clip-path:url(#SVGID_18_);">
										<image style="overflow:visible;" width="33" height="100" xlink:href="E0D57481.png"  transform="matrix(1 0 0 1 21 0)">
										</image>
									</g>
								</g>
							</g>
						</g>
						<path style="clip-path:url(#SVGID_14_);fill:#FFFFFF;" d="M37.774,86.395L37.774,86.395c-1.381,0-2.5-1.119-2.5-2.5V16.661
							c0-1.381,1.119-2.5,2.5-2.5c1.381,0,2.5,1.119,2.5,2.5v67.233C40.274,85.275,39.155,86.395,37.774,86.395"/>
						<path style="clip-path:url(#SVGID_14_);fill:none;stroke:#B9E4EF;stroke-width:3;stroke-miterlimit:10;" d="M37.774,86.395
							L37.774,86.395c-1.381,0-2.5-1.119-2.5-2.5V16.661c0-1.381,1.119-2.5,2.5-2.5c1.381,0,2.5,1.119,2.5,2.5v67.233
							C40.274,85.275,39.155,86.395,37.774,86.395z"/>
					</g>
				</g>
				<g style="clip-path:url(#SVGID_6_);">
					<g>
						<defs>
							<rect id="SVGID_19_" x="42" width="33" height="100"/>
						</defs>
						<clipPath id="SVGID_20_">
							<use xlink:href="#SVGID_19_"  style="overflow:visible;"/>
						</clipPath>
						<g style="opacity:0.75;clip-path:url(#SVGID_20_);">
							<g>
								<defs>
									<rect id="SVGID_21_" x="42" width="33" height="100"/>
								</defs>
								<clipPath id="SVGID_22_">
									<use xlink:href="#SVGID_21_"  style="overflow:visible;"/>
								</clipPath>
								<g style="clip-path:url(#SVGID_22_);">
									<defs>
										<rect id="SVGID_23_" x="42" width="33" height="100"/>
									</defs>
									<clipPath id="SVGID_24_">
										<use xlink:href="#SVGID_23_"  style="overflow:visible;"/>
									</clipPath>
									<g style="clip-path:url(#SVGID_24_);">
										<image style="overflow:visible;" width="33" height="100" xlink:href="E0D57487.png"  transform="matrix(1 0 0 1 42 0)">
										</image>
									</g>
								</g>
							</g>
						</g>
						<path style="clip-path:url(#SVGID_20_);fill:#FFFFFF;" d="M58.839,86.395L58.839,86.395c-1.38,0-2.5-1.119-2.5-2.5V16.661
							c0-1.381,1.12-2.5,2.5-2.5c1.381,0,2.5,1.119,2.5,2.5v67.233C61.339,85.275,60.22,86.395,58.839,86.395"/>
						<path style="clip-path:url(#SVGID_20_);fill:none;stroke:#B9E4EF;stroke-width:3;stroke-miterlimit:10;" d="M58.839,86.395
							L58.839,86.395c-1.38,0-2.5-1.119-2.5-2.5V16.661c0-1.381,1.12-2.5,2.5-2.5c1.381,0,2.5,1.119,2.5,2.5v67.233
							C61.339,85.275,60.22,86.395,58.839,86.395z"/>
					</g>
				</g>
				<g style="clip-path:url(#SVGID_6_);">
					<g>
						<defs>
							<rect id="SVGID_25_" x="63" width="33" height="100"/>
						</defs>
						<clipPath id="SVGID_26_">
							<use xlink:href="#SVGID_25_"  style="overflow:visible;"/>
						</clipPath>
						<g style="opacity:0.75;clip-path:url(#SVGID_26_);">
							<g>
								<defs>
									<rect id="SVGID_27_" x="63" width="33" height="100"/>
								</defs>
								<clipPath id="SVGID_28_">
									<use xlink:href="#SVGID_27_"  style="overflow:visible;"/>
								</clipPath>
								<g style="clip-path:url(#SVGID_28_);">
									<defs>
										<rect id="SVGID_29_" x="63" width="33" height="100"/>
									</defs>
									<clipPath id="SVGID_30_">
										<use xlink:href="#SVGID_29_"  style="overflow:visible;"/>
									</clipPath>
									<g style="clip-path:url(#SVGID_30_);">
										<image style="overflow:visible;" width="33" height="100" xlink:href="E0D57482.png"  transform="matrix(1 0 0 1 63 0)">
										</image>
									</g>
								</g>
							</g>
						</g>
						<path style="clip-path:url(#SVGID_26_);fill:#FFFFFF;" d="M79.905,86.395L79.905,86.395c-1.381,0-2.5-1.119-2.5-2.5V16.661
							c0-1.381,1.119-2.5,2.5-2.5c1.381,0,2.5,1.119,2.5,2.5v67.233C82.405,85.275,81.286,86.395,79.905,86.395"/>
						<path style="clip-path:url(#SVGID_26_);fill:none;stroke:#B9E4EF;stroke-width:3;stroke-miterlimit:10;" d="M79.905,86.395
							L79.905,86.395c-1.381,0-2.5-1.119-2.5-2.5V16.661c0-1.381,1.119-2.5,2.5-2.5c1.381,0,2.5,1.119,2.5,2.5v67.233
							C82.405,85.275,81.286,86.395,79.905,86.395z"/>
					</g>
				</g>
				<g style="clip-path:url(#SVGID_6_);">
					<g>
						<defs>
							<rect id="SVGID_31_" x="84" width="33" height="100"/>
						</defs>
						<clipPath id="SVGID_32_">
							<use xlink:href="#SVGID_31_"  style="overflow:visible;"/>
						</clipPath>
						<g style="opacity:0.75;clip-path:url(#SVGID_32_);">
							<g>
								<defs>
									<rect id="SVGID_33_" x="84" width="33" height="100"/>
								</defs>
								<clipPath id="SVGID_34_">
									<use xlink:href="#SVGID_33_"  style="overflow:visible;"/>
								</clipPath>
								<g style="clip-path:url(#SVGID_34_);">
									<defs>
										<rect id="SVGID_35_" x="84" width="33" height="100"/>
									</defs>
									<clipPath id="SVGID_36_">
										<use xlink:href="#SVGID_35_"  style="overflow:visible;"/>
									</clipPath>
									<g style="clip-path:url(#SVGID_36_);">
										<image style="overflow:visible;" width="33" height="100" xlink:href="E0D57483.png"  transform="matrix(1 0 0 1 84 0)">
										</image>
									</g>
								</g>
							</g>
						</g>
						<path style="clip-path:url(#SVGID_32_);fill:#FFFFFF;" d="M100.97,86.395L100.97,86.395c-1.38,0-2.5-1.119-2.5-2.5V16.661
							c0-1.381,1.12-2.5,2.5-2.5c1.381,0,2.5,1.119,2.5,2.5v67.233C103.47,85.275,102.351,86.395,100.97,86.395"/>
						<path style="clip-path:url(#SVGID_32_);fill:none;stroke:#B9E4EF;stroke-width:3;stroke-miterlimit:10;" d="M100.97,86.395
							L100.97,86.395c-1.38,0-2.5-1.119-2.5-2.5V16.661c0-1.381,1.12-2.5,2.5-2.5c1.381,0,2.5,1.119,2.5,2.5v67.233
							C103.47,85.275,102.351,86.395,100.97,86.395z"/>
					</g>
				</g>
				<g style="clip-path:url(#SVGID_6_);">
					<g>
						<defs>
							<rect id="SVGID_37_" x="106" width="33" height="100"/>
						</defs>
						<clipPath id="SVGID_38_">
							<use xlink:href="#SVGID_37_"  style="overflow:visible;"/>
						</clipPath>
						<g style="opacity:0.75;clip-path:url(#SVGID_38_);">
							<g>
								<defs>
									<rect id="SVGID_39_" x="106" width="33" height="100"/>
								</defs>
								<clipPath id="SVGID_40_">
									<use xlink:href="#SVGID_39_"  style="overflow:visible;"/>
								</clipPath>
								<g style="clip-path:url(#SVGID_40_);">
									<defs>
										<rect id="SVGID_41_" x="106" width="33" height="100"/>
									</defs>
									<clipPath id="SVGID_42_">
										<use xlink:href="#SVGID_41_"  style="overflow:visible;"/>
									</clipPath>
									<g style="clip-path:url(#SVGID_42_);">
										<image style="overflow:visible;" width="33" height="100" xlink:href="E0D5748E.png"  transform="matrix(1 0 0 1 106 0)">
										</image>
									</g>
								</g>
							</g>
						</g>
						<path style="clip-path:url(#SVGID_38_);fill:#FFFFFF;" d="M122.035,86.395L122.035,86.395c-1.381,0-2.5-1.119-2.5-2.5V16.661
							c0-1.381,1.119-2.5,2.5-2.5c1.38,0,2.5,1.119,2.5,2.5v67.233C124.535,85.275,123.415,86.395,122.035,86.395"/>
						<path style="clip-path:url(#SVGID_38_);fill:none;stroke:#B9E4EF;stroke-width:3;stroke-miterlimit:10;" d="M122.035,86.395
							L122.035,86.395c-1.381,0-2.5-1.119-2.5-2.5V16.661c0-1.381,1.119-2.5,2.5-2.5c1.38,0,2.5,1.119,2.5,2.5v67.233
							C124.535,85.275,123.415,86.395,122.035,86.395z"/>
					</g>
				</g>
				<g style="clip-path:url(#SVGID_6_);">
					<g>
						<defs>
							<rect id="SVGID_43_" x="127" width="33" height="100"/>
						</defs>
						<clipPath id="SVGID_44_">
							<use xlink:href="#SVGID_43_"  style="overflow:visible;"/>
						</clipPath>
						<g style="opacity:0.75;clip-path:url(#SVGID_44_);">
							<g>
								<defs>
									<rect id="SVGID_45_" x="127" width="33" height="100"/>
								</defs>
								<clipPath id="SVGID_46_">
									<use xlink:href="#SVGID_45_"  style="overflow:visible;"/>
								</clipPath>
								<g style="clip-path:url(#SVGID_46_);">
									<defs>
										<rect id="SVGID_47_" x="127" width="33" height="100"/>
									</defs>
									<clipPath id="SVGID_48_">
										<use xlink:href="#SVGID_47_"  style="overflow:visible;"/>
									</clipPath>
									<g style="clip-path:url(#SVGID_48_);">
										<image style="overflow:visible;" width="33" height="100" xlink:href="E0D5748F.png"  transform="matrix(1 0 0 1 127 0)">
										</image>
									</g>
								</g>
							</g>
						</g>
						<path style="clip-path:url(#SVGID_44_);fill:#FFFFFF;" d="M143.1,86.395L143.1,86.395c-1.381,0-2.5-1.119-2.5-2.5V16.661
							c0-1.381,1.119-2.5,2.5-2.5c1.381,0,2.5,1.119,2.5,2.5v67.233C145.6,85.275,144.481,86.395,143.1,86.395"/>
						<path style="clip-path:url(#SVGID_44_);fill:none;stroke:#B9E4EF;stroke-width:3;stroke-miterlimit:10;" d="M143.1,86.395
							L143.1,86.395c-1.381,0-2.5-1.119-2.5-2.5V16.661c0-1.381,1.119-2.5,2.5-2.5c1.381,0,2.5,1.119,2.5,2.5v67.233
							C145.6,85.275,144.481,86.395,143.1,86.395z"/>
					</g>
				</g>
				<g style="clip-path:url(#SVGID_6_);">
					<g>
						<defs>
							<rect id="SVGID_49_" x="148" width="33" height="100"/>
						</defs>
						<clipPath id="SVGID_50_">
							<use xlink:href="#SVGID_49_"  style="overflow:visible;"/>
						</clipPath>
						<g style="opacity:0.75;clip-path:url(#SVGID_50_);">
							<g>
								<defs>
									<rect id="SVGID_51_" x="148" width="33" height="100"/>
								</defs>
								<clipPath id="SVGID_52_">
									<use xlink:href="#SVGID_51_"  style="overflow:visible;"/>
								</clipPath>
								<g style="clip-path:url(#SVGID_52_);">
									<defs>
										<rect id="SVGID_53_" x="148" width="33" height="100"/>
									</defs>
									<clipPath id="SVGID_54_">
										<use xlink:href="#SVGID_53_"  style="overflow:visible;"/>
									</clipPath>
									<g style="clip-path:url(#SVGID_54_);">
										<image style="overflow:visible;" width="33" height="100" xlink:href="E0D57484.png"  transform="matrix(1 0 0 1 148 0)">
										</image>
									</g>
								</g>
							</g>
						</g>
						<path style="clip-path:url(#SVGID_50_);fill:#FFFFFF;" d="M164.165,86.395L164.165,86.395c-1.38,0-2.5-1.119-2.5-2.5V16.661
							c0-1.381,1.12-2.5,2.5-2.5c1.381,0,2.5,1.119,2.5,2.5v67.233C166.665,85.275,165.546,86.395,164.165,86.395"/>
						<path style="clip-path:url(#SVGID_50_);fill:none;stroke:#B9E4EF;stroke-width:3;stroke-miterlimit:10;" d="M164.165,86.395
							L164.165,86.395c-1.38,0-2.5-1.119-2.5-2.5V16.661c0-1.381,1.12-2.5,2.5-2.5c1.381,0,2.5,1.119,2.5,2.5v67.233
							C166.665,85.275,165.546,86.395,164.165,86.395z"/>
					</g>
				</g>
				<g style="clip-path:url(#SVGID_6_);">
					<g>
						<defs>
							<rect id="SVGID_55_" x="169" width="33" height="100"/>
						</defs>
						<clipPath id="SVGID_56_">
							<use xlink:href="#SVGID_55_"  style="overflow:visible;"/>
						</clipPath>
						<g style="opacity:0.75;clip-path:url(#SVGID_56_);">
							<g>
								<defs>
									<rect id="SVGID_57_" x="169" width="33" height="100"/>
								</defs>
								<clipPath id="SVGID_58_">
									<use xlink:href="#SVGID_57_"  style="overflow:visible;"/>
								</clipPath>
								<g style="clip-path:url(#SVGID_58_);">
									<defs>
										<rect id="SVGID_59_" x="169" width="33" height="100"/>
									</defs>
									<clipPath id="SVGID_60_">
										<use xlink:href="#SVGID_59_"  style="overflow:visible;"/>
									</clipPath>
									<g style="clip-path:url(#SVGID_60_);">
										<image style="overflow:visible;" width="33" height="100" xlink:href="E0D57485.png"  transform="matrix(1 0 0 1 169 0)">
										</image>
									</g>
								</g>
							</g>
						</g>
						<path style="clip-path:url(#SVGID_56_);fill:#FFFFFF;" d="M185.23,86.395L185.23,86.395c-1.381,0-2.5-1.119-2.5-2.5V16.661
							c0-1.381,1.119-2.5,2.5-2.5c1.381,0,2.5,1.119,2.5,2.5v67.233C187.73,85.275,186.611,86.395,185.23,86.395"/>
						<path style="clip-path:url(#SVGID_56_);fill:none;stroke:#B9E4EF;stroke-width:3;stroke-miterlimit:10;" d="M185.23,86.395
							L185.23,86.395c-1.381,0-2.5-1.119-2.5-2.5V16.661c0-1.381,1.119-2.5,2.5-2.5c1.381,0,2.5,1.119,2.5,2.5v67.233
							C187.73,85.275,186.611,86.395,185.23,86.395z"/>
					</g>
				</g>
				<g style="clip-path:url(#SVGID_6_);">
					<g>
						<defs>
							<rect id="SVGID_61_" x="190" width="33" height="100"/>
						</defs>
						<clipPath id="SVGID_62_">
							<use xlink:href="#SVGID_61_"  style="overflow:visible;"/>
						</clipPath>
						<g style="opacity:0.75;clip-path:url(#SVGID_62_);">
							<g>
								<defs>
									<rect id="SVGID_63_" x="190" width="33" height="100"/>
								</defs>
								<clipPath id="SVGID_64_">
									<use xlink:href="#SVGID_63_"  style="overflow:visible;"/>
								</clipPath>
								<g style="clip-path:url(#SVGID_64_);">
									<defs>
										<rect id="SVGID_65_" x="190" width="33" height="100"/>
									</defs>
									<clipPath id="SVGID_66_">
										<use xlink:href="#SVGID_65_"  style="overflow:visible;"/>
									</clipPath>
									<g style="clip-path:url(#SVGID_66_);">
										<image style="overflow:visible;" width="33" height="100" xlink:href="7ED9D6DF.png"  transform="matrix(1 0 0 1 190 0)">
										</image>
									</g>
								</g>
							</g>
						</g>
						<path style="clip-path:url(#SVGID_62_);fill:#FFFFFF;" d="M206.295,86.395L206.295,86.395c-1.38,0-2.5-1.119-2.5-2.5V16.661
							c0-1.381,1.12-2.5,2.5-2.5c1.381,0,2.5,1.119,2.5,2.5v67.233C208.795,85.275,207.676,86.395,206.295,86.395"/>
						<path style="clip-path:url(#SVGID_62_);fill:none;stroke:#B9E4EF;stroke-width:3;stroke-miterlimit:10;" d="M206.295,86.395
							L206.295,86.395c-1.38,0-2.5-1.119-2.5-2.5V16.661c0-1.381,1.12-2.5,2.5-2.5c1.381,0,2.5,1.119,2.5,2.5v67.233
							C208.795,85.275,207.676,86.395,206.295,86.395z"/>
					</g>
				</g>
				<g style="clip-path:url(#SVGID_6_);">
					<g>
						<defs>
							<rect id="SVGID_67_" x="211" width="33" height="100"/>
						</defs>
						<clipPath id="SVGID_68_">
							<use xlink:href="#SVGID_67_"  style="overflow:visible;"/>
						</clipPath>
						<g style="opacity:0.75;clip-path:url(#SVGID_68_);">
							<g>
								<defs>
									<rect id="SVGID_69_" x="211" width="33" height="100"/>
								</defs>
								<clipPath id="SVGID_70_">
									<use xlink:href="#SVGID_69_"  style="overflow:visible;"/>
								</clipPath>
								<g style="clip-path:url(#SVGID_70_);">
									<defs>
										<rect id="SVGID_71_" x="211" width="33" height="100"/>
									</defs>
									<clipPath id="SVGID_72_">
										<use xlink:href="#SVGID_71_"  style="overflow:visible;"/>
									</clipPath>
									<g style="clip-path:url(#SVGID_72_);">
										<image style="overflow:visible;" width="33" height="100" xlink:href="7ED9D6DD.png"  transform="matrix(1 0 0 1 211 0)">
										</image>
									</g>
								</g>
							</g>
						</g>
						<path style="clip-path:url(#SVGID_68_);fill:#FFFFFF;" d="M227.361,86.395L227.361,86.395c-1.381,0-2.5-1.119-2.5-2.5V16.661
							c0-1.381,1.119-2.5,2.5-2.5c1.38,0,2.5,1.119,2.5,2.5v67.233C229.861,85.275,228.741,86.395,227.361,86.395"/>
						<path style="clip-path:url(#SVGID_68_);fill:none;stroke:#B9E4EF;stroke-width:3;stroke-miterlimit:10;" d="M227.361,86.395
							L227.361,86.395c-1.381,0-2.5-1.119-2.5-2.5V16.661c0-1.381,1.119-2.5,2.5-2.5c1.38,0,2.5,1.119,2.5,2.5v67.233
							C229.861,85.275,228.741,86.395,227.361,86.395z"/>
					</g>
				</g>
				<g style="clip-path:url(#SVGID_6_);">
					<g>
						<defs>
							<rect id="SVGID_73_" x="232" width="33" height="100"/>
						</defs>
						<clipPath id="SVGID_74_">
							<use xlink:href="#SVGID_73_"  style="overflow:visible;"/>
						</clipPath>
						<g style="opacity:0.75;clip-path:url(#SVGID_74_);">
							<g>
								<defs>
									<rect id="SVGID_75_" x="232" width="33" height="100"/>
								</defs>
								<clipPath id="SVGID_76_">
									<use xlink:href="#SVGID_75_"  style="overflow:visible;"/>
								</clipPath>
								<g style="clip-path:url(#SVGID_76_);">
									<defs>
										<rect id="SVGID_77_" x="232" width="33" height="100"/>
									</defs>
									<clipPath id="SVGID_78_">
										<use xlink:href="#SVGID_77_"  style="overflow:visible;"/>
									</clipPath>
									<g style="clip-path:url(#SVGID_78_);">
										<image style="overflow:visible;" width="33" height="100" xlink:href="7ED9D6DB.png"  transform="matrix(1 0 0 1 232 0)">
										</image>
									</g>
								</g>
							</g>
						</g>
						<path style="clip-path:url(#SVGID_74_);fill:#FFFFFF;" d="M248.426,86.395L248.426,86.395c-1.381,0-2.5-1.119-2.5-2.5V16.661
							c0-1.381,1.119-2.5,2.5-2.5c1.381,0,2.5,1.119,2.5,2.5v67.233C250.926,85.275,249.807,86.395,248.426,86.395"/>
						<path style="clip-path:url(#SVGID_74_);fill:none;stroke:#B9E4EF;stroke-width:3;stroke-miterlimit:10;" d="M248.426,86.395
							L248.426,86.395c-1.381,0-2.5-1.119-2.5-2.5V16.661c0-1.381,1.119-2.5,2.5-2.5c1.381,0,2.5,1.119,2.5,2.5v67.233
							C250.926,85.275,249.807,86.395,248.426,86.395z"/>
					</g>
				</g>
				<g style="clip-path:url(#SVGID_6_);">
					<g>
						<defs>
							<rect id="SVGID_79_" x="253" width="33" height="100"/>
						</defs>
						<clipPath id="SVGID_80_">
							<use xlink:href="#SVGID_79_"  style="overflow:visible;"/>
						</clipPath>
						<g style="opacity:0.75;clip-path:url(#SVGID_80_);">
							<g>
								<defs>
									<rect id="SVGID_81_" x="253" width="33" height="100"/>
								</defs>
								<clipPath id="SVGID_82_">
									<use xlink:href="#SVGID_81_"  style="overflow:visible;"/>
								</clipPath>
								<g style="clip-path:url(#SVGID_82_);">
									<defs>
										<rect id="SVGID_83_" x="253" width="33" height="100"/>
									</defs>
									<clipPath id="SVGID_84_">
										<use xlink:href="#SVGID_83_"  style="overflow:visible;"/>
									</clipPath>
									<g style="clip-path:url(#SVGID_84_);">
										<image style="overflow:visible;" width="33" height="100" xlink:href="7ED9D6D5.png"  transform="matrix(1 0 0 1 253 0)">
										</image>
									</g>
								</g>
							</g>
						</g>
						<path style="clip-path:url(#SVGID_80_);fill:#FFFFFF;" d="M269.491,86.395L269.491,86.395c-1.381,0-2.5-1.119-2.5-2.5V16.661
							c0-1.381,1.119-2.5,2.5-2.5c1.381,0,2.5,1.119,2.5,2.5v67.233C271.991,85.275,270.872,86.395,269.491,86.395"/>
						<path style="clip-path:url(#SVGID_80_);fill:none;stroke:#B9E4EF;stroke-width:3;stroke-miterlimit:10;" d="M269.491,86.395
							L269.491,86.395c-1.381,0-2.5-1.119-2.5-2.5V16.661c0-1.381,1.119-2.5,2.5-2.5c1.381,0,2.5,1.119,2.5,2.5v67.233
							C271.991,85.275,270.872,86.395,269.491,86.395z"/>
					</g>
				</g>
				<g style="clip-path:url(#SVGID_6_);">
					<g>
						<defs>
							<rect id="SVGID_85_" x="274" width="33" height="100"/>
						</defs>
						<clipPath id="SVGID_86_">
							<use xlink:href="#SVGID_85_"  style="overflow:visible;"/>
						</clipPath>
						<g style="opacity:0.75;clip-path:url(#SVGID_86_);">
							<g>
								<defs>
									<rect id="SVGID_87_" x="274" width="33" height="100"/>
								</defs>
								<clipPath id="SVGID_88_">
									<use xlink:href="#SVGID_87_"  style="overflow:visible;"/>
								</clipPath>
								<g style="clip-path:url(#SVGID_88_);">
									<defs>
										<rect id="SVGID_89_" x="274" width="33" height="100"/>
									</defs>
									<clipPath id="SVGID_90_">
										<use xlink:href="#SVGID_89_"  style="overflow:visible;"/>
									</clipPath>
									<g style="clip-path:url(#SVGID_90_);">
										<image style="overflow:visible;" width="33" height="100" xlink:href="7ED9D6D7.png"  transform="matrix(1 0 0 1 274 0)">
										</image>
									</g>
								</g>
							</g>
						</g>
						<path style="clip-path:url(#SVGID_86_);fill:#FFFFFF;" d="M290.556,86.395L290.556,86.395c-1.38,0-2.5-1.119-2.5-2.5V16.661
							c0-1.381,1.12-2.5,2.5-2.5c1.381,0,2.5,1.119,2.5,2.5v67.233C293.056,85.275,291.937,86.395,290.556,86.395"/>
						<path style="clip-path:url(#SVGID_86_);fill:none;stroke:#B9E4EF;stroke-width:3;stroke-miterlimit:10;" d="M290.556,86.395
							L290.556,86.395c-1.38,0-2.5-1.119-2.5-2.5V16.661c0-1.381,1.12-2.5,2.5-2.5c1.381,0,2.5,1.119,2.5,2.5v67.233
							C293.056,85.275,291.937,86.395,290.556,86.395z"/>
					</g>
				</g>
				<g style="clip-path:url(#SVGID_6_);">
					<g>
						<defs>
							<rect id="SVGID_91_" x="295" width="33" height="100"/>
						</defs>
						<clipPath id="SVGID_92_">
							<use xlink:href="#SVGID_91_"  style="overflow:visible;"/>
						</clipPath>
						<g style="opacity:0.75;clip-path:url(#SVGID_92_);">
							<g>
								<defs>
									<rect id="SVGID_93_" x="295" width="33" height="100"/>
								</defs>
								<clipPath id="SVGID_94_">
									<use xlink:href="#SVGID_93_"  style="overflow:visible;"/>
								</clipPath>
								<g style="clip-path:url(#SVGID_94_);">
									<defs>
										<rect id="SVGID_95_" x="295" width="33" height="100"/>
									</defs>
									<clipPath id="SVGID_96_">
										<use xlink:href="#SVGID_95_"  style="overflow:visible;"/>
									</clipPath>
									<g style="clip-path:url(#SVGID_96_);">
										<image style="overflow:visible;" width="33" height="100" xlink:href="7ED9D6CA.png"  transform="matrix(1 0 0 1 295 0)">
										</image>
									</g>
								</g>
							</g>
						</g>
						<path style="clip-path:url(#SVGID_92_);fill:#FFFFFF;" d="M311.621,86.395L311.621,86.395c-1.381,0-2.5-1.119-2.5-2.5V16.661
							c0-1.381,1.119-2.5,2.5-2.5c1.381,0,2.5,1.119,2.5,2.5v67.233C314.121,85.275,313.002,86.395,311.621,86.395"/>
						<path style="clip-path:url(#SVGID_92_);fill:none;stroke:#B9E4EF;stroke-width:3;stroke-miterlimit:10;" d="M311.621,86.395
							L311.621,86.395c-1.381,0-2.5-1.119-2.5-2.5V16.661c0-1.381,1.119-2.5,2.5-2.5c1.381,0,2.5,1.119,2.5,2.5v67.233
							C314.121,85.275,313.002,86.395,311.621,86.395z"/>
					</g>
				</g>
				<g style="clip-path:url(#SVGID_6_);">
					<g>
						<defs>
							<rect id="SVGID_97_" x="316" width="33" height="100"/>
						</defs>
						<clipPath id="SVGID_98_">
							<use xlink:href="#SVGID_97_"  style="overflow:visible;"/>
						</clipPath>
						<g style="opacity:0.75;clip-path:url(#SVGID_98_);">
							<g>
								<defs>
									<rect id="SVGID_99_" x="316" width="33" height="100"/>
								</defs>
								<clipPath id="SVGID_100_">
									<use xlink:href="#SVGID_99_"  style="overflow:visible;"/>
								</clipPath>
								<g style="clip-path:url(#SVGID_100_);">
									<defs>
										<rect id="SVGID_101_" x="316" width="33" height="100"/>
									</defs>
									<clipPath id="SVGID_102_">
										<use xlink:href="#SVGID_101_"  style="overflow:visible;"/>
									</clipPath>
									<g style="clip-path:url(#SVGID_102_);">
										<image style="overflow:visible;" width="33" height="100" xlink:href="7ED9D6CB.png"  transform="matrix(1 0 0 1 316 0)">
										</image>
									</g>
								</g>
							</g>
						</g>
						<path style="clip-path:url(#SVGID_98_);fill:#FFFFFF;" d="M332.686,86.395L332.686,86.395c-1.381,0-2.5-1.119-2.5-2.5V16.661
							c0-1.381,1.119-2.5,2.5-2.5c1.381,0,2.5,1.119,2.5,2.5v67.233C335.186,85.275,334.067,86.395,332.686,86.395"/>
						<path style="clip-path:url(#SVGID_98_);fill:none;stroke:#B9E4EF;stroke-width:3;stroke-miterlimit:10;" d="M332.686,86.395
							L332.686,86.395c-1.381,0-2.5-1.119-2.5-2.5V16.661c0-1.381,1.119-2.5,2.5-2.5c1.381,0,2.5,1.119,2.5,2.5v67.233
							C335.186,85.275,334.067,86.395,332.686,86.395z"/>
					</g>
				</g>
				<g style="clip-path:url(#SVGID_6_);">
					<g>
						<defs>
							<rect id="SVGID_103_" x="337" width="33" height="100"/>
						</defs>
						<clipPath id="SVGID_104_">
							<use xlink:href="#SVGID_103_"  style="overflow:visible;"/>
						</clipPath>
						<g style="opacity:0.75;clip-path:url(#SVGID_104_);">
							<g>
								<defs>
									<rect id="SVGID_105_" x="337" width="33" height="100"/>
								</defs>
								<clipPath id="SVGID_106_">
									<use xlink:href="#SVGID_105_"  style="overflow:visible;"/>
								</clipPath>
								<g style="clip-path:url(#SVGID_106_);">
									<defs>
										<rect id="SVGID_107_" x="337" width="33" height="100"/>
									</defs>
									<clipPath id="SVGID_108_">
										<use xlink:href="#SVGID_107_"  style="overflow:visible;"/>
									</clipPath>
									<g style="clip-path:url(#SVGID_108_);">
										<image style="overflow:visible;" width="33" height="100" xlink:href="7ED9D6CD.png"  transform="matrix(1 0 0 1 337 0)">
										</image>
									</g>
								</g>
							</g>
						</g>
						<path style="clip-path:url(#SVGID_104_);fill:#FFFFFF;" d="M353.752,86.395L353.752,86.395c-1.381,0-2.5-1.119-2.5-2.5V16.661
							c0-1.381,1.119-2.5,2.5-2.5c1.38,0,2.5,1.119,2.5,2.5v67.233C356.252,85.275,355.132,86.395,353.752,86.395"/>
						<path style="clip-path:url(#SVGID_104_);fill:none;stroke:#B9E4EF;stroke-width:3;stroke-miterlimit:10;" d="M353.752,86.395
							L353.752,86.395c-1.381,0-2.5-1.119-2.5-2.5V16.661c0-1.381,1.119-2.5,2.5-2.5c1.38,0,2.5,1.119,2.5,2.5v67.233
							C356.252,85.275,355.132,86.395,353.752,86.395z"/>
					</g>
				</g>
				<g style="clip-path:url(#SVGID_6_);">
					<g>
						<defs>
							<rect id="SVGID_109_" x="358" width="33" height="100"/>
						</defs>
						<clipPath id="SVGID_110_">
							<use xlink:href="#SVGID_109_"  style="overflow:visible;"/>
						</clipPath>
						<g style="opacity:0.75;clip-path:url(#SVGID_110_);">
							<g>
								<defs>
									<rect id="SVGID_111_" x="358" width="33" height="100"/>
								</defs>
								<clipPath id="SVGID_112_">
									<use xlink:href="#SVGID_111_"  style="overflow:visible;"/>
								</clipPath>
								<g style="clip-path:url(#SVGID_112_);">
									<defs>
										<rect id="SVGID_113_" x="358" width="33" height="100"/>
									</defs>
									<clipPath id="SVGID_114_">
										<use xlink:href="#SVGID_113_"  style="overflow:visible;"/>
									</clipPath>
									<g style="clip-path:url(#SVGID_114_);">
										<image style="overflow:visible;" width="33" height="100" xlink:href="7ED9D6CF.png"  transform="matrix(1 0 0 1 358 0)">
										</image>
									</g>
								</g>
							</g>
						</g>
						<path style="clip-path:url(#SVGID_110_);fill:#FFFFFF;" d="M374.816,86.395L374.816,86.395c-1.381,0-2.5-1.119-2.5-2.5V16.661
							c0-1.381,1.119-2.5,2.5-2.5c1.381,0,2.5,1.119,2.5,2.5v67.233C377.316,85.275,376.197,86.395,374.816,86.395"/>
						<path style="clip-path:url(#SVGID_110_);fill:none;stroke:#B9E4EF;stroke-width:3;stroke-miterlimit:10;" d="M374.816,86.395
							L374.816,86.395c-1.381,0-2.5-1.119-2.5-2.5V16.661c0-1.381,1.119-2.5,2.5-2.5c1.381,0,2.5,1.119,2.5,2.5v67.233
							C377.316,85.275,376.197,86.395,374.816,86.395z"/>
					</g>
				</g>
				<g style="clip-path:url(#SVGID_6_);">
					<g>
						<defs>
							<rect id="SVGID_115_" x="379" width="33" height="100"/>
						</defs>
						<clipPath id="SVGID_116_">
							<use xlink:href="#SVGID_115_"  style="overflow:visible;"/>
						</clipPath>
						<g style="opacity:0.75;clip-path:url(#SVGID_116_);">
							<g>
								<defs>
									<rect id="SVGID_117_" x="379" width="33" height="100"/>
								</defs>
								<clipPath id="SVGID_118_">
									<use xlink:href="#SVGID_117_"  style="overflow:visible;"/>
								</clipPath>
								<g style="clip-path:url(#SVGID_118_);">
									<defs>
										<rect id="SVGID_119_" x="379" width="33" height="100"/>
									</defs>
									<clipPath id="SVGID_120_">
										<use xlink:href="#SVGID_119_"  style="overflow:visible;"/>
									</clipPath>
									<g style="clip-path:url(#SVGID_120_);">
										<image style="overflow:visible;" width="33" height="100" xlink:href="7ED9D6C8.png"  transform="matrix(1 0 0 1 379 0)">
										</image>
									</g>
								</g>
							</g>
						</g>
						<path style="clip-path:url(#SVGID_116_);fill:#FFFFFF;" d="M395.882,86.395L395.882,86.395c-1.381,0-2.5-1.119-2.5-2.5V16.661
							c0-1.381,1.119-2.5,2.5-2.5c1.381,0,2.5,1.119,2.5,2.5v67.233C398.382,85.275,397.263,86.395,395.882,86.395"/>
						<path style="clip-path:url(#SVGID_116_);fill:none;stroke:#B9E4EF;stroke-width:3;stroke-miterlimit:10;" d="M395.882,86.395
							L395.882,86.395c-1.381,0-2.5-1.119-2.5-2.5V16.661c0-1.381,1.119-2.5,2.5-2.5c1.381,0,2.5,1.119,2.5,2.5v67.233
							C398.382,85.275,397.263,86.395,395.882,86.395z"/>
					</g>
				</g>
				<g style="clip-path:url(#SVGID_6_);">
					<g>
						<defs>
							<rect id="SVGID_121_" x="400" width="33" height="100"/>
						</defs>
						<clipPath id="SVGID_122_">
							<use xlink:href="#SVGID_121_"  style="overflow:visible;"/>
						</clipPath>
						<g style="opacity:0.75;clip-path:url(#SVGID_122_);">
							<g>
								<defs>
									<rect id="SVGID_123_" x="400" width="33" height="100"/>
								</defs>
								<clipPath id="SVGID_124_">
									<use xlink:href="#SVGID_123_"  style="overflow:visible;"/>
								</clipPath>
								<g style="clip-path:url(#SVGID_124_);">
									<defs>
										<rect id="SVGID_125_" x="400" width="33" height="100"/>
									</defs>
									<clipPath id="SVGID_126_">
										<use xlink:href="#SVGID_125_"  style="overflow:visible;"/>
									</clipPath>
									<g style="clip-path:url(#SVGID_126_);">
										<image style="overflow:visible;" width="33" height="100" xlink:href="7ED9D6EE.png"  transform="matrix(1 0 0 1 400 0)">
										</image>
									</g>
								</g>
							</g>
						</g>
						<path style="clip-path:url(#SVGID_122_);fill:#FFFFFF;" d="M416.947,86.395L416.947,86.395c-1.381,0-2.5-1.119-2.5-2.5V16.661
							c0-1.381,1.119-2.5,2.5-2.5c1.381,0,2.5,1.119,2.5,2.5v67.233C419.447,85.275,418.328,86.395,416.947,86.395"/>
						<path style="clip-path:url(#SVGID_122_);fill:none;stroke:#B9E4EF;stroke-width:3;stroke-miterlimit:10;" d="M416.947,86.395
							L416.947,86.395c-1.381,0-2.5-1.119-2.5-2.5V16.661c0-1.381,1.119-2.5,2.5-2.5c1.381,0,2.5,1.119,2.5,2.5v67.233
							C419.447,85.275,418.328,86.395,416.947,86.395z"/>
					</g>
				</g>
				<g style="clip-path:url(#SVGID_6_);">
					<g>
						<defs>
							<rect id="SVGID_127_" x="422" width="33" height="100"/>
						</defs>
						<clipPath id="SVGID_128_">
							<use xlink:href="#SVGID_127_"  style="overflow:visible;"/>
						</clipPath>
						<g style="opacity:0.75;clip-path:url(#SVGID_128_);">
							<g>
								<defs>
									<rect id="SVGID_129_" x="422" width="33" height="100"/>
								</defs>
								<clipPath id="SVGID_130_">
									<use xlink:href="#SVGID_129_"  style="overflow:visible;"/>
								</clipPath>
								<g style="clip-path:url(#SVGID_130_);">
									<defs>
										<rect id="SVGID_131_" x="422" width="33" height="100"/>
									</defs>
									<clipPath id="SVGID_132_">
										<use xlink:href="#SVGID_131_"  style="overflow:visible;"/>
									</clipPath>
									<g style="clip-path:url(#SVGID_132_);">
										<image style="overflow:visible;" width="33" height="100" xlink:href="7ED9D6ED.png"  transform="matrix(1 0 0 1 422 0)">
										</image>
									</g>
								</g>
							</g>
						</g>
						<path style="clip-path:url(#SVGID_128_);fill:#FFFFFF;" d="M438.012,86.395L438.012,86.395c-1.38,0-2.5-1.119-2.5-2.5V16.661
							c0-1.381,1.12-2.5,2.5-2.5c1.381,0,2.5,1.119,2.5,2.5v67.233C440.512,85.275,439.393,86.395,438.012,86.395"/>
						<path style="clip-path:url(#SVGID_128_);fill:none;stroke:#B9E4EF;stroke-width:3;stroke-miterlimit:10;" d="M438.012,86.395
							L438.012,86.395c-1.38,0-2.5-1.119-2.5-2.5V16.661c0-1.381,1.12-2.5,2.5-2.5c1.381,0,2.5,1.119,2.5,2.5v67.233
							C440.512,85.275,439.393,86.395,438.012,86.395z"/>
					</g>
				</g>
				<g style="clip-path:url(#SVGID_6_);">
					<g>
						<defs>
							<rect id="SVGID_133_" x="443" width="33" height="100"/>
						</defs>
						<clipPath id="SVGID_134_">
							<use xlink:href="#SVGID_133_"  style="overflow:visible;"/>
						</clipPath>
						<g style="opacity:0.75;clip-path:url(#SVGID_134_);">
							<g>
								<defs>
									<rect id="SVGID_135_" x="443" width="33" height="100"/>
								</defs>
								<clipPath id="SVGID_136_">
									<use xlink:href="#SVGID_135_"  style="overflow:visible;"/>
								</clipPath>
								<g style="clip-path:url(#SVGID_136_);">
									<defs>
										<rect id="SVGID_137_" x="443" width="33" height="100"/>
									</defs>
									<clipPath id="SVGID_138_">
										<use xlink:href="#SVGID_137_"  style="overflow:visible;"/>
									</clipPath>
									<g style="clip-path:url(#SVGID_138_);">
										<image style="overflow:visible;" width="33" height="100" xlink:href="7ED9D6EA.png"  transform="matrix(1 0 0 1 443 0)">
										</image>
									</g>
								</g>
							</g>
						</g>
						<path style="clip-path:url(#SVGID_134_);fill:#FFFFFF;" d="M459.077,86.395L459.077,86.395c-1.381,0-2.5-1.119-2.5-2.5V16.661
							c0-1.381,1.119-2.5,2.5-2.5c1.381,0,2.5,1.119,2.5,2.5v67.233C461.577,85.275,460.458,86.395,459.077,86.395"/>
						<path style="clip-path:url(#SVGID_134_);fill:none;stroke:#B9E4EF;stroke-width:3;stroke-miterlimit:10;" d="M459.077,86.395
							L459.077,86.395c-1.381,0-2.5-1.119-2.5-2.5V16.661c0-1.381,1.119-2.5,2.5-2.5c1.381,0,2.5,1.119,2.5,2.5v67.233
							C461.577,85.275,460.458,86.395,459.077,86.395z"/>
					</g>
				</g>
			</g>
		</g>
	</g>
</g>
</svg>
