<?xml version="1.0" encoding="iso-8859-1"?>
<!-- Generator: Adobe Illustrator 22.0.1, SVG Export Plug-In . SVG Version: 6.00 Build 0)  -->
<svg version="1.1" id="&#x56FE;&#x5C42;_1" xmlns="http://www.w3.org/2000/svg" xmlns:xlink="http://www.w3.org/1999/xlink" x="0px"
	 y="0px" viewBox="0 0 33 100" style="enable-background:new 0 0 33 100;" xml:space="preserve">
<g>
	<defs>
		<rect id="SVGID_1_" width="33" height="100"/>
	</defs>
	<clipPath id="SVGID_2_">
		<use xlink:href="#SVGID_1_"  style="overflow:visible;"/>
	</clipPath>
	<g style="clip-path:url(#SVGID_2_);">
		<defs>
			<rect id="SVGID_3_" width="33" height="100"/>
		</defs>
		<clipPath id="SVGID_4_">
			<use xlink:href="#SVGID_3_"  style="overflow:visible;"/>
		</clipPath>
		<g style="opacity:0.75;clip-path:url(#SVGID_4_);">
			<g>
				<defs>
					<rect id="SVGID_5_" width="33" height="100"/>
				</defs>
				<clipPath id="SVGID_6_">
					<use xlink:href="#SVGID_5_"  style="overflow:visible;"/>
				</clipPath>
				<g style="clip-path:url(#SVGID_6_);">
					<defs>
						<rect id="SVGID_7_" width="33" height="100"/>
					</defs>
					<clipPath id="SVGID_8_">
						<use xlink:href="#SVGID_7_"  style="overflow:visible;"/>
					</clipPath>
					<image style="overflow:visible;clip-path:url(#SVGID_8_);" width="33" height="100" xlink:href="51537023.png" >
					</image>
				</g>
			</g>
		</g>
		<path style="clip-path:url(#SVGID_4_);fill:#FFFFFF;" d="M16.33,86.244L16.33,86.244c-1.381,0-2.5-1.119-2.5-2.5V16.512
			c0-1.381,1.119-2.5,2.5-2.5c1.38,0,2.5,1.119,2.5,2.5v67.232C18.83,85.125,17.71,86.244,16.33,86.244"/>
		<path style="clip-path:url(#SVGID_4_);fill:none;stroke:#B9E4EF;stroke-width:3;stroke-miterlimit:10;" d="M16.33,86.244
			L16.33,86.244c-1.381,0-2.5-1.119-2.5-2.5V16.512c0-1.381,1.119-2.5,2.5-2.5c1.38,0,2.5,1.119,2.5,2.5v67.232
			C18.83,85.125,17.71,86.244,16.33,86.244z"/>
	</g>
</g>
</svg>
