<?xml version="1.0" encoding="iso-8859-1"?>
<!-- Generator: Adobe Illustrator 22.0.1, SVG Export Plug-In . SVG Version: 6.00 Build 0)  -->
<svg version="1.1" id="&#x56FE;&#x5C42;_1" xmlns="http://www.w3.org/2000/svg" xmlns:xlink="http://www.w3.org/1999/xlink" x="0px"
	 y="0px" viewBox="0 0 37.044 49.686" style="enable-background:new 0 0 37.044 49.686;" xml:space="preserve">
<g>
	<defs>
		<rect id="SVGID_1_" width="37.044" height="49.686"/>
	</defs>
	<clipPath id="SVGID_2_">
		<use xlink:href="#SVGID_1_"  style="overflow:visible;"/>
	</clipPath>
	<g style="clip-path:url(#SVGID_2_);">
		<defs>
			<rect id="SVGID_3_" y="0" width="37.044" height="49.686"/>
		</defs>
		<clipPath id="SVGID_4_">
			<use xlink:href="#SVGID_3_"  style="overflow:visible;"/>
		</clipPath>
		<path style="clip-path:url(#SVGID_4_);fill:#FFDF43;" d="M18.314,30.379l-0.455,0.382h-0.852l-1.023,0.651l-1.023,0.602
			l-0.682,0.502l-0.511,1.404l-0.739,1.254c0,0-0.625,1.103-0.568,1.353c0.057,0.251,0.529,3.855,0.529,3.855l0.424,1.204
			l0.24-0.633l0.573,2.03c0,0,0.435-1.165,0.308-1.014c-0.127,0.15,0.54,2.432,0.54,2.432l0.568-0.89l0.54,1.693l0.44-0.689
			l0.63,1.593l0.246-0.693l0.445,1.619l0.37-0.676V30.379z"/>
		<path style="clip-path:url(#SVGID_4_);fill:none;stroke:#FF0903;stroke-width:2;stroke-miterlimit:10;" d="M18.314,30.379
			l-0.455,0.382h-0.852l-1.023,0.651l-1.023,0.602l-0.682,0.502l-0.511,1.404l-0.739,1.254c0,0-0.625,1.103-0.568,1.353
			c0.057,0.251,0.529,3.855,0.529,3.855l0.424,1.204l0.24-0.633l0.573,2.03c0,0,0.435-1.165,0.308-1.014
			c-0.127,0.15,0.54,2.432,0.54,2.432l0.568-0.89l0.54,1.693l0.44-0.689l0.63,1.593l0.246-0.693l0.445,1.619l0.37-0.676V30.379z"/>
		<path style="clip-path:url(#SVGID_4_);fill:#FFDF43;" d="M18.314,30.379l0.455,0.382h0.852l1.023,0.651l1.023,0.602l0.682,0.502
			l0.511,1.404l0.739,1.254c0,0,0.625,1.103,0.568,1.353c-0.057,0.251-0.53,3.855-0.53,3.855l-0.423,1.204l-0.24-0.633l-0.573,2.03
			c0,0-0.435-1.165-0.308-1.014c0.126,0.15-0.54,2.432-0.54,2.432l-0.569-0.89l-0.539,1.693l-0.441-0.689l-0.63,1.593l-0.245-0.693
			l-0.446,1.619l-0.369-0.676V30.379z"/>
		<path style="clip-path:url(#SVGID_4_);fill:none;stroke:#FF0903;stroke-width:2;stroke-miterlimit:10;" d="M18.314,30.379
			l0.455,0.382h0.852l1.023,0.651l1.023,0.602l0.682,0.502l0.511,1.404l0.739,1.254c0,0,0.625,1.103,0.568,1.353
			c-0.057,0.251-0.53,3.855-0.53,3.855l-0.423,1.204l-0.24-0.633l-0.573,2.03c0,0-0.435-1.165-0.308-1.014
			c0.126,0.15-0.54,2.432-0.54,2.432l-0.569-0.89l-0.539,1.693l-0.441-0.689l-0.63,1.593l-0.245-0.693l-0.446,1.619l-0.369-0.676
			V30.379z"/>
		<path style="clip-path:url(#SVGID_4_);fill:#F71919;" d="M18.314,28.733l-0.455,0.417h-0.852l-1.023,0.714l-1.023,0.659
			l-0.682,0.549l-0.511,1.538l-0.739,1.372c0,0-0.625,1.208-0.568,1.482c0.057,0.275,0.311,4.827,0.311,4.827l0.218-0.606
			l0.424,1.319l0.24-0.694l0.573,2.223c0,0,0.435-1.276,0.308-1.111s0.54,2.664,0.54,2.664l0.568-0.975l0.54,1.852l0.44-0.754
			l0.63,1.745l0.246-0.759l0.445,1.773l0.37-0.741V28.733z"/>
		<path style="clip-path:url(#SVGID_4_);fill:none;stroke:#FF3E03;stroke-width:0.5;stroke-miterlimit:10;" d="M18.314,28.733
			l-0.455,0.417h-0.852l-1.023,0.714l-1.023,0.659l-0.682,0.549l-0.511,1.538l-0.739,1.372c0,0-0.625,1.208-0.568,1.482
			c0.057,0.275,0.311,4.827,0.311,4.827l0.218-0.606l0.424,1.319l0.24-0.694l0.573,2.223c0,0,0.435-1.276,0.308-1.111
			s0.54,2.664,0.54,2.664l0.568-0.975l0.54,1.852l0.44-0.754l0.63,1.745l0.246-0.759l0.445,1.773l0.37-0.741V28.733z"/>
		<path style="clip-path:url(#SVGID_4_);fill:#F71919;" d="M18.314,28.733l0.455,0.417h0.852l1.023,0.714l1.023,0.659l0.682,0.549
			l0.511,1.538l0.739,1.372c0,0,0.625,1.208,0.568,1.482c-0.057,0.275-0.311,4.827-0.311,4.827l-0.219-0.606l-0.423,1.319
			l-0.24-0.694l-0.573,2.223c0,0-0.435-1.276-0.308-1.111c0.126,0.165-0.54,2.664-0.54,2.664l-0.569-0.975l-0.539,1.852
			l-0.441-0.754l-0.63,1.745l-0.245-0.759l-0.446,1.773l-0.369-0.741V28.733z"/>
		<path style="clip-path:url(#SVGID_4_);fill:none;stroke:#FF3E03;stroke-width:0.5;stroke-miterlimit:10;" d="M18.314,28.733
			l0.455,0.417h0.852l1.023,0.714l1.023,0.659l0.682,0.549l0.511,1.538l0.739,1.372c0,0,0.625,1.208,0.568,1.482
			c-0.057,0.275-0.311,4.827-0.311,4.827l-0.219-0.606l-0.423,1.319l-0.24-0.694l-0.573,2.223c0,0-0.435-1.276-0.308-1.111
			c0.126,0.165-0.54,2.664-0.54,2.664l-0.569-0.975l-0.539,1.852l-0.441-0.754l-0.63,1.745l-0.245-0.759l-0.446,1.773l-0.369-0.741
			V28.733z"/>
		<path style="clip-path:url(#SVGID_4_);fill:#FF0903;" d="M24.832,35.987c0,4.468-6.518,8.355-6.518,11.741
			c0-3.386-6.519-7.273-6.519-11.741s2.919-8.09,6.519-8.09S24.832,31.519,24.832,35.987"/>
		<defs>
			<filter id="Adobe_OpacityMaskFilter" filterUnits="userSpaceOnUse" x="11.795" y="27.897" width="13.037" height="19.832">
				
					<feColorMatrix  type="matrix" values="-1 0 0 0 1  0 -1 0 0 1  0 0 -1 0 1  0 0 0 1 0" color-interpolation-filters="sRGB" result="source"/>
			</filter>
		</defs>
		<mask maskUnits="userSpaceOnUse" x="11.795" y="27.897" width="13.037" height="19.832" id="SVGID_5_">
			<g style="filter:url(#Adobe_OpacityMaskFilter);">
				<g style="enable-background:new    ;">
					<g>
						<defs>
							<rect id="SVGID_6_" x="9.035" y="25.472" width="18" height="25"/>
						</defs>
						<clipPath id="SVGID_7_" style="clip-path:url(#SVGID_4_);">
							<use xlink:href="#SVGID_6_"  style="overflow:visible;"/>
						</clipPath>
						<g style="clip-path:url(#SVGID_7_);">
							
								<image style="overflow:visible;" width="18" height="25" xlink:href="F9FE130E.jpg"  transform="matrix(1 0 0 1 9.0352 25.4716)">
							</image>
						</g>
					</g>
				</g>
			</g>
		</mask>
		<g style="opacity:0.75;clip-path:url(#SVGID_4_);mask:url(#SVGID_5_);">
			<g>
				<defs>
					<rect id="SVGID_8_" x="11.795" y="27.897" width="13.037" height="19.832"/>
				</defs>
				<clipPath id="SVGID_9_">
					<use xlink:href="#SVGID_8_"  style="overflow:visible;"/>
				</clipPath>
				<path style="clip-path:url(#SVGID_9_);fill:#E1C501;" d="M24.832,35.987c0,4.468-6.518,8.355-6.518,11.741
					c0-3.386-6.519-7.273-6.519-11.741s2.919-8.09,6.519-8.09S24.832,31.519,24.832,35.987"/>
			</g>
		</g>
		<g style="clip-path:url(#SVGID_4_);">
			<g>
				<defs>
					<rect id="SVGID_10_" x="14.69" y="29.525" width="7.248" height="8.995"/>
				</defs>
				<clipPath id="SVGID_11_">
					<use xlink:href="#SVGID_10_"  style="overflow:visible;"/>
				</clipPath>
				<g style="clip-path:url(#SVGID_11_);">
					<defs>
						<path id="SVGID_12_" d="M21.937,34.022c0,2.484-1.622,4.498-3.623,4.498c-2.002,0-3.624-2.014-3.624-4.498
							c0-2.483,1.622-4.497,3.624-4.497C20.315,29.526,21.937,31.54,21.937,34.022"/>
					</defs>
					<clipPath id="SVGID_13_">
						<use xlink:href="#SVGID_12_"  style="overflow:visible;"/>
					</clipPath>
					
						<linearGradient id="SVGID_14_" gradientUnits="userSpaceOnUse" x1="0" y1="49.6855" x2="1" y2="49.6855" gradientTransform="matrix(-0.0271 -9.3749 -9.3749 0.0271 484.1212 37.3497)">
						<stop  offset="0" style="stop-color:#3F0A00"/>
						<stop  offset="1" style="stop-color:#941D00"/>
					</linearGradient>
					<polygon style="clip-path:url(#SVGID_13_);fill:url(#SVGID_14_);" points="14.69,38.541 14.664,29.526 21.937,29.505 
						21.963,38.52 					"/>
				</g>
				<defs>
					<filter id="Adobe_OpacityMaskFilter_1_" filterUnits="userSpaceOnUse" x="14.689" y="29.525" width="7.248" height="8.995">
						<feFlood  style="flood-color:white;flood-opacity:1" result="back"/>
						<feBlend  in="SourceGraphic" in2="back" mode="normal"/>
					</filter>
				</defs>
				<mask maskUnits="userSpaceOnUse" x="14.689" y="29.525" width="7.248" height="8.995" id="SVGID_15_">
					<g style="filter:url(#Adobe_OpacityMaskFilter_1_);">
						<g style="enable-background:new    ;">
							<g>
								<defs>
									<rect id="SVGID_16_" x="12.035" y="27.472" width="12" height="14"/>
								</defs>
								<clipPath id="SVGID_17_" style="clip-path:url(#SVGID_11_);">
									<use xlink:href="#SVGID_16_"  style="overflow:visible;"/>
								</clipPath>
								<g style="clip-path:url(#SVGID_17_);">
									
										<image style="overflow:visible;" width="12" height="14" xlink:href="F9FE1312.jpg"  transform="matrix(1 0 0 1 12.0352 27.4716)">
									</image>
								</g>
							</g>
						</g>
					</g>
				</mask>
				<g style="opacity:0.75;clip-path:url(#SVGID_11_);mask:url(#SVGID_15_);">
					<g>
						<defs>
							<rect id="SVGID_18_" x="14.69" y="29.525" width="7.248" height="8.995"/>
						</defs>
						<clipPath id="SVGID_19_">
							<use xlink:href="#SVGID_18_"  style="overflow:visible;"/>
						</clipPath>
						<path style="clip-path:url(#SVGID_19_);fill:#E1C501;" d="M21.937,34.022c0,2.484-1.623,4.498-3.624,4.498
							s-3.624-2.014-3.624-4.498c0-2.483,1.623-4.497,3.624-4.497S21.937,31.54,21.937,34.022"/>
					</g>
				</g>
			</g>
		</g>
		<polygon style="clip-path:url(#SVGID_4_);fill:#FFC501;" points="1.5,1.511 3.664,1.511 3.664,7.575 6.63,7.575 6.63,9.749 
			1.5,9.749 		"/>
		<polygon style="clip-path:url(#SVGID_4_);fill:none;stroke:#000000;stroke-width:3;stroke-miterlimit:10;" points="1.5,1.511 
			3.664,1.511 3.664,7.575 6.63,7.575 6.63,9.749 1.5,9.749 		"/>
		<polygon style="clip-path:url(#SVGID_4_);fill:#FFC501;" points="8.182,1.511 13.301,1.511 13.301,3.302 10.346,3.302 
			10.346,4.642 12.961,4.642 12.961,6.465 10.346,6.465 10.346,7.981 13.301,7.981 13.301,9.749 8.182,9.749 		"/>
		<polygon style="clip-path:url(#SVGID_4_);fill:none;stroke:#000000;stroke-width:3;stroke-miterlimit:10;" points="8.182,1.511 
			13.301,1.511 13.301,3.302 10.346,3.302 10.346,4.642 12.961,4.642 12.961,6.465 10.346,6.465 10.346,7.981 13.301,7.981 
			13.301,9.749 8.182,9.749 		"/>
		<polygon style="clip-path:url(#SVGID_4_);fill:#FFC501;" points="22.795,1.5 18.96,9.749 17.972,9.749 14.128,1.5 16.302,1.5 
			18.466,6.19 20.641,1.5 		"/>
		<polygon style="clip-path:url(#SVGID_4_);fill:none;stroke:#000000;stroke-width:3;stroke-miterlimit:10;" points="22.795,1.5 
			18.96,9.749 17.972,9.749 14.128,1.5 16.302,1.5 18.466,6.19 20.641,1.5 		"/>
		<polygon style="clip-path:url(#SVGID_4_);fill:#FFC501;" points="23.743,1.511 28.863,1.511 28.863,3.302 25.907,3.302 
			25.907,4.642 28.522,4.642 28.522,6.465 25.907,6.465 25.907,7.981 28.863,7.981 28.863,9.749 23.743,9.749 		"/>
		<polygon style="clip-path:url(#SVGID_4_);fill:none;stroke:#000000;stroke-width:3;stroke-miterlimit:10;" points="23.743,1.511 
			28.863,1.511 28.863,3.302 25.907,3.302 25.907,4.642 28.522,4.642 28.522,6.465 25.907,6.465 25.907,7.981 28.863,7.981 
			28.863,9.749 23.743,9.749 		"/>
		<polygon style="clip-path:url(#SVGID_4_);fill:#FFC501;" points="30.414,1.511 32.578,1.511 32.578,7.575 35.544,7.575 
			35.544,9.749 30.414,9.749 		"/>
		<polygon style="clip-path:url(#SVGID_4_);fill:none;stroke:#000000;stroke-width:3;stroke-miterlimit:10;" points="30.414,1.511 
			32.578,1.511 32.578,7.575 35.544,7.575 35.544,9.749 30.414,9.749 		"/>
		<path style="clip-path:url(#SVGID_4_);fill:#FFC501;" d="M13.405,19.89c0,0.593,0.483,1.076,1.077,1.076
			c0.593,0,1.076-0.483,1.076-1.076v-4.954h2.175v4.988c0,1.811-1.461,3.25-3.251,3.25c-1.812,0-3.252-1.439-3.252-3.25v-4.988
			h2.175V19.89z"/>
		<path style="clip-path:url(#SVGID_4_);fill:none;stroke:#000000;stroke-width:3;stroke-miterlimit:10;" d="M13.405,19.89
			c0,0.593,0.483,1.076,1.077,1.076c0.593,0,1.076-0.483,1.076-1.076v-4.954h2.175v4.988c0,1.811-1.461,3.25-3.251,3.25
			c-1.812,0-3.252-1.439-3.252-3.25v-4.988h2.175V19.89z"/>
		<path style="clip-path:url(#SVGID_4_);fill:#FFC501;" d="M19.384,14.935h3.472c1.669,0,3.031,1.363,3.031,3.032
			c0,1.659-1.351,3.021-2.988,3.021h-1.351v2.186h-2.164V14.935z M21.548,19.121h1.34c0.659,0,1.186-0.517,1.186-1.175
			c0-0.66-0.527-1.186-1.186-1.186h-1.34V19.121z"/>
		<path style="clip-path:url(#SVGID_4_);fill:none;stroke:#000000;stroke-width:3;stroke-miterlimit:10;" d="M19.384,14.935h3.472
			c1.669,0,3.031,1.363,3.031,3.032c0,1.659-1.351,3.021-2.988,3.021h-1.351v2.186h-2.164V14.935z M21.548,19.121h1.34
			c0.659,0,1.186-0.517,1.186-1.175c0-0.66-0.527-1.186-1.186-1.186h-1.34V19.121z"/>
		<polygon style="clip-path:url(#SVGID_4_);fill:#FFC501;" points="1.5,1.511 3.664,1.511 3.664,7.575 6.63,7.575 6.63,9.749 
			1.5,9.749 		"/>
		<polygon style="clip-path:url(#SVGID_4_);fill:#FFC501;" points="8.182,1.511 13.301,1.511 13.301,3.302 10.346,3.302 
			10.346,4.642 12.961,4.642 12.961,6.465 10.346,6.465 10.346,7.981 13.301,7.981 13.301,9.749 8.182,9.749 		"/>
		<polygon style="clip-path:url(#SVGID_4_);fill:#FFC501;" points="22.795,1.5 18.96,9.749 17.972,9.749 14.128,1.5 16.302,1.5 
			18.466,6.19 20.641,1.5 		"/>
		<polygon style="clip-path:url(#SVGID_4_);fill:#FFC501;" points="23.743,1.511 28.863,1.511 28.863,3.302 25.907,3.302 
			25.907,4.642 28.522,4.642 28.522,6.465 25.907,6.465 25.907,7.981 28.863,7.981 28.863,9.749 23.743,9.749 		"/>
		<polygon style="clip-path:url(#SVGID_4_);fill:#FFC501;" points="30.414,1.511 32.578,1.511 32.578,7.575 35.544,7.575 
			35.544,9.749 30.414,9.749 		"/>
		<path style="clip-path:url(#SVGID_4_);fill:#FFC501;" d="M13.405,19.89c0,0.593,0.483,1.076,1.077,1.076
			c0.593,0,1.076-0.483,1.076-1.076v-4.954h2.175v4.988c0,1.811-1.461,3.25-3.251,3.25c-1.812,0-3.252-1.439-3.252-3.25v-4.988
			h2.175V19.89z"/>
		<path style="clip-path:url(#SVGID_4_);fill:#FFC501;" d="M19.384,14.935h3.472c1.669,0,3.031,1.363,3.031,3.032
			c0,1.659-1.351,3.021-2.988,3.021h-1.351v2.186h-2.164V14.935z M21.548,19.121h1.34c0.659,0,1.186-0.517,1.186-1.175
			c0-0.66-0.527-1.186-1.186-1.186h-1.34V19.121z"/>
	</g>
</g>
</svg>
