<?xml version="1.0" encoding="iso-8859-1"?>
<!-- Generator: Adobe Illustrator 22.0.1, SVG Export Plug-In . SVG Version: 6.00 Build 0)  -->
<svg version="1.1" id="&#x56FE;&#x5C42;_1" xmlns="http://www.w3.org/2000/svg" xmlns:xlink="http://www.w3.org/1999/xlink" x="0px"
	 y="0px" viewBox="0 0 33.259 46.762" style="enable-background:new 0 0 33.259 46.762;" xml:space="preserve">
<polygon style="fill:#336699;" points="0,31.036 0.195,32.69 5.31,37.448 7.058,39.074 8.022,36.342 3.072,31.859 8.112,26.81 
	6.543,24.189 "/>
<polygon style="fill:#336699;" points="10.637,37.118 12.278,39.106 19.196,25.68 16.999,24.589 "/>
<polygon style="fill:#336699;" points="28.465,14.551 29.853,20.581 24.793,24.356 25.815,26.816 32.758,22.281 33.241,20.907 
	30.681,12.576 "/>
<g>
	<defs>
		<rect id="SVGID_1_" y="0.001" width="33.259" height="46.761"/>
	</defs>
	<clipPath id="SVGID_2_">
		<use xlink:href="#SVGID_1_"  style="overflow:visible;"/>
	</clipPath>
	<path style="clip-path:url(#SVGID_2_);fill:#336699;" d="M10.697,23.538c7.287,0.268,13.135-0.19,15.574-2.37
		c2.005-2.139,2.149-4.789,0.696-7.88c-0.798-2.018-2.043-3.847-4.06-5.349c-1.74-1.354-3.601-2.324-5.635-2.738l-2.288-4.94
		c-0.067-0.257-0.109-0.346-0.077-0.166c0.135,0.752,0.132,1.422-0.029,2.058c-0.181,0.654-0.528,1.289-1.04,1.907
		c-0.34,0.401-0.756,0.805-1.26,1.227C7.942,6.093,5.537,8.77,3.563,11.808c-1.504,2.499-2.556,5.896-0.88,8.41
		c0.027,0.05,0.051,0.102,0.078,0.153c0.142,0.194,0.317,0.388,0.515,0.579c0.983,1.013,2.53,1.822,4.836,2.278
		c-0.076-0.03-0.144-0.068-0.217-0.1C8.73,23.313,9.657,23.457,10.697,23.538"/>
	<path style="clip-path:url(#SVGID_2_);fill:#274B63;" d="M14.867,0.035c0.993,2.409,1.745,4.546,1.554,5.626
		c8.356,2.395,14.539,12.773,8.527,16.376c6.391-3.111,1.844-14.762-7.708-16.877L14.867,0.035z"/>
	<polygon style="clip-path:url(#SVGID_2_);fill:#274B63;" points="25.817,26.795 25.512,26.064 32.442,21.9 32.932,20.833 
		30.682,12.548 33.259,20.888 32.775,22.263 	"/>
	<path style="clip-path:url(#SVGID_2_);fill:#EF3F3F;" d="M5.18,22.289L0,44.412c6.309-3.495,18.411,5.438,30.786,1.167
		L25.267,21.87C19.431,23.719,12.695,24.162,5.18,22.289"/>
	<polygon style="clip-path:url(#SVGID_2_);fill:#FFC501;" points="15.401,31.523 20.426,26.943 21.893,26.943 21.893,39.3 
		18.63,39.3 18.63,32.958 15.401,35.906 12.155,32.973 12.155,39.3 8.893,39.3 8.893,26.943 10.359,26.943 	"/>
	<polygon style="clip-path:url(#SVGID_2_);fill:#D32929;" points="23.104,22.478 30.787,45.579 25.267,21.87 	"/>
</g>
</svg>
