<svg xmlns="http://www.w3.org/2000/svg" viewBox="0 0 28.91 44.39"><defs><style>.cls-1{fill:#726146;}.cls-2{fill:#3270a3;}.cls-3{fill:#fff;}.cls-4{fill:#459edb;}</style></defs><title>行走1</title><g id="图层_2" data-name="图层 2"><g id="图层_11" data-name="图层 11"><ellipse class="cls-1" cx="14.45" cy="39.64" rx="14.45" ry="4.75"/><path class="cls-2" d="M24.67,22.36c-2.18,2.31-7.42,2.79-13.94,2.52C7,24.19,4.56,23,3.63,21.51c-1-2.11-1.34-4.67.71-9.08C6.11,9.2,8.27,6.36,12.41,5.5,14.07,3.7,14.9,2,14.5,0l2.12,5.41a11.45,11.45,0,0,1,5,2.91A12.77,12.77,0,0,1,25.3,14C26.6,17.27,26.48,20.09,24.67,22.36Z"/><path class="cls-3" d="M24.56,20.53c-.77,1.36-3.25,2.32-10.56,2.17-2.19-.26-3.76-.87-4.43-2C8.7,19,8.76,17,10.48,14.27a10.13,10.13,0,0,1,5.24-3.93,6.13,6.13,0,0,1,3.41.15,7.37,7.37,0,0,1,4.69,3.33C25.27,16.34,25.47,18.57,24.56,20.53Z"/><polygon class="cls-2" points="17.7 26.65 19.44 27.78 13.22 40.48 11.97 38.5 17.7 26.65"/><polygon class="cls-2" points="22.16 27.59 24.09 34.57 23.7 35.75 18.35 40.18 18.06 37.75 21.68 34.31 20.68 29.27 22.16 27.59"/><polygon class="cls-2" points="15.14 14.59 16.81 14.46 16.53 18.73 14.64 18.91 15.14 14.59"/><polygon class="cls-2" points="20.21 14.76 20.25 18.61 21.71 18.47 22 14.65 20.21 14.76"/><polygon class="cls-3" points="22.16 27.59 21.18 27.77 19.84 29.41 21.05 34.32 17.35 37.54 17.55 39.44 18.35 40.18 18.06 37.75 21.68 34.31 20.68 29.27 22.16 27.59"/><polygon class="cls-3" points="17.7 26.65 16.5 27.45 11.08 38.59 12.27 40.4 13.22 40.48 11.97 38.5 17.7 26.65"/><polygon class="cls-3" points="17.7 26.65 16.5 27.45 11.08 38.59 12.27 40.4 13.22 40.48 11.97 38.5 17.7 26.65"/><polygon class="cls-2" points="9.03 26.18 11.24 28.18 8.04 34.25 13.28 37.88 13.06 40.83 5.76 35.64 5.23 33.99 9.03 26.18"/><polygon class="cls-3" points="9.07 26.17 7.86 26.96 4.58 34.21 5.05 36.37 11.26 40.79 13.06 40.83 6.25 35.53 5.72 33.89 9.07 26.17"/><polygon class="cls-3" points="9.07 26.17 7.86 26.96 4.58 34.21 5.05 36.37 11.26 40.79 13.06 40.83 6.25 35.53 5.72 33.89 9.07 26.17"/><polygon class="cls-3" points="6.25 35.53 5.05 36.37 4.58 34.21 5.72 33.89 6.25 35.53"/><polygon class="cls-3" points="22.16 27.59 21.18 27.77 19.84 29.41 20.77 34.15 17.35 37.54 17.55 39.44 18.35 40.18 18.06 37.75 21.68 34.31 20.68 29.27 22.16 27.59"/><path class="cls-4" d="M14.5,0c.87,2.14,1.07,4-.11,5.35C8.29,7.9,1.62,19.94,9.18,24.55-2.65,22.72,3.63,7.7,12,5.61A5.69,5.69,0,0,0,14.5,0Z"/></g></g></svg>