<svg xmlns="http://www.w3.org/2000/svg" viewBox="0 0 35 47.22"><defs><style>.cls-1{fill:#fff;}.cls-2{fill:#874a18;}.cls-3{fill:#007aff;}.cls-4{fill:#e57b2c;}.cls-5{fill:#f8bf0f;}</style></defs><title>稻草人</title><g id="图层_2" data-name="图层 2"><g id="图层_9" data-name="图层 9"><polygon class="cls-1" points="14.56 46.88 11.61 16.97 22.76 16.34 20.95 47.22 14.56 46.88"/><polygon class="cls-1" points="14.56 46.88 11.61 16.97 22.76 16.34 20.95 47.22 14.56 46.88"/><polygon class="cls-1" points="13.96 12.25 5.38 13.48 5.38 17.75 10.78 19.48 10.78 37.32 24.71 37.32 24.65 20.48 28.54 22.25 30.75 16.34 23.25 13 13.96 12.25"/><polygon class="cls-1" points="29.08 20.81 32.94 23.42 35 20.42 30.21 17.77 29.08 20.81"/><polygon class="cls-1" points="29.08 20.81 32.94 23.42 35 20.42 30.21 17.77 29.08 20.81"/><polygon class="cls-1" points="5.38 14.17 0.33 13.46 0 16.34 5.38 16.83 5.38 14.17"/><polygon class="cls-1" points="5.38 14.17 0.33 13.46 0 16.34 5.38 16.83 5.38 14.17"/><polygon class="cls-1" points="20.43 12.78 15.1 12.34 15.35 10.8 20.43 10.8 20.43 12.78"/><polygon class="cls-1" points="20.43 12.78 15.1 12.34 15.35 10.8 20.43 10.8 20.43 12.78"/><circle class="cls-1" cx="18.06" cy="7.03" r="4.66"/><ellipse class="cls-1" cx="17.77" cy="5.71" rx="2.17" ry="9.06" transform="translate(8.68 22.01) rotate(-78.67)"/><polygon class="cls-1" points="15.67 5 14.58 4.17 16.75 0 22.72 1.67 22.25 6.42 15.67 5"/><polygon class="cls-2" points="14.56 46.88 11.61 16.97 22.76 16.34 20.95 47.22 14.56 46.88"/><polygon class="cls-3" points="13.96 12.25 5.38 13.48 5.38 17.75 10.78 19.48 10.78 37.32 24.71 37.32 24.65 20.48 28.54 22.25 30.75 16.34 23.25 13 13.96 12.25"/><polygon class="cls-2" points="29.08 20.81 32.94 23.42 35 20.42 30.21 17.77 29.08 20.81"/><polygon class="cls-2" points="5.38 14.17 0.33 13.46 0 16.34 5.38 16.83 5.38 14.17"/><polygon class="cls-2" points="20.43 12.78 15.1 12.34 15.35 10.8 20.43 10.8 20.43 12.78"/><circle class="cls-4" cx="18.06" cy="7.03" r="4.66"/><ellipse class="cls-5" cx="17.77" cy="5.71" rx="2.17" ry="9.06" transform="translate(8.68 22.01) rotate(-78.67)"/><polygon class="cls-5" points="15.67 5 14.58 4.17 16.75 0 22.72 1.67 22.25 6.42 15.67 5"/></g></g></svg>