<svg xmlns="http://www.w3.org/2000/svg" viewBox="0 0 28.91 44.39"><defs><style>.cls-1{fill:#726146;}.cls-2{fill:#3270a3;}.cls-3{fill:#fff;}.cls-4{fill:#459edb;}</style></defs><title>静止</title><g id="图层_2" data-name="图层 2"><g id="图层_11" data-name="图层 11"><ellipse class="cls-1" cx="14.45" cy="39.64" rx="14.45" ry="4.75"/><path class="cls-2" d="M24.67,22.36c-2.18,2.31-7.42,2.79-13.94,2.52C7,24.19,4.56,23,3.63,21.51c-1-2.11-1.34-4.67.71-9.08C6.11,9.2,8.27,6.36,12.41,5.5,14.07,3.7,14.9,2,14.5,0l2.12,5.41a11.45,11.45,0,0,1,5,2.91A12.77,12.77,0,0,1,25.3,14C26.6,17.27,26.48,20.09,24.67,22.36Z"/><path class="cls-3" d="M24.56,20.53c-.77,1.36-3.25,2.32-10.56,2.17-2.19-.26-3.76-.87-4.43-2C8.7,19,8.76,17,10.48,14.27a10.13,10.13,0,0,1,5.24-3.93,6.13,6.13,0,0,1,3.41.15,7.37,7.37,0,0,1,4.69,3.33C25.27,16.34,25.47,18.57,24.56,20.53Z"/><polygon class="cls-2" points="17.7 26.65 19.44 27.78 13.22 40.48 11.97 38.5 17.7 26.65"/><polygon class="cls-2" points="22.44 26 25.91 32.35 25.8 33.58 21.61 39.12 20.77 36.83 23.51 32.65 21.38 27.97 22.44 26"/><polygon class="cls-2" points="15.14 14.59 16.81 14.46 16.53 18.73 14.64 18.91 15.14 14.59"/><polygon class="cls-2" points="20.21 14.76 20.25 18.61 21.71 18.47 22 14.65 20.21 14.76"/><polygon class="cls-2" points="8.1 26.07 9.71 28.58 5.06 33.62 9.19 38.47 8.21 41.27 2.5 34.37 2.4 32.65 8.1 26.07"/><polygon class="cls-3" points="8.13 26.07 6.76 26.52 1.73 32.68 1.62 34.9 6.48 40.77 8.21 41.27 2.99 34.39 2.91 32.67 8.13 26.07"/><polygon class="cls-3" points="22.44 26 21.52 26.39 20.6 28.3 22.9 32.8 20.03 36.79 20.66 38.58 21.61 39.12 20.77 36.83 23.51 32.65 21.38 27.97 22.44 26"/><polygon class="cls-3" points="17.7 26.65 16.5 27.45 11.08 38.59 12.27 40.4 13.22 40.48 11.97 38.5 17.7 26.65"/><polygon class="cls-3" points="17.7 26.65 16.5 27.45 11.08 38.59 12.27 40.4 13.22 40.48 11.97 38.5 17.7 26.65"/><polygon class="cls-3" points="8.13 26.07 6.76 26.52 1.73 32.68 1.62 34.9 6.48 40.77 8.21 41.27 2.99 34.39 2.91 32.67 8.13 26.07"/><polygon class="cls-3" points="2.99 34.39 1.62 34.9 1.73 32.68 2.91 32.67 2.99 34.39"/><polygon class="cls-3" points="22.44 26 21.52 26.39 20.6 28.3 22.59 32.7 20.03 36.79 20.66 38.58 21.61 39.12 20.77 36.83 23.51 32.65 21.38 27.97 22.44 26"/><path class="cls-4" d="M14.5,0c.87,2.14,1.07,4-.11,5.35C8.29,7.9,1.62,19.94,9.18,24.55-2.65,22.72,3.63,7.7,12,5.61A5.69,5.69,0,0,0,14.5,0Z"/></g></g></svg>