<svg xmlns="http://www.w3.org/2000/svg" viewBox="0 0 34.72 20.28"><defs><style>.cls-1{fill:#fff;}.cls-2{fill:#bfbfbd;}.cls-3{fill:#d4d4d2;}.cls-4{fill:#aeb0af;}.cls-5{fill:#9e9e9c;}</style></defs><title>石头1</title><g id="图层_2" data-name="图层 2"><g id="图层_9" data-name="图层 9"><polygon class="cls-1" points="4.82 6.18 9.63 11.39 6.57 17.96 0 13.24 4.82 6.18"/><polygon class="cls-1" points="4.82 6.18 9.63 11.39 6.57 17.96 0 13.24 4.82 6.18"/><polygon class="cls-1" points="4.82 6.18 18.15 0 23.98 11.48 9.63 11.39 4.82 6.18"/><polygon class="cls-1" points="4.82 6.18 18.15 0 23.98 11.48 9.63 11.39 4.82 6.18"/><polygon class="cls-1" points="6.57 17.96 23.98 20.28 23.98 11.48 9.63 11.39 6.57 17.96"/><polygon class="cls-1" points="6.57 17.96 23.98 20.28 23.98 11.48 9.63 11.39 6.57 17.96"/><polygon class="cls-1" points="18.15 0 27.04 2.22 34.72 9.35 23.98 11.48 18.15 0"/><polygon class="cls-1" points="18.15 0 27.04 2.22 34.72 9.35 23.98 11.48 18.15 0"/><polygon class="cls-1" points="23.98 20.28 34.72 14.35 34.72 9.35 23.98 11.48 23.98 20.28"/><polygon class="cls-1" points="23.98 20.28 34.72 14.35 34.72 9.35 23.98 11.48 23.98 20.28"/><polygon class="cls-2" points="4.82 6.18 9.63 11.39 6.57 17.96 0 13.24 4.82 6.18"/><polygon class="cls-3" points="4.82 6.18 18.15 0 23.98 11.48 9.63 11.39 4.82 6.18"/><polygon class="cls-4" points="6.57 17.96 23.98 20.28 23.98 11.48 9.63 11.39 6.57 17.96"/><polygon class="cls-2" points="18.15 0 27.04 2.22 34.72 9.35 23.98 11.48 18.15 0"/><polygon class="cls-5" points="23.98 20.28 34.72 14.35 34.72 9.35 23.98 11.48 23.98 20.28"/></g></g></svg>