<svg xmlns="http://www.w3.org/2000/svg" viewBox="0 0 46.88 27.38"><defs><style>.cls-1{fill:#fff;}.cls-2{fill:#bfbfbd;}.cls-3{fill:#d4d4d2;}.cls-4{fill:#aeb0af;}.cls-5{fill:#9e9e9c;}</style></defs><title>石头3</title><g id="图层_2" data-name="图层 2"><g id="图层_9" data-name="图层 9"><polygon class="cls-1" points="40.38 8.34 33.88 15.38 38 24.25 46.88 17.88 40.38 8.34"/><polygon class="cls-1" points="40.38 8.34 33.88 15.38 38 24.25 46.88 17.88 40.38 8.34"/><polygon class="cls-1" points="40.38 8.34 22.38 0 14.5 15.5 33.88 15.38 40.38 8.34"/><polygon class="cls-1" points="40.38 8.34 22.38 0 14.5 15.5 33.88 15.38 40.38 8.34"/><polygon class="cls-1" points="38 24.25 14.5 27.38 14.5 15.5 33.88 15.38 38 24.25"/><polygon class="cls-1" points="38 24.25 14.5 27.38 14.5 15.5 33.88 15.38 38 24.25"/><polygon class="cls-1" points="22.38 0 10.38 3 0 12.63 14.5 15.5 22.38 0"/><polygon class="cls-1" points="22.38 0 10.38 3 0 12.63 14.5 15.5 22.38 0"/><polygon class="cls-1" points="14.5 27.38 0 19.38 0 12.63 14.5 15.5 14.5 27.38"/><polygon class="cls-1" points="14.5 27.38 0 19.38 0 12.63 14.5 15.5 14.5 27.38"/><polygon class="cls-2" points="40.38 8.34 33.88 15.38 38 24.25 46.88 17.88 40.38 8.34"/><polygon class="cls-3" points="40.38 8.34 22.38 0 14.5 15.5 33.88 15.38 40.38 8.34"/><polygon class="cls-4" points="38 24.25 14.5 27.38 14.5 15.5 33.88 15.38 38 24.25"/><polygon class="cls-2" points="22.38 0 10.38 3 0 12.63 14.5 15.5 22.38 0"/><polygon class="cls-5" points="14.5 27.38 0 19.38 0 12.63 14.5 15.5 14.5 27.38"/></g></g></svg>