<svg xmlns="http://www.w3.org/2000/svg" viewBox="0 0 55.24 48.38"><defs><style>.cls-1{fill:#fff;}.cls-2{fill:#bfbfbd;}.cls-3{fill:#d4d4d2;}.cls-4{fill:#aeb0af;}.cls-5{fill:#9e9e9c;}</style></defs><title>石头2</title><g id="图层_2" data-name="图层 2"><g id="图层_9" data-name="图层 9"><polygon class="cls-1" points="45.26 19.58 38.35 32.44 42.76 48.38 55.24 36.28 45.26 19.58"/><polygon class="cls-1" points="45.26 19.58 38.35 32.44 42.76 48.38 55.24 36.28 45.26 19.58"/><polygon class="cls-1" points="45.26 19.58 29.9 0 17.81 17.66 38.35 32.44 45.26 19.58"/><polygon class="cls-1" points="45.26 19.58 29.9 0 17.81 17.66 38.35 32.44 45.26 19.58"/><polygon class="cls-1" points="42.76 48.38 9.75 48.38 17.81 17.66 38.35 32.44 42.76 48.38"/><polygon class="cls-1" points="42.76 48.38 9.75 48.38 17.81 17.66 38.35 32.44 42.76 48.38"/><polygon class="cls-1" points="29.9 0 11.86 12.67 0 28.03 17.81 17.66 29.9 0"/><polygon class="cls-1" points="29.9 0 11.86 12.67 0 28.03 17.81 17.66 29.9 0"/><polygon class="cls-1" points="9.75 48.38 1.88 48.38 0 28.03 17.81 17.66 9.75 48.38"/><polygon class="cls-1" points="9.75 48.38 1.88 48.38 0 28.03 17.81 17.66 9.75 48.38"/><polygon class="cls-2" points="45.26 19.58 38.35 32.44 42.76 48.38 55.24 36.28 45.26 19.58"/><polygon class="cls-3" points="45.26 19.58 29.9 0 17.81 17.66 38.35 32.44 45.26 19.58"/><polygon class="cls-4" points="42.76 48.38 9.75 48.38 17.81 17.66 38.35 32.44 42.76 48.38"/><polygon class="cls-2" points="29.9 0 11.86 12.67 0 28.03 17.81 17.66 29.9 0"/><polygon class="cls-5" points="9.75 48.38 1.88 48.38 0 28.03 17.81 17.66 9.75 48.38"/></g></g></svg>