<svg xmlns="http://www.w3.org/2000/svg" viewBox="0 0 32.17 25.5"><defs><style>.cls-1{fill:#fff;}.cls-2{fill:#aeb0af;}.cls-3{fill:#d4d4d2;}.cls-4{fill:#9e9e9c;}</style></defs><title>石头4</title><g id="图层_2" data-name="图层 2"><g id="图层_9" data-name="图层 9"><polyline class="cls-1" points="32.17 11.33 22 0 22.83 11.33 26.33 25.5"/><polyline class="cls-1" points="32.17 11.33 22 0 22.83 11.33 26.33 25.5"/><polygon class="cls-1" points="22 0 6.06 9.08 22.83 11.33 22 0"/><polygon class="cls-1" points="22 0 6.06 9.08 22.83 11.33 22 0"/><polygon class="cls-1" points="26.33 25.5 0 15.46 6.06 9.08 22.83 11.33 26.33 25.5"/><polygon class="cls-1" points="26.33 25.5 0 15.46 6.06 9.08 22.83 11.33 26.33 25.5"/><polyline class="cls-2" points="32.17 11.33 22 0 22.83 11.33 26.33 25.5"/><polygon class="cls-3" points="22 0 6.06 9.08 22.83 11.33 22 0"/><polygon class="cls-4" points="26.33 25.5 0 15.46 6.06 9.08 22.83 11.33 26.33 25.5"/></g></g></svg>