<svg id="图层_1" data-name="图层 1" xmlns="http://www.w3.org/2000/svg" viewBox="0 0 66 25"><defs><style>.cls-1{opacity:0.2;}.cls-2{fill:#ff4800;}.cls-3{fill:#ea0000;}.cls-4{fill:#44b149;}.cls-5{fill:#ac60a3;}.cls-6{fill:#f08724;}.cls-7{fill:#7363aa;}.cls-8{fill:#ed6687;}.cls-9{fill:#fff;}.cls-10{fill:#528ac8;}.cls-11{fill:#3a6389;}.cls-12{fill:#b7b3a7;}</style></defs><title>Scratch界面</title><g class="cls-1"><rect class="cls-2" x="3.34" y="7.41" width="2.18" height="1.63"/><rect class="cls-2" x="5.52" y="7.41" width="2.18" height="1.63"/><rect class="cls-2" x="7.7" y="7.41" width="2.18" height="1.63"/><rect class="cls-2" x="3.34" y="17.2" width="2.18" height="1.63"/><rect class="cls-2" x="1.16" y="17.2" width="2.18" height="1.63"/><rect class="cls-2" x="5.52" y="17.2" width="2.18" height="1.63"/><rect class="cls-2" x="3.34" y="12.3" width="2.18" height="1.63"/><rect class="cls-2" x="5.52" y="12.3" width="2.18" height="1.63"/><rect class="cls-2" x="1.16" y="9.04" width="2.18" height="1.63"/><rect class="cls-2" x="1.16" y="10.67" width="2.18" height="1.63"/><rect class="cls-2" x="7.7" y="13.94" width="2.18" height="1.63"/><rect class="cls-2" x="7.7" y="15.57" width="2.18" height="1.63"/><rect class="cls-2" x="20" y="10.67" width="2.18" height="1.63"/><rect class="cls-2" x="20" y="9.04" width="2.18" height="1.63"/><rect class="cls-2" x="20" y="7.41" width="2.18" height="1.63"/><rect class="cls-2" x="22.18" y="7.41" width="2.18" height="1.63"/><rect class="cls-2" x="24.36" y="7.41" width="2.18" height="1.63"/><rect class="cls-2" x="26.54" y="9.04" width="2.18" height="1.63"/><rect class="cls-2" x="20" y="12.3" width="2.18" height="1.63"/><rect class="cls-2" x="20" y="13.94" width="2.18" height="1.63"/><rect class="cls-2" x="20" y="15.57" width="2.18" height="1.63"/><rect class="cls-2" x="20" y="17.2" width="2.18" height="1.63"/><rect class="cls-2" x="22.18" y="12.3" width="2.18" height="1.63"/><rect class="cls-2" x="26.54" y="10.67" width="2.18" height="1.63"/><rect class="cls-2" x="24.36" y="12.3" width="2.18" height="1.63"/><rect class="cls-2" x="24.36" y="15.57" width="2.18" height="1.63"/><rect class="cls-2" x="26.54" y="17.2" width="2.18" height="1.63"/><rect class="cls-2" x="37.79" y="7.42" width="2.18" height="1.63"/><rect class="cls-2" x="39.97" y="7.42" width="2.18" height="1.63"/><rect class="cls-2" x="42.15" y="7.41" width="2.18" height="1.63"/><rect class="cls-2" x="44.33" y="7.41" width="2.18" height="1.63"/><rect class="cls-2" x="41.05" y="9.04" width="2.18" height="1.63"/><rect class="cls-2" x="41.05" y="10.67" width="2.18" height="1.63"/><rect class="cls-2" x="41.05" y="12.3" width="2.18" height="1.63"/><rect class="cls-2" x="41.05" y="13.94" width="2.18" height="1.63"/><rect class="cls-2" x="41.05" y="15.57" width="2.18" height="1.63"/><rect class="cls-2" x="41.05" y="17.2" width="2.18" height="1.63"/><rect class="cls-2" x="22.18" y="13.94" width="2.18" height="1.63"/><rect class="cls-2" x="12.76" y="7.41" width="2.18" height="1.63"/><rect class="cls-2" x="10.58" y="9.04" width="2.18" height="1.63"/><rect class="cls-2" x="10.58" y="10.67" width="2.18" height="1.63"/><rect class="cls-2" x="10.58" y="12.3" width="2.18" height="1.63"/><rect class="cls-2" x="10.58" y="13.94" width="2.18" height="1.63"/><rect class="cls-2" x="10.58" y="15.57" width="2.18" height="1.63"/><rect class="cls-2" x="12.76" y="17.2" width="2.18" height="1.63"/><rect class="cls-2" x="14.94" y="17.2" width="2.18" height="1.63"/><rect class="cls-2" x="17.12" y="17.2" width="2.18" height="1.63"/><rect class="cls-2" x="14.94" y="7.41" width="2.18" height="1.63"/><rect class="cls-2" x="17.12" y="7.41" width="2.18" height="1.63"/><rect class="cls-2" x="63.23" y="9.04" width="2.18" height="1.63"/><rect class="cls-2" x="63.23" y="10.67" width="2.18" height="1.63"/><rect class="cls-2" x="63.23" y="12.3" width="2.18" height="1.63"/><rect class="cls-2" x="63.23" y="13.94" width="2.18" height="1.63"/><rect class="cls-2" x="63.23" y="15.57" width="2.18" height="1.63"/><rect class="cls-2" x="49.39" y="7.41" width="2.18" height="1.63"/><rect class="cls-2" x="47.21" y="9.04" width="2.18" height="1.63"/><rect class="cls-2" x="47.21" y="10.67" width="2.18" height="1.63"/><rect class="cls-2" x="47.21" y="12.3" width="2.18" height="1.63"/><rect class="cls-2" x="47.21" y="13.94" width="2.18" height="1.63"/><rect class="cls-2" x="47.21" y="15.57" width="2.18" height="1.63"/><rect class="cls-2" x="49.39" y="17.2" width="2.18" height="1.63"/><rect class="cls-2" x="51.57" y="17.2" width="2.18" height="1.63"/><rect class="cls-2" x="53.75" y="17.2" width="2.18" height="1.63"/><rect class="cls-2" x="51.57" y="7.41" width="2.18" height="1.63"/><rect class="cls-2" x="53.75" y="7.41" width="2.18" height="1.63"/><rect class="cls-2" x="58.87" y="12.3" width="2.18" height="1.63"/><rect class="cls-2" x="61.06" y="12.3" width="2.18" height="1.63"/><rect class="cls-2" x="63.24" y="7.41" width="2.18" height="1.63"/><rect class="cls-2" x="63.24" y="17.2" width="2.18" height="1.63"/><rect class="cls-2" x="56.66" y="9.04" width="2.18" height="1.63"/><rect class="cls-2" x="56.66" y="10.67" width="2.18" height="1.63"/><rect class="cls-2" x="56.66" y="12.3" width="2.18" height="1.63"/><rect class="cls-2" x="56.66" y="13.94" width="2.18" height="1.63"/><rect class="cls-2" x="56.66" y="15.57" width="2.18" height="1.63"/><rect class="cls-2" x="56.67" y="7.41" width="2.18" height="1.63"/><rect class="cls-2" x="56.67" y="17.2" width="2.18" height="1.63"/><path class="cls-2" d="M30.79,10.84a4.74,4.74,0,0,1,2.36-1.26,4.12,4.12,0,0,1,1.54,0,3.55,3.55,0,0,1,2.11,1.07,1.72,1.72,0,0,1,.33,2.15c-.34.44-1.46.75-4.76.7a2.81,2.81,0,0,1-2-.64C30,12.36,30,11.71,30.79,10.84Z"/><polygon class="cls-2" points="31.17 14.32 31.68 15.16 30.06 16.78 31.65 18.22 31.34 19.1 29.14 17.05 29.07 16.52 31.17 14.32"/><polygon class="cls-2" points="34.53 14.45 35.24 14.8 33.02 19.11 32.49 18.47 34.53 14.45"/><polygon class="cls-2" points="37.04 14.3 38.56 16.49 38.54 16.96 36.77 19.13 36.34 18.27 37.49 16.64 36.44 14.91 37.04 14.3"/><path class="cls-2" d="M37.74,10.81a3.84,3.84,0,0,0-1.3-1.72,4.37,4.37,0,0,0-1.81-.88l-.76-1.64a1.63,1.63,0,0,1-.75,1.67,4.13,4.13,0,0,0-2.9,2.1A2.61,2.61,0,0,0,30,13.09a3.43,3.43,0,0,0,2.55,1c2.34.09,4.22-.06,5-.76A2.11,2.11,0,0,0,37.74,10.81Zm-.66,2c-.34.43-1.44.73-4.68.69a2.76,2.76,0,0,1-2-.63c-.38-.53-.36-1.18.41-2a4.65,4.65,0,0,1,2.32-1.24,4.06,4.06,0,0,1,1.52,0,3.5,3.5,0,0,1,2.08,1.05A1.69,1.69,0,0,1,37.08,12.86Z"/><polygon class="cls-2" points="32.52 10.94 33.12 10.9 33.02 12.19 32.35 12.25 32.52 10.94"/><polygon class="cls-2" points="34.72 10.92 34.73 12.21 35.31 12.16 35.43 10.88 34.72 10.92"/><path class="cls-2" d="M33.86,6.57a4.47,4.47,0,0,1,.5,1.8c2.68.77,4.67,4.1,2.75,5.25,2-1,.57-4.73-2.49-5.41Z"/><polygon class="cls-2" points="37.04 14.3 36.86 14.48 38.42 16.55 38.43 16.93 36.77 19.13 36.77 19.13 38.54 16.96 38.56 16.49 37.04 14.3"/></g><polygon class="cls-3" points="7.12 8.34 9.3 8.34 9.3 6.71 7.12 6.71 4.94 6.71 2.76 6.71 2.76 8.34 4.94 8.34 7.12 8.34"/><polygon class="cls-3" points="2.76 16.5 0.58 16.5 0.58 18.13 2.76 18.13 4.94 18.13 7.12 18.13 7.12 16.5 4.94 16.5 2.76 16.5"/><polygon class="cls-3" points="4.94 11.6 2.76 11.6 2.76 13.23 4.94 13.23 7.12 13.23 7.12 11.6 4.94 11.6"/><polygon class="cls-3" points="2.76 9.97 2.76 8.34 0.58 8.34 0.58 9.97 0.58 11.6 2.76 11.6 2.76 9.97"/><polygon class="cls-3" points="7.12 13.23 7.12 14.87 7.12 16.5 9.3 16.5 9.3 14.87 9.3 13.23 7.12 13.23"/><polygon class="cls-4" points="43.75 6.71 41.57 6.71 39.39 6.71 37.22 6.71 37.22 8.34 39.39 8.34 40.48 8.34 40.48 9.97 40.48 11.6 40.48 13.23 40.48 14.87 40.48 16.5 40.48 18.13 42.65 18.13 42.65 16.5 42.65 14.87 42.65 13.23 42.65 11.6 42.65 9.97 42.65 8.34 43.75 8.34 45.93 8.34 45.93 6.71 43.75 6.71"/><polygon class="cls-5" points="25.96 8.34 25.96 9.97 25.96 11.6 28.14 11.6 28.14 9.97 28.14 8.34 25.96 8.34"/><polygon class="cls-5" points="21.61 11.6 21.61 9.97 21.61 8.34 23.78 8.34 25.96 8.34 25.96 6.71 23.78 6.71 21.61 6.71 19.43 6.71 19.43 8.34 19.43 9.97 19.43 11.6 19.43 13.23 19.43 14.87 19.43 16.5 19.43 18.13 21.61 18.13 21.61 16.5 21.61 14.87 23.78 14.87 23.78 13.23 25.96 13.23 25.96 11.6 23.78 11.6 21.61 11.6"/><rect class="cls-5" x="23.78" y="14.87" width="2.18" height="1.63"/><rect class="cls-5" x="25.96" y="16.5" width="2.18" height="1.63"/><polygon class="cls-6" points="12.18 13.23 12.18 11.6 12.18 9.97 12.18 8.34 10.01 8.34 10.01 9.97 10.01 11.6 10.01 13.23 10.01 14.87 10.01 16.5 12.18 16.5 12.18 14.87 12.18 13.23"/><polygon class="cls-6" points="14.36 18.13 16.54 18.13 18.72 18.13 18.72 16.5 16.54 16.5 14.36 16.5 12.18 16.5 12.18 18.13 14.36 18.13"/><polygon class="cls-6" points="16.54 8.34 18.72 8.34 18.72 6.71 16.54 6.71 14.36 6.71 12.18 6.71 12.18 8.34 14.36 8.34 16.54 8.34"/><polygon class="cls-7" points="48.82 13.23 48.82 11.6 48.82 9.97 48.82 8.34 46.64 8.34 46.64 9.97 46.64 11.6 46.64 13.23 46.64 14.87 46.64 16.5 48.82 16.5 48.82 14.87 48.82 13.23"/><polygon class="cls-7" points="50.99 18.13 53.17 18.13 55.35 18.13 55.35 16.5 53.17 16.5 50.99 16.5 48.82 16.5 48.82 18.13 50.99 18.13"/><polygon class="cls-7" points="53.17 8.34 55.35 8.34 55.35 6.71 53.17 6.71 50.99 6.71 48.82 6.71 48.82 8.34 50.99 8.34 53.17 8.34"/><polygon class="cls-8" points="62.62 6.71 62.62 8.34 62.62 9.97 62.62 11.6 60.44 11.6 58.27 11.6 58.27 9.97 58.27 8.34 58.27 8.34 58.27 6.71 56.09 6.71 56.09 8.34 56.09 8.34 56.09 9.97 56.09 11.6 56.09 13.23 56.09 14.87 56.09 16.5 56.09 16.5 56.09 18.13 58.27 18.13 58.27 16.5 58.27 16.5 58.27 14.87 58.27 13.23 60.44 13.23 62.62 13.23 62.62 14.87 62.62 16.5 62.62 18.13 64.8 18.13 64.8 16.5 64.8 14.87 64.8 13.23 64.8 11.6 64.8 9.97 64.8 8.34 64.8 6.71 62.62 6.71"/><path class="cls-9" d="M30.21,10.14a4.74,4.74,0,0,1,2.36-1.26,4.12,4.12,0,0,1,1.54,0A3.55,3.55,0,0,1,36.23,10a1.72,1.72,0,0,1,.33,2.15c-.34.44-1.46.75-4.76.7a2.81,2.81,0,0,1-2-.64C29.41,11.66,29.44,11,30.21,10.14Z"/><polygon class="cls-10" points="30.6 13.62 31.1 14.46 29.48 16.08 31.07 17.52 30.76 18.4 28.56 16.35 28.5 15.82 30.6 13.62"/><polygon class="cls-10" points="33.96 13.75 34.66 14.1 32.44 18.41 31.91 17.77 33.96 13.75"/><polygon class="cls-10" points="36.46 13.6 37.98 15.79 37.96 16.25 36.19 18.43 35.77 17.57 36.91 15.94 35.86 14.21 36.46 13.6"/><path class="cls-10" d="M37.16,10.11a3.84,3.84,0,0,0-1.3-1.72A4.37,4.37,0,0,0,34,7.52l-.76-1.64a1.63,1.63,0,0,1-.75,1.67,4.13,4.13,0,0,0-2.9,2.1,2.61,2.61,0,0,0-.26,2.75,3.43,3.43,0,0,0,2.55,1c2.34.09,4.22-.06,5-.76A2.11,2.11,0,0,0,37.16,10.11Zm-.66,2c-.34.43-1.44.73-4.68.69a2.76,2.76,0,0,1-2-.63c-.38-.53-.36-1.18.41-2a4.65,4.65,0,0,1,2.32-1.24A4.06,4.06,0,0,1,34.1,9,3.5,3.5,0,0,1,36.17,10,1.69,1.69,0,0,1,36.5,12.16Z"/><polygon class="cls-10" points="31.95 10.24 32.55 10.2 32.45 11.49 31.77 11.55 31.95 10.24"/><polygon class="cls-10" points="34.14 10.22 34.16 11.51 34.74 11.46 34.85 10.18 34.14 10.22"/><path class="cls-11" d="M33.29,5.87a4.47,4.47,0,0,1,.5,1.8c2.68.77,4.67,4.1,2.75,5.25,2-1,.57-4.73-2.49-5.41Z"/><polygon class="cls-11" points="36.46 13.6 36.28 13.78 37.84 15.86 37.86 16.23 36.19 18.43 36.19 18.43 37.96 16.25 37.98 15.79 36.46 13.6"/><polygon points="28.98 10.17 37.26 10.17 37.26 10.5 37.26 10.57 37.26 10.89 36.85 10.89 36.85 11.29 36.48 11.29 36.48 11.69 36.12 11.69 36.12 12.08 34.59 12.08 34.59 11.69 34.18 11.69 34.18 11.29 33.82 11.29 33.82 10.89 33.82 10.57 33.12 10.57 33.12 10.89 33.12 11.29 32.76 11.29 32.76 11.69 32.38 11.69 32.38 12.08 30.84 12.08 30.84 11.69 30.46 11.69 30.46 11.29 30.1 11.29 30.1 10.89 29.68 10.89 29.68 10.57 28.98 10.57 28.98 10.17"/><rect class="cls-12" x="30.14" y="10.54" width="0.37" height="0.37"/><rect class="cls-12" x="30.51" y="10.91" width="0.37" height="0.37"/><rect class="cls-12" x="30.88" y="11.28" width="0.37" height="0.37"/><rect class="cls-12" x="30.88" y="10.54" width="0.37" height="0.37"/><rect class="cls-12" x="31.26" y="10.91" width="0.37" height="0.37"/><rect class="cls-12" x="31.63" y="11.28" width="0.37" height="0.37"/><rect class="cls-12" x="33.97" y="10.54" width="0.37" height="0.37"/><rect class="cls-12" x="34.35" y="10.91" width="0.37" height="0.37"/><rect class="cls-12" x="34.72" y="11.28" width="0.37" height="0.37"/><rect class="cls-12" x="34.72" y="10.54" width="0.37" height="0.37"/><rect class="cls-12" x="35.09" y="10.91" width="0.37" height="0.37"/><rect class="cls-12" x="35.47" y="11.28" width="0.37" height="0.37"/></svg>