<?xml version="1.0" encoding="utf-8"?>
<!-- Generator: Adobe Illustrator 21.1.0, SVG Export Plug-In . SVG Version: 6.00 Build 0)  -->
<svg version="1.1" id="图层_1" xmlns="http://www.w3.org/2000/svg" xmlns:xlink="http://www.w3.org/1999/xlink" x="0px" y="0px"
	 viewBox="0 0 66 25" style="enable-background:new 0 0 66 25;" xml:space="preserve">
<style type="text/css">
	.st0{fill:#11151E;}
	.st1{fill:#528AC8;stroke:#000000;stroke-linejoin:round;}
	.st2{fill:#F2A323;stroke:#000000;stroke-linejoin:round;}
	.st3{fill:#AC60A3;stroke:#000000;stroke-linejoin:round;}
	.st4{fill:#7363AA;stroke:#000000;stroke-linejoin:round;}
	.st5{fill:#EA6178;stroke:#000000;stroke-linejoin:round;}
	.st6{fill:#44B149;stroke:#000000;stroke-linejoin:round;}
	.st7{fill:#FFFFFF;stroke:#000000;stroke-linejoin:round;}
	.st8{fill:#3A6389;stroke:#000000;stroke-linejoin:round;}
	.st9{stroke:#000000;stroke-linejoin:round;}
	.st10{fill:#B7B3A7;stroke:#000000;stroke-linejoin:round;}
	.st11{fill:#528AC8;}
	.st12{fill:#F2A323;}
	.st13{fill:#AC60A3;}
	.st14{fill:#7363AA;}
	.st15{fill:#EA6178;}
	.st16{fill:#44B149;}
	.st17{fill:#FFFFFF;}
	.st18{fill:#3A6389;}
	.st19{fill:#B7B3A7;}
</style>
<polygon class="st0" points="8,4.5 10.1,4.5 10.1,2.9 8,2.9 5.9,2.9 3.8,2.9 3.8,4.5 5.9,4.5 "/>
<polygon class="st0" points="3.8,12.4 1.7,12.4 1.7,14 3.8,14 5.9,14 8,14 8,12.4 5.9,12.4 "/>
<polygon class="st0" points="5.9,7.7 3.8,7.7 3.8,9.3 5.9,9.3 8,9.3 8,7.7 "/>
<polygon class="st0" points="3.8,6.1 3.8,4.5 1.7,4.5 1.7,6.1 1.7,7.7 3.8,7.7 "/>
<polygon class="st0" points="8,9.3 8,10.9 8,12.4 10.1,12.4 10.1,10.9 10.1,9.3 "/>
<polygon class="st0" points="43.6,2.9 41.5,2.9 39.4,2.9 37.3,2.9 37.3,4.5 39.4,4.5 40.5,4.5 40.5,6.1 40.5,7.7 40.5,9.3
	40.5,10.9 40.5,12.4 40.5,14 42.6,14 42.6,12.4 42.6,10.9 42.6,9.3 42.6,7.7 42.6,6.1 42.6,4.5 43.6,4.5 45.8,4.5 45.8,2.9 "/>
<polygon class="st0" points="26.3,4.5 26.3,6.1 26.3,7.7 28.5,7.7 28.5,6.1 28.5,4.5 "/>
<polygon class="st0" points="22.1,7.7 22.1,6.1 22.1,4.5 24.2,4.5 26.3,4.5 26.3,2.9 24.2,2.9 22.1,2.9 20,2.9 20,4.5 20,6.1
	20,7.7 20,9.3 20,10.9 20,12.4 20,14 22.1,14 22.1,12.4 22.1,10.9 24.2,10.9 24.2,9.3 26.3,9.3 26.3,7.7 24.2,7.7 "/>
<rect x="24.2" y="10.9" class="st0" width="2.1" height="1.6"/>
<rect x="26.3" y="12.4" class="st0" width="2.1" height="1.6"/>
<polygon class="st0" points="12.9,9.3 12.9,7.7 12.9,6.1 12.9,4.5 10.8,4.5 10.8,6.1 10.8,7.7 10.8,9.3 10.8,10.9 10.8,12.4
	12.9,12.4 12.9,10.9 "/>
<polygon class="st0" points="15.1,14 17.2,14 19.3,14 19.3,12.4 17.2,12.4 15.1,12.4 12.9,12.4 12.9,14 "/>
<polygon class="st0" points="17.2,4.5 19.3,4.5 19.3,2.9 17.2,2.9 15.1,2.9 12.9,2.9 12.9,4.5 15.1,4.5 "/>
<polygon class="st0" points="48.6,9.3 48.6,7.7 48.6,6.1 48.6,4.5 46.5,4.5 46.5,6.1 46.5,7.7 46.5,9.3 46.5,10.9 46.5,12.4
	48.6,12.4 48.6,10.9 "/>
<polygon class="st0" points="50.7,14 52.8,14 54.9,14 54.9,12.4 52.8,12.4 50.7,12.4 48.6,12.4 48.6,14 "/>
<polygon class="st0" points="52.8,4.5 54.9,4.5 54.9,2.9 52.8,2.9 50.7,2.9 48.6,2.9 48.6,4.5 50.7,4.5 "/>
<polygon class="st0" points="62,2.9 62,4.5 62,6.1 62,7.7 59.9,7.7 57.8,7.7 57.8,6.1 57.8,4.5 57.8,4.5 57.8,2.9 55.6,2.9
	55.6,4.5 55.6,4.5 55.6,6.1 55.6,7.7 55.6,9.3 55.6,10.9 55.6,12.4 55.6,12.4 55.6,14 57.8,14 57.8,12.4 57.8,12.4 57.8,10.9
	57.8,9.3 59.9,9.3 62,9.3 62,10.9 62,12.4 62,14 64.1,14 64.1,12.4 64.1,10.9 64.1,9.3 64.1,7.7 64.1,6.1 64.1,4.5 64.1,2.9 "/>
<path class="st0" d="M30.5,6.3c0.6-0.6,1.4-1.1,2.3-1.3c0.5-0.1,1-0.1,1.5,0c0.8,0.1,1.5,0.4,2.1,1c0.6,0.5,0.7,1.4,0.3,2.1
	c-0.3,0.4-1.4,0.7-4.6,0.7c-0.7,0.1-1.4-0.2-2-0.6C29.7,7.8,29.7,7.1,30.5,6.3z"/>
<polygon class="st0" points="30.9,9.6 31.3,10.5 29.8,12 31.3,13.4 31,14.3 28.9,12.3 28.8,11.8 "/>
<polygon class="st0" points="34.1,9.8 34.8,10.1 32.6,14.3 32.1,13.7 "/>
<polygon class="st0" points="36.5,9.6 38,11.8 38,12.2 36.3,14.3 35.9,13.5 37,11.9 36,10.2 "/>
<path class="st0" d="M37.2,6.2C37,5.6,36.6,5,36,4.6c-0.5-0.4-1.1-0.7-1.8-0.9l-0.7-1.6c0.1,0.6-0.2,1.3-0.7,1.6
	c-1.2,0.2-2.2,0.9-2.8,2c-0.6,0.8-0.7,1.8-0.3,2.7c0.7,0.7,1.5,1,2.5,1c2.3,0.1,4.1-0.1,4.9-0.7C37.7,8,37.7,7,37.2,6.2z M36.6,8.2
	c-0.3,0.4-1.4,0.7-4.5,0.7c-0.7,0.1-1.4-0.2-1.9-0.6c-0.4-0.5-0.4-1.2,0.4-2c0.6-0.6,1.4-1,2.3-1.2c0.5-0.1,1-0.1,1.5,0
	c0.8,0.1,1.5,0.5,2,1C36.9,6.6,37,7.5,36.6,8.2L36.6,8.2z"/>
<polygon class="st0" points="32.2,6.4 32.7,6.3 32.7,7.6 32,7.6 "/>
<polygon class="st0" points="34.3,6.3 34.3,7.6 34.9,7.6 35,6.3 "/>
<path class="st0" d="M33.5,2.1c0.3,0.5,0.4,1.1,0.5,1.8c2.6,0.8,4.5,4,2.7,5.1c2-1,0.6-4.6-2.4-5.3L33.5,2.1z"/>
<polygon class="st0" points="36.5,9.6 36.4,9.8 37.9,11.8 37.9,12.2 36.3,14.3 36.3,14.3 38,12.2 38,11.8 "/>
<polygon class="st0" points="29.3,6.3 37.3,6.3 37.3,6.6 37.3,6.7 37.3,7 36.9,7 36.9,7.4 36.6,7.4 36.6,7.8 36.2,7.8 36.2,8.2
	34.7,8.2 34.7,7.8 34.3,7.8 34.3,7.4 34,7.4 34,7 34,6.7 33.3,6.7 33.3,7 33.3,7.4 33,7.4 33,7.8 32.6,7.8 32.6,8.2 31.1,8.2
	31.1,7.8 30.7,7.8 30.7,7.4 30.4,7.4 30.4,7 30,7 30,6.7 29.3,6.7 "/>
<rect x="30.4" y="6.7" class="st0" width="0.4" height="0.4"/>
<rect x="30.8" y="7" class="st0" width="0.4" height="0.4"/>
<rect x="31.1" y="7.4" class="st0" width="0.4" height="0.4"/>
<rect x="31.1" y="6.7" class="st0" width="0.4" height="0.4"/>
<rect x="31.5" y="7" class="st0" width="0.4" height="0.4"/>
<rect x="31.9" y="7.4" class="st0" width="0.4" height="0.4"/>
<rect x="34.1" y="6.7" class="st0" width="0.4" height="0.4"/>
<rect x="34.5" y="7" class="st0" width="0.4" height="0.4"/>
<rect x="34.9" y="7.4" class="st0" width="0.4" height="0.4"/>
<rect x="34.9" y="6.7" class="st0" width="0.4" height="0.4"/>
<rect x="35.2" y="7" class="st0" width="0.4" height="0.4"/>
<rect x="35.6" y="7.4" class="st0" width="0.4" height="0.4"/>
<polygon class="st1" points="7.1,3.5 9.2,3.5 9.2,2 7.1,2 5,2 2.9,2 2.9,3.5 5,3.5 "/>
<polygon class="st1" points="2.9,11.5 0.8,11.5 0.8,13.1 2.9,13.1 5,13.1 7.1,13.1 7.1,11.5 5,11.5 "/>
<polygon class="st1" points="5,6.7 2.9,6.7 2.9,8.3 5,8.3 7.1,8.3 7.1,6.7 "/>
<polygon class="st1" points="2.9,5.1 2.9,3.5 0.8,3.5 0.8,5.1 0.8,6.7 2.9,6.7 "/>
<polygon class="st1" points="7.1,8.3 7.1,9.9 7.1,11.5 9.2,11.5 9.2,9.9 9.2,8.3 "/>
<polygon class="st2" points="42.7,2 40.6,2 38.5,2 36.4,2 36.4,3.5 38.5,3.5 39.5,3.5 39.5,5.1 39.5,6.7 39.5,8.3 39.5,9.9
	39.5,11.5 39.5,13.1 41.7,13.1 41.7,11.5 41.7,9.9 41.7,8.3 41.7,6.7 41.7,5.1 41.7,3.5 42.7,3.5 44.8,3.5 44.8,2 "/>
<polygon class="st3" points="25.4,3.5 25.4,5.1 25.4,6.7 27.5,6.7 27.5,5.1 27.5,3.5 "/>
<polygon class="st3" points="21.2,6.7 21.2,5.1 21.2,3.5 23.3,3.5 25.4,3.5 25.4,2 23.3,2 21.2,2 19.1,2 19.1,3.5 19.1,5.1
	19.1,6.7 19.1,8.3 19.1,9.9 19.1,11.5 19.1,13.1 21.2,13.1 21.2,11.5 21.2,9.9 23.3,9.9 23.3,8.3 25.4,8.3 25.4,6.7 23.3,6.7 "/>
<rect x="23.3" y="9.9" class="st3" width="2.1" height="1.6"/>
<rect x="25.4" y="11.5" class="st3" width="2.1" height="1.6"/>
<polygon class="st4" points="12,8.3 12,6.7 12,5.1 12,3.5 9.9,3.5 9.9,5.1 9.9,6.7 9.9,8.3 9.9,9.9 9.9,11.5 12,11.5 12,9.9 "/>
<polygon class="st4" points="14.1,13.1 16.3,13.1 18.4,13.1 18.4,11.5 16.3,11.5 14.1,11.5 12,11.5 12,13.1 "/>
<polygon class="st4" points="16.3,3.5 18.4,3.5 18.4,2 16.3,2 14.1,2 12,2 12,3.5 14.1,3.5 "/>
<polygon class="st5" points="47.7,8.3 47.7,6.7 47.7,5.1 47.7,3.5 45.5,3.5 45.5,5.1 45.5,6.7 45.5,8.3 45.5,9.9 45.5,11.5
	47.7,11.5 47.7,9.9 "/>
<polygon class="st5" points="49.8,13.1 51.9,13.1 54,13.1 54,11.5 51.9,11.5 49.8,11.5 47.7,11.5 47.7,13.1 "/>
<polygon class="st5" points="51.9,3.5 54,3.5 54,2 51.9,2 49.8,2 47.7,2 47.7,3.5 49.8,3.5 "/>
<polygon class="st6" points="61.1,2 61.1,3.5 61.1,5.1 61.1,6.7 59,6.7 56.8,6.7 56.8,5.1 56.8,3.5 56.8,3.5 56.8,2 54.7,2
	54.7,3.5 54.7,3.5 54.7,5.1 54.7,6.7 54.7,8.3 54.7,9.9 54.7,11.5 54.7,11.5 54.7,13.1 56.8,13.1 56.8,11.5 56.8,11.5 56.8,9.9
	56.8,8.3 59,8.3 61.1,8.3 61.1,9.9 61.1,11.5 61.1,13.1 63.2,13.1 63.2,11.5 63.2,9.9 63.2,8.3 63.2,6.7 63.2,5.1 63.2,3.5 63.2,2
	"/>
<path class="st7" d="M29.6,5.3c0.6-0.6,1.4-1,2.3-1.2c0.5-0.1,1-0.1,1.5,0c0.8,0.1,1.5,0.4,2.1,1c0.6,0.5,0.7,1.4,0.3,2.1
	c-0.3,0.4-1.4,0.7-4.6,0.7c-0.7,0.1-1.4-0.2-2-0.6C28.8,6.8,28.8,6.1,29.6,5.3z"/>
<polygon class="st1" points="29.9,8.7 30.4,9.5 28.9,11.1 30.4,12.5 30.1,13.3 28,11.3 27.9,10.8 "/>
<polygon class="st1" points="33.2,8.8 33.9,9.1 31.7,13.3 31.2,12.7 "/>
<polygon class="st1" points="35.6,8.6 37.1,10.8 37.1,11.2 35.4,13.4 35,12.5 36.1,10.9 35,9.2 "/>
<path class="st1" d="M36.3,5.3C36,4.6,35.6,4,35,3.6c-0.5-0.4-1.1-0.7-1.8-0.9l-0.7-1.6c0.1,0.6-0.2,1.3-0.7,1.6
	c-1.2,0.2-2.2,1-2.8,2.1c-0.6,0.8-0.7,1.8-0.3,2.7c0.7,0.7,1.5,1,2.5,1c2.3,0.1,4.1-0.1,4.9-0.7C36.7,7.1,36.8,6,36.3,5.3z
	 M35.7,7.3c-0.3,0.4-1.4,0.7-4.5,0.7c-0.7,0.1-1.4-0.2-1.9-0.6c-0.4-0.5-0.4-1.2,0.4-2c0.6-0.6,1.4-1,2.3-1.2c0.5-0.1,1-0.1,1.5,0
	c0.8,0.1,1.5,0.5,2,1C36,5.7,36.1,6.6,35.7,7.3L35.7,7.3z"/>
<polygon class="st1" points="31.3,5.4 31.8,5.3 31.7,6.6 31.1,6.7 "/>
<polygon class="st1" points="33.4,5.4 33.4,6.6 34,6.6 34.1,5.3 "/>
<path class="st8" d="M32.5,1.1C32.8,1.7,33,2.3,33,2.9c2.6,0.8,4.5,4,2.7,5.1c2-1,0.6-4.6-2.4-5.3L32.5,1.1z"/>
<polygon class="st8" points="35.6,8.6 35.5,8.8 37,10.9 37,11.2 35.4,13.4 35.4,13.4 37.1,11.2 37.1,10.8 "/>
<polygon class="st9" points="28.4,5.3 36.4,5.3 36.4,5.6 36.4,5.7 36.4,6 36,6 36,6.4 35.7,6.4 35.7,6.8 35.3,6.8 35.3,7.2
	33.8,7.2 33.8,6.8 33.4,6.8 33.4,6.4 33.1,6.4 33.1,6 33.1,5.7 32.4,5.7 32.4,6 32.4,6.4 32,6.4 32,6.8 31.7,6.8 31.7,7.2 30.2,7.2
	30.2,6.8 29.8,6.8 29.8,6.4 29.5,6.4 29.5,6 29,6 29,5.7 28.4,5.7 "/>
<rect x="29.5" y="5.7" class="st10" width="0.4" height="0.4"/>
<rect x="29.9" y="6" class="st10" width="0.4" height="0.4"/>
<rect x="30.2" y="6.4" class="st10" width="0.4" height="0.4"/>
<rect x="30.2" y="5.7" class="st10" width="0.4" height="0.4"/>
<rect x="30.6" y="6" class="st10" width="0.4" height="0.4"/>
<rect x="30.9" y="6.4" class="st10" width="0.4" height="0.4"/>
<rect x="33.2" y="5.7" class="st10" width="0.4" height="0.4"/>
<rect x="33.6" y="6" class="st10" width="0.4" height="0.4"/>
<rect x="33.9" y="6.4" class="st10" width="0.4" height="0.4"/>
<rect x="33.9" y="5.7" class="st10" width="0.4" height="0.4"/>
<rect x="34.3" y="6" class="st10" width="0.4" height="0.4"/>
<rect x="34.7" y="6.4" class="st10" width="0.4" height="0.4"/>
<polygon class="st11" points="7.1,3.5 9.2,3.5 9.2,2 7.1,2 5,2 2.9,2 2.9,3.5 5,3.5 "/>
<polygon class="st11" points="2.9,11.5 0.8,11.5 0.8,13.1 2.9,13.1 5,13.1 7.1,13.1 7.1,11.5 5,11.5 "/>
<polygon class="st11" points="5,6.7 2.9,6.7 2.9,8.3 5,8.3 7.1,8.3 7.1,6.7 "/>
<polygon class="st11" points="2.9,5.1 2.9,3.5 0.8,3.5 0.8,5.1 0.8,6.7 2.9,6.7 "/>
<polygon class="st11" points="7.1,8.3 7.1,9.9 7.1,11.5 9.2,11.5 9.2,9.9 9.2,8.3 "/>
<polygon class="st12" points="42.7,2 40.6,2 38.5,2 36.4,2 36.4,3.5 38.5,3.5 39.5,3.5 39.5,5.1 39.5,6.7 39.5,8.3 39.5,9.9
	39.5,11.5 39.5,13.1 41.7,13.1 41.7,11.5 41.7,9.9 41.7,8.3 41.7,6.7 41.7,5.1 41.7,3.5 42.7,3.5 44.8,3.5 44.8,2 "/>
<polygon class="st13" points="25.4,3.5 25.4,5.1 25.4,6.7 27.5,6.7 27.5,5.1 27.5,3.5 "/>
<polygon class="st13" points="21.2,6.7 21.2,5.1 21.2,3.5 23.3,3.5 25.4,3.5 25.4,2 23.3,2 21.2,2 19.1,2 19.1,3.5 19.1,5.1
	19.1,6.7 19.1,8.3 19.1,9.9 19.1,11.5 19.1,13.1 21.2,13.1 21.2,11.5 21.2,9.9 23.3,9.9 23.3,8.3 25.4,8.3 25.4,6.7 23.3,6.7 "/>
<rect x="23.3" y="9.9" class="st13" width="2.1" height="1.6"/>
<rect x="25.4" y="11.5" class="st13" width="2.1" height="1.6"/>
<polygon class="st14" points="12,8.3 12,6.7 12,5.1 12,3.5 9.9,3.5 9.9,5.1 9.9,6.7 9.9,8.3 9.9,9.9 9.9,11.5 12,11.5 12,9.9 "/>
<polygon class="st14" points="14.1,13.1 16.3,13.1 18.4,13.1 18.4,11.5 16.3,11.5 14.1,11.5 12,11.5 12,13.1 "/>
<polygon class="st14" points="16.3,3.5 18.4,3.5 18.4,2 16.3,2 14.1,2 12,2 12,3.5 14.1,3.5 "/>
<polygon class="st15" points="47.7,8.3 47.7,6.7 47.7,5.1 47.7,3.5 45.5,3.5 45.5,5.1 45.5,6.7 45.5,8.3 45.5,9.9 45.5,11.5
	47.7,11.5 47.7,9.9 "/>
<polygon class="st15" points="49.8,13.1 51.9,13.1 54,13.1 54,11.5 51.9,11.5 49.8,11.5 47.7,11.5 47.7,13.1 "/>
<polygon class="st15" points="51.9,3.5 54,3.5 54,2 51.9,2 49.8,2 47.7,2 47.7,3.5 49.8,3.5 "/>
<polygon class="st16" points="61.1,2 61.1,3.5 61.1,5.1 61.1,6.7 59,6.7 56.8,6.7 56.8,5.1 56.8,3.5 56.8,3.5 56.8,2 54.7,2
	54.7,3.5 54.7,3.5 54.7,5.1 54.7,6.7 54.7,8.3 54.7,9.9 54.7,11.5 54.7,11.5 54.7,13.1 56.8,13.1 56.8,11.5 56.8,11.5 56.8,9.9
	56.8,8.3 59,8.3 61.1,8.3 61.1,9.9 61.1,11.5 61.1,13.1 63.2,13.1 63.2,11.5 63.2,9.9 63.2,8.3 63.2,6.7 63.2,5.1 63.2,3.5 63.2,2
	"/>
<path class="st17" d="M29.3,5.4c0.7-0.7,1.6-1.1,2.5-1.3c0.5-0.1,1.1-0.1,1.6,0c0.9,0.1,1.6,0.5,2.2,1.1c0.6,0.6,0.8,1.5,0.3,2.3
	c-0.4,0.5-1.5,0.8-5,0.7c-0.8,0.1-1.5-0.2-2.1-0.7C28.5,7,28.5,6.3,29.3,5.4z"/>
<polygon class="st11" points="29.9,8.7 30.4,9.5 28.9,11.1 30.4,12.5 30.1,13.3 28,11.3 27.9,10.8 "/>
<polygon class="st11" points="33.2,8.8 33.9,9.1 31.7,13.3 31.2,12.7 "/>
<polygon class="st11" points="35.6,8.6 37.1,10.8 37.1,11.2 35.4,13.4 35,12.5 36.1,10.9 35,9.2 "/>
<path class="st11" d="M36.3,5.3C36,4.6,35.6,4,35,3.6c-0.5-0.4-1.1-0.7-1.8-0.9l-0.7-1.6c0.1,0.6-0.2,1.3-0.7,1.6
	c-1.2,0.2-2.2,1-2.8,2.1c-0.6,0.8-0.7,1.8-0.3,2.7c0.7,0.7,1.5,1,2.5,1c2.3,0.1,4.1-0.1,4.9-0.7C36.7,7.1,36.8,6,36.3,5.3z
	 M35.7,7.3c-0.3,0.4-1.4,0.7-4.5,0.7c-0.7,0.1-1.4-0.2-1.9-0.6c-0.4-0.5-0.4-1.2,0.4-2c0.6-0.6,1.4-1,2.3-1.2c0.5-0.1,1-0.1,1.5,0
	c0.8,0.1,1.5,0.5,2,1C36,5.7,36.1,6.6,35.7,7.3L35.7,7.3z"/>
<polygon class="st11" points="31.3,5.4 31.8,5.3 31.7,6.6 31.1,6.7 "/>
<polygon class="st11" points="33.4,5.4 33.4,6.6 34,6.6 34.1,5.3 "/>
<path class="st18" d="M32.5,1.1C32.8,1.7,33,2.3,33,2.9c2.6,0.8,4.5,4,2.7,5.1c2-1,0.6-4.6-2.4-5.3L32.5,1.1z"/>
<polygon class="st18" points="35.6,8.6 35.5,8.8 37,10.9 37,11.2 35.4,13.4 35.4,13.4 37.1,11.2 37.1,10.8 "/>
<polygon points="28.4,5.3 36.4,5.3 36.4,5.6 36.4,5.7 36.4,6 36,6 36,6.4 35.7,6.4 35.7,6.8 35.3,6.8 35.3,7.2 33.8,7.2 33.8,6.8
	33.4,6.8 33.4,6.4 33.1,6.4 33.1,6 33.1,5.7 32.4,5.7 32.4,6 32.4,6.4 32,6.4 32,6.8 31.7,6.8 31.7,7.2 30.2,7.2 30.2,6.8 29.8,6.8
	29.8,6.4 29.5,6.4 29.5,6 29,6 29,5.7 28.4,5.7 "/>
<rect x="29.5" y="5.7" class="st19" width="0.4" height="0.4"/>
<rect x="29.9" y="6" class="st19" width="0.4" height="0.4"/>
<rect x="30.2" y="6.4" class="st19" width="0.4" height="0.4"/>
<rect x="30.2" y="5.7" class="st19" width="0.4" height="0.4"/>
<rect x="30.6" y="6" class="st19" width="0.4" height="0.4"/>
<rect x="30.9" y="6.4" class="st19" width="0.4" height="0.4"/>
<rect x="33.2" y="5.7" class="st19" width="0.4" height="0.4"/>
<rect x="33.6" y="6" class="st19" width="0.4" height="0.4"/>
<rect x="33.9" y="6.4" class="st19" width="0.4" height="0.4"/>
<rect x="33.9" y="5.7" class="st19" width="0.4" height="0.4"/>
<rect x="34.3" y="6" class="st19" width="0.4" height="0.4"/>
<rect x="34.7" y="6.4" class="st19" width="0.4" height="0.4"/>
<rect x="4.7" y="19.6" class="st0" width="3.8" height="1"/>
<rect x="57.8" y="19.6" class="st0" width="3.8" height="1"/>
<path class="st0" d="M14.6,17.3l0.3,0.1c0.1,0,0.2,0.1,0.3,0.2c0.1,0.1,0.2,0.2,0.2,0.3c0,0,0,0.1,0,0.1c0,0,0,0.1,0,0.1h-0.1v0.1
	c0,0,0,0.1-0.1,0.1h-0.1v-0.1l-0.3-0.3c-0.1-0.1-0.2-0.2-0.4-0.2c0.1,0.1,0.2,0.2,0.3,0.3c0.2,0.1,0.3,0.3,0.3,0.5c0,0-0.1,0-0.1,0
	h-0.1l-0.1,0.1l-0.2-0.1c0,0,0,0.1,0,0.1c0,0,0.1,0.1,0.1,0.1L14,18.1C14,18.1,13.9,18,13.8,18h-0.2h-0.2H13c-0.1,0-0.3,0.1-0.4,0.3
	c-0.2,0.3-0.3,0.7-0.4,1c0,0.4,0,0.7,0.1,1.1c0,0.2,0.2,0.4,0.3,0.6c0.1,0.1,0.3,0.2,0.5,0.3c0.1,0,0.3,0.1,0.4,0.1
	c0.3,0,0.6-0.1,0.9-0.2l0.2-0.2l0.2-0.1l0.2-0.1c0,0.1,0,0.1,0,0.2l-0.2,0.2v0l-0.1,0.1c0.1,0,0.1,0,0.2-0.1l0.1-0.1v0.1
	c0,0,0.1,0,0.1,0l0.1-0.1c0,0,0,0,0,0.1v0.1v0.1c-0.2,0.2-0.3,0.3-0.5,0.4c-0.1,0.1-0.3,0.2-0.4,0.3L14.3,22l0.3-0.2L14.2,22
	c-0.1,0-0.1,0-0.2,0h0.1h0.1c0,0,0.1,0,0.1,0.1c-0.3,0.1-0.7,0.2-1,0.2c-0.2,0-0.4,0-0.6-0.1c-0.2,0-0.4-0.1-0.6-0.2
	c-0.2-0.2-0.4-0.4-0.5-0.6c-0.1-0.2-0.2-0.4-0.2-0.7h0.1c-0.1-0.3-0.1-0.5-0.1-0.8c0-0.4,0.1-0.8,0.2-1.1c0.1-0.3,0.3-0.6,0.6-0.9
	c0.2-0.2,0.5-0.4,0.7-0.5c0.2-0.1,0.4-0.1,0.6-0.2c0.1,0,0.3,0,0.4,0C14.1,17.2,14.4,17.2,14.6,17.3z M11.4,20.7
	c0,0.1,0,0.2,0.1,0.3c0,0.1,0.1,0.2,0.1,0.3c0.1,0.1,0.2,0.2,0.3,0.3c-0.1-0.1-0.2-0.2-0.2-0.4C11.5,21,11.4,20.9,11.4,20.7z
	 M11.4,20c0,0.2,0,0.4,0.1,0.5c0.1,0.2,0.2,0.4,0.3,0.5h0.1l-0.2-0.4L11.4,20z M12,18.1c0.2-0.2,0.4-0.4,0.7-0.6
	c0.2-0.2,0.5-0.2,0.7-0.3c-0.4,0.1-0.8,0.4-1.1,0.6c-0.3,0.3-0.5,0.6-0.6,1l-0.1,0.6v0.1c0-0.3,0-0.6,0.1-0.9
	C11.7,18.5,11.9,18.3,12,18.1L12,18.1z M11.8,21.3l-0.1-0.2l0,0L11.8,21.3z M11.8,21.6c0.1,0.1,0.2,0.2,0.4,0.3
	c0.2,0.1,0.4,0.1,0.7,0.1c-0.2,0-0.4-0.1-0.5-0.1L11.8,21.6z M12,19.2l-0.1,0.3c0,0.3,0.1,0.6,0.2,0.9c0.1,0.3,0.3,0.5,0.6,0.7V21
	C12.3,20.5,12,19.9,12,19.2z M12,21.5L12,21.5L12,21.5L12,21.5z M12.1,19.4c0-0.2,0.1-0.4,0.1-0.6c0-0.1,0.1-0.2,0.1-0.3
	c0-0.1,0.1-0.1,0.1-0.2c-0.1,0.1-0.2,0.2-0.3,0.4c0,0.1,0,0.2-0.1,0.4C12.1,19.1,12.1,19.2,12.1,19.4L12.1,19.4z M12.3,21.7
	L12.3,21.7L12.3,21.7L12.3,21.7z M12.5,19.2c0,0,0,0.1,0,0.1v0.1c0,0.2,0,0.3,0.1,0.5c0,0.2,0.1,0.3,0.2,0.5
	C12.5,20.1,12.4,19.6,12.5,19.2L12.5,19.2z M12.7,17.8c-0.1,0-0.1,0.1-0.1,0.1c0,0-0.1,0.1-0.1,0.1l0.1-0.1
	C12.6,17.8,12.7,17.8,12.7,17.8L12.7,17.8z M12.7,21.9l-0.2-0.1l0,0L12.7,21.9z M12.5,18.8L12.5,19c0,0,0-0.1,0-0.1L12.5,18.8z
	 M12.5,21.6c0.1,0.1,0.2,0.1,0.3,0.1c0.1,0,0.2,0,0.4,0c0.1,0,0.2,0,0.3,0h-0.2c0,0-0.1,0-0.1-0.1H13C12.9,21.7,12.7,21.7,12.5,21.6
	L12.5,21.6z M12.8,21.1c0,0.1,0,0.1,0.1,0.1H13l0,0l-0.1-0.1C12.9,21.1,12.9,21.1,12.8,21.1L12.8,21.1z M13.2,21.3L13.2,21.3
	c-0.1,0-0.1,0-0.1,0C13.2,21.3,13.2,21.3,13.2,21.3L13.2,21.3C13.3,21.3,13.3,21.3,13.2,21.3L13.2,21.3z M13.1,22.1L13.1,22.1
	L13.1,22.1L13.1,22.1z M13.4,22.1h0.3c0.1,0,0.2,0,0.3-0.1h-0.3C13.6,22,13.5,22,13.4,22.1L13.4,22.1z M13.4,17.7
	c0.2,0,0.3,0,0.5,0.1c0.1,0,0.3,0.1,0.4,0.2c-0.1-0.1-0.2-0.2-0.3-0.2c-0.1-0.1-0.2-0.1-0.4-0.1L13.4,17.7L13.4,17.7z M13.6,17.2
	c0.1,0,0.1,0,0.2,0H14h0.2h0.1l-0.4-0.1C13.7,17.2,13.7,17.2,13.6,17.2L13.6,17.2z M13.7,21.6c0.2,0,0.4-0.1,0.6-0.2h-0.2h-0.2
	C13.8,21.4,13.7,21.5,13.7,21.6L13.7,21.6z M14.5,17.3l0.7,0.5l-0.3-0.3C14.8,17.4,14.7,17.4,14.5,17.3L14.5,17.3z M14.6,21.8
	L14.6,21.8L14.6,21.8z M14.6,18.2L14.6,18.2L14.6,18.2L14.6,18.2L14.6,18.2z M14.6,21.2l0.1-0.1l0,0L14.6,21.2z M14.6,21.1
	C14.6,21.1,14.7,21.1,14.6,21.1l0.2-0.1L14.6,21.1L14.6,21.1z M14.9,20.8L14.9,20.8L14.9,20.8L14.9,20.8z"/>
<path class="st0" d="M16.9,19.1l0.4-0.1c0.1-0.1,0.3-0.1,0.4-0.1c0.1,0,0.2,0,0.3,0c-0.2,0-0.4,0.1-0.5,0.2l-0.5,0.3l0,0l0.6-0.3
	v0.1h0.1c0-0.1,0-0.1,0.1-0.1l0.3-0.1c0.1,0,0.2,0,0.4,0l0.3,0.1l0.2,0.1c0.2,0.3,0.3,0.6,0.3,1c0,0.1,0,0.2,0,0.2
	c0,0,0,0.2-0.1,0.3c-0.1,0.2-0.2,0.4-0.3,0.6c-0.2,0.2-0.4,0.4-0.6,0.6L17.9,22c-0.1,0.1-0.3,0.1-0.4,0.1h-0.1c-0.2,0-0.5,0-0.7,0
	c-0.2,0-0.4-0.1-0.6-0.2c-0.2-0.1-0.3-0.3-0.3-0.5c-0.1-0.2-0.1-0.5-0.1-0.7c0-0.3,0.1-0.6,0.3-0.9C16.3,19.5,16.6,19.3,16.9,19.1z
	 M16.7,19.4c-0.2,0.1-0.4,0.3-0.5,0.6c-0.1,0.3-0.2,0.5-0.2,0.8l0.1-0.4l0.3-0.6C16.4,19.7,16.5,19.6,16.7,19.4L16.7,19.4z
	 M16.1,20.8c0,0.2,0,0.3,0.1,0.4c0,0.1,0.1,0.2,0.2,0.3c-0.1-0.1-0.1-0.2-0.2-0.3L16.1,20.8z M16.1,21.3c0,0.1,0.1,0.2,0.1,0.3
	c0.1,0.1,0.1,0.2,0.2,0.2l0.1,0.1h0.1h0.2h0.3c-0.2,0-0.5-0.1-0.7-0.2C16.4,21.6,16.2,21.5,16.1,21.3L16.1,21.3z M16.3,20.4v0.1V21
	c0,0.2,0.1,0.3,0.3,0.5c0.1,0.1,0.3,0.2,0.5,0.3l0,0c-0.2-0.1-0.4-0.3-0.5-0.5c-0.1-0.1-0.1-0.2-0.1-0.3c0-0.1-0.1-0.3,0-0.4
	L16.3,20.4z M17,19.4c-0.1,0.1-0.3,0.2-0.4,0.3c-0.1,0.1-0.2,0.3-0.2,0.4v0.2c0,0.1,0,0.1,0,0.2c0,0.1,0,0.1,0,0.2l0.1,0.1v-0.5
	c0-0.2,0.1-0.4,0.2-0.5L17,19.4z M16.6,21.7L16.6,21.7L16.6,21.7L16.6,21.7z M17.1,19.6c-0.1,0.1-0.2,0.1-0.3,0.3
	c-0.1,0.1-0.1,0.3-0.1,0.4v0.3c0,0.2,0,0.4,0.1,0.5c0.1,0.1,0.1,0.2,0.3,0.3l0.3,0.1c0.1,0,0.2,0,0.3,0c0.1,0,0.2,0,0.2,0
	c0.1-0.1,0.2-0.2,0.2-0.3c0-0.1,0.1-0.3,0.1-0.4v-0.1c0,0,0-0.1,0-0.1c0-0.1,0-0.2,0-0.2c0,0-0.1-0.1-0.1-0.1V20
	c-0.1-0.1-0.2-0.3-0.3-0.3C17.5,19.6,17.3,19.5,17.1,19.6z M17.3,19.5c0,0,0.1,0.1,0.2,0.1c0.1,0,0.1,0,0.2,0l-0.2-0.1H17.3z
	 M17.7,19.4h-0.2h-0.1c0,0-0.1,0-0.1,0h0.1h0.1H17.7L17.7,19.4z M17.6,19.2h0.2h0.2H18c-0.1,0-0.2-0.1-0.3-0.1
	C17.7,19.1,17.6,19.1,17.6,19.2z M17.7,19.6L17.7,19.6c0.1,0.1,0.2,0.2,0.3,0.3c0.1,0.1,0.2,0.2,0.2,0.3c0-0.1,0-0.2-0.1-0.3
	C18,19.8,17.9,19.7,17.7,19.6z M17.9,21.8L17.9,21.8l0.3-0.2c0.1-0.1,0.2-0.1,0.3-0.2c0.1-0.1,0.2-0.3,0.2-0.4
	c-0.1,0.1-0.2,0.3-0.3,0.4l-0.3,0.2L17.9,21.8z M17.9,19.4c0.2,0,0.3,0.1,0.4,0.3l0.2,0.5c0,0.1,0,0.2,0,0.2c0,0.1,0,0.1,0,0.2
	c0,0.1,0,0.1-0.1,0.2l-0.2,0.4c0-0.1,0-0.2,0.1-0.3l0.1-0.3c0,0,0-0.1,0-0.1c0,0,0-0.1,0-0.1c0-0.1,0-0.2,0-0.3
	c0-0.1-0.1-0.2-0.2-0.3L17.9,19.4z M18.2,21.4L18.2,21.4L18,21.6L18.2,21.4z M18.2,19.2l0.1,0.1c0,0,0.1,0,0.1,0.1h0.1
	c0.1,0.1,0.3,0.3,0.3,0.4c0.1,0.2,0.2,0.4,0.2,0.6v-0.1c0-0.1,0-0.2,0-0.2l-0.1-0.3l-0.3-0.3C18.5,19.3,18.3,19.2,18.2,19.2
	L18.2,19.2z M18.3,20.4L18.3,20.4v0.2l0,0V20.4z M19,20.6L19,20.6L19,20.6z M19,20L19,20C19,20,19,20,19,20l0,0.2L19,20z"/>
<path class="st0" d="M22.5,17L22.5,17L22.5,17L22.5,17l0.1,0.1v0l-0.3,1.8V19c0,0,0,0,0.1,0l0,0c0-0.1,0.1-0.3,0.1-0.4
	c0-0.1,0-0.3,0.1-0.4l0-0.1l0-0.8c0-0.1,0.1-0.1,0.1-0.2c0-0.1,0-0.1,0.1-0.2c0,0,0,0.1,0.1,0.1H23l0.1-0.1c0,0,0.1,0.1,0.1,0.1h0.1
	h0.1c0,0,0.1,0,0.1,0.1L23.3,18c-0.1,0.2-0.1,0.4-0.1,0.6c0,0.3,0,0,0,0v0.1c0,0,0,0.1,0,0.1c0,0,0,0.1,0,0.3s0,0.3,0,0.4V20
	c0,0.2,0,0.5,0.1,0.7c0.1,0.2,0.2,0.4,0.3,0.6l0.1,0.1l-0.1,0.1h0.1l0,0h-0.1c0,0,0,0,0,0.1l-0.1,0.1c0,0,0,0,0,0.1v0
	c-0.2,0-0.4-0.1-0.5-0.2c-0.2-0.1-0.3-0.2-0.4-0.4c-0.1-0.1-0.2-0.3-0.2-0.4c0-0.1,0-0.2,0-0.3s0-0.2,0-0.3v-0.4l0,0l-0.1,0.1
	c0,0.4,0,0.8,0.1,1.2c0,0.3,0.2,0.5,0.4,0.6l0.4,0.2l0.2,0.1c0,0-0.1,0-0.1,0L23,22h-0.1l0,0v0.1l-0.2-0.1l-0.3-0.2
	c-0.1-0.1-0.2-0.2-0.3-0.3C22.1,21.4,22,21.2,22,21c-0.1,0-0.1,0.1-0.1,0.1l-0.1,0.2l0.1,0c-0.1,0.1-0.2,0.2-0.3,0.3
	c-0.1,0.1-0.2,0.2-0.4,0.2c-0.1,0.1-0.2,0.1-0.2,0.1L20.7,22h-0.4h-0.2c-0.2-0.1-0.4-0.3-0.5-0.5c0-0.1,0-0.3,0-0.4
	c0-0.4,0.1-0.7,0.3-1.1c0.2-0.3,0.4-0.6,0.7-0.8c0.1-0.1,0.2-0.2,0.3-0.3l0.3-0.1l0.4-0.1c0,0,0,0,0,0.1c0,0,0,0,0.1,0h0.1v-0.1h0.1
	l0,0H22c0.1,0,0.1,0,0.1-0.1c0-0.1,0.1-0.3,0.1-0.5c0-0.2,0-0.5,0.1-0.6C22.3,17.3,22.4,17.2,22.5,17z M19.8,21.4
	c0.1,0.1,0.1,0.2,0.2,0.2c0.1,0.1,0.2,0.1,0.3,0.1h0.1l-0.4-0.1C20,21.5,20,21.4,19.8,21.4c0.1-0.2,0.1-0.2,0.1-0.3
	c0-0.1,0-0.1,0-0.2v-0.4c-0.1,0.2-0.1,0.3-0.1,0.5C19.8,21.1,19.8,21.2,19.8,21.4L19.8,21.4z M21,19L21,19l-0.1,0.1
	c-0.1,0-0.1,0.1-0.1,0c-0.2,0.2-0.3,0.5-0.5,0.7c-0.2,0.4-0.3,0.8-0.2,1.2l0.2,0.2c0.1,0,0.1,0.1,0.2,0.1c0,0,0-0.1,0-0.1l-0.1-0.1
	c-0.1-0.1-0.1-0.1-0.1-0.2v-0.1c0,0,0-0.1,0-0.1c0-0.1,0-0.2,0-0.3l0.1-0.3c0.1-0.2,0.2-0.5,0.4-0.6C20.8,19.3,20.9,19.1,21,19z
	 M20.4,21.9L20.4,21.9L20.4,21.9L20.4,21.9z M20.8,19.6c-0.1,0.2-0.2,0.4-0.3,0.6v0.2v0.2c0,0.1,0,0.2,0,0.3c0,0.1,0.1,0.1,0.2,0.2
	c-0.1-0.2-0.1-0.3-0.1-0.5c0-0.1,0-0.2,0-0.2c0-0.1,0-0.2,0.1-0.3C20.7,19.9,20.8,19.7,20.8,19.6L20.8,19.6z M20.5,21.9h0.2h0.2
	c0.1,0,0.1-0.1,0.2-0.1c-0.1,0-0.2,0-0.3,0.1L20.5,21.9z M21.4,19.5c0-0.1-0.1-0.1-0.2-0.1c-0.1,0-0.1,0-0.2,0.1
	c-0.1,0.1-0.2,0.2-0.2,0.4c0,0.1-0.1,0.2-0.1,0.4c0,0.1,0,0.3,0,0.4v0.2v0.1v0.1c0,0,0,0.1,0.1,0.1c0,0,0,0.1,0.1,0.1H21h0.1h0.1
	l-0.1,0.1L21,21.4c0.2,0,0.3-0.1,0.5-0.2l0.3-0.2c0,0,0.1,0,0.1-0.1v-0.1c0,0,0,0,0-0.1l0.1,0.1v0v0v-0.1v0l-0.2,0.2L21.4,21
	l0.3-0.5c0.1-0.1,0.1-0.3,0.1-0.4v0c0-0.1-0.1-0.2-0.2-0.3L21.4,19.5z M21.4,18.8L21.4,18.8L21.4,18.8z M21.5,19L21.5,19l0.2,0.1
	c0.1,0,0.2,0.1,0.3,0.1C21.8,19.1,21.7,19,21.5,19L21.5,19z M21.6,19.4l0.2,0.2c0-0.1,0-0.1-0.1-0.2C21.7,19.4,21.7,19.4,21.6,19.4
	L21.6,19.4z M21.6,19.3l0.2,0.1c0,0,0.1,0.1,0.2,0.1h0.1v0.2l0,0v-0.3H22h-0.1c0,0-0.1-0.1-0.1-0.1L21.6,19.3z M21.7,18.8l0.4,0.3
	v-0.1H22L21.9,19C21.8,18.9,21.8,18.9,21.7,18.8L21.7,18.8z M22.2,18.8L22.2,18.8l0.2-1.3c-0.1,0.2-0.1,0.4-0.1,0.6L22.2,18.8z
	 M22.3,20.1v0.3c0,0.3,0.1,0.6,0.2,0.9c0.1,0.3,0.3,0.5,0.6,0.5c-0.3-0.1-0.5-0.3-0.6-0.6C22.4,20.8,22.3,20.4,22.3,20.1L22.3,20.1z
	 M22.3,19.9L22.3,19.9v-0.2l0,0V19.9z M22.3,19.2c0,0.1-0.1,0.1-0.1,0.2v0.1v-0.1L22.3,19.2z M22.4,17.4L22.4,17.4L22.4,17.4
	L22.4,17.4z M22.7,19c0,0.2-0.1,0.4-0.1,0.6c0,0.1,0,0.2,0,0.3L22.7,19z M22.7,20v0.2c0,0.1,0,0.2,0,0.3c0,0.1,0.1,0.3,0.1,0.4
	l-0.1-0.6c0-0.1,0-0.2,0-0.3S22.7,20,22.7,20L22.7,20z M22.8,18.1L22.8,18.1L22.8,18.1L22.8,18.1L23,18h-0.1
	C22.9,18,22.9,18.1,22.8,18.1C22.9,18.1,22.9,18.1,22.8,18.1L22.8,18.1z M23.1,20.9L23,20.7L23.1,20.9L23.1,20.9z"/>
<path class="st0" d="M24.4,18.7v0.1V19v0.1c0,0,0,0.1,0,0.1l0-0.1c0,0,0-0.1,0-0.1L24.4,18.7l0.1,0.1l0.1-0.1c0,0.1,0,0.2,0,0.3
	c0,0,0,0.1,0,0.2c0,0.1,0,0.1,0,0.2c0,0.1,0,0.1,0,0.2c0,0.1-0.1,0.2-0.1,0.3c0,0.3-0.1,0.5-0.1,0.7c0,0.2-0.1,0.4-0.1,0.5
	c-0.1,0.3-0.2,0.6-0.3,0.9c0,0,0,0-0.1,0l-0.1,0.1c0,0,0,0,0-0.1v-0.1c0,0,0,0,0-0.1l0.3-1.9c0-0.1,0-0.1,0-0.2c0-0.1,0-0.1,0-0.2
	v-0.1l0-0.1v-0.3V19C24.3,18.9,24.3,18.8,24.4,18.7z M24.3,17.2l0.5,1c-0.1,0-0.2-0.1-0.2-0.2c-0.1-0.1-0.1-0.2-0.2-0.3l-0.1-0.2
	l0-0.1C24.2,17.4,24.2,17.3,24.3,17.2C24.2,17.2,24.3,17.2,24.3,17.2z M25.3,18.6c0,0,0.1-0.1,0.1-0.1c0,0,0,0,0,0c0,0,0,0.1,0,0.1
	c0,0.1,0,0.1,0,0.2V19l-0.2,1l-0.2,1.2c0,0.1,0,0.3-0.1,0.4S25,21.8,24.9,22h-0.1l0,0l0.1-0.6l0.1-0.7l0,0c-0.1,0.2-0.1,0.4-0.2,0.6
	L24.7,22l0,0c0-0.1,0-0.1,0-0.2v-0.1c0,0,0-0.1,0-0.1l-0.1,0.3c0,0.1-0.1,0.2-0.1,0.3l0.2-1l0,0l-0.1,0.1l-0.1,0.4
	c0,0.2-0.1,0.3-0.1,0.5l0,0l0.3-1.2l0.2-1.1c0-0.1,0-0.3,0.1-0.5s0-0.4,0.1-0.6c0,0,0.1,0.1,0.1,0.1c0,0,0,0.1,0,0.1
	c0,0,0.1,0,0.1-0.1v-0.1v-0.1h0.1C25.2,18.7,25.3,18.7,25.3,18.6L25,20.9c0.1-0.4,0.2-0.7,0.3-1.1L25.3,18.6L25.3,18.6L25.3,18.6
	L25.3,18.6L25.3,18.6L25.3,18.6z M24.6,17.4v-0.1c0.1,0.1,0.1,0.2,0.1,0.3c0,0.1,0.1,0.2,0.1,0.3c0,0,0.1,0,0.1,0.1l0.1,0.1
	c0,0,0,0.1,0.1,0.1H25c-0.1,0-0.1,0-0.2-0.1l-0.2-0.2L24.6,17.4c-0.1-0.1-0.2-0.2-0.2-0.3L24.6,17.4z M24.8,16.8l0.6,0.9l0,0l0,0
	h-0.1h-0.1v0.1c0,0,0,0.1-0.1,0.1h0L25,17.9c-0.1-0.1-0.1-0.3-0.2-0.4c-0.1-0.1-0.2-0.3-0.2-0.5h0.1c0,0,0.1,0,0.1-0.1
	C24.7,16.9,24.8,16.8,24.8,16.8z M24.8,20.9l-0.1,0.2c0,0,0,0.1,0,0.1L24.8,20.9z M25.1,16.8l0.5,0.8c0,0,0,0.1-0.1,0.1
	c-0.1-0.1-0.2-0.1-0.3-0.2l-0.4-0.5L25.1,16.8z"/>
<path class="st0" d="M29.1,19l0.1,0.2l-0.1,0.5l0,0c0,0.1,0,0.2,0,0.3c0,0.1,0,0.3-0.1,0.6c0,0.2-0.1,0.4-0.1,0.7c0,0.1,0,0.1,0,0.2
	c0,0.1,0.1,0.1,0.1,0.1c0,0,0.1,0,0.1,0h0.1c0,0,0,0,0,0.1l-0.2,0.1v0.1c0,0,0,0.1,0,0.1c-0.1,0.1-0.3,0.1-0.4,0.1h-0.2
	c-0.1,0-0.2-0.1-0.3-0.1c-0.1,0-0.2-0.1-0.2-0.2c0-0.1-0.1-0.2-0.1-0.4v-0.3v-0.2l0.1-1c-0.1,0-0.2,0.1-0.2,0.1l-0.3,0.3
	c-0.2,0.2-0.4,0.5-0.6,0.7l-0.5,0.7v0.1l0,0c0,0,0-0.1-0.1,0c0,0-0.1,0-0.1,0v-0.1l-0.1,0.2c0,0-0.1,0.1-0.1,0.1v-0.1v-0.1
	c0,0,0,0,0-0.1c0,0.1-0.1,0.1-0.1,0.2c0,0.1,0,0.1-0.1,0.1l0,0v-0.3c0-0.1,0-0.2,0-0.2l0.1-1l0.1-0.3c0-0.1,0-0.3,0.1-0.5
	c0-0.2,0-0.5,0-0.7c0,0,0.1,0,0.1,0l0.1,0l0,0c0,0.2,0,0.3,0,0.5c0,0.2,0,0.4,0,0.4c0,0.1,0,0.1,0,0.2l0.1-0.1V20c0,0,0-0.1,0-0.1
	s0-0.1,0-0.2v-0.3v-0.1c0,0,0.1-0.1,0.1-0.1v-0.1h0l0,0V19c0,0,0.1,0,0.1,0c0,0,0,0.1,0,0.1c0,0.2,0,0.4-0.1,0.6
	c0,0.2-0.1,0.4-0.1,0.6v0.2l0,0l0.4-1.5v0c0,0.1,0,0.1,0,0.2v0.2v0.2v0.1l-0.1,0.7v0.1l0-0.1l0.3-1.3l0,0l0,0c0,0.1,0,0.2,0,0.3
	c0,0.1,0,0.1,0,0.2v0.2l-0.1,0.5h0c0.2-0.1,0.3-0.3,0.5-0.4c0.1-0.2,0.3-0.3,0.5-0.4l0.4-0.3c0.2-0.1,0.4-0.2,0.6-0.2L29.1,19
	L29.1,19z M26.1,20.3l-0.2,1.2l0,0c0.1-0.3,0.1-0.6,0.1-0.7s0-0.2,0-0.3C26.1,20.4,26.1,20.3,26.1,20.3L26.1,20.3z M26.5,20.6
	 M26.5,21.1l0.6-0.6l0.5-0.5L27,20.5C26.8,20.7,26.7,20.9,26.5,21.1L26.5,21.1z M26.7,21.3L26.7,21.3L26.7,21.3L26.7,21.3z
	 M27.6,19.6L27.2,20l0,0l0.2-0.2C27.5,19.8,27.6,19.7,27.6,19.6L27.6,19.6z M27.9,19.6l-0.2,0.2c0,0-0.1,0.1-0.1,0.1
	c0,0,0.1-0.1,0.1-0.1C27.8,19.8,27.8,19.8,27.9,19.6L27.9,19.6L27.9,19.6z M28.2,19.4c0,0.1,0,0.1-0.1,0.2c-0.1,0-0.1,0.1-0.1,0.1
	L28.2,19.4c0.1,0,0.2-0.1,0.1-0.1h-0.1C28.2,19.3,28.2,19.4,28.2,19.4L28.2,19.4z M28.2,20.3c-0.1,0.1-0.1,0.3-0.1,0.5v0.4
	c0,0.1,0,0.3,0.1,0.4c0.1,0.1,0.1,0.2,0.3,0.3h0.2h0.2c0.1,0,0.1,0,0.2,0c-0.1,0-0.3,0-0.4,0c-0.1,0-0.2-0.1-0.3-0.2
	c0-0.1-0.1-0.1-0.1-0.2v-0.1c0,0,0-0.1,0-0.1c0-0.1,0-0.3,0.1-0.4C28.2,20.6,28.2,20.5,28.2,20.3L28.2,20.3z M28.3,19.8
	c-0.1,0.1-0.1,0.2-0.1,0.3v0.1l0-0.2L28.3,19.8z M28.7,19.4c-0.1,0.3-0.2,0.5-0.2,0.8c-0.1,0.3-0.1,0.6-0.1,1.1c0,0.1,0,0.2,0,0.3
	c0,0.1,0.1,0.1,0.1,0.2l-0.1-0.2v-0.3c0-0.2,0-0.4,0.1-0.6l0.1-0.5c0.1-0.2,0.2-0.5,0.3-0.8h-0.1L28.7,19.4z M28.6,21.6L28.6,21.6
	L28.6,21.6L28.6,21.6z M28.7,20.6v0.4v0.2c0,0.1,0,0.1,0.1,0.2c0-0.1-0.1-0.1-0.1-0.2V21v-0.2C28.7,20.8,28.7,20.7,28.7,20.6
	L28.7,20.6z M28.8,19.1L28.8,19.1L28.8,19.1L28.8,19.1z M28.8,19.9L28.8,19.9c0,0.1,0,0.2,0,0.2c0,0.1,0,0.2-0.1,0.2
	c0,0,0,0.1,0,0.1v0.1L28.8,19.9z M28.7,18.9C28.7,18.9,28.7,19,28.7,18.9L28.7,18.9z M28.9,19l0.1,0.1V19l0,0L28.9,19z"/>
<path class="st0" d="M33.7,18.5h0.1c0,0,0.1,0.1,0.1,0.1c-0.1,0.3-0.2,0.7-0.2,1l-0.2,1.1c0,0.3-0.1,0.7-0.2,1v-0.1l0.1-0.5
	c0-0.1,0-0.2,0-0.2c0-0.1,0-0.1,0-0.2l-0.1,0.1c-0.1,0.6-0.2,0.9-0.2,1.2c-0.1,0.3-0.2,0.5-0.3,0.8c-0.1,0.3-0.3,0.5-0.6,0.8h-0.1
	c0,0-0.1,0-0.1,0.1s-0.1,0.1-0.1,0.1c-0.1,0.1-0.3,0.1-0.4,0.2l-0.3,0.1h-0.3c-0.2,0-0.4,0-0.6-0.1c-0.2,0-0.4-0.1-0.6-0.2l-0.2-0.2
	c0-0.1-0.1-0.1-0.1-0.2c0-0.1,0-0.1,0.1-0.1V23c0.1,0,0.1,0,0.2,0.1c0,0.1,0.1,0.1,0.2,0.1l-0.3-0.3c0,0,0.1,0,0.1,0
	c0,0,0-0.1,0-0.1H30l0.1,0c0.1,0.1,0.2,0.2,0.3,0.2c0.1,0.1,0.3,0.1,0.4,0.2c0.2,0,0.3,0.1,0.5,0.1c0.1,0,0.2,0,0.4,0
	c0.1,0,0.2-0.1,0.3-0.2l-0.4,0.1h-0.2h-0.1c-0.1,0-0.3,0-0.4-0.1c-0.1,0-0.2-0.1-0.3-0.1c0.1,0,0.1,0,0.1,0l-0.1-0.1h-0.1
	c0,0-0.1,0-0.1,0l-0.1-0.1c-0.1,0-0.1-0.1-0.2-0.2l0.2,0.1v-0.1l0.4,0.2l0,0c0,0,0,0.1,0.1,0.1h0.1l0,0l0,0c0.2,0.1,0.4,0.1,0.6,0.1
	c0.2,0,0.3,0,0.5-0.1c0.1,0.1,0.2,0.1,0.3,0.1c0,0,0-0.1,0.1-0.1h0.1V23l0,0l0.1-0.1c0,0,0.1-0.1,0.1-0.1l0,0v0h-0.1h-0.1
	c0,0-0.1,0-0.1,0c0.2-0.7,0.3-1.3,0.3-2c-0.1,0.1-0.2,0.3-0.2,0.4c0,0.1,0,0.3,0,0.4c0,0.1,0,0.1,0,0.2c0,0.1,0,0.2,0,0.2
	c0,0.1-0.1,0.3-0.2,0.7c0,0-0.1,0-0.1,0l-0.1,0.1v-0.2h0.1l0,0l-0.1-0.1l0.2-1.1l-0.1,0l-0.3,0.3c-0.2,0.1-0.3,0.3-0.3,0.4l-0.3,0.2
	c-0.1,0.1-0.3,0.1-0.4,0.1c-0.1,0-0.1,0-0.2,0h-0.2h-0.1l-0.2-0.1c-0.1,0-0.2-0.1-0.3-0.2c-0.1-0.1-0.1-0.2-0.2-0.3
	c0-0.1-0.1-0.2-0.1-0.3c0-0.1,0-0.2,0-0.3c0-0.2,0-0.4,0.1-0.6c0.1-0.2,0.2-0.4,0.3-0.6l0.6-0.6c0.2-0.2,0.4-0.3,0.7-0.4l0.3,0.1
	c0.1,0,0.1,0,0.1-0.1l0.8-0.1c0.1,0,0.3,0,0.4,0.1c0,0,0.1,0,0.1,0l0.1-0.1l-0.1,0.5h-0.2l-0.1,0.4c0,0,0.1,0,0.1-0.2
	s0.1-0.2,0.1-0.2c0,0,0.1,0,0.1,0c0.1,0,0.1-0.1,0.1-0.3s0-0.2,0.1-0.2c0,0,0.1,0,0.1,0v-0.1c0,0,0,0,0.1,0c0,0.1,0,0.2-0.1,0.3
	l-0.1,0.3l-0.1,0.9L33.7,18.5z M30.2,19.9L30.2,19.9c-0.1,0.2-0.2,0.4-0.3,0.7c-0.1,0.3-0.1,0.5-0.1,0.8c-0.1,0-0.1,0-0.1-0.1
	l-0.1-0.1v0.1c0,0.1,0,0.2,0.1,0.3v-0.1c0.1,0,0.2,0.1,0.3,0.2c0.1,0.2,0.2,0.2,0.3,0.2c-0.2-0.1-0.3-0.3-0.3-0.4
	C30,21.3,30,21.1,30,20.9v-0.3c0,0,0,0,0.1,0L30.2,19.9z M30.1,23.2l0.1,0.1c0.1,0,0.2,0.1,0.3,0.1c0.1,0.1,0.2,0.1,0.3,0.1
	L30.1,23.2z M30.1,21.3l0.1,0.3c0.1,0.1,0.2,0.2,0.3,0.3c0.1,0.1,0.2,0.1,0.3,0.1c-0.1,0-0.3-0.1-0.4-0.2L30.1,21.3z M30.5,20
	l-0.1,0.3c0,0.1-0.1,0.2-0.1,0.3v0.1c0-0.1,0-0.2,0.1-0.3L30.5,20z M30.3,21C30.3,21,30.3,21,30.3,21c0,0.1,0,0.1,0,0.2
	c0,0,0,0.1,0.1,0L30.3,21z M30.5,19.9L30.5,19.9l0.1-0.2l0,0L30.5,19.9z M31.4,19.3c-0.1,0-0.3,0.1-0.4,0.2
	c-0.1,0.2-0.2,0.4-0.3,0.6l-0.1,0.3v0.1c0,0.2,0,0.3,0,0.5c0,0.1,0.1,0.2,0.1,0.2l0.1,0.1l0.1,0.1c0.1,0,0.1,0.1,0.2,0.1
	c-0.2-0.1-0.3-0.2-0.4-0.3c-0.1-0.1-0.2-0.3-0.2-0.4v-0.2c0-0.2,0.1-0.4,0.1-0.6c0.1-0.2,0.2-0.4,0.4-0.5l-0.3,0.5
	c0,0.1-0.1,0.1-0.1,0.2c0,0.1,0,0.1,0,0.2c0,0.2,0,0.4,0.1,0.6c0,0.2,0.1,0.3,0.3,0.4h0.2h0.2h0.2c0.2-0.1,0.4-0.3,0.6-0.6
	c0.1-0.3,0.2-0.5,0.3-0.8L32,19.5C31.9,19.4,31.7,19.3,31.4,19.3L31.4,19.3z M30.9,23.1L30.9,23.1l0.1,0L30.9,23.1
	C30.9,23.1,30.9,23.1,30.9,23.1L30.9,23.1z M31.2,23.6L31.2,23.6L31.2,23.6c0.1,0,0.1,0,0.1,0H31.2L31.2,23.6z M31.4,22L31.4,22
	C31.5,22,31.5,22,31.4,22C31.5,21.9,31.4,21.9,31.4,22z M32,21.6l-0.3,0.2L32,21.6L32,21.6z M32,19.1l0.2,0.1c0.1,0,0.1,0.1,0.2,0.2
	l0,0l0.2,0.1v-0.1c-0.1-0.1-0.1-0.2-0.2-0.2C32.2,19.1,32.1,19.1,32,19.1z M32.2,21.1L32,21.3l0,0L32.2,21.1
	C32.1,21.1,32.1,21.1,32.2,21.1L32.2,21.1z M32,19.2l0.1,0.1l0,0L32,19.2L32,19.2z M32.1,23L32.1,23L32.1,23L32.1,23z M32.5,18.9
	h-0.2h-0.2h-0.1c0.1,0,0.2,0,0.3,0.1l0.3,0.2l0,0L32.5,18.9z M32.5,18.8l0.2,0.1c0.1,0,0.2,0.1,0.2,0.2l0,0c0-0.1-0.1-0.1-0.2-0.2
	C32.7,18.8,32.6,18.8,32.5,18.8L32.5,18.8z M32.9,20.8l-0.2,0.8l-0.2,0.8l0.1-0.1l0.2-0.7c0-0.1,0-0.2,0.1-0.4L32.9,20.8L32.9,20.8z
	 M32.7,19.6c0,0.1-0.1,0.3-0.1,0.5v0.4l0.1-0.5L32.7,19.6z M32.9,19.3l-0.2,0.8L32.7,21c0-0.3,0-0.6,0.1-0.9L32.9,19.3z M32.9,21.4
	v0.1v0.1v0V21.4z M33.1,22c0,0.1,0,0.2-0.1,0.3c-0.1,0.1-0.1,0.3-0.2,0.4c0-0.1,0.1-0.2,0.1-0.4C33,22.2,33.1,22.1,33.1,22L33.1,22z
	 M33,20.7l0.1-0.3l0,0L33,20.7z"/>
<path class="st0" d="M36,17.2l0.1,0.2v-0.2c0,0,0-0.1,0-0.1c0,0,0.1,0,0.1,0.1c0,0,0,0.1,0.1,0.1v-0.2h0.1l0.3,1.2l0.3,1.1
	c0.1,0.4,0.2,0.7,0.4,1.1l0.1,0.1l0,0l-0.1-0.4c0-0.1-0.1-0.3-0.1-0.4c0-0.2-0.1-0.3-0.2-0.5l-0.3-1.1c-0.1-0.3-0.2-0.6-0.3-0.9
	c0,0.1,0.1,0.2,0.2,0.4s0.1,0.3,0.2,0.5l0.3,1.1c0.1,0.3,0.2,0.6,0.3,1c0,0.1,0,0.1,0.1,0.1c0.2-0.2,0.3-0.5,0.5-0.7l0.4-0.7l0.5-1
	c0-0.1,0.1-0.2,0.2-0.3l0.1-0.2l0.2-0.4h0.1c0,0,0,0.1,0,0.1v0.2c0,0,0,0.1,0,0.1c0,0,0.1-0.1,0.1-0.2v-0.2c0,0,0.1,0,0.1,0
	c0,0,0.1,0.1,0.1,0.1c0,0,0,0,0,0v-0.1c0.1,0,0.1,0.1,0.1,0.2c0,0.1,0,0.1,0,0.2c0,0.1,0,0.3,0,0.5s0,0.4,0,0.4v0.8c0,0-0.1,0-0.1,0
	c0,0-0.1,0-0.1-0.1l0,0V19v-0.3v-0.4L40,18.3v2.6c0,0.1,0,0.4,0,0.6s0,0.5,0,0.6v0.1c0,0-0.1,0-0.1,0c-0.1,0-0.1,0-0.1,0.1
	c0-0.2-0.1-0.4-0.1-0.7l-0.1-0.7l0,0v-1.5l0,0c-0.2,0.2-0.3,0.4-0.5,0.7l-0.4,0.6h0.1c-0.2,0.3-0.3,0.6-0.5,0.9
	c-0.2,0.2-0.4,0.5-0.6,0.7c0,0,0,0,0-0.1v-0.1V22v0l-0.1,0.2l-0.1,0.1l-0.1,0.1l-0.1-0.1c0-0.1,0-0.1-0.1-0.1v0.3c0,0-0.1,0-0.1-0.1
	c0,0-0.1-0.1-0.1-0.1v0.2c-0.1,0-0.1,0-0.1-0.1l-0.1-0.1l-0.5-1.3L36,19.5c-0.1,0.2-0.2,0.6-0.3,1.3s-0.2,1.1-0.3,1.4c0,0,0,0,0-0.1
	v-0.1c0,0,0,0,0-0.1l-0.1,0.3c0,0-0.1,0-0.1-0.1S35,22,35,22l0,0v0v0.1l0.1,0.1l0,0c0,0,0,0,0,0c0,0,0,0.1-0.1,0.1h-0.1
	c0,0,0,0,0-0.1c0,0,0,0,0-0.1l0,0v0.1c0,0,0,0.1-0.1,0.1h0c0.1-0.2,0.1-0.4,0.2-0.6c0-0.2,0.1-0.5,0.2-0.9c0.1-0.4,0.2-0.9,0.3-1.4
	c-0.1,0.2-0.2,0.5-0.2,0.8L35,20.9l-0.2,0.6c-0.1,0.3-0.1,0.6-0.2,0.9h-0.1c0,0-0.1,0-0.1,0v-0.1c0-0.2,0-0.3,0.1-0.4
	c0.1-0.2,0.1-0.5,0.2-0.7c0-0.3,0.2-0.9,0.4-1.8l0.4-1.6h0.1l0-0.3c0-0.1,0.1-0.2,0.2-0.2l0.1,0c0,0,0,0,0.1,0v-0.1L36,17.2
	C36,17.1,36,17.1,36,17.2C36.1,17.1,36,17.2,36,17.2z M35,22L35,22L35,22z M35.4,18.4c-0.1,0.4-0.1,0.6-0.1,0.8s-0.1,0.2-0.1,0.3
	L35,20.6l0.3-1.1c0-0.2,0-0.4,0.1-0.6C35.4,18.8,35.5,18.6,35.4,18.4L35.4,18.4z M35.2,21.3L35.2,21.3c0,0.1,0,0.2,0,0.2V21.3z
	 M35.6,19.1l-0.3,1.7l0.2-0.9C35.5,19.7,35.6,19.4,35.6,19.1L35.6,19.1z M35.5,18.1v0.2c0,0,0,0.1,0,0.1l0,0v-0.1
	C35.6,18.2,35.6,18.1,35.5,18.1L35.5,18.1z M35.6,17.3v0.3c0,0,0,0.1,0,0.1l0.1,0.1v-0.1c0,0,0-0.1,0-0.1
	C35.7,17.4,35.7,17.4,35.6,17.3L35.6,17.3z M35.6,18.8L35.6,18.8C35.6,18.8,35.6,18.8,35.6,18.8V19V18.8z M35.8,17.9V18
	c0,0.1,0,0.1,0,0.1C35.8,18.1,35.8,18,35.8,17.9L35.8,17.9C35.8,17.9,35.9,17.9,35.8,17.9L35.8,17.9z M35.8,17.4v0.3l0,0v-0.1
	c0,0,0.1-0.1,0.1-0.1L35.8,17.4z M36,18L36,18C36,18.1,36,18.1,36,18L36,18z M36,18.8c0.1,0.6,0.2,1.1,0.4,1.5
	c0.1,0.4,0.3,0.8,0.5,1.2l-0.3-1l-0.3-0.9L36,18.8L36,18.8z M36,18.3c0,0.2,0.1,0.4,0.1,0.5c0,0.2,0.1,0.3,0.2,0.4
	c0-0.1-0.1-0.2-0.1-0.3c0-0.1-0.1-0.2-0.1-0.4v-0.1C36.2,18.4,36.2,18.4,36,18.3L36,18.3z M36.2,17.7c0,0.3,0.1,0.6,0.2,0.8l0.3,1.1
	c0,0.1,0.1,0.1,0.1,0.2c0,0.1,0,0.1,0.1,0.2l-0.2-1C36.5,18.6,36.4,18.2,36.2,17.7L36.2,17.7z M36.8,20.9l0.1,0.3c0,0.1,0,0.2,0,0.2
	c-0.1-0.1-0.1-0.2-0.1-0.2C36.9,21,36.9,21,36.8,20.9L36.8,20.9z M36.9,20.2c0,0,0.1,0.2,0.2,0.4c0.1,0.1,0.1,0.3,0.1,0.5L37,20.7
	L36.9,20.2z M37.8,20.7L37.8,20.7l-0.1,0.1L37.8,20.7z M38.1,20.3L38.1,20.3l-0.2,0.3L38.1,20.3z M37.9,20.8L37.9,20.8l0.3-0.4
	l0.3-0.5l0.2-0.2c0,0,0-0.1,0-0.1c-0.1,0.1-0.2,0.3-0.3,0.5L38,20.5L37.9,20.8z M38.4,20.9l-0.2,0.2c-0.1,0.1-0.1,0.2-0.2,0.3
	c0.1-0.1,0.1-0.1,0.2-0.2L38.4,20.9z M38.4,19.9L38.4,19.9l0.1-0.1L38.4,19.9z M38.6,19.6 M38.7,20.5l-0.1,0.1c0,0,0,0.1,0,0.1
	l0.1-0.1C38.7,20.5,38.8,20.5,38.7,20.5L38.7,20.5z M39.7,17.3l-0.5,1l-0.6,1.1l0.5-0.9c0.1-0.2,0.2-0.4,0.3-0.6
	C39.6,17.8,39.7,17.6,39.7,17.3L39.7,17.3z M38.9,19.9l-0.1,0.1c0,0,0,0.1,0,0.1L38.9,19.9z M39.7,18c-0.1,0.1-0.2,0.3-0.2,0.4
	c-0.1,0.2-0.1,0.3-0.2,0.4L39,19.2c-0.1,0.1-0.1,0.2-0.1,0.3l0.2-0.4l0.3-0.5l0.2-0.4L39.7,18C39.7,18,39.7,18,39.7,18L39.7,18z
	 M38.9,19.9l0.4-0.5c0.1-0.2,0.2-0.4,0.3-0.6L38.9,19.9z M39.7,21.1l0.1,1.1c-0.1,0-0.1-0.1-0.1-0.2c0-0.1,0-0.1,0-0.2L39.7,21.1z
	 M39.9,18.5c0,0-0.1,0.1-0.1,0.1c0,0,0,0.1,0.1,0.1v1.5c0,0.1,0,0.3,0,0.5s0,0.3,0,0.4c0,0.1,0,0.2,0,0.3c0,0.1,0,0.3,0.1,0.4
	c0-0.1,0-0.3,0-0.7c0-0.4,0-0.7,0-0.9l0-1.3v-0.1c0,0-0.1-0.1-0.1-0.2L39.9,18.5C40,18.5,40,18.5,39.9,18.5L39.9,18.5z M40.5,17.2
	c0,0,0,0,0.1,0.1c0,0,0,0.1,0.1,0.1c0,0,0,0,0,0v-0.2l0.1,0.1c0,0.1,0,0.1,0,0.2v0.4L40.7,18v2c0,0.2,0,0.4,0,0.6s0,0.4,0,0.5
	c0,0.1,0,0.2,0,0.4c0,0.1,0,0.3,0.1,0.6L40.7,22c0,0-0.1-0.1-0.1-0.1c0,0,0-0.1,0-0.1c0,0.1,0,0.1,0,0.2c0,0.1,0,0.1,0,0.2
	c0-0.1-0.1-0.2-0.1-0.3c0-0.1,0-0.2-0.1-0.3v0.1v0.2v0.1c0,0.1-0.1,0.1-0.1,0.2L40.3,22c0-0.2,0-0.4,0-0.5s0-0.2,0-0.4v-1.9h0.1
	c0,0,0.1,0,0.1,0c0-0.3,0-0.6,0.1-1.2L40.5,17.2z M40.4,19.5v0.6l0,0v-0.5C40.4,19.6,40.4,19.5,40.4,19.5L40.4,19.5z M40.4,20.5
	L40.4,20.5v0.2V20.5z M40.9,18v1.6c0,0.2,0,0.4,0,0.7c0,0.3,0,0.5,0,0.6c0,0.2,0,0.3,0,0.5c0,0.2,0,0.4,0.1,0.6c0,0,0,0,0,0.1
	c0,0,0-0.1,0-0.1c-0.1-0.3-0.1-0.6-0.1-0.9c0-0.1,0-0.3,0-0.5s0-0.4,0-0.5v-1.2L40.9,18z"/>
<path class="st0" d="M42.5,19.3l0.3-0.2L43,19c0.2-0.1,0.4-0.1,0.6-0.1c0.2,0,0.4,0.1,0.6,0.2l0.1-0.1c0,0,0,0.1,0,0.1
	c0,0,0-0.1,0.1-0.1c0,0,0,0,0,0h0.2l0,0l0.1-0.1c0,0,0.1-0.1,0.1,0V19v0.1V19c0,0,0-0.1,0.1-0.1l-0.1,0.7c-0.1,0.3-0.1,0.7-0.1,1
	c0,0.2,0,0.4,0.1,0.6c0,0.2,0.1,0.3,0.2,0.5l0,0c-0.1-0.1-0.2-0.2-0.2-0.3c-0.1-0.1-0.1-0.2-0.1-0.3c0,0,0,0,0,0.1
	c0,0.1,0,0.1,0.1,0.2l0.1,0.2l0.1,0.2l0,0c0,0,0,0-0.1,0h-0.1l0,0c0,0,0,0.1,0,0.1c0,0,0,0.1,0,0.1h-0.1c0,0-0.1,0-0.1,0l-0.1-0.1
	v0.1l-0.1-0.1c0,0,0-0.1,0-0.1l0.1,0.1L44.1,21v0.2c0,0.1,0,0.1,0.1,0.2v0.2L44,21.3l0-0.3c0,0,0,0,0,0.1v0.1v0.1
	c0,0.1,0,0.2,0.1,0.3c0.1,0.1,0.2,0.2,0.2,0.4l0,0c-0.1-0.1-0.2-0.2-0.3-0.3c-0.1-0.1-0.1-0.2-0.1-0.4v0.1c0,0,0,0.1,0,0.1v0.1
	l0.1,0.2l0.1,0.2H44l0,0l-0.1-0.1c-0.1-0.1-0.1-0.1-0.1-0.2l-0.1-0.3l0-0.1h-0.1v0c0,0,0,0,0-0.1l-0.2,0.1l-0.2,0.1l-0.3,0.2
	c0,0,0,0,0,0.1H43c0.1-0.1,0.2-0.2,0.4-0.3l-0.2,0.1c-0.1,0-0.1,0.1-0.2,0.1c-0.1,0.1-0.1,0.2-0.2,0.2L42.5,22H42h-0.2
	c-0.1,0-0.1-0.1-0.2-0.1c-0.1-0.1-0.2-0.2-0.2-0.3c0-0.2-0.1-0.3-0.1-0.5v-0.4c0.1-0.2,0.2-0.5,0.3-0.7c0.1-0.2,0.3-0.4,0.6-0.6
	C42.3,19.4,42.4,19.4,42.5,19.3C42.4,19.4,42.4,19.3,42.5,19.3z M41.6,20.4C41.6,20.4,41.6,20.5,41.6,20.4v0.3c0,0.1,0,0.2,0,0.2
	v-0.1c0-0.1,0-0.1,0-0.2C41.6,20.5,41.6,20.5,41.6,20.4L41.6,20.4z M41.6,21.4c0,0.1,0,0.2,0.1,0.2c0,0.1,0.1,0.1,0.2,0.1L41.6,21.4
	z M41.6,21.2L41.6,21.2L41.6,21.2L41.6,21.2L41.6,21.2z M41.9,20.9V21c0,0.1,0,0.2,0.1,0.3c0.1,0.1,0.2,0.2,0.3,0.3
	c0.1,0,0.2,0.1,0.3,0.1c0.1,0,0.2,0,0.3-0.1c-0.1,0-0.2,0-0.3,0h-0.2c-0.1,0-0.2-0.1-0.3-0.2C42,21.1,41.9,21,41.9,20.9L41.9,20.9z
	 M41.9,21.6L41.9,21.6L41.9,21.6L41.9,21.6L41.9,21.6z M42.2,20l-0.2,0.3L42,20.4c0,0,0,0.1,0,0.1l0,0v-0.1c0,0,0,0,0.1,0v0.3
	c0-0.1,0-0.2,0-0.3v-0.2L42.2,20z M42.1,19.9L42.1,19.9L42.1,19.9L42.1,19.9L42.1,19.9z M42.2,21.7L42.2,21.7L42.2,21.7L42.2,21.7z
	 M42.2,21.7C42.3,21.7,42.3,21.7,42.2,21.7h0.2h-0.1H42.2C42.3,21.7,42.3,21.7,42.2,21.7L42.2,21.7z M42.2,20.9c0,0.1,0,0.1,0.1,0.2
	c0.1,0.1,0.1,0.1,0.2,0.1L42.2,20.9z M42.7,19.6c-0.1,0.1-0.2,0.2-0.3,0.4c-0.1,0.2-0.1,0.4-0.1,0.5c0,0.2,0,0.4,0.2,0.5l0.2,0.1
	h0.1c0.1,0,0.1,0,0.2,0l0.3-0.1c0.2-0.1,0.3-0.2,0.4-0.4c0.1-0.2,0.2-0.5,0.2-0.7v-0.1h-0.1l-0.4-0.2h-0.2H43
	C42.9,19.6,42.8,19.6,42.7,19.6L42.7,19.6z M42.3,19.5L42.3,19.5L42.3,19.5L42.3,19.5z M43.3,19c-0.1,0-0.2,0-0.2,0l-0.2,0.1
	c-0.1,0.1-0.3,0.1-0.4,0.3l0,0c0,0,0,0,0.1,0h0.1c0.1-0.1,0.3-0.2,0.5-0.2v0.1v0l0,0l0,0h0.1L43.3,19z M42.5,19.5L42.5,19.5
	L42.5,19.5c0.1,0,0.2,0,0.2-0.1L42.5,19.5C42.5,19.5,42.5,19.6,42.5,19.5L42.5,19.5z M43.7,19.7c-0.1-0.1-0.2-0.1-0.3-0.2
	c-0.1,0-0.2-0.1-0.3-0.1c-0.1,0-0.2,0-0.2,0c0.2,0,0.3,0,0.5,0.1C43.5,19.6,43.6,19.6,43.7,19.7L43.7,19.7z M43.8,19.5l-0.1-0.1
	l-0.2-0.1c-0.1,0-0.2-0.1-0.3,0c-0.1,0-0.2,0-0.2,0.1h0.6c0.1,0,0.1,0.1,0.2,0.1C43.8,19.5,43.8,19.5,43.8,19.5L43.8,19.5z
	 M43.6,20.7l-0.1,0.1c0,0.1-0.1,0.1-0.2,0.2l-0.3,0.2c0.1,0,0.2-0.1,0.3-0.1C43.5,21,43.6,20.9,43.6,20.7L43.6,20.7z M43.3,19
	L43.3,19c0.1,0,0.1,0,0.1,0H43.3L43.3,19z M43.8,20.7 M43.9,19.3L43.9,19.3L43.9,19.3L43.9,19.3L43.9,19.3L43.9,19.3z M44.1,19.6
	L44.1,19.6C44.1,19.8,44,20,44,20.1c0,0.2,0,0.3,0,0.5v0.1c0,0,0,0,0,0.1c0,0.1,0,0.1,0,0.2c0-0.2,0-0.5,0.1-0.7
	C44.1,20.1,44.1,19.8,44.1,19.6L44.1,19.6z M44.1,19.3L44.1,19.3L44.1,19.3L44.1,19.3C44.1,19.3,44.1,19.3,44.1,19.3L44.1,19.3z
	 M44.2,20.4v0.4c0,0.1,0,0.1,0,0.2c0,0.1,0,0.1,0,0.2c0,0.1,0.1,0.2,0.1,0.2l-0.1-0.2c0,0,0,0,0-0.1c0-0.1,0-0.1,0-0.2v-0.3
	c0,0,0-0.1,0-0.1C44.3,20.5,44.3,20.4,44.2,20.4L44.2,20.4z M44.4,19.8l-0.1,0.3v0.2L44.4,19.8z M44.5,19.4l0.1-0.2l0,0L44.5,19.4z
	 M44.5,20.2v0.5c0,0,0,0.1,0,0.1v-0.1v-0.2L44.5,20.2z M44.6,19.3l0,0.2c0,0,0,0.1,0,0.1L44.6,19.3z M44.7,19.5L44.6,20
	c0,0,0,0.1,0,0.1v-0.3c0,0,0-0.1,0-0.1L44.7,19.5L44.7,19.5z"/>
<path class="st0" d="M47.8,18.8v0.3c0,0.2,0,0.4,0,0.6L48,20c0,0.1,0,0.2,0.1,0.3v0.1c0,0,0,0.1,0,0.1c-0.1,0-0.1,0-0.1,0.1
	s0,0.1-0.1,0.1l-0.2-0.3l-0.1-0.2v0.1c0,0,0,0.1,0,0.1l0.2,0.3c0,0,0,0,0,0.1h-0.1c-0.1-0.1-0.2-0.3-0.2-0.4l-0.1-0.6
	c0,0-0.1,0.1-0.1,0.1v0.3c0,0.1,0,0.1,0,0.2c0,0.1,0,0.1,0.1,0.2c0,0.1,0.1,0.3,0.2,0.4h-0.1V21c0,0,0,0-0.1,0.1
	c-0.1-0.1-0.2-0.3-0.2-0.4l-0.1-0.5V20c0-0.1,0-0.1,0-0.2c0,0,0,0-0.1,0.1L46.9,20H47c-0.2,0.3-0.3,0.5-0.4,0.9
	c-0.1,0.4-0.3,0.7-0.3,1.1c0,0-0.1,0-0.2,0l0.2-0.7L46,22h-0.1c0.1-0.3,0.2-0.6,0.2-0.9c-0.1,0.2-0.1,0.3-0.2,0.5
	c0,0.1-0.1,0.3-0.1,0.4l-0.1,0.1c-0.1,0-0.1,0.1-0.1,0.1c-0.1,0-0.1-0.1-0.1-0.1V22c0-0.2,0.1-0.4,0.1-0.6c0-0.2,0.1-0.5,0.1-0.9
	c0-0.4,0.1-0.8,0.1-1.3h0.1c0,0,0.1,0,0.1-0.1c0.1,0,0.2,0.1,0.2,0.2l0.1,0.6c0,0.2,0,0.3-0.1,0.5c0,0.1-0.1,0.3-0.1,0.4
	c0,0.2,0,0.3-0.1,0.5l-0.1,0.4l0.1-0.1l0.2-0.8c0.1-0.3,0.2-0.7,0.2-1c0-0.1,0-0.1,0-0.2c0-0.1,0-0.1,0-0.2c0-0.1-0.1-0.2-0.1-0.3
	l0,0c0.1,0,0.1,0.1,0.1,0.1l0.1,0.2c0,0,0-0.1,0-0.1c0-0.1,0-0.1,0-0.2V19h0.2v-0.1c0.1,0,0.2,0.1,0.2,0.2c0,0.1,0,0.2,0.1,0.3v-0.1
	V19c0-0.1,0-0.1,0.1-0.1v0.3V20c0.1-0.1,0.2-0.1,0.2-0.2c0.1-0.1,0.1-0.2,0.1-0.3l0.2-0.1c0.1-0.1,0.1-0.1,0.2-0.2c0,0,0.1,0,0.1,0
	c0,0,0-0.1,0-0.1l0,0l0,0l0.1,0.1c0,0,0.1-0.1,0-0.1v-0.2c0,0,0,0,0,0L47.8,18.8z M45.5,21.7L45.5,21.7c0,0.1,0,0.1,0,0.2V21.7z
	 M45.7,21.7L45.7,21.7v0.2c0,0.1,0,0.1,0,0.2l0.1-0.2C45.8,21.8,45.7,21.8,45.7,21.7L45.7,21.7z M45.8,19.2c0.1,0.2,0.1,0.4,0.1,0.6
	v-0.2v-0.2C45.8,19.3,45.8,19.3,45.8,19.2L45.8,19.2z M46.3,20.7L46.2,21c0,0,0.1-0.1,0.1-0.1L46.3,20.7z M46.3,20.3L46.3,20.3
	c0.1-0.2,0.1-0.4,0.1-0.6v-0.2L46.3,20.3z M47,19.7L46.7,20l0,0.1v0l0.2-0.3C46.9,19.9,46.9,19.8,47,19.7L47,19.7z M47.2,20.4
	c0,0.1,0,0.2,0,0.3c0,0.1,0.1,0.1,0.1,0.2l-0.1-0.2C47.3,20.6,47.3,20.5,47.2,20.4L47.2,20.4z M47.4,19.3c0,0,0,0.1,0,0.1
	c0,0,0,0.1,0,0.1l0,0V19.3C47.4,19.3,47.4,19.3,47.4,19.3L47.4,19.3z"/>
<path class="st0" d="M50,19c0.1-0.1,0.2-0.1,0.4-0.1c0.2,0,0.3,0,0.4,0.1h-0.1c0,0-0.1,0-0.1,0.1l0,0h-0.1c0,0,0,0.1,0.1,0.1
	s0.1,0,0.1,0.1l0.1,0.1c0,0,0,0.1,0,0.1v0c0.1,0,0.1,0.1,0.1,0.2c0,0.1,0,0.1,0.1,0.2c0,0,0,0.1,0,0.1l-0.1-0.1c0,0,0,0-0.1,0.1V20
	c0-0.2,0-0.3-0.1-0.4c-0.1-0.1-0.1-0.2-0.3-0.3c0,0,0.1,0,0.1,0l0.1,0.1l0,0c0-0.1-0.1-0.1-0.2-0.1c-0.1,0-0.1-0.1-0.1-0.1h-0.1
	c0,0-0.1,0-0.1,0c0,0,0,0.1,0.1,0.1c0.1,0,0.2,0.1,0.3,0.2c0.2,0.2,0.2,0.4,0.2,0.7c-0.1,0-0.1-0.1-0.1-0.2c0-0.1,0-0.2-0.1-0.2
	l-0.1-0.1c0,0-0.1-0.1-0.2-0.1c0.2,0.2,0.3,0.4,0.3,0.6v0.1c-0.1,0-0.1,0-0.1-0.1c0-0.1,0-0.1,0-0.2c0-0.1-0.1-0.2-0.1-0.3l-0.2-0.2
	c-0.2,0.2-0.3,0.3-0.4,0.5c-0.1,0.2-0.2,0.4-0.2,0.7c0,0.2,0,0.3,0.1,0.4c0.1,0.2,0.3,0.3,0.6,0.3c0.2,0,0.4-0.1,0.6-0.2l0.6-0.3
	l-0.1,0.3c0,0.1-0.1,0.1-0.2,0.1c-0.1,0-0.2,0.1-0.3,0.1l-0.3,0.2l-0.2,0.1c0.4-0.1,0.7-0.2,1-0.4c0,0.1-0.1,0.3-0.2,0.3l-0.3,0.2
	l-0.3,0.2c-0.1,0.1-0.3,0.1-0.4,0.1l-0.3,0.1h-0.2c-0.2,0-0.4,0-0.6-0.1c-0.1-0.1-0.3-0.2-0.3-0.3c-0.1-0.2-0.1-0.3-0.1-0.5v-0.4
	c0-0.1,0-0.1,0-0.2c0-0.1,0-0.2,0.1-0.3c0.1-0.1,0.1-0.2,0.2-0.3c0,0,0,0.1,0,0.1v0.1h0.1c0.1-0.2,0.2-0.5,0.4-0.6
	c0.2-0.2,0.4-0.3,0.6-0.4c-0.1,0.1-0.3,0.2-0.4,0.3c-0.1,0.1-0.2,0.3-0.3,0.4l0,0c0.2-0.2,0.3-0.4,0.5-0.5c0.1-0.1,0.3-0.2,0.5-0.2
	L50,19L50,19z M48.6,20.9l0.2,0.6c0.1,0.1,0.2,0.2,0.3,0.2c-0.1-0.1-0.2-0.2-0.2-0.3c0-0.1-0.1-0.2-0.1-0.3v-0.2
	c0-0.2,0-0.5,0.2-0.7c0.1-0.2,0.3-0.4,0.5-0.6v0.1l0.3-0.4c-0.3,0.2-0.5,0.4-0.7,0.7C48.7,20.3,48.6,20.6,48.6,20.9z M48.6,21.3
	c0,0.1,0,0.1,0.1,0.2c0,0.1,0.1,0.1,0.2,0.1L48.6,21.3z M48.9,21.9L48.9,21.9L48.9,21.9z M48.9,20.8v0.1c0,0.2,0.1,0.4,0.2,0.6
	l0.2,0.1h0.1c0,0,0.1,0,0.1,0l-0.2-0.1c-0.1,0-0.2-0.1-0.3-0.3c0-0.1-0.1-0.3-0.1-0.4L48.9,20.8z M49.1,21.9L49.1,21.9L49.1,21.9z
	 M50,19.3L50,19.3L50,19.3z M50.9,19C50.9,19,50.9,19,50.9,19C50.8,19,50.8,19,50.9,19c-0.1,0-0.1,0-0.2,0h0c0.1,0,0.1,0.1,0.1,0.1
	l0.2,0.3v0.1c0,0,0,0,0.1,0c0-0.1,0-0.2-0.1-0.3L50.9,19z M50.7,21.5L50.7,21.5l0.2,0L50.7,21.5C50.8,21.5,50.7,21.5,50.7,21.5
	L50.7,21.5z M51,21.1L51,21.1L51,21.1z"/>
<path class="st0" d="M52.9,17.1l0.1,0.1c0,0,0,0.1,0,0.1c0,0.4-0.1,0.8-0.2,1.2l-0.2,0.9c0-0.1,0-0.2,0-0.4s0-0.5,0.1-0.8
	c0-0.3,0.1-0.6,0.1-0.9c0,0.2-0.1,0.5-0.1,0.7l-0.1,0.4l-0.2,1l-0.1,0.8c0.1,0,0.1-0.1,0.1-0.2v-0.2v0.2c0,0,0,0.1,0,0.1
	c0.2-0.1,0.3-0.3,0.5-0.4c0.2-0.2,0.4-0.3,0.6-0.5l0.2-0.1c-0.3,0.2-0.5,0.4-0.8,0.7c-0.2,0.3-0.5,0.5-0.7,0.9c0,0,0,0.1,0,0.1
	c0,0,0,0.1,0,0.1l0.1-0.1l-0.1,0.1c0,0.1-0.1,0.1-0.1,0.2v0.1l0.6-1l0,0l0.2-0.3c0.1-0.1,0.2-0.2,0.3-0.3l0.5-0.5c0,0,0.1,0,0.1,0
	h0.1l0,0h0.1c0,0,0,0,0-0.1c0,0,0.1,0,0.1,0v0.1c0,0,0,0.1,0,0.1v0.1l0,0V19v-0.1v-0.1L54.3,19c0,0-0.1,0.1-0.1,0.1v0.3v0.1
	l-0.1,0.7c0,0.2,0,0.4,0,0.7c0,0.2,0,0.5,0,0.7c0,0.2,0.1,0.4,0.2,0.6v0v0.1c-0.1,0-0.2,0-0.2-0.1l-0.1-0.3l-0.1-0.4v0.1
	c0,0.1,0,0.2,0,0.2l0.1,0.3h-0.1c0,0,0,0,0,0.1c0,0,0,0,0,0.1l0,0v0.1l-0.1,0.1c0-0.1-0.1-0.2-0.1-0.3c0-0.1,0-0.2-0.1-0.3v-0.3
	v-0.3c0-0.1,0-0.3,0-0.6l0.1-0.6c0-0.2,0-0.3,0-0.4c-0.1,0.1-0.2,0.2-0.3,0.3l-0.4,0.4c-0.2,0.4-0.4,0.6-0.5,0.8
	c-0.1,0.2-0.2,0.5-0.2,0.7c0,0-0.1,0.1-0.1,0.1c0,0.1-0.1,0.1-0.1,0.1v-0.2c0,0-0.1,0-0.1,0.1c0,0,0.1,0.1,0.1,0.1v-0.2
	c0,0-0.1,0-0.1,0.1s0,0.1-0.1,0.1c0-0.4,0.1-0.7,0.2-1.1c0.1-0.3,0.1-0.7,0.1-1l-0.2,1c0,0.1,0,0.3-0.1,0.5l-0.1,0.5l-0.2,0.1
	c0,0,0-0.1,0-0.1v-0.1v-0.1v-0.1c0,0-0.1,0.1-0.1,0.2s0,0.2-0.1,0.2c0-0.1,0-0.3,0-0.4s0-0.2,0-0.3s0-0.2,0-0.3s0-0.2,0.1-0.3v0.1
	v0.1v0.2v0.2l0.2-0.8v-0.1l-0.1,0.2l0,0c0-0.4,0-0.7,0.1-1.1l0.2-1.1c0,0.1,0,0.1,0,0.2v0.1c0,0,0,0,0,0.1v0.2
	c0.1-0.2,0.1-0.4,0.1-0.7h-0.1v-0.5c0-0.1,0-0.2,0.1-0.3l0,0c0,0,0-0.1,0.1-0.1l0.2-0.1v0.1L52,19.4l0,0c0.1-0.4,0.1-0.8,0.2-1.1
	c0.1-0.6,0.1-0.9,0.1-1l0.1,0.1c0,0.3,0,0.7-0.1,1l-0.2,1.3C52,20.3,52,20.7,52,21l0.1-0.1l0.3-1.8c0.1-0.6,0.1-1.2,0.2-1.8l0.1,0.1
	v-0.1l0,0v0.1v0.1v0.1v0.1c0,0,0-0.1,0-0.1c0-0.1,0-0.2,0-0.2C52.6,17.3,52.7,17.1,52.9,17.1z M51.8,19.9V20v0.1c0,0.1,0,0.1,0,0.2
	V19.9z M51.8,19.8L51.8,19.8v-0.2V19.8z M51.9,19c0,0.1,0,0.2,0,0.2c0,0,0,0,0,0.1V19z M52,21.5v0.1c0,0,0,0.1,0,0.1
	c0,0,0-0.1,0-0.1C52,21.5,52,21.5,52,21.5z M52.1,19.7v-0.3V19.7L52.1,19.7z M52.4,20.9v-0.2V20.9L52.4,20.9z M52.6,18.1
	C52.6,18.1,52.6,18.1,52.6,18.1C52.6,18.1,52.6,18.1,52.6,18.1L52.6,18.1L52.6,18.1z M53.7,19.4L53.7,19.4L53.7,19.4
	c0.1-0.1,0.1-0.1,0.1-0.2C53.8,19.3,53.8,19.3,53.7,19.4L53.7,19.4z M54.1,19.2l-0.2,1c0,0.1,0,0.3,0,0.4s0,0.3,0,0.4v0.4
	c0-0.2,0-0.3,0-0.5s0-0.3,0-0.4L54.1,19.2z M54,21.9 M54.2,22.6v0.1h0L54.2,22.6L54.2,22.6z M54.7,18.8L54.7,18.8
	c0.1,0.1,0,0.2,0,0.3c0,0.1,0,0.2,0,0.3c0,0,0,0,0-0.1c0,0,0,0,0.1,0c-0.1,0.3-0.1,0.7-0.1,1c0,0.2,0,0.5,0,0.7
	c0,0.2,0.1,0.5,0.1,0.7V22c-0.1-0.1-0.1-0.2-0.2-0.3l-0.1-0.5v-0.6c0-0.1,0-0.3,0-0.5c0-0.1,0-0.2,0.1-0.3v-0.1
	c0,0.2-0.1,0.4-0.1,0.5c0,0.2,0,0.3,0,0.4s0,0.2,0,0.3s0,0.2,0,0.3c0,0.1,0,0.2,0,0.3l0.1,0.4c0,0.1,0.1,0.2,0.1,0.2l0,0l-0.2-0.2
	c0,0.1,0,0.1,0,0.2v0.2c0,0,0,0.1,0,0.1h-0.1c0,0-0.1,0-0.1,0c-0.1-0.1-0.1-0.3-0.2-0.4v-0.5c0-0.1,0-0.3,0-0.3s0-0.2,0-0.4
	s0-0.3,0-0.5s0-0.2,0-0.3v0.1v0.2v0.3v0.2l0.1-0.6c0-0.1,0-0.3,0.1-0.5s0-0.3,0.1-0.4l0,0v0.1l0,0L54.7,18.8z M54.3,21v0.3v0.1
	c0,0,0,0.1,0,0.1c0,0.1,0,0.1,0.1,0.2L54.3,21z M54.4,22.5L54.4,22.5L54.4,22.5L54.4,22.5z M54.3,19.6v-0.2l0,0V19.6z M54.8,19
	c0,0,0,0,0,0.1c0,0,0,0.1,0,0.1c0,0,0,0.1-0.1,0L54.8,19z"/>
<rect x="3.4" y="18.6" class="st17" width="3.8" height="1"/>
<rect x="56.5" y="18.6" class="st17" width="3.8" height="1"/>
<path class="st17" d="M13.3,16.3l0.3,0.1c0.1,0,0.2,0.1,0.3,0.2c0.1,0.1,0.2,0.2,0.2,0.3c0,0,0,0.1,0,0.1c0,0,0,0.1,0,0.1h-0.1v0.1
	c0,0,0,0.1-0.1,0.1h-0.1v-0.1L13.5,17c-0.1-0.1-0.2-0.2-0.4-0.2c0.1,0.1,0.2,0.2,0.3,0.3c0.2,0.1,0.3,0.3,0.3,0.5c0,0-0.1,0-0.1,0
	h-0.1l-0.1,0.1l-0.2-0.1c0,0,0,0.1,0,0.1c0,0,0.1,0.1,0.1,0.1l-0.7-0.5c-0.1-0.1-0.2-0.1-0.3-0.1h-0.2h-0.1h-0.3
	c-0.1,0-0.3,0.1-0.4,0.3c-0.2,0.3-0.3,0.7-0.4,1c0,0.4,0,0.7,0.1,1.1c0,0.2,0.2,0.4,0.3,0.6c0.1,0.1,0.3,0.2,0.5,0.3
	c0.1,0,0.3,0.1,0.4,0.1c0.3,0,0.6-0.1,0.9-0.2l0.2-0.2l0.2-0.1l0.2-0.1c0,0.1,0,0.1,0,0.2L13.6,20v0l-0.1,0.1c0.1,0,0.1,0,0.2-0.1
	l0.1-0.1v0.1c0,0,0.1,0,0.1,0l0.1-0.1c0,0,0,0,0,0.1v0.1v0.1c-0.2,0.2-0.3,0.3-0.5,0.4c-0.1,0.1-0.3,0.2-0.4,0.3L13,21l0.3-0.2
	l-0.4,0.1c-0.1,0-0.2,0.1-0.2,0.1h0.1h0.1c0,0,0.1,0,0.1,0.1c-0.3,0.1-0.7,0.2-1,0.2c-0.2,0-0.4,0-0.6-0.1c-0.2,0-0.4-0.1-0.6-0.2
	c-0.2-0.2-0.4-0.4-0.5-0.6C10,20.2,10,20,10,19.8H10C10,19.5,9.9,19.2,9.9,19c0-0.4,0.1-0.8,0.2-1.1c0.1-0.3,0.3-0.6,0.6-0.9
	c0.2-0.2,0.5-0.4,0.7-0.5c0.2-0.1,0.4-0.1,0.6-0.2c0.1,0,0.3,0,0.4,0C12.8,16.2,13,16.2,13.3,16.3z M10.1,19.8c0,0.1,0,0.2,0.1,0.3
	c0,0.1,0.1,0.2,0.1,0.3c0.1,0.1,0.2,0.2,0.3,0.3c-0.1-0.1-0.2-0.2-0.2-0.4C10.2,20.1,10.1,19.9,10.1,19.8z M10.1,19
	c0,0.2,0,0.4,0.1,0.5c0.1,0.2,0.2,0.4,0.3,0.5h0.1l-0.2-0.4L10.1,19z M10.7,17.2c0.2-0.2,0.4-0.4,0.7-0.6c0.2-0.2,0.5-0.2,0.7-0.3
	c-0.4,0.1-0.8,0.4-1.1,0.6c-0.3,0.3-0.5,0.6-0.6,1l-0.1,0.6v0.1c0-0.3,0-0.6,0.1-0.9C10.4,17.5,10.5,17.3,10.7,17.2L10.7,17.2z
	 M10.5,20.4l-0.1-0.2l0,0L10.5,20.4z M10.5,20.7c0.1,0.1,0.2,0.2,0.4,0.3c0.2,0.1,0.4,0.1,0.7,0.1c-0.2,0-0.4-0.1-0.5-0.1L10.5,20.7
	z M10.6,18.2l-0.1,0.3c0,0.3,0.1,0.6,0.2,0.9c0.1,0.3,0.3,0.5,0.6,0.7v0C10.9,19.6,10.6,18.9,10.6,18.2L10.6,18.2z M10.6,20.5
	L10.6,20.5L10.6,20.5L10.6,20.5z M10.7,18.4c0-0.2,0.1-0.4,0.1-0.6c0-0.1,0.1-0.2,0.1-0.3c0-0.1,0.1-0.1,0.1-0.2
	c-0.1,0.1-0.2,0.2-0.3,0.4c0,0.1,0,0.2-0.1,0.4C10.8,18.2,10.8,18.3,10.7,18.4L10.7,18.4z M11,20.7L11,20.7L11,20.7L11,20.7z
	 M11.2,18.3c0,0,0,0.1,0,0.1v0.1c0,0.2,0,0.3,0.1,0.5c0,0.2,0.1,0.3,0.2,0.5C11.2,19.1,11.1,18.7,11.2,18.3L11.2,18.3z M11.4,16.8
	c-0.1,0-0.1,0.1-0.1,0.1c0,0-0.1,0.1-0.1,0.1l0.1-0.1C11.3,16.9,11.4,16.8,11.4,16.8z M11.4,20.9l-0.2-0.1l0,0L11.4,20.9z
	 M11.2,17.8l-0.1,0.3c0,0,0-0.1,0-0.1L11.2,17.8z M11.2,20.7c0.1,0.1,0.2,0.1,0.3,0.1c0.1,0,0.2,0,0.4,0c0.1,0,0.2,0,0.3,0H12
	c0,0-0.1,0-0.1-0.1h-0.2C11.5,20.8,11.4,20.7,11.2,20.7L11.2,20.7z M11.5,20.2c0,0.1,0,0.1,0.1,0.1h0.1l0,0l-0.1-0.1
	C11.6,20.2,11.5,20.2,11.5,20.2L11.5,20.2z M11.9,20.3L11.9,20.3c-0.1,0-0.1,0-0.1,0C11.9,20.4,11.9,20.4,11.9,20.3L11.9,20.3
	L11.9,20.3L11.9,20.3z M11.8,21.1L11.8,21.1L11.8,21.1L11.8,21.1z M12.1,21.1h0.3c0.1,0,0.2,0,0.2-0.1h-0.3
	C12.3,21,12.2,21.1,12.1,21.1L12.1,21.1z M12.1,16.7c0.2,0,0.3,0,0.5,0.1c0.1,0,0.3,0.1,0.4,0.2c-0.1-0.1-0.2-0.2-0.3-0.2
	c-0.1-0.1-0.2-0.1-0.4-0.1L12.1,16.7L12.1,16.7z M12.3,16.3c0.1,0,0.1,0,0.2,0h0.2h0.2h0.1l-0.4-0.1C12.4,16.2,12.4,16.2,12.3,16.3
	L12.3,16.3z M12.4,20.6c0.2,0,0.4-0.1,0.6-0.2h-0.2h-0.2C12.5,20.5,12.4,20.5,12.4,20.6L12.4,20.6z M13.2,16.4l0.7,0.5l-0.3-0.3
	C13.5,16.5,13.3,16.4,13.2,16.4L13.2,16.4z M13.3,20.8L13.3,20.8L13.3,20.8z M13.3,17.2L13.3,17.2L13.3,17.2L13.3,17.2L13.3,17.2z
	 M13.3,20.3l0.1-0.1l0,0L13.3,20.3z M13.3,20.2C13.3,20.2,13.4,20.2,13.3,20.2l0.2-0.1L13.3,20.2L13.3,20.2z M13.6,19.8L13.6,19.8
	L13.6,19.8L13.6,19.8z"/>
<path class="st17" d="M15.6,18.2L16,18c0.1-0.1,0.3-0.1,0.4-0.1c0.1,0,0.2,0,0.3,0c-0.2,0-0.4,0.1-0.5,0.2l-0.5,0.3l0,0l0.6-0.3v0.1
	h0.1c0-0.1,0-0.1,0.1-0.1l0.3-0.1c0.1,0,0.2,0,0.3,0.1l0.3,0.1l0.2,0.1c0.2,0.3,0.3,0.6,0.3,1c0,0.1,0,0.2,0,0.2c0,0,0,0.2-0.1,0.3
	c-0.1,0.2-0.2,0.4-0.3,0.6c-0.2,0.2-0.4,0.4-0.6,0.6l-0.3,0.1c-0.1,0.1-0.3,0.1-0.4,0.1h-0.1c-0.2,0-0.5,0-0.7,0
	c-0.2,0-0.4-0.1-0.6-0.2c-0.2-0.1-0.3-0.3-0.3-0.5c-0.1-0.2-0.1-0.5-0.1-0.7c0-0.3,0.1-0.6,0.3-0.9C15,18.6,15.2,18.4,15.6,18.2z
	 M15.4,18.5c-0.2,0.1-0.4,0.3-0.6,0.6c-0.1,0.3-0.2,0.5-0.2,0.8l0.1-0.4l0.3-0.6C15.1,18.7,15.2,18.6,15.4,18.5L15.4,18.5z
	 M14.8,19.9c0,0.2,0,0.3,0.1,0.4c0,0.1,0.1,0.2,0.2,0.3c-0.1-0.1-0.1-0.2-0.2-0.3L14.8,19.9z M14.8,20.3c0,0.1,0.1,0.2,0.1,0.3
	c0.1,0.1,0.1,0.2,0.2,0.2l0.1,0.1h0.1h0.2H16c-0.2,0-0.5-0.1-0.7-0.2C15.1,20.7,14.9,20.5,14.8,20.3L14.8,20.3z M15,19.5v0.1v0.5
	c0,0.2,0.1,0.3,0.3,0.5c0.1,0.1,0.3,0.2,0.5,0.3l0,0c-0.2-0.1-0.4-0.3-0.6-0.5c-0.1-0.1-0.1-0.2-0.2-0.3c0-0.1-0.1-0.3-0.1-0.4
	L15,19.5z M15.7,18.4c-0.1,0.1-0.3,0.2-0.4,0.3c-0.1,0.1-0.2,0.3-0.2,0.4v0.2c0,0.1,0,0.1,0,0.2c0,0.1,0,0.1,0,0.2l0.1,0.1v-0.5
	c0-0.2,0.1-0.4,0.2-0.5L15.7,18.4z M15.3,20.7L15.3,20.7L15.3,20.7L15.3,20.7z M15.8,18.6c-0.1,0.1-0.2,0.1-0.3,0.3
	c-0.1,0.1-0.1,0.3-0.1,0.4v0.3c0,0.2,0,0.4,0.1,0.5c0.1,0.1,0.1,0.2,0.3,0.3l0.3,0.1c0.1,0,0.2,0,0.3,0c0.1,0,0.2,0,0.2,0
	c0.1-0.1,0.2-0.2,0.2-0.3c0-0.1,0.1-0.3,0.1-0.4v-0.1c0,0,0-0.1,0-0.1c0-0.1,0-0.2,0-0.2c0,0-0.1-0.1-0.1-0.1V19
	c-0.1-0.1-0.2-0.3-0.3-0.3C16.2,18.6,16,18.6,15.8,18.6L15.8,18.6z M16,18.5c0,0,0.1,0.1,0.2,0.1c0.1,0,0.1,0,0.2,0l-0.2-0.1H16z
	 M16.4,18.4h-0.2h-0.1c0,0-0.1,0-0.1,0h0.1h0.1H16.4L16.4,18.4z M16.3,18.2h0.2h0.2h0.1c-0.1,0-0.2-0.1-0.3-0.1
	C16.4,18.2,16.3,18.2,16.3,18.2L16.3,18.2z M16.4,18.6L16.4,18.6c0.1,0.1,0.2,0.2,0.3,0.3c0.1,0.1,0.2,0.2,0.2,0.3
	c0-0.1,0-0.2-0.1-0.3C16.7,18.8,16.5,18.7,16.4,18.6L16.4,18.6z M16.6,20.8L16.6,20.8l0.3-0.2c0.1-0.1,0.2-0.1,0.3-0.2
	c0.1-0.1,0.2-0.3,0.2-0.4c-0.1,0.1-0.2,0.3-0.3,0.4l-0.3,0.2L16.6,20.8z M16.6,18.5c0.2,0,0.3,0.1,0.4,0.3l0.2,0.5
	c0,0.1,0,0.2,0,0.2c0,0.1,0,0.1,0,0.2c0,0.1,0,0.1-0.1,0.2L17,20.3c0-0.1,0-0.2,0.1-0.3l0.1-0.3c0,0,0-0.1,0-0.1c0,0,0-0.1,0-0.1
	c0-0.1,0-0.2,0-0.3c0-0.1-0.1-0.2-0.2-0.3L16.6,18.5z M16.9,20.5L16.9,20.5l-0.2,0.2L16.9,20.5z M16.8,18.2l0.1,0.1
	c0,0,0.1,0,0.1,0.1h0.1c0.1,0.1,0.3,0.3,0.3,0.4c0.1,0.2,0.2,0.4,0.2,0.6v-0.1c0-0.1,0-0.2,0-0.2l-0.1-0.3l-0.3-0.3
	C17.1,18.3,17,18.2,16.8,18.2L16.8,18.2z M17,19.4L17,19.4v0.2l0,0V19.4z M17.7,19.6L17.7,19.6L17.7,19.6z M17.7,19.1L17.7,19.1
	C17.7,19.1,17.7,19.1,17.7,19.1l0,0.2L17.7,19.1z"/>
<path class="st17" d="M21.1,16L21.1,16L21.1,16L21.1,16l0.1,0.1v0L21,18v0.1c0,0,0,0,0.1,0l0,0c0-0.1,0.1-0.3,0.1-0.4
	c0-0.1,0-0.3,0.1-0.4l0-0.1l0-0.8c0-0.1,0.1-0.1,0.1-0.2c0-0.1,0-0.1,0.1-0.2c0,0,0,0.1,0.1,0.1h0.1l0.1-0.1c0,0,0.1,0.1,0.1,0.1
	h0.1h0.1c0,0,0.1,0,0.1,0.1l-0.2,0.8c-0.1,0.2-0.1,0.4-0.1,0.6c0,0.3,0,0,0,0v0.1c0,0,0,0.1,0,0.1c0,0,0,0.1,0,0.3s0,0.3,0,0.4v0.5
	c0,0.2,0,0.5,0.1,0.7c0.1,0.2,0.2,0.4,0.3,0.6l0.1,0.1L22,20.7h0.1l0,0H22c0,0,0,0,0,0.1l-0.1,0.1c0,0,0,0,0,0.1L22,21
	c-0.2,0-0.4-0.1-0.5-0.2c-0.2-0.1-0.3-0.2-0.4-0.4c-0.1-0.1-0.2-0.3-0.2-0.4c0-0.1,0-0.2,0-0.3s0-0.2,0-0.3V19l0,0l-0.1,0.1
	c0,0.4,0,0.8,0.1,1.2c0,0.3,0.2,0.5,0.4,0.6l0.4,0.2l0.2,0.1c0,0-0.1,0-0.1,0h-0.1h-0.1l0,0v0.1l-0.2-0.1L21.1,21
	c-0.1-0.1-0.2-0.2-0.3-0.3c-0.1-0.2-0.2-0.4-0.2-0.6c-0.1,0-0.1,0.1-0.1,0.1l-0.1,0.2l0.1,0c-0.1,0.1-0.2,0.2-0.3,0.3
	c-0.1,0.1-0.2,0.2-0.4,0.2c-0.1,0.1-0.2,0.1-0.2,0.1l-0.2,0.1H19h-0.2c-0.2-0.1-0.4-0.3-0.5-0.5c0-0.1,0-0.3,0-0.4
	c0-0.4,0.1-0.8,0.2-1.1c0.2-0.3,0.4-0.6,0.7-0.8c0.1-0.1,0.2-0.2,0.3-0.3l0.3-0.1l0.4-0.1c0,0,0,0,0,0.1c0,0,0,0,0.1,0h0.1v-0.1h0.1
	l0,0h0.1c0.1,0,0.1,0,0.1-0.1c0-0.1,0.1-0.3,0.1-0.5c0-0.2,0-0.5,0.1-0.6C21,16.4,21.1,16.2,21.1,16z M18.5,20.4
	c0.1,0.1,0.1,0.2,0.2,0.2c0.1,0.1,0.2,0.1,0.3,0.1h0.1l-0.4-0.1C18.7,20.5,18.6,20.4,18.5,20.4c0.1-0.2,0.1-0.2,0.1-0.3
	c0-0.1,0-0.1,0-0.2v-0.4c-0.1,0.2-0.1,0.3-0.1,0.5C18.5,20.1,18.5,20.2,18.5,20.4L18.5,20.4z M19.7,18L19.7,18l-0.1,0.1
	c-0.1,0-0.1,0.1-0.1,0c-0.2,0.2-0.3,0.5-0.5,0.7c-0.2,0.4-0.2,0.8-0.1,1.2l0.2,0.2c0.1,0,0.1,0.1,0.2,0.1c0,0,0-0.1,0-0.1l-0.1-0.1
	C19,20,19,20,19,19.9v-0.1c0,0,0-0.1,0-0.1c0-0.1,0-0.2,0-0.3l0.1-0.3c0.1-0.2,0.2-0.5,0.4-0.6C19.5,18.3,19.6,18.1,19.7,18z
	 M19.1,20.9L19.1,20.9L19.1,20.9L19.1,20.9z M19.5,18.6c-0.1,0.2-0.2,0.4-0.3,0.6v0.2v0.2c0,0.1,0,0.2,0,0.3c0,0.1,0.1,0.1,0.2,0.2
	c-0.1-0.2-0.1-0.3-0.1-0.5c0-0.1,0-0.2,0-0.2c0-0.1,0-0.2,0.1-0.3C19.4,18.9,19.4,18.8,19.5,18.6L19.5,18.6z M19.2,20.9h0.2h0.2
	c0.1,0,0.1-0.1,0.2-0.1c-0.1,0-0.2,0-0.3,0.1L19.2,20.9z M20.1,18.5c0,0-0.1-0.1-0.1-0.1c-0.1,0-0.1,0-0.2,0.1
	c-0.1,0.1-0.2,0.2-0.2,0.4c0,0.1-0.1,0.2-0.1,0.4c0,0.1,0,0.3,0,0.4v0.2v0.1v0.1c0,0,0,0.1,0.1,0.1c0,0,0,0.1,0.1,0.1h0.2h0.1H20
	l-0.1,0.1l-0.2,0.1c0.2,0,0.3-0.1,0.5-0.2l0.3-0.2c0,0,0.1,0,0.1-0.1v-0.1c0,0,0,0,0-0.1l0.1,0.1v0v0v-0.1v0l-0.2,0.2l-0.2,0.2
	l0.3-0.5c0.1-0.1,0.1-0.3,0.1-0.4V19c0-0.1-0.1-0.2-0.2-0.3L20.1,18.5z M20.1,17.8L20.1,17.8L20.1,17.8z M20.2,18L20.2,18l0.2,0.1
	c0.1,0,0.2,0.1,0.3,0.1C20.5,18.1,20.4,18,20.2,18L20.2,18z M20.3,18.4l0.2,0.2c0-0.1,0-0.1-0.1-0.2C20.4,18.4,20.4,18.4,20.3,18.4
	L20.3,18.4z M20.3,18.3l0.2,0.1c0,0,0.1,0.1,0.2,0.1h0.1v0.2l0,0v-0.3h-0.2h-0.1C20.5,18.4,20.4,18.3,20.3,18.3L20.3,18.3z
	 M20.4,17.8l0.4,0.3v-0.1h-0.1L20.6,18C20.6,18,20.5,17.9,20.4,17.8L20.4,17.8z M20.9,17.8L20.9,17.8l0.2-1.3
	C21,16.7,21,16.9,21,17.1L20.9,17.8z M21,19.1v0.3c0,0.3,0.1,0.6,0.2,0.9c0.1,0.3,0.3,0.5,0.6,0.5c-0.3-0.1-0.5-0.3-0.6-0.6
	C21.1,19.8,21,19.5,21,19.1L21,19.1z M21,18.9L21,18.9v-0.2l0,0V18.9z M21,18.2c0,0.1-0.1,0.1-0.1,0.2v0.1v-0.1L21,18.2z M21.1,16.4
	L21.1,16.4L21.1,16.4L21.1,16.4z M21.4,18c0,0.2-0.1,0.4-0.1,0.6c0,0.1,0,0.2,0,0.3L21.4,18z M21.4,19v0.2c0,0.1,0,0.2,0,0.3
	c0,0.1,0.1,0.3,0.1,0.4l-0.1-0.6c0-0.1,0-0.2,0-0.3S21.4,19.1,21.4,19L21.4,19z M21.5,17.1L21.5,17.1L21.5,17.1L21.5,17.1L21.5,17.1
	L21.5,17.1C21.5,17.1,21.5,17.1,21.5,17.1C21.5,17.1,21.6,17.1,21.5,17.1L21.5,17.1z M21.7,19.9l-0.1-0.2L21.7,19.9L21.7,19.9z"/>
<path class="st17" d="M23.1,17.8v0.1V18v0.1c0,0,0,0.1,0,0.1l0-0.1c0,0,0-0.1,0-0.1L23.1,17.8l0.1,0.1l0.1-0.1c0,0.1,0,0.2,0,0.3
	c0,0,0,0.1,0,0.2c0,0.1,0,0.1,0,0.2c0,0.1,0,0.1,0,0.2c0,0.1-0.1,0.2-0.1,0.3c0,0.3-0.1,0.5-0.1,0.7c0,0.2-0.1,0.4-0.1,0.5
	c-0.1,0.3-0.2,0.6-0.3,0.9c0,0,0,0-0.1,0l-0.1,0.1c0,0,0,0,0-0.1V21c0,0,0,0,0-0.1l0.4-1.8c0-0.1,0-0.1,0-0.2c0-0.1,0-0.1,0-0.2
	v-0.1l0-0.1v-0.3v-0.2C23,18,23,17.9,23.1,17.8z M23,16.3l0.5,1c-0.1,0-0.2-0.1-0.2-0.1c-0.1-0.1-0.1-0.2-0.2-0.3L23,16.6l0-0.1
	C22.9,16.4,22.9,16.4,23,16.3C22.9,16.3,23,16.3,23,16.3z M24,17.6c0,0,0.1-0.1,0.1-0.1c0,0,0,0,0,0c0,0,0,0.1,0,0.1
	c0,0.1,0,0.1,0,0.2v0.1l-0.2,1l-0.2,1.2c0,0.1,0,0.3-0.1,0.4s-0.1,0.3-0.1,0.4h-0.1l0,0l0.1-0.6l0.1-0.7l0,0
	c-0.1,0.2-0.1,0.4-0.2,0.6L23.4,21l0,0c0-0.1,0-0.1,0-0.2v-0.1c0,0,0-0.1,0-0.1l-0.1,0.3c0,0.1-0.1,0.2-0.1,0.3l0.2-1l0,0l-0.1,0.1
	l-0.1,0.4c0,0.2-0.1,0.3-0.1,0.5l0,0l0.3-1.2l0.2-1.1c0-0.1,0-0.3,0.1-0.5s0-0.4,0.1-0.6c0,0,0.1,0.1,0.1,0.1c0,0,0,0.1,0,0.1
	c0,0,0.1,0,0.1-0.1v-0.1v-0.1h0.1C23.9,17.7,23.9,17.7,24,17.6L23.5,20c0.1-0.4,0.2-0.7,0.3-1.1L24,17.6L24,17.6l-0.1,0.1l0,0
	L24,17.6L24,17.6z M23.2,16.4v-0.1c0.1,0.1,0.1,0.2,0.1,0.3c0,0.1,0.1,0.2,0.1,0.3c0,0,0.1,0,0.1,0.1l0.1,0.1c0,0,0,0.1,0.1,0.1
	h-0.1c0,0-0.1,0-0.1-0.1l-0.2-0.2L23.2,16.4c-0.1-0.1-0.1-0.2-0.1-0.3L23.2,16.4z M23.5,15.9l0.6,0.9l0,0l0,0H24H24v0.1
	c0,0,0,0.1-0.1,0.1h0l-0.1-0.1c-0.1-0.1-0.1-0.3-0.2-0.4c-0.1-0.1-0.2-0.3-0.2-0.5h0.1c0,0,0.1,0,0.1-0.1
	C23.5,15.9,23.5,15.9,23.5,15.9L23.5,15.9z M23.5,20l-0.1,0.2c0,0,0,0.1,0,0.1L23.5,20z M23.8,15.8l0.5,0.8c0,0,0,0.1-0.1,0.1
	c-0.1-0.1-0.2-0.1-0.3-0.2l-0.4-0.5L23.8,15.8z"/>
<path class="st17" d="M27.8,18l0.1,0.2l-0.1,0.5l0,0c0,0.1,0,0.2,0,0.3c0,0.1,0,0.3-0.1,0.6c0,0.2-0.1,0.4-0.1,0.7
	c0,0.1,0,0.1,0,0.2c0,0.1,0.1,0.1,0.1,0.1c0,0,0.1,0,0.1,0H28c0,0,0,0,0,0.1l-0.2,0.1v0.1c0,0,0,0.1,0,0.1c-0.1,0.1-0.3,0.1-0.4,0.1
	h-0.2c-0.1,0-0.2-0.1-0.3-0.1c-0.1,0-0.2-0.1-0.2-0.2c0-0.1-0.1-0.2-0.1-0.4v-0.3v-0.2l0.1-1c-0.1,0-0.2,0.1-0.2,0.1l-0.3,0.3
	c-0.2,0.2-0.4,0.5-0.6,0.7L25,20.9V21l0,0c0,0,0,0,0,0c0,0-0.1,0-0.1,0v-0.1l-0.1,0.2c0,0,0,0,0-0.1V21v-0.1c0,0,0,0,0-0.1
	c0,0.1-0.1,0.1-0.1,0.2c0,0.1,0,0.1-0.1,0.1l0,0v-0.3c0-0.1,0-0.2,0-0.2l0.1-1l0.1-0.3c0-0.1,0-0.3,0.1-0.5c0-0.2,0-0.5,0-0.7
	c0,0,0.1,0,0.1,0l0.1,0l0,0c0,0.2,0,0.3,0,0.5c0,0.2,0,0.4,0,0.4c0,0.1,0,0.1,0,0.2l0.1-0.1v-0.1c0,0,0-0.1,0-0.1s0-0.1,0-0.2v-0.3
	v-0.1c0,0,0.1-0.1,0.1-0.1v-0.1h0l0,0V18c0,0,0.1,0,0.1,0c0,0,0,0.1,0,0.1c0,0.2,0,0.4-0.1,0.6c0,0.2-0.1,0.4-0.1,0.6v0.2l0,0
	l0.2-1.5v0c0,0.1,0,0.1,0,0.2v0.2v0.2v0.1l-0.1,0.7v0.1l0-0.1l0.2-1.3l0,0l0,0c0,0.1,0,0.2,0,0.3c0,0.1,0,0.1,0,0.2v0.2l-0.1,0.5h0
	c0.2-0.1,0.3-0.3,0.5-0.4c0.1-0.2,0.3-0.3,0.5-0.4l0.4-0.3c0.2-0.1,0.4-0.2,0.6-0.2h0.1L27.8,18z M24.8,19.3l-0.2,1.2l0,0
	c0.1-0.3,0.1-0.6,0.1-0.7s0-0.2,0-0.3C24.8,19.5,24.8,19.4,24.8,19.3z M25.1,19.6 M25.2,20.1l0.6-0.6l0.5-0.5l-0.6,0.6
	C25.5,19.7,25.3,19.9,25.2,20.1L25.2,20.1z M25.4,20.3L25.4,20.3L25.4,20.3L25.4,20.3z M26.3,18.7l-0.4,0.4l0,0l0.2-0.2
	C26.2,18.9,26.3,18.8,26.3,18.7L26.3,18.7z M26.6,18.7l-0.2,0.2c0,0-0.1,0.1-0.1,0.1c0,0,0.1-0.1,0.1-0.1
	C26.5,18.8,26.5,18.8,26.6,18.7L26.6,18.7L26.6,18.7z M26.9,18.5c0,0.1,0,0.1-0.1,0.2c-0.1,0-0.1,0.1-0.1,0.1L26.9,18.5
	c0.1,0,0.2-0.1,0.1-0.1h-0.1C26.9,18.4,26.9,18.4,26.9,18.5L26.9,18.5z M26.9,19.4c-0.1,0.1-0.1,0.3-0.1,0.5v0.4
	c0,0.1,0,0.3,0.1,0.4c0.1,0.1,0.1,0.2,0.3,0.3h0.2h0.2c0.1,0,0.1,0,0.2,0c-0.1,0-0.3,0-0.4,0c-0.1,0-0.2-0.1-0.3-0.2
	c0-0.1-0.1-0.1-0.1-0.2v-0.1c0,0,0-0.1,0-0.1c0-0.1,0-0.3,0.1-0.4C26.9,19.6,26.9,19.5,26.9,19.4L26.9,19.4z M27,18.8
	c-0.1,0.1-0.1,0.2-0.1,0.3v0.1L27,19L27,18.8z M27.4,18.4c-0.1,0.3-0.2,0.5-0.2,0.8c-0.1,0.3-0.1,0.6-0.1,1.1c0,0.1,0,0.2,0,0.3
	c0,0.1,0.1,0.1,0.1,0.2l-0.1-0.2v-0.3c0-0.2,0-0.4,0.1-0.6l0.1-0.5c0.1-0.2,0.2-0.5,0.3-0.8h-0.1L27.4,18.4z M27.2,20.7L27.2,20.7
	L27.2,20.7L27.2,20.7z M27.4,19.7v0.4v0.2c0,0.1,0,0.1,0.1,0.2c0-0.1-0.1-0.1-0.1-0.2v-0.2v-0.2C27.4,19.8,27.4,19.8,27.4,19.7
	L27.4,19.7z M27.4,18.1L27.4,18.1L27.4,18.1L27.4,18.1z M27.5,19L27.5,19c0,0.1,0,0.2,0,0.2c0,0.1,0,0.2-0.1,0.2c0,0,0,0.1,0,0.1
	v0.1L27.5,19z M27.4,18C27.4,18,27.4,18,27.4,18L27.4,18z M27.6,18l0.1,0.1v-0.1V18L27.6,18z"/>
<path class="st17" d="M32.3,17.6h0.1c0,0,0.1,0.1,0.1,0.1c-0.1,0.3-0.2,0.7-0.2,1l-0.2,1.1c0,0.3-0.1,0.7-0.2,1v-0.1l0.1-0.5
	c0-0.1,0-0.2,0-0.2c0-0.1,0-0.1,0-0.2l0,0.1c-0.1,0.6-0.2,1-0.2,1.2c-0.1,0.3-0.2,0.5-0.3,0.8c-0.1,0.3-0.3,0.5-0.6,0.8h-0.1
	c0,0-0.1,0-0.1,0.1s-0.1,0.1-0.1,0.1c-0.1,0.1-0.3,0.1-0.4,0.2l-0.3,0.1h-0.3c-0.2,0-0.4,0-0.6-0.1c-0.2,0-0.4-0.1-0.6-0.2l-0.2-0.2
	c0-0.1-0.1-0.1-0.1-0.2c0-0.1,0-0.1,0.1-0.1v-0.1c0.1,0,0.1,0,0.2,0.1c0,0.1,0.1,0.1,0.2,0.1L28.4,22c0,0,0.1,0,0.1,0
	c0,0,0-0.1,0-0.1h0.1l0.1,0c0.1,0.1,0.2,0.2,0.3,0.2c0.1,0.1,0.3,0.1,0.4,0.2c0.2,0,0.3,0.1,0.5,0.1c0.1,0,0.2,0,0.4,0
	c0.1,0,0.2-0.1,0.3-0.2l-0.4,0.1h-0.2h-0.1c-0.1,0-0.3,0-0.4-0.1c-0.1,0-0.2-0.1-0.3-0.2c0.1,0,0.1,0,0.1,0l-0.1,0h-0.1
	c0,0-0.1,0-0.1,0l-0.1-0.1c-0.1,0-0.1-0.1-0.2-0.2l0.2,0.1v-0.1l0.4,0.2l0,0c0,0,0,0.1,0.1,0.1h0.1l0,0l0,0c0.2,0.1,0.4,0.1,0.6,0.1
	c0.2,0,0.3,0,0.5-0.1c0.1,0.1,0.2,0.1,0.3,0.1L31,22h0.1v-0.1l0,0l0.1-0.1c0,0,0.1-0.1,0.1-0.1l0,0v0h-0.1h-0.1c0,0-0.1,0-0.1,0
	c0.2-0.7,0.3-1.3,0.3-2c-0.1,0.1-0.2,0.3-0.1,0.4c0,0.1,0,0.3,0,0.4c0,0.1,0,0.1,0,0.2c0,0.1,0,0.2,0,0.2c0,0.1-0.1,0.3-0.2,0.7
	c0,0-0.1,0-0.1,0l-0.1,0.1v-0.2h0.1l0,0l-0.1-0.1l0.1-1.1l-0.1,0l-0.3,0.3c-0.2,0.1-0.3,0.3-0.3,0.4l-0.3,0.2
	c-0.1,0.1-0.3,0.1-0.4,0.1c-0.1,0-0.1,0-0.2,0h-0.2H29l-0.2-0.1c-0.1,0-0.2-0.1-0.3-0.2c-0.1-0.1-0.1-0.2-0.2-0.3
	c0-0.1-0.1-0.2-0.1-0.3c0-0.1,0-0.2,0-0.3c0-0.2,0-0.4,0.1-0.6c0.1-0.2,0.2-0.4,0.3-0.6l0.6-0.6c0.2-0.2,0.4-0.3,0.7-0.4l0.3,0.1
	c0.1,0,0.1,0,0.1-0.1l0.8-0.1c0.1,0,0.3,0,0.4,0.1c0,0,0.1,0,0.1,0l0.1-0.1l-0.1,0.5h-0.2l-0.1,0.4c0,0,0.1,0,0.1-0.2
	s0.1-0.2,0.1-0.2c0,0,0.1,0,0.1,0c0.1,0,0.1-0.1,0.1-0.3s0-0.2,0.1-0.2c0,0,0.1,0,0.1,0v-0.1c0,0,0,0,0.1,0c0,0.1,0,0.2-0.1,0.3
	L32,18.4l-0.1,0.9L32.3,17.6z M28.9,19L28.9,19c-0.1,0.2-0.2,0.4-0.3,0.7c-0.1,0.3-0.1,0.5-0.1,0.8c-0.1,0-0.1,0-0.1-0.1l-0.1-0.1
	v0.1c0,0.1,0,0.2,0.1,0.3v-0.1c0.1,0,0.2,0.1,0.3,0.2S29,21,29.1,21c-0.2-0.1-0.3-0.3-0.3-0.4c-0.1-0.2-0.1-0.4-0.1-0.6v-0.3
	c0,0,0,0,0.1,0L28.9,19z M28.7,22.3l0.1,0.1c0.1,0,0.2,0.1,0.3,0.1c0.1,0.1,0.2,0.1,0.3,0.1L28.7,22.3z M28.7,20.4l0.1,0.3
	c0.1,0.1,0.2,0.2,0.3,0.3c0.1,0.1,0.2,0.1,0.3,0.1c-0.1,0-0.3-0.1-0.4-0.2L28.7,20.4z M29.1,19L29,19.3c0,0.1-0.1,0.2-0.1,0.3v0.1
	c0-0.1,0-0.2,0.1-0.3L29.1,19z M29,20C29,20,29,20,29,20c0,0.1,0,0.1,0,0.2c0,0,0,0.1,0.1,0L29,20z M29.2,18.9L29.2,18.9l0.1-0.2
	l0,0L29.2,18.9z M30.1,18.3c-0.1,0-0.3,0.1-0.4,0.2c-0.1,0.2-0.2,0.4-0.3,0.6l-0.1,0.3v0.1c0,0.2,0,0.3,0,0.5c0,0.1,0.1,0.2,0.1,0.2
	l0.1,0.1l0.1,0.1c0.1,0,0.1,0.1,0.2,0.1c-0.2-0.1-0.3-0.2-0.4-0.3c-0.1-0.1-0.2-0.3-0.2-0.4v-0.2c0-0.2,0.1-0.4,0.1-0.6
	c0.1-0.2,0.2-0.4,0.4-0.5L29.6,19c0,0.1-0.1,0.1-0.1,0.2c0,0.1,0,0.1,0,0.2c0,0.2,0,0.4,0.1,0.6c0,0.2,0.1,0.3,0.3,0.4H30h0.2h0.2
	c0.2-0.1,0.4-0.3,0.5-0.6c0.1-0.3,0.2-0.5,0.3-0.8l-0.4-0.4C30.6,18.5,30.4,18.4,30.1,18.3L30.1,18.3z M29.6,22.1L29.6,22.1l0.1,0
	L29.6,22.1C29.6,22.1,29.6,22.1,29.6,22.1L29.6,22.1z M30,22.6L30,22.6L30,22.6c0.1,0,0.1,0,0.1,0H30L30,22.6z M30.1,21L30.1,21
	C30.2,21,30.2,21,30.1,21C30.2,20.9,30.1,21,30.1,21z M30.7,20.6l-0.3,0.2L30.7,20.6L30.7,20.6z M30.6,18.1l0.2,0.1
	c0.1,0,0.1,0.1,0.2,0.2l0,0l0.1,0.1v-0.1c-0.1-0.1-0.1-0.2-0.2-0.2C30.9,18.1,30.8,18.1,30.6,18.1L30.6,18.1z M30.8,20.1l-0.1,0.2
	l0,0L30.8,20.1C30.8,20.2,30.8,20.1,30.8,20.1L30.8,20.1z M30.7,18.3l0.1,0.1l0,0L30.7,18.3L30.7,18.3z M30.8,22L30.8,22L30.8,22
	L30.8,22z M31.2,17.9H31h-0.1h-0.1c0.1,0,0.2,0,0.3,0.1l0.3,0.2l0,0L31.2,17.9z M31.2,17.8l0.2,0.1c0.1,0,0.2,0.1,0.2,0.2l0,0
	c0-0.1-0.1-0.1-0.2-0.2C31.3,17.9,31.3,17.8,31.2,17.8L31.2,17.8z M31.6,19.9l-0.2,0.8l-0.2,0.8l0.1-0.1l0.2-0.7
	c0-0.1,0-0.2,0.1-0.4L31.6,19.9L31.6,19.9z M31.4,18.7c0,0.1-0.1,0.3-0.1,0.5v0.4l0.1-0.5L31.4,18.7z M31.6,18.4l-0.1,0.8L31.4,20
	c0-0.3,0-0.6,0.1-0.9L31.6,18.4z M31.6,20.5v0.1v0.1v0V20.5z M31.8,21.1c0,0.1,0,0.2-0.1,0.3c-0.1,0.1-0.1,0.3-0.2,0.4
	c0-0.1,0.1-0.2,0.1-0.4C31.7,21.3,31.8,21.2,31.8,21.1L31.8,21.1z M31.7,19.8l0.1-0.3l0,0L31.7,19.8z"/>
<path class="st17" d="M34.7,16.2l0.1,0.2v-0.2c0,0,0-0.1,0-0.1c0,0,0.1,0,0.1,0.1c0,0,0,0.1,0.1,0.1v-0.2h0.1l0.3,1.2l0.3,1.1
	c0.1,0.4,0.2,0.7,0.4,1.1l0.1,0.1l0,0l-0.1-0.4c0-0.1-0.1-0.3-0.1-0.4c0-0.2-0.1-0.3-0.2-0.5l-0.3-1.1c-0.1-0.3-0.2-0.6-0.3-0.9
	c0,0.1,0.1,0.2,0.2,0.4s0.1,0.3,0.2,0.5l0.4,1.1c0.1,0.3,0.2,0.6,0.3,1c0,0.1,0,0.1,0.1,0.1c0.2-0.2,0.3-0.5,0.5-0.7l0.4-0.7l0.5-1
	c0-0.1,0.1-0.2,0.2-0.3l0.1-0.2l0.2-0.4h0.1c0,0,0,0.1,0,0.1v0.2c0,0,0,0.1,0,0.1c0,0,0.1-0.1,0.1-0.2v-0.2c0,0,0.1,0,0.1,0
	c0,0,0.1,0.1,0.1,0.1c0,0,0,0,0,0v-0.1c0.1,0,0.1,0.1,0.1,0.2c0,0.1,0,0.1,0,0.2c0,0.1,0,0.3,0,0.5s0,0.4,0,0.4v0.8c0,0-0.1,0-0.1,0
	c0,0-0.1,0-0.1-0.1l0,0V18v-0.3v-0.4l-0.1,0.1v2.6c0,0.1,0,0.4,0,0.6s0,0.5,0,0.6v0.1c0,0-0.1,0-0.1,0c-0.1,0-0.1,0-0.1,0.1
	c0-0.2-0.1-0.4-0.1-0.7l-0.1-0.7l0,0v-1.5l0,0c-0.2,0.2-0.3,0.4-0.5,0.7l-0.4,0.6h0.1c-0.2,0.3-0.3,0.6-0.5,0.9
	c-0.2,0.2-0.4,0.5-0.6,0.7c0,0,0,0,0-0.1v-0.1V21v0l-0.1,0.2l-0.1,0.1l-0.1,0.1L36,21c0-0.1,0-0.1-0.1-0.1v0.3c0,0-0.1,0-0.1-0.1
	c0,0-0.1-0.1-0.1-0.1v0.2c-0.1,0-0.1,0-0.1-0.1L35.5,21L35,19.6l-0.4-1.3c-0.1,0.2-0.2,0.6-0.3,1.3s-0.2,1.1-0.3,1.4c0,0,0,0,0-0.1
	v-0.1c0,0,0,0,0-0.1l-0.1,0.3c0,0-0.1,0-0.1-0.1s-0.1-0.1-0.1-0.1l0,0v0v0.1l0.1,0.1l0,0c0,0,0,0,0,0c0,0,0,0.1-0.1,0.1h-0.1
	c0,0,0,0,0-0.1c0,0,0,0,0-0.1l0,0v0.1c0,0,0,0.1-0.1,0.1h0c0.1-0.2,0.1-0.4,0.2-0.6s0.1-0.5,0.2-0.9c0.1-0.4,0.2-0.9,0.3-1.4
	c-0.1,0.2-0.2,0.5-0.2,0.8l-0.2,0.7l-0.2,0.6c-0.1,0.3-0.1,0.6-0.2,0.9h-0.1c0,0-0.1,0-0.1,0v-0.1c0-0.2,0-0.3,0.1-0.4
	c0.1-0.2,0.1-0.5,0.2-0.7c0-0.3,0.2-0.9,0.4-1.8l0.4-1.6h0.1l0-0.3c0-0.1,0.1-0.2,0.2-0.2l0.1,0c0,0,0,0,0.1,0V16h0.1
	c0-0.1,0-0.1,0.1-0.1C34.8,16,34.8,16.1,34.7,16.2C34.8,16.2,34.8,16.2,34.7,16.2z M33.7,21L33.7,21L33.7,21L33.7,21z M34.2,17.5
	c-0.1,0.4-0.1,0.6-0.1,0.8S34,18.5,34,18.6l-0.2,1.1l0.3-1.2c0-0.2,0-0.4,0.1-0.6C34.2,17.8,34.2,17.6,34.2,17.5L34.2,17.5z
	 M34,20.3L34,20.3c0,0.1,0,0.2,0,0.2V20.3z M34.3,18.2L34,19.9l0.2-0.9C34.2,18.7,34.3,18.4,34.3,18.2L34.3,18.2z M34.3,17.1v0.2
	c0,0,0,0.1,0,0.1l0,0v-0.1C34.3,17.2,34.3,17.2,34.3,17.1L34.3,17.1z M34.4,16.4v0.3c0,0,0,0.1,0,0.1l0.1,0.1v-0.1c0,0,0-0.1,0-0.1
	C34.4,16.5,34.4,16.4,34.4,16.4L34.4,16.4z M34.4,17.9L34.4,17.9C34.4,17.9,34.4,17.9,34.4,17.9V18V17.9z M34.5,16.9V17
	c0,0.1,0,0.1,0,0.1C34.6,17.1,34.6,17.1,34.5,16.9L34.5,16.9C34.6,17,34.6,17,34.5,16.9L34.5,16.9z M34.6,16.4v0.3l0,0v-0.1
	C34.6,16.5,34.6,16.4,34.6,16.4L34.6,16.4z M34.7,17L34.7,17C34.8,17.1,34.8,17.1,34.7,17L34.7,17z M34.7,17.8
	c0.1,0.6,0.2,1.1,0.4,1.5c0.1,0.4,0.3,0.8,0.5,1.2l-0.3-1l-0.3-0.9L34.7,17.8L34.7,17.8z M34.8,17.4c0,0.2,0.1,0.4,0.1,0.5
	c0,0.2,0.1,0.3,0.2,0.4c0-0.1-0.1-0.2-0.1-0.3c0-0.1-0.1-0.2-0.1-0.4v-0.1C34.9,17.5,34.9,17.4,34.8,17.4L34.8,17.4z M35,16.8
	c0,0.3,0.1,0.6,0.2,0.8l0.3,1.1c0,0.1,0.1,0.1,0.1,0.2c0,0.1,0,0.1,0.1,0.2l-0.2-1C35.3,17.7,35.2,17.2,35,16.8L35,16.8z M35.6,19.9
	l0.1,0.3c0,0.1,0,0.2,0,0.2c-0.1-0.1-0.1-0.2-0.1-0.2C35.6,20.1,35.6,20,35.6,19.9L35.6,19.9z M35.7,19.2c0,0,0.1,0.2,0.2,0.4
	c0.1,0.1,0.1,0.3,0.1,0.5l-0.2-0.4L35.7,19.2z M36.6,19.8L36.6,19.8l-0.1,0.1L36.6,19.8z M36.8,19.3L36.8,19.3l-0.2,0.3L36.8,19.3z
	 M36.7,19.8L36.7,19.8l0.3-0.4l0.3-0.5l0.2-0.2c0,0,0-0.1,0-0.1c-0.1,0.1-0.2,0.3-0.3,0.5l-0.3,0.5L36.7,19.8z M37.1,19.9L37,20.2
	c-0.1,0.1-0.1,0.2-0.2,0.3c0.1-0.1,0.1-0.1,0.2-0.2L37.1,19.9z M37.1,18.9L37.1,18.9l0.1-0.1L37.1,18.9z M37.3,18.6 M37.5,19.5
	l-0.1,0.1c0,0,0,0.1,0,0.1l0.1-0.1C37.5,19.6,37.5,19.5,37.5,19.5L37.5,19.5z M38.5,16.4l-0.5,1l-0.6,1.1l0.5-0.9
	c0.1-0.2,0.2-0.4,0.3-0.6C38.4,16.8,38.5,16.6,38.5,16.4L38.5,16.4z M37.6,19l-0.1,0.1c0,0,0,0.1,0,0.1L37.6,19z M38.4,17
	c-0.1,0.1-0.2,0.3-0.2,0.4c-0.1,0.2-0.1,0.3-0.2,0.4l-0.2,0.3c-0.1,0.1-0.1,0.2-0.1,0.3l0.2-0.4l0.3-0.5l0.2-0.4L38.4,17
	C38.4,17.1,38.4,17,38.4,17z M37.6,18.9l0.4-0.5c0.1-0.2,0.2-0.4,0.3-0.6L37.6,18.9z M38.4,20.1l0.1,1.1c-0.1,0-0.1-0.1-0.1-0.2
	c0-0.1,0-0.1,0-0.2L38.4,20.1z M38.6,17.5c0,0-0.1,0.1-0.1,0.1c0,0,0,0.1,0.1,0.1v1.5c0,0.1,0,0.3,0,0.5s0,0.3,0,0.4
	c0,0.1,0,0.2,0,0.3c0,0.1,0,0.3,0.1,0.4c0-0.1,0-0.3,0-0.7s0-0.7,0-0.9v-1.3l0.1-0.1c0,0-0.1-0.1-0.1-0.2v-0.1
	C38.7,17.6,38.6,17.5,38.6,17.5L38.6,17.5z M39.2,16.2c0,0,0,0,0.1,0.1c0,0,0,0.1,0.1,0.1c0,0,0,0,0,0v-0.2l0.1,0.1
	c0,0.1,0,0.1,0,0.2V17l-0.1,0.1v2c0,0.2,0,0.4,0,0.6s0,0.4,0,0.5c0,0.1,0,0.2,0,0.4c0,0.1,0,0.3,0.1,0.6l-0.1,0.1
	c0,0-0.1-0.1-0.1-0.1c0,0,0-0.1,0-0.1c0,0.1,0,0.1,0,0.2c0,0.1,0,0.1,0,0.2c0-0.1-0.1-0.2-0.1-0.3c0-0.1,0-0.2-0.1-0.3v0.1v0.2V21
	c0,0.1-0.1,0.1-0.1,0.2l0-0.2c0-0.2,0-0.4,0-0.5s0-0.2,0-0.4v-1.8l0,0c0,0,0.1,0,0.1,0c0-0.3,0-0.6,0.1-1.2L39.2,16.2z M39.1,18.5
	v0.6l0,0v-0.5C39.1,18.6,39.1,18.6,39.1,18.5z M39.2,19.5L39.2,19.5v0.2V19.5z M39.6,17v1.6c0,0.2,0,0.4,0,0.7s0,0.5,0,0.6
	c0,0.2,0,0.3,0,0.5c0,0.2,0,0.4,0.1,0.6c0,0,0,0,0,0.1c0,0,0,0-0.1,0c-0.1-0.3-0.1-0.6-0.1-0.9c0-0.1,0-0.3,0-0.5s0-0.4,0-0.5V18
	L39.6,17z"/>
<path class="st17" d="M41.2,18.4l0.3-0.2l0.3-0.1c0.2-0.1,0.4-0.1,0.6-0.1c0.2,0,0.4,0.1,0.6,0.2l0.1-0.1c0,0,0,0.1,0,0.1
	c0,0,0-0.1,0.1-0.1c0,0,0,0,0,0h0.2l0,0l0.1-0.1c0,0,0.1-0.1,0.1,0v0.2v0.1V18c0,0,0-0.1,0.1-0.1l-0.1,0.7c-0.1,0.3-0.1,0.7-0.1,1
	c0,0.2,0,0.4,0.1,0.6c0,0.2,0.1,0.3,0.2,0.5l0,0c-0.1-0.1-0.2-0.2-0.2-0.3c-0.1-0.1-0.1-0.2-0.1-0.3c0,0,0,0,0,0.1
	c0,0.1,0,0.1,0.1,0.2l0.1,0.2l0.1,0.2l0,0c0,0,0,0-0.1,0h-0.1l0,0c0,0,0,0.1,0,0.1c0,0,0,0.1,0,0.1h-0.1c0,0-0.1,0-0.1,0l-0.1-0.1
	v0.1l-0.1,0c0,0,0-0.1,0-0.1l0.1,0.1L42.8,20v0.2c0,0.1,0,0.1,0.1,0.2v0.2l-0.1-0.2l-0.1-0.3c0,0,0,0,0,0.1v0.1v0.1
	c0,0.1,0,0.2,0.1,0.3c0.1,0.2,0.2,0.3,0.3,0.5l0,0c-0.1-0.1-0.2-0.2-0.3-0.3c-0.1-0.1-0.1-0.2-0.1-0.4v0.1c0,0,0,0.1,0,0.1v0.1
	l0.1,0.2l0.1,0.2h-0.1h-0.1L42.6,21c-0.1-0.1-0.1-0.1-0.1-0.2l-0.1-0.3l0-0.1h-0.1v0c0,0,0,0,0-0.1l-0.2,0.1l-0.2,0.1l-0.3,0.2
	c0,0,0,0,0,0.1h0.1c0.1-0.1,0.2-0.2,0.4-0.3L42,20.7c-0.1,0-0.1,0.1-0.2,0.1c-0.1,0.1-0.1,0.2-0.2,0.2l-0.3,0.1h-0.5h-0.2
	c-0.1,0-0.1-0.1-0.2-0.1c-0.1-0.1-0.2-0.2-0.2-0.3c0-0.2-0.1-0.3-0.1-0.5v-0.4c0.1-0.2,0.2-0.5,0.3-0.7c0.1-0.2,0.3-0.4,0.6-0.6
	c0,0,0.1,0,0.1,0C41.1,18.4,41.1,18.4,41.2,18.4z M40.3,19.5C40.3,19.5,40.3,19.5,40.3,19.5v0.3c0,0.1,0,0.2,0,0.2v-0.1
	c0-0.1,0-0.1,0-0.2C40.3,19.6,40.3,19.5,40.3,19.5L40.3,19.5z M40.3,20.5c0,0.1,0,0.2,0.1,0.2c0,0.1,0.1,0.1,0.2,0.1L40.3,20.5z
	 M40.3,20.3L40.3,20.3L40.3,20.3L40.3,20.3L40.3,20.3z M40.6,19.9L40.6,19.9c0,0.2,0,0.3,0.1,0.4c0.1,0.1,0.2,0.2,0.3,0.3
	c0.1,0,0.2,0.1,0.3,0.1c0.1,0,0.2,0,0.3-0.1c-0.1,0-0.2,0-0.3,0H41c-0.1,0-0.2-0.1-0.3-0.2C40.7,20.1,40.6,20,40.6,19.9L40.6,19.9z
	 M40.6,20.7L40.6,20.7L40.6,20.7L40.6,20.7L40.6,20.7z M40.8,19.1l-0.2,0.3l-0.1,0.1c0,0,0,0.1,0,0.1l0,0v-0.1c0,0,0,0,0.1,0v0.3
	c0-0.1,0-0.2,0-0.3v-0.2L40.8,19.1z M40.8,19L40.8,19L40.8,19L40.8,19L40.8,19z M40.9,20.8L40.9,20.8L40.9,20.8L40.9,20.8z
	 M40.9,20.8C40.9,20.8,41,20.8,40.9,20.8h0.2H41H40.9C41,20.8,40.9,20.8,40.9,20.8L40.9,20.8z M40.9,20c0,0.1,0,0.1,0.1,0.2
	c0.1,0.1,0.1,0.1,0.2,0.1L40.9,20z M41.4,18.7c-0.1,0.1-0.2,0.2-0.3,0.4c-0.1,0.2-0.1,0.4-0.1,0.5c0,0.2,0,0.4,0.2,0.5l0.2,0.1h0.1
	c0.1,0,0.1,0,0.2,0l0.3-0.1c0.2-0.1,0.3-0.2,0.4-0.4c0.1-0.2,0.2-0.5,0.2-0.7v-0.1h-0.1L42,18.8h-0.2h-0.2
	C41.6,18.7,41.5,18.7,41.4,18.7L41.4,18.7z M41,18.6L41,18.6L41,18.6L41,18.6z M42,18.1c-0.1,0-0.2,0-0.2,0l-0.2,0.1
	c-0.1,0.1-0.3,0.1-0.4,0.3l0,0c0,0,0,0,0.1,0h0.1c0.1-0.1,0.3-0.2,0.5-0.2v0.1v0l0,0l0,0h0.1L42,18.1z M41.2,18.6L41.2,18.6
	L41.2,18.6c0.1,0,0.2,0,0.2-0.1L41.2,18.6C41.2,18.6,41.2,18.6,41.2,18.6L41.2,18.6z M42.4,18.8c-0.1-0.1-0.2-0.1-0.3-0.2
	c-0.1,0-0.2-0.1-0.3-0.1c-0.1,0-0.2,0-0.2,0c0.2,0,0.3,0,0.5,0.1C42.2,18.7,42.3,18.7,42.4,18.8L42.4,18.8z M42.5,18.6l-0.1-0.1
	l-0.2-0.1c-0.1,0-0.2-0.1-0.3,0c-0.1,0-0.2,0-0.2,0.1h0.6c0.1,0,0.1,0.1,0.2,0.1C42.5,18.6,42.5,18.6,42.5,18.6L42.5,18.6z
	 M42.3,19.8l-0.1,0.1c0,0.1-0.1,0.1-0.2,0.2l-0.3,0.2c0.1,0,0.2-0.1,0.3-0.1C42.2,20,42.2,19.9,42.3,19.8L42.3,19.8z M42,18L42,18
	c0.1,0,0.1,0,0.1,0H42L42,18z M42.5,19.7 M42.6,18.3L42.6,18.3L42.6,18.3L42.6,18.3L42.6,18.3L42.6,18.3z M42.8,18.6L42.8,18.6
	c-0.1,0.2-0.1,0.3-0.1,0.5c0,0.2,0,0.3,0,0.5v0.1c0,0,0,0,0,0.1c0,0,0,0.1,0,0.1c0-0.2,0-0.5,0.1-0.7C42.8,19.1,42.8,18.9,42.8,18.6
	L42.8,18.6z M42.8,18.3L42.8,18.3L42.8,18.3L42.8,18.3C42.8,18.3,42.8,18.4,42.8,18.3L42.8,18.3z M42.9,19.4v0.4c0,0.1,0,0.1,0,0.2
	c0,0.1,0,0.1,0,0.2c0,0.1,0.1,0.2,0.1,0.2l0-0.2c0,0,0,0,0-0.1c0-0.1,0-0.1,0-0.2v-0.3c0,0,0-0.1,0-0.1C43,19.5,42.9,19.5,42.9,19.4
	L42.9,19.4z M43,18.8l-0.1,0.3v0.2L43,18.8z M43.1,18.4l0.1-0.2l0,0L43.1,18.4z M43.1,19.2v0.5c0,0,0,0.1,0,0.1v-0.1v-0.2L43.1,19.2
	z M43.2,18.3l0,0.2c0,0,0,0.1,0,0.1L43.2,18.3z M43.4,18.5L43.2,19c0,0,0,0.1,0,0.1v-0.3c0,0,0-0.1,0-0.1L43.4,18.5L43.4,18.5z"/>
<path class="st17" d="M46.5,17.8v0.3c0,0.2,0,0.4,0,0.6l0.1,0.4c0,0.1,0,0.2,0.1,0.3v0.1c0,0,0,0.1,0,0.1c-0.1,0-0.1,0-0.1,0.1
	s0,0.1-0.1,0.1l-0.2-0.3l-0.1-0.2v0.1c0,0,0,0.1,0,0.1l0.2,0.3c0,0,0,0,0,0.1h-0.1c-0.1-0.1-0.2-0.3-0.2-0.4L46,18.9
	c0,0-0.1,0.1-0.1,0.1v0.3c0,0.1,0,0.1,0,0.2c0,0.1,0,0.1,0.1,0.2c0,0.1,0.1,0.3,0.2,0.4h-0.1v0.1c0,0,0,0-0.1,0.1
	c-0.1-0.1-0.2-0.3-0.2-0.4l-0.1-0.5v-0.1c0-0.1,0-0.1,0-0.2c0,0,0,0-0.1,0.1l-0.1,0.1h0.1c-0.2,0.3-0.3,0.5-0.4,0.9
	C45,20.3,45,20.7,44.9,21c0,0-0.1,0-0.2,0l0.2-0.7L44.6,21h-0.1c0.1-0.3,0.2-0.6,0.2-0.9c-0.1,0.2-0.1,0.3-0.2,0.5
	c0,0.1-0.1,0.3-0.1,0.4l-0.1,0.1c-0.1,0-0.1,0.1-0.1,0.1c-0.1,0-0.1-0.1-0.1-0.1V21c0-0.2,0.1-0.4,0.1-0.6c0-0.2,0.1-0.5,0.1-0.9
	c0-0.4,0.1-0.8,0.1-1.3h0.1c0,0,0.1,0,0.1-0.1c0.1,0,0.2,0.1,0.2,0.2l0.1,0.6c0,0.2,0,0.3-0.1,0.5c0,0.1-0.1,0.3-0.1,0.4
	c0,0.2,0,0.3-0.1,0.5l-0.1,0.4l0.1-0.1l0.2-0.8c0.1-0.3,0.2-0.7,0.2-1c0-0.1,0-0.1,0-0.2c0-0.1,0-0.1,0-0.2c0-0.1-0.1-0.2-0.1-0.3
	l0,0c0.1,0,0.1,0.1,0.1,0.1l0.1,0.2c0,0,0-0.1,0-0.1c0-0.1,0-0.1,0-0.2V18H45v0c0.1,0,0.2,0.1,0.2,0.2c0,0.1,0,0.2,0.1,0.3v-0.1
	v-0.2c0-0.1,0-0.1,0.1-0.1v0.3V19c0.1-0.1,0.2-0.1,0.2-0.2c0.1-0.1,0.1-0.2,0.1-0.3l0.2-0.1c0.1-0.1,0.1-0.1,0.2-0.2
	c0,0,0.1,0,0.1,0c0,0,0-0.1,0-0.1l0,0l0,0l0.1,0.1c0,0,0.1-0.1,0-0.1v-0.1c0,0,0,0,0,0L46.5,17.8z M44.2,20.7L44.2,20.7
	c0,0.1,0,0.1,0,0.2V20.7z M44.4,20.7L44.4,20.7v0.2c0,0.1,0,0.1,0,0.2l0.1-0.2C44.4,20.9,44.4,20.8,44.4,20.7L44.4,20.7z M44.4,18.3
	c0.1,0.2,0.1,0.4,0.1,0.6v-0.2v-0.2C44.5,18.4,44.5,18.3,44.4,18.3L44.4,18.3z M45,19.8l-0.1,0.4c0,0,0.1-0.1,0.1-0.1V19.8z
	 M45,19.4L45,19.4c0.1-0.2,0.1-0.4,0.1-0.6v-0.2L45,19.4z M45.6,18.8l-0.3,0.3l0,0.1v0l0.2-0.3C45.6,19,45.6,18.9,45.6,18.8
	L45.6,18.8z M45.9,19.5c0,0.1,0,0.2,0,0.3c0,0.1,0.1,0.1,0.1,0.2l0-0.2C46,19.6,46,19.6,45.9,19.5L45.9,19.5z M46.1,18.4
	c0,0,0,0.1,0,0.1c0,0,0,0.1,0,0.1l0,0V18.4C46.1,18.4,46.1,18.4,46.1,18.4L46.1,18.4z"/>
<path class="st17" d="M48.7,18c0.1-0.1,0.2-0.1,0.4-0.1c0.2,0,0.3,0,0.4,0.1h-0.1c0,0-0.1,0-0.1,0.1l0,0h-0.1c0,0,0,0.1,0.1,0.1
	s0.1,0,0.1,0.1l0.1,0.1c0,0,0,0.1,0,0.1v0c0.1,0,0.1,0.1,0.1,0.2c0,0.1,0,0.1,0.1,0.2c0,0,0,0.1,0,0.1l-0.1-0.1c0,0,0,0-0.1,0.1V19
	c0-0.2,0-0.3-0.1-0.4c-0.1-0.1-0.1-0.2-0.3-0.3c0,0,0.1,0,0.1,0l0.1,0.1l0,0c0-0.1-0.1-0.1-0.2-0.1c-0.1,0-0.1-0.1-0.1-0.1H49
	c0,0-0.1,0-0.1,0c0,0,0,0.1,0.1,0.1c0.1,0,0.2,0.1,0.3,0.2c0.2,0.2,0.2,0.4,0.2,0.7c-0.1,0-0.1-0.1-0.1-0.2c0-0.1,0-0.2-0.1-0.2
	L49,18.5c0,0-0.1-0.1-0.2-0.1c0.2,0.2,0.3,0.4,0.3,0.6v0.1c-0.1,0-0.1,0-0.1-0.1c0-0.1,0-0.1,0-0.2c0-0.1-0.1-0.2-0.1-0.3l-0.2-0.2
	c-0.2,0.2-0.3,0.3-0.4,0.5C48,19.2,48,19.4,48,19.6c0,0.2,0,0.3,0.1,0.4c0.1,0.2,0.3,0.3,0.6,0.3c0.2,0,0.4-0.1,0.6-0.2l0.6-0.3
	l-0.1,0.3c0,0.1-0.1,0.1-0.2,0.1c-0.1,0-0.2,0.1-0.3,0.1l-0.3,0.2l-0.2,0.1c0.4-0.1,0.7-0.2,1-0.4c0,0.1-0.1,0.3-0.2,0.3l-0.3,0.2
	L49,20.9c-0.1,0.1-0.3,0.1-0.4,0.1l-0.3,0.1H48c-0.2,0-0.4,0-0.6-0.1c-0.1-0.1-0.3-0.2-0.3-0.3C47,20.5,47,20.4,47,20.2v-0.4
	c0-0.1,0-0.1,0-0.2c0-0.1,0-0.2,0.1-0.3c0.1-0.1,0.1-0.2,0.2-0.3c0,0,0,0.1,0,0.1v0.1h0.1c0.1-0.2,0.2-0.5,0.4-0.6
	c0.2-0.2,0.4-0.3,0.6-0.4c-0.1,0.1-0.3,0.2-0.4,0.3c-0.1,0.1-0.2,0.3-0.3,0.4l0,0c0.2-0.2,0.3-0.4,0.5-0.5c0.1-0.1,0.3-0.2,0.5-0.2
	l0.1-0.1C48.8,18.1,48.8,18.1,48.7,18C48.8,18,48.7,18,48.7,18L48.7,18z M47.3,19.9l0.2,0.6c0.1,0.1,0.2,0.2,0.3,0.2
	c-0.1-0.1-0.2-0.2-0.2-0.3c0-0.1-0.1-0.2-0.1-0.3v-0.2c0-0.2,0-0.5,0.2-0.7c0.1-0.2,0.3-0.4,0.5-0.6v0.1l0.3-0.4
	c-0.3,0.2-0.5,0.4-0.7,0.7C47.4,19.3,47.3,19.6,47.3,19.9L47.3,19.9z M47.3,20.4c0,0.1,0,0.1,0.1,0.2c0,0.1,0.1,0.1,0.2,0.1
	L47.3,20.4z M47.6,20.9L47.6,20.9L47.6,20.9z M47.6,19.8V20c0,0.2,0.1,0.4,0.2,0.6l0.2,0.1h0.1c0,0,0.1,0,0.1,0L48,20.6
	c-0.1,0-0.2-0.1-0.3-0.3C47.7,20.2,47.7,20,47.6,19.8L47.6,19.8z M47.9,21H48H47.9L47.9,21z M48.7,18.4L48.7,18.4L48.7,18.4z
	 M49.6,18.1C49.6,18.1,49.5,18.1,49.6,18.1C49.5,18.1,49.5,18.1,49.6,18.1c-0.1,0-0.1,0-0.2,0h0c0.1,0,0.1,0.1,0.1,0.1l0.2,0.3v0.1
	c0,0,0,0,0.1,0c0-0.1,0-0.2-0.1-0.3L49.6,18.1z M49.4,20.6L49.4,20.6l0.2,0L49.4,20.6C49.4,20.5,49.4,20.5,49.4,20.6L49.4,20.6z
	 M49.6,20.1L49.6,20.1L49.6,20.1z"/>
<path class="st17" d="M51.6,16.1l0.1,0.1c0,0,0,0.1,0,0.1c0,0.4-0.1,0.8-0.2,1.2l-0.2,0.9c0-0.1,0-0.2,0-0.4s0-0.5,0.1-0.8
	c0-0.3,0.1-0.6,0.1-0.9c0,0.2-0.1,0.5-0.1,0.7l-0.1,0.4l-0.2,1l-0.1,0.8c0.1,0,0.1-0.1,0.1-0.2v-0.2v0.2c0,0,0,0.1,0,0.1
	c0.2-0.1,0.3-0.3,0.5-0.4c0.2-0.2,0.4-0.3,0.6-0.5l0.2-0.1c-0.3,0.2-0.5,0.4-0.8,0.7c-0.2,0.3-0.5,0.5-0.7,0.9c0,0,0,0.1,0,0.1
	c0,0,0,0.1,0,0.1l0.1-0.1l-0.1,0.1c0,0.1-0.1,0.1-0.1,0.2V20l0.6-1l0,0l0.2-0.3c0.1-0.1,0.2-0.2,0.3-0.3l0.5-0.5c0,0,0.1,0,0.1,0
	h0.1l0,0H53c0,0,0,0,0-0.1c0,0,0.1,0,0.1,0V18c0,0,0,0.1,0,0.1v0.1l0,0V18v-0.1v-0.1L53,18c0,0-0.1,0.1-0.1,0.1v0.3v0.1l-0.1,0.7
	c0,0.2,0,0.4,0,0.7c0,0.2,0,0.5,0,0.7c0,0.2,0.1,0.4,0.2,0.6v0v0.1c-0.1,0-0.2,0-0.2-0.1L52.6,21l-0.1-0.4v0.1c0,0.1,0,0.2,0,0.2
	l0.1,0.3h-0.1c0,0,0,0,0,0.1c0,0,0,0,0,0.1l0,0v0.1l-0.1,0.1c0-0.1-0.1-0.2-0.1-0.3c0-0.1,0-0.2-0.1-0.3v-0.3v-0.3
	c0-0.1,0-0.3,0-0.6l0.1-0.6c0-0.2,0-0.3,0-0.4c-0.1,0.1-0.2,0.2-0.3,0.3l-0.4,0.4c-0.2,0.4-0.4,0.6-0.5,0.8
	c-0.1,0.2-0.2,0.5-0.2,0.7c0,0-0.1,0.1-0.1,0.1c0,0.1-0.1,0.1-0.1,0.1v-0.2c0,0-0.1,0-0.1,0.1c0,0,0,0.1,0,0.1v-0.2
	c0,0-0.1,0-0.1,0.1s0,0.1-0.1,0.1c0-0.4,0.1-0.8,0.1-1.1c0.1-0.3,0.1-0.7,0.1-1l-0.2,1c0,0.1,0,0.3-0.1,0.5l-0.1,0.5L50.3,21
	c0,0,0-0.1,0-0.1v-0.1v-0.1v-0.1c0,0-0.1,0.1-0.1,0.2s0,0.2-0.1,0.2c0-0.1,0-0.3,0-0.4s0-0.2,0-0.3s0-0.2,0-0.3s0-0.2,0.1-0.3v0.1
	V20v0.2v0.2l0.2-0.8v-0.1l-0.1,0.2l0,0c0-0.4,0-0.7,0.1-1.1l0.2-1.1c0,0.1,0,0.1,0,0.2v0.1c0,0,0,0,0,0.1V18
	c0.1-0.2,0.1-0.4,0.1-0.7h-0.1v-0.5c0-0.1,0-0.2,0.1-0.3l0,0c0,0,0-0.1,0.1-0.1l0.2-0.1v0.1l-0.2,1.9l0,0c0.1-0.4,0.3-0.8,0.4-1.2
	c0.1-0.6,0.1-0.9,0.1-1l0.1,0.1c0,0.3,0,0.7-0.1,1l-0.2,1.3c-0.1,0.6-0.2,1.1-0.2,1.4l0.1-0.1l0.3-1.8c0.1-0.6,0.1-1.2,0.2-1.8
	l0.1,0.1v-0.1l0,0v0.1v0.1v0.1v0.1c0,0,0-0.1,0-0.1c0-0.1,0-0.2,0-0.2C51.4,16.4,51.5,16.2,51.6,16.1z M50.5,19v0.1v0.1
	c0,0.1,0,0.1,0,0.2V19z M50.5,18.9L50.5,18.9v-0.2V18.9z M50.6,18.1c0,0.1,0,0.2,0,0.2c0,0,0,0,0,0.1V18.1z M50.7,20.6l-0.1,0.1
	c0,0,0,0.1,0,0.1c0,0,0-0.1,0-0.1C50.7,20.6,50.7,20.6,50.7,20.6L50.7,20.6z M50.8,18.8v-0.3V18.8L50.8,18.8z M51.1,20v-0.2V20
	L51.1,20z M51.3,17.2C51.3,17.2,51.3,17.2,51.3,17.2C51.3,17.2,51.3,17.2,51.3,17.2L51.3,17.2L51.3,17.2z M52.4,18.5L52.4,18.5
	L52.4,18.5c0.1-0.1,0.1-0.1,0.1-0.2C52.5,18.3,52.5,18.4,52.4,18.5L52.4,18.5z M52.8,18.3l-0.2,1c0,0.1,0,0.3,0,0.4s0,0.3,0,0.4v0.4
	c0-0.2,0-0.3,0-0.5s0-0.3,0-0.4L52.8,18.3z M52.7,20.9 M52.9,21.7v0.1h0L52.9,21.7L52.9,21.7z M53.4,17.9L53.4,17.9
	c0.1,0.1,0,0.2,0,0.3c0,0.1,0,0.2,0,0.3c0,0,0,0,0-0.1c0,0,0,0,0.1,0c-0.1,0.3-0.1,0.7-0.1,1c0,0.2,0,0.5,0,0.7
	c0,0.2,0.1,0.5,0.1,0.7V21c-0.1-0.1-0.1-0.2-0.2-0.3l-0.1-0.5v-0.6c0-0.1,0-0.3,0-0.5c0-0.1,0-0.2,0.1-0.3v-0.1
	c0,0.2-0.1,0.4-0.1,0.5c0,0.2,0,0.3,0,0.4s0,0.2,0,0.3s0,0.2,0,0.3c0,0.1,0,0.2,0,0.3l0.1,0.4c0,0.1,0.1,0.2,0.1,0.2l0,0l-0.2-0.2
	c0,0.1,0,0.1,0,0.2v0.2c0,0,0,0.1,0,0.1h-0.1c0,0-0.1,0-0.1,0C53,21.2,53,21,53,20.9v-0.5c0-0.1,0-0.3,0-0.3s0-0.2,0-0.4
	s0-0.3,0-0.5s0-0.2,0-0.3V19v0.2v0.3v0.2L53,19c0-0.1,0-0.3,0.1-0.5s0-0.3,0.1-0.4l0,0v0.1l0,0L53.4,17.9z M53,20v0.3v0.1
	c0,0,0,0.1,0,0.1c0,0.1,0,0.1,0.1,0.2L53,20z M53.1,21.5L53.1,21.5L53.1,21.5L53.1,21.5z M53,18.7v-0.2l0,0V18.7z M53.5,18
	c0,0,0,0,0,0.1c0,0,0,0.1,0,0.1c0,0,0,0.1-0.1,0L53.5,18z"/>
</svg>
