<?xml version="1.0" encoding="iso-8859-1"?>
<!-- Generator: Adobe Illustrator 22.0.1, SVG Export Plug-In . SVG Version: 6.00 Build 0)  -->
<svg version="1.1" id="&#x56FE;&#x5C42;_1" xmlns="http://www.w3.org/2000/svg" xmlns:xlink="http://www.w3.org/1999/xlink" x="0px"
	 y="0px" viewBox="0 0 122 86.659" style="enable-background:new 0 0 122 86.659;" xml:space="preserve">
<g>
	<defs>
		<rect id="SVGID_1_" width="122" height="86.659"/>
	</defs>
	<clipPath id="SVGID_2_">
		<use xlink:href="#SVGID_1_"  style="overflow:visible;"/>
	</clipPath>
	<g style="clip-path:url(#SVGID_2_);">
		<defs>
			<rect id="SVGID_3_" y="0" width="122" height="86.659"/>
		</defs>
		<clipPath id="SVGID_4_">
			<use xlink:href="#SVGID_3_"  style="overflow:visible;"/>
		</clipPath>
		<path style="clip-path:url(#SVGID_4_);fill:#84C8D8;" d="M69.991,43.878H51.605c-6.6,0-12-5.4-12-12V16.341c0-6.6,5.4-12,12-12
			h18.386c6.6,0,12,5.4,12,12v15.537C81.991,38.478,76.591,43.878,69.991,43.878"/>
		<defs>
			<filter id="Adobe_OpacityMaskFilter" filterUnits="userSpaceOnUse" x="39.604" y="4.341" width="42.386" height="39.537">
				
					<feColorMatrix  type="matrix" values="-1 0 0 0 1  0 -1 0 0 1  0 0 -1 0 1  0 0 0 1 0" color-interpolation-filters="sRGB" result="source"/>
			</filter>
		</defs>
		<mask maskUnits="userSpaceOnUse" x="39.604" y="4.341" width="42.386" height="39.537" id="SVGID_5_">
			<g style="filter:url(#Adobe_OpacityMaskFilter);">
				<g style="enable-background:new    ;">
					<g>
						<defs>
							<rect id="SVGID_6_" x="37" y="2" width="47" height="44"/>
						</defs>
						<clipPath id="SVGID_7_" style="clip-path:url(#SVGID_4_);">
							<use xlink:href="#SVGID_6_"  style="overflow:visible;"/>
						</clipPath>
						<g style="clip-path:url(#SVGID_7_);">
							<image style="overflow:visible;" width="47" height="44" xlink:href="4CE3AA5D.jpg"  transform="matrix(1 0 0 1 37 2.0004)">
							</image>
						</g>
					</g>
				</g>
			</g>
		</mask>
		<g style="opacity:0.75;clip-path:url(#SVGID_4_);mask:url(#SVGID_5_);">
			<g>
				<defs>
					<rect id="SVGID_8_" x="39.604" y="4.341" width="42.386" height="39.537"/>
				</defs>
				<clipPath id="SVGID_9_">
					<use xlink:href="#SVGID_8_"  style="overflow:visible;"/>
				</clipPath>
				<path style="clip-path:url(#SVGID_9_);fill:#E1C501;" d="M69.991,43.878H51.605c-6.6,0-12-5.4-12-12V16.341c0-6.6,5.4-12,12-12
					h18.386c6.6,0,12,5.4,12,12v15.537C81.991,38.478,76.591,43.878,69.991,43.878"/>
			</g>
		</g>
		<path style="clip-path:url(#SVGID_4_);fill:#FFFFFF;" d="M52.762,18.657c1.485-1.488,3.431-2.625,6.072-3.235
			c1.31-0.14,2.065-0.25,3.963,0.122c2.19,0.277,3.958,1.269,5.436,2.749c1.671,2.073,1.913,3.907,0.855,5.523
			c-0.883,1.127-3.765,1.923-12.241,1.799c-2.643-0.115-4.375-0.726-5.144-1.644C50.704,22.577,50.765,20.888,52.762,18.657"/>
		<polygon style="clip-path:url(#SVGID_4_);" points="53.75,27.6 55.046,29.765 50.882,33.936 54.972,37.641 54.176,39.897 
			48.506,34.623 48.345,33.257 		"/>
		<polygon style="clip-path:url(#SVGID_4_);" points="62.388,27.93 64.202,28.832 58.488,39.923 57.132,38.281 		"/>
		<polygon style="clip-path:url(#SVGID_4_);" points="68.831,27.547 72.733,33.162 72.675,34.36 68.123,39.922 67.042,37.729 
			69.98,33.557 67.283,29.107 		"/>
		<path style="clip-path:url(#SVGID_4_);" d="M70.623,18.594c-0.66-1.667-1.688-3.178-3.354-4.419
			c-1.438-1.119-2.974-1.92-4.655-2.262L60.66,7.695c0.365,1.539-0.294,2.967-1.924,4.29c-3.831,0.665-5.816,2.877-7.447,5.387
			c-1.893,3.44-1.547,5.431-0.663,7.073c0.862,1.183,2.935,2.337,6.556,2.616c6.019,0.222,10.85-0.157,12.866-1.957
			C71.704,23.337,71.823,21.147,70.623,18.594 M68.926,23.851c-0.866,1.106-3.699,1.89-12.035,1.768
			c-2.598-0.113-4.3-0.714-5.057-1.615c-0.983-1.371-0.923-3.033,1.042-5.225c1.46-1.464,3.373-2.583,5.97-3.181
			c1.287-0.138,2.03-0.246,3.896,0.118c2.153,0.274,3.892,1.249,5.346,2.704C69.731,20.459,69.968,22.263,68.926,23.851"/>
		<polygon style="clip-path:url(#SVGID_4_);fill:#336699;" points="58.897,19.521 60.433,19.423 60.179,22.743 58.436,22.888 		"/>
		<polygon style="clip-path:url(#SVGID_4_);" points="64.533,19.467 64.574,22.786 66.068,22.661 66.363,19.37 		"/>
		<path style="clip-path:url(#SVGID_4_);" d="M58.713,18.494l2.443-0.204c0.521-0.043,0.949,0.405,0.883,0.923l-0.476,3.694
			c-0.036,0.272-0.267,0.476-0.541,0.477l-4.241,0.008C56.4,23.393,56.146,23,56.302,22.653l1.618-3.597
			C58.062,18.738,58.366,18.523,58.713,18.494"/>
		<path style="clip-path:url(#SVGID_4_);fill:none;stroke:#000000;stroke-width:0.25;stroke-miterlimit:10;" d="M58.713,18.494
			l2.443-0.204c0.521-0.043,0.949,0.405,0.883,0.923l-0.476,3.694c-0.036,0.272-0.267,0.476-0.541,0.477l-4.241,0.008
			C56.4,23.393,56.146,23,56.302,22.653l1.618-3.597C58.062,18.738,58.366,18.523,58.713,18.494z"/>
		<path style="clip-path:url(#SVGID_4_);fill:#828282;" d="M58.977,19.043l1.787-0.144c0.381-0.03,0.697,0.313,0.65,0.707
			l-0.331,2.809c-0.024,0.207-0.192,0.361-0.394,0.36l-3.103-0.013c-0.279-0.001-0.467-0.301-0.354-0.564l1.167-2.731
			C58.502,19.226,58.723,19.064,58.977,19.043"/>
		<path style="clip-path:url(#SVGID_4_);fill:#F40000;" d="M60.611,20.676c0.088,0.573-0.304,1.109-0.877,1.198
			c-0.573,0.088-1.109-0.305-1.198-0.878c-0.088-0.573,0.305-1.109,0.878-1.197C59.986,19.71,60.523,20.103,60.611,20.676"/>
		<path style="clip-path:url(#SVGID_4_);fill:none;stroke:#000000;stroke-width:0.5;stroke-miterlimit:10;" d="M60.611,20.676
			c0.088,0.573-0.304,1.109-0.877,1.198c-0.573,0.088-1.109-0.305-1.198-0.878c-0.088-0.573,0.305-1.109,0.878-1.197
			C59.986,19.71,60.523,20.103,60.611,20.676z"/>
		<path style="clip-path:url(#SVGID_4_);fill:#2B2B2B;" d="M60.66,7.695c0.818,1.983,1.436,3.742,1.279,4.632
			c6.881,1.971,12.017,10.534,7.067,13.5c5.262-2.562,1.472-12.172-6.392-13.913L60.66,7.695z"/>
		<polygon style="clip-path:url(#SVGID_4_);fill:#2B2B2B;" points="68.831,27.547 68.372,28.01 72.366,33.334 72.409,34.301 
			68.123,39.922 72.675,34.36 72.733,33.162 		"/>
		<g style="opacity:0.53;clip-path:url(#SVGID_4_);">
			<g>
				<defs>
					<rect id="SVGID_10_" x="39.604" y="4.341" width="42.386" height="39.537"/>
				</defs>
				<clipPath id="SVGID_11_">
					<use xlink:href="#SVGID_10_"  style="overflow:visible;"/>
				</clipPath>
				<path style="clip-path:url(#SVGID_11_);fill:#84C8D8;" d="M69.991,43.878H51.605c-6.6,0-12-5.4-12-12V16.341c0-6.6,5.4-12,12-12
					h18.386c6.6,0,12,5.4,12,12v15.537C81.991,38.478,76.591,43.878,69.991,43.878"/>
				<defs>
					<filter id="Adobe_OpacityMaskFilter_1_" filterUnits="userSpaceOnUse" x="39.604" y="4.341" width="42.386" height="39.537">
						
							<feColorMatrix  type="matrix" values="-1 0 0 0 1  0 -1 0 0 1  0 0 -1 0 1  0 0 0 1 0" color-interpolation-filters="sRGB" result="source"/>
					</filter>
				</defs>
				<mask maskUnits="userSpaceOnUse" x="39.604" y="4.341" width="42.386" height="39.537" id="SVGID_12_">
					<g style="filter:url(#Adobe_OpacityMaskFilter_1_);">
						<g style="enable-background:new    ;">
							<g>
								<defs>
									<rect id="SVGID_13_" x="37" y="2" width="47" height="44"/>
								</defs>
								<clipPath id="SVGID_14_" style="clip-path:url(#SVGID_11_);">
									<use xlink:href="#SVGID_13_"  style="overflow:visible;"/>
								</clipPath>
								<g style="clip-path:url(#SVGID_14_);">
									
										<image style="overflow:visible;" width="47" height="44" xlink:href="4CE3AA5F.jpg"  transform="matrix(1 0 0 1 37 2.0004)">
									</image>
								</g>
							</g>
						</g>
					</g>
				</mask>
				<g style="opacity:0.75;clip-path:url(#SVGID_11_);mask:url(#SVGID_12_);">
					<g>
						<defs>
							<rect id="SVGID_15_" x="39.604" y="4.341" width="42.386" height="39.537"/>
						</defs>
						<clipPath id="SVGID_16_">
							<use xlink:href="#SVGID_15_"  style="overflow:visible;"/>
						</clipPath>
						<path style="clip-path:url(#SVGID_16_);fill:#E1C501;" d="M69.991,43.878H51.605c-6.6,0-12-5.4-12-12V16.341
							c0-6.6,5.4-12,12-12h18.386c6.6,0,12,5.4,12,12v15.537C81.991,38.478,76.591,43.878,69.991,43.878"/>
					</g>
				</g>
			</g>
		</g>
		<path style="clip-path:url(#SVGID_4_);fill:#FFC501;" d="M88.041,43.878H33.554c-3.631,0-6.602-2.971-6.602-6.602
			c0-3.63,2.971-6.601,6.602-6.601h54.487c3.631,0,6.602,2.971,6.602,6.601C94.643,40.907,91.672,43.878,88.041,43.878"/>
		<path style="clip-path:url(#SVGID_4_);fill:#1C3951;" d="M100.893,60.21H20.702c-6.051,0-10.957-4.906-10.957-10.957
			s4.906-10.957,10.957-10.957h80.191c6.051,0,10.957,4.906,10.957,10.957S106.944,60.21,100.893,60.21"/>
		<line style="clip-path:url(#SVGID_4_);fill:#336699;" x1="26.952" y1="49.253" x2="94.642" y2="49.253"/>
		
			<line style="clip-path:url(#SVGID_4_);fill:none;stroke:#336699;stroke-width:4;stroke-miterlimit:10;" x1="26.952" y1="49.253" x2="94.642" y2="49.253"/>
		<path style="clip-path:url(#SVGID_4_);fill:#FFC501;" d="M32.327,49.253c0,2.969-2.406,5.375-5.375,5.375
			c-2.968,0-5.375-2.406-5.375-5.375c0-2.968,2.407-5.375,5.375-5.375C29.921,43.878,32.327,46.285,32.327,49.253"/>
		
			<circle style="clip-path:url(#SVGID_4_);fill:none;stroke:#FFFFFF;stroke-width:3;stroke-miterlimit:10;" cx="26.952" cy="49.253" r="5.375"/>
		<path style="clip-path:url(#SVGID_4_);fill:#FFC501;" d="M66.172,49.253c0,2.969-2.406,5.375-5.375,5.375
			c-2.968,0-5.375-2.406-5.375-5.375c0-2.968,2.407-5.375,5.375-5.375C63.766,43.878,66.172,46.285,66.172,49.253"/>
		
			<circle style="clip-path:url(#SVGID_4_);fill:none;stroke:#FFFFFF;stroke-width:3;stroke-miterlimit:10;" cx="60.797" cy="49.253" r="5.375"/>
		<path style="clip-path:url(#SVGID_4_);fill:#FFC501;" d="M100.018,49.253c0,2.969-2.406,5.375-5.375,5.375
			c-2.968,0-5.375-2.406-5.375-5.375c0-2.968,2.407-5.375,5.375-5.375C97.612,43.878,100.018,46.285,100.018,49.253"/>
		
			<circle style="clip-path:url(#SVGID_4_);fill:none;stroke:#FFFFFF;stroke-width:3;stroke-miterlimit:10;" cx="94.643" cy="49.253" r="5.375"/>
		<polygon style="clip-path:url(#SVGID_4_);fill:#FFC501;" points="29.389,32.166 23.476,21.612 36.476,30.675 		"/>
		<polygon style="clip-path:url(#SVGID_4_);fill:#FFC501;" points="92.355,32.166 98.268,21.612 85.268,30.675 		"/>
		<path style="clip-path:url(#SVGID_4_);fill:#A37902;" d="M89.22,30.975c3.61,1.928,4.61,3.661,5.339,7.322
			c0.307-1.814-0.019-3.768-2.204-6.131C90.591,30.973,89.22,30.975,89.22,30.975"/>
		<polygon style="clip-path:url(#SVGID_4_);fill:#A37902;" points="89.22,30.975 96.476,23.647 97.127,23.647 92.355,32.166 		"/>
		<path style="clip-path:url(#SVGID_4_);fill:#A37902;" d="M32.272,31.146c-3.61,1.928-4.61,3.661-5.339,7.322
			c-0.307-1.814,0.019-3.768,2.204-6.131C30.901,31.145,32.272,31.146,32.272,31.146"/>
		<polygon style="clip-path:url(#SVGID_4_);fill:#A37902;" points="32.272,31.146 25.684,24.549 25.288,24.846 29.137,32.338 		"/>
		<path style="clip-path:url(#SVGID_4_);fill:#FFFFFF;" d="M94.712,21.611c0-1.786,1.448-3.234,3.234-3.234
			c1.787,0,3.235,1.448,3.235,3.234c0,1.786-1.448,3.234-3.235,3.234C96.16,24.845,94.712,23.397,94.712,21.611"/>
		<path style="clip-path:url(#SVGID_4_);fill:none;stroke:#FFFFFF;stroke-miterlimit:10;" d="M94.712,21.611
			c0-1.786,1.448-3.234,3.234-3.234c1.787,0,3.235,1.448,3.235,3.234c0,1.786-1.448,3.234-3.235,3.234
			C96.16,24.845,94.712,23.397,94.712,21.611z"/>
		<path style="clip-path:url(#SVGID_4_);fill:#FFFFFF;" d="M20.242,21.611c0-1.786,1.448-3.234,3.234-3.234
			c1.787,0,3.235,1.448,3.235,3.234c0,1.786-1.448,3.234-3.235,3.234C21.69,24.845,20.242,23.397,20.242,21.611"/>
		<path style="clip-path:url(#SVGID_4_);fill:none;stroke:#FFFFFF;stroke-miterlimit:10;" d="M20.242,21.611
			c0-1.786,1.448-3.234,3.234-3.234c1.787,0,3.235,1.448,3.235,3.234c0,1.786-1.448,3.234-3.235,3.234
			C21.69,24.845,20.242,23.397,20.242,21.611z"/>
		<path style="clip-path:url(#SVGID_4_);fill:none;stroke:#FFFFFF;stroke-width:2;stroke-linecap:round;stroke-miterlimit:10;" d="
			M34.607,33.18c-1.853,0.311-2.928,1.396-3.227,3.255"/>
		<path style="clip-path:url(#SVGID_4_);fill:none;stroke:#5FCEFF;stroke-width:2;stroke-linecap:round;stroke-miterlimit:10;" d="
			M20.377,41.161c-3.634,0.61-5.744,2.738-6.328,6.385"/>
		<path style="clip-path:url(#SVGID_4_);fill:#112330;" d="M11.728,55.534c0,3.117,98.139,3.117,98.139,0
			c-1.971,2.736-4.709,4.339-8.303,4.676c-26.621,2.532-54.043,2.577-82.343-0.107C15.641,59.17,12.919,57.768,11.728,55.534"/>
		<path style="clip-path:url(#SVGID_4_);fill:none;stroke:#000000;stroke-width:2;stroke-linecap:round;stroke-miterlimit:10;" d="
			M46.829,80.104c9.272,7.438,18.585,7.375,27.937,0"/>
		<path style="clip-path:url(#SVGID_4_);fill:none;stroke:#000000;stroke-width:2;stroke-linecap:round;stroke-miterlimit:10;" d="
			M50.756,73.115c6.665,5.347,13.359,5.301,20.083,0"/>
		<path style="clip-path:url(#SVGID_4_);fill:none;stroke:#000000;stroke-width:2;stroke-linecap:round;stroke-miterlimit:10;" d="
			M53.813,65.781c4.636,3.719,9.292,3.687,13.969,0"/>
		<g style="opacity:0.76;clip-path:url(#SVGID_4_);">
			<g>
				<defs>
					<rect id="SVGID_17_" width="43" height="39"/>
				</defs>
				<clipPath id="SVGID_18_">
					<use xlink:href="#SVGID_17_"  style="overflow:visible;"/>
				</clipPath>
				<g style="opacity:0.75;clip-path:url(#SVGID_18_);">
					<g>
						<defs>
							<rect id="SVGID_19_" width="43" height="39"/>
						</defs>
						<clipPath id="SVGID_20_">
							<use xlink:href="#SVGID_19_"  style="overflow:visible;"/>
						</clipPath>
						<g style="clip-path:url(#SVGID_20_);">
							<defs>
								<rect id="SVGID_21_" y="0" width="43" height="39"/>
							</defs>
							<clipPath id="SVGID_22_">
								<use xlink:href="#SVGID_21_"  style="overflow:visible;"/>
							</clipPath>
							<g style="clip-path:url(#SVGID_22_);">
								
									<image style="overflow:visible;" width="43" height="39" xlink:href="4CE3AA5D.png"  transform="matrix(1 0 0 1 0 1.525879e-05)">
								</image>
							</g>
						</g>
					</g>
				</g>
				<polyline style="clip-path:url(#SVGID_18_);fill:none;stroke:#AEEAFF;stroke-width:2;stroke-miterlimit:10;" points="
					23.512,26.353 21.904,27.69 20.156,26.003 17.43,26.847 17.919,21.809 15.262,22.42 18.408,17.374 15.262,16.289 20.086,16.289 
					18.548,12.301 22.847,15.307 25.749,11.881 26.465,16.006 30.783,14.748 28.781,18.951 31.689,20.129 28.781,22.984 				"/>
			</g>
		</g>
		<g style="opacity:0.76;clip-path:url(#SVGID_4_);">
			<g>
				<defs>
					<rect id="SVGID_23_" x="79" width="43" height="39"/>
				</defs>
				<clipPath id="SVGID_24_">
					<use xlink:href="#SVGID_23_"  style="overflow:visible;"/>
				</clipPath>
				<g style="opacity:0.75;clip-path:url(#SVGID_24_);">
					<g>
						<defs>
							<rect id="SVGID_25_" x="79" width="43" height="39"/>
						</defs>
						<clipPath id="SVGID_26_">
							<use xlink:href="#SVGID_25_"  style="overflow:visible;"/>
						</clipPath>
						<g style="clip-path:url(#SVGID_26_);">
							<defs>
								<rect id="SVGID_27_" x="79" y="0" width="43" height="39"/>
							</defs>
							<clipPath id="SVGID_28_">
								<use xlink:href="#SVGID_27_"  style="overflow:visible;"/>
							</clipPath>
							<g style="clip-path:url(#SVGID_28_);">
								
									<image style="overflow:visible;" width="43" height="39" xlink:href="4CE3AA5B.png"  transform="matrix(1 0 0 1 79 1.525879e-05)">
								</image>
							</g>
						</g>
					</g>
				</g>
				<polyline style="clip-path:url(#SVGID_24_);fill:none;stroke:#AEEAFF;stroke-width:2;stroke-miterlimit:10;" points="
					98.231,26.353 99.839,27.69 101.587,26.003 104.314,26.847 103.824,21.809 106.481,22.42 103.335,17.374 106.481,16.289 
					101.657,16.289 103.195,12.301 98.896,15.307 95.994,11.881 95.278,16.006 90.96,14.748 92.963,18.951 90.054,20.129 
					92.963,22.984 				"/>
			</g>
		</g>
	</g>
</g>
</svg>
