<?xml version="1.0" encoding="iso-8859-1"?>
<!-- Generator: Adobe Illustrator 22.0.1, SVG Export Plug-In . SVG Version: 6.00 Build 0)  -->
<svg version="1.1" id="&#x56FE;&#x5C42;_1" xmlns="http://www.w3.org/2000/svg" xmlns:xlink="http://www.w3.org/1999/xlink" x="0px"
	 y="0px" viewBox="0 0 12.512 19.825" style="enable-background:new 0 0 12.512 19.825;" xml:space="preserve">
<g>
	<defs>
		<rect id="SVGID_1_" width="12.512" height="19.825"/>
	</defs>
	<clipPath id="SVGID_2_">
		<use xlink:href="#SVGID_1_"  style="overflow:visible;"/>
	</clipPath>
	<g style="clip-path:url(#SVGID_2_);">
		<defs>
			<rect id="SVGID_3_" y="0" width="12.512" height="19.825"/>
		</defs>
		<clipPath id="SVGID_4_">
			<use xlink:href="#SVGID_3_"  style="overflow:visible;"/>
		</clipPath>
		<path style="clip-path:url(#SVGID_4_);fill:#FFDF43;" d="M6.256,2.228L5.848,2.57H5.083L4.165,3.155l-0.918,0.54l-0.611,0.45
			l-0.459,1.26L1.514,6.531c0,0-0.562,0.989-0.51,1.215c0.051,0.224,0.475,3.459,0.475,3.459l0.38,1.081l0.215-0.569l0.514,1.823
			c0,0,0.391-1.046,0.277-0.912c-0.114,0.135,0.485,2.183,0.485,2.183l0.51-0.799l0.484,1.52l0.395-0.619l0.566,1.43l0.22-0.622
			l0.4,1.453l0.331-0.607V2.228z"/>
		<path style="clip-path:url(#SVGID_4_);fill:none;stroke:#FFC501;stroke-width:2;stroke-miterlimit:10;" d="M6.256,2.228
			L5.848,2.57H5.083L4.165,3.155l-0.918,0.54l-0.611,0.45l-0.459,1.26L1.514,6.531c0,0-0.562,0.989-0.51,1.215
			c0.051,0.224,0.475,3.459,0.475,3.459l0.38,1.081l0.215-0.569l0.514,1.823c0,0,0.391-1.046,0.277-0.912
			c-0.114,0.135,0.485,2.183,0.485,2.183l0.51-0.799l0.484,1.52l0.395-0.619l0.566,1.43l0.22-0.622l0.4,1.453l0.331-0.607V2.228z"/>
		<path style="clip-path:url(#SVGID_4_);fill:#FFDF43;" d="M6.256,2.228L6.664,2.57h0.765l0.918,0.585l0.918,0.54l0.612,0.45
			l0.459,1.26l0.663,1.126c0,0,0.561,0.989,0.51,1.215c-0.051,0.224-0.476,3.459-0.476,3.459l-0.38,1.081l-0.215-0.569L9.924,13.54
			c0,0-0.391-1.046-0.276-0.912c0.113,0.135-0.485,2.183-0.485,2.183l-0.51-0.799l-0.484,1.52l-0.395-0.619l-0.566,1.43
			l-0.221-0.622l-0.399,1.453l-0.332-0.607V2.228z"/>
		<path style="clip-path:url(#SVGID_4_);fill:none;stroke:#FFC501;stroke-width:2;stroke-miterlimit:10;" d="M6.256,2.228
			L6.664,2.57h0.765l0.918,0.585l0.918,0.54l0.612,0.45l0.459,1.26l0.663,1.126c0,0,0.561,0.989,0.51,1.215
			c-0.051,0.224-0.476,3.459-0.476,3.459l-0.38,1.081l-0.215-0.569L9.924,13.54c0,0-0.391-1.046-0.276-0.912
			c0.113,0.135-0.485,2.183-0.485,2.183l-0.51-0.799l-0.484,1.52l-0.395-0.619l-0.566,1.43l-0.221-0.622l-0.399,1.453l-0.332-0.607
			V2.228z"/>
		<path style="clip-path:url(#SVGID_4_);fill:#FFC501;" d="M12.105,8.173c0,3.662-5.85,6.849-5.85,9.624
			c0-2.775-5.849-5.962-5.849-9.624s2.619-6.631,5.849-6.631C9.486,1.542,12.105,4.511,12.105,8.173"/>
		<defs>
			<filter id="Adobe_OpacityMaskFilter" filterUnits="userSpaceOnUse" x="0.406" y="1.542" width="11.699" height="16.255">
				
					<feColorMatrix  type="matrix" values="-1 0 0 0 1  0 -1 0 0 1  0 0 -1 0 1  0 0 0 1 0" color-interpolation-filters="sRGB" result="source"/>
			</filter>
		</defs>
		<mask maskUnits="userSpaceOnUse" x="0.406" y="1.542" width="11.699" height="16.255" id="SVGID_5_">
			<g style="filter:url(#Adobe_OpacityMaskFilter);">
				<g style="enable-background:new    ;">
					<g>
						<defs>
							<rect id="SVGID_6_" x="-2.08" y="-0.644" width="17" height="21"/>
						</defs>
						<clipPath id="SVGID_7_" style="clip-path:url(#SVGID_4_);">
							<use xlink:href="#SVGID_6_"  style="overflow:visible;"/>
						</clipPath>
						<g style="clip-path:url(#SVGID_7_);">
							
								<image style="overflow:visible;" width="17" height="21" xlink:href="B064F565.jpg"  transform="matrix(1 0 0 1 -2.0801 -0.6436)">
							</image>
						</g>
					</g>
				</g>
			</g>
		</mask>
		<g style="opacity:0.75;clip-path:url(#SVGID_4_);mask:url(#SVGID_5_);">
			<g>
				<defs>
					<rect id="SVGID_8_" x="0.406" y="1.542" width="11.699" height="16.255"/>
				</defs>
				<clipPath id="SVGID_9_">
					<use xlink:href="#SVGID_8_"  style="overflow:visible;"/>
				</clipPath>
				<path style="clip-path:url(#SVGID_9_);fill:#E1C501;" d="M12.105,8.173c0,3.662-5.85,6.849-5.85,9.624
					c0-2.775-5.849-5.962-5.849-9.624s2.619-6.631,5.849-6.631C9.486,1.542,12.105,4.511,12.105,8.173"/>
			</g>
		</g>
		<g style="clip-path:url(#SVGID_4_);">
			<g>
				<defs>
					<rect id="SVGID_10_" x="3.004" y="2.876" width="6.504" height="7.373"/>
				</defs>
				<clipPath id="SVGID_11_">
					<use xlink:href="#SVGID_10_"  style="overflow:visible;"/>
				</clipPath>
				<path style="clip-path:url(#SVGID_11_);fill:#FFED85;" d="M9.508,6.563c0,2.036-1.456,3.687-3.252,3.687
					S3.004,8.599,3.004,6.563S4.46,2.876,6.256,2.876S9.508,4.527,9.508,6.563"/>
				<defs>
					<filter id="Adobe_OpacityMaskFilter_1_" filterUnits="userSpaceOnUse" x="3.004" y="2.876" width="6.504" height="7.374">
						<feFlood  style="flood-color:white;flood-opacity:1" result="back"/>
						<feBlend  in="SourceGraphic" in2="back" mode="normal"/>
					</filter>
				</defs>
				<mask maskUnits="userSpaceOnUse" x="3.004" y="2.876" width="6.504" height="7.374" id="SVGID_12_">
					<g style="filter:url(#Adobe_OpacityMaskFilter_1_);">
						<g style="enable-background:new    ;">
							<g>
								<defs>
									<rect id="SVGID_13_" x="0.92" y="0.356" width="11" height="12"/>
								</defs>
								<clipPath id="SVGID_14_" style="clip-path:url(#SVGID_11_);">
									<use xlink:href="#SVGID_13_"  style="overflow:visible;"/>
								</clipPath>
								<g style="clip-path:url(#SVGID_14_);">
									
										<image style="overflow:visible;" width="11" height="12" xlink:href="B064F567.jpg"  transform="matrix(1 0 0 1 0.9199 0.3564)">
									</image>
								</g>
							</g>
						</g>
					</g>
				</mask>
				<g style="opacity:0.75;clip-path:url(#SVGID_11_);mask:url(#SVGID_12_);">
					<g>
						<defs>
							<rect id="SVGID_15_" x="3.004" y="2.876" width="6.504" height="7.373"/>
						</defs>
						<clipPath id="SVGID_16_">
							<use xlink:href="#SVGID_15_"  style="overflow:visible;"/>
						</clipPath>
						<path style="clip-path:url(#SVGID_16_);fill:#E1C501;" d="M9.508,6.563c0,2.036-1.456,3.687-3.252,3.687
							S3.004,8.599,3.004,6.563S4.46,2.876,6.256,2.876S9.508,4.527,9.508,6.563"/>
					</g>
				</g>
			</g>
		</g>
		<path style="clip-path:url(#SVGID_4_);fill:#FFDF43;" d="M6.256,0.75L5.848,1.125H5.083L4.165,1.766l-0.918,0.59L2.636,2.85
			L2.177,4.23L1.514,5.461c0,0-0.562,1.084-0.51,1.33c0.051,0.247,0.278,4.331,0.278,4.331l0.197-0.543l0.38,1.183l0.215-0.622
			l0.514,1.995c0,0,0.391-1.145,0.277-0.997c-0.114,0.148,0.485,2.389,0.485,2.389l0.51-0.874l0.484,1.663l0.395-0.677l0.566,1.566
			l0.22-0.682l0.4,1.591l0.331-0.665V0.75z"/>
		<path style="clip-path:url(#SVGID_4_);fill:none;stroke:#FFC501;stroke-width:0.5;stroke-miterlimit:10;" d="M6.256,0.75
			L5.848,1.125H5.083L4.165,1.766l-0.918,0.59L2.636,2.85L2.177,4.23L1.514,5.461c0,0-0.562,1.084-0.51,1.33
			c0.051,0.247,0.278,4.331,0.278,4.331l0.197-0.543l0.38,1.183l0.215-0.622l0.514,1.995c0,0,0.391-1.145,0.277-0.997
			c-0.114,0.148,0.485,2.389,0.485,2.389l0.51-0.874l0.484,1.663l0.395-0.677l0.566,1.566l0.22-0.682l0.4,1.591l0.331-0.665V0.75z"
			/>
		<path style="clip-path:url(#SVGID_4_);fill:#FFDF43;" d="M6.256,0.75l0.408,0.375h0.765l0.918,0.641l0.918,0.59L9.877,2.85
			l0.459,1.38l0.663,1.231c0,0,0.561,1.084,0.51,1.33c-0.051,0.247-0.279,4.331-0.279,4.331l-0.197-0.543l-0.38,1.183l-0.215-0.622
			l-0.514,1.995c0,0-0.391-1.145-0.276-0.997c0.113,0.148-0.485,2.389-0.485,2.389l-0.51-0.874l-0.484,1.663l-0.395-0.677
			l-0.566,1.566l-0.221-0.682l-0.399,1.591l-0.332-0.665V0.75z"/>
		<path style="clip-path:url(#SVGID_4_);fill:none;stroke:#FFC501;stroke-width:0.5;stroke-miterlimit:10;" d="M6.256,0.75
			l0.408,0.375h0.765l0.918,0.641l0.918,0.59L9.877,2.85l0.459,1.38l0.663,1.231c0,0,0.561,1.084,0.51,1.33
			c-0.051,0.247-0.279,4.331-0.279,4.331l-0.197-0.543l-0.38,1.183l-0.215-0.622l-0.514,1.995c0,0-0.391-1.145-0.276-0.997
			c0.113,0.148-0.485,2.389-0.485,2.389l-0.51-0.874l-0.484,1.663l-0.395-0.677l-0.566,1.566l-0.221-0.682l-0.399,1.591
			l-0.332-0.665V0.75z"/>
		<path style="clip-path:url(#SVGID_4_);fill:#FFC501;" d="M12.105,7.26c0,4.01-5.85,7.498-5.85,10.537
			c0-3.039-5.849-6.527-5.849-10.537S3.025,0,6.255,0C9.486,0,12.105,3.25,12.105,7.26"/>
		<defs>
			<filter id="Adobe_OpacityMaskFilter_2_" filterUnits="userSpaceOnUse" x="0.406" y="0" width="11.699" height="17.797">
				
					<feColorMatrix  type="matrix" values="-1 0 0 0 1  0 -1 0 0 1  0 0 -1 0 1  0 0 0 1 0" color-interpolation-filters="sRGB" result="source"/>
			</filter>
		</defs>
		<mask maskUnits="userSpaceOnUse" x="0.406" y="0" width="11.699" height="17.797" id="SVGID_17_">
			<g style="filter:url(#Adobe_OpacityMaskFilter_2_);">
				<g style="enable-background:new    ;">
					<g>
						<defs>
							<rect id="SVGID_18_" x="-2.08" y="-2.644" width="17" height="23"/>
						</defs>
						<clipPath id="SVGID_19_" style="clip-path:url(#SVGID_4_);">
							<use xlink:href="#SVGID_18_"  style="overflow:visible;"/>
						</clipPath>
						<g style="clip-path:url(#SVGID_19_);">
							
								<image style="overflow:visible;" width="17" height="23" xlink:href="B064F562.jpg"  transform="matrix(1 0 0 1 -2.0801 -2.6436)">
							</image>
						</g>
					</g>
				</g>
			</g>
		</mask>
		<g style="opacity:0.75;clip-path:url(#SVGID_4_);mask:url(#SVGID_17_);">
			<g>
				<defs>
					<rect id="SVGID_20_" x="0.406" y="0" width="11.699" height="17.797"/>
				</defs>
				<clipPath id="SVGID_21_">
					<use xlink:href="#SVGID_20_"  style="overflow:visible;"/>
				</clipPath>
				<path style="clip-path:url(#SVGID_21_);fill:#E1C501;" d="M12.105,7.26c0,4.01-5.85,7.498-5.85,10.537
					c0-3.039-5.849-6.527-5.849-10.537S3.025,0,6.255,0C9.486,0,12.105,3.25,12.105,7.26"/>
			</g>
		</g>
		<g style="clip-path:url(#SVGID_4_);">
			<g>
				<defs>
					<rect id="SVGID_22_" x="3.004" y="1.461" width="6.504" height="8.072"/>
				</defs>
				<clipPath id="SVGID_23_">
					<use xlink:href="#SVGID_22_"  style="overflow:visible;"/>
				</clipPath>
				<g style="clip-path:url(#SVGID_23_);">
					<defs>
						<path id="SVGID_24_" d="M9.508,5.497c0,2.229-1.456,4.036-3.252,4.036S3.004,7.726,3.004,5.497S4.46,1.461,6.256,1.461
							S9.508,3.268,9.508,5.497"/>
					</defs>
					<clipPath id="SVGID_25_">
						<use xlink:href="#SVGID_24_"  style="overflow:visible;"/>
					</clipPath>
					
						<linearGradient id="SVGID_26_" gradientUnits="userSpaceOnUse" x1="0" y1="19.8252" x2="1" y2="19.8252" gradientTransform="matrix(-0.0243 -8.4131 -8.4131 0.0243 173.0598 9.2087)">
						<stop  offset="0" style="stop-color:#FDFFE9"/>
						<stop  offset="1" style="stop-color:#D3D400"/>
					</linearGradient>
					<polygon style="clip-path:url(#SVGID_25_);fill:url(#SVGID_26_);" points="3.004,9.552 2.981,1.461 9.508,1.442 9.531,9.533 
											"/>
				</g>
				<defs>
					<filter id="Adobe_OpacityMaskFilter_3_" filterUnits="userSpaceOnUse" x="3.004" y="1.461" width="6.504" height="8.072">
						<feFlood  style="flood-color:white;flood-opacity:1" result="back"/>
						<feBlend  in="SourceGraphic" in2="back" mode="normal"/>
					</filter>
				</defs>
				<mask maskUnits="userSpaceOnUse" x="3.004" y="1.461" width="6.504" height="8.072" id="SVGID_27_">
					<g style="filter:url(#Adobe_OpacityMaskFilter_3_);">
						<g style="enable-background:new    ;">
							<g>
								<defs>
									<rect id="SVGID_28_" x="0.92" y="-0.644" width="11" height="13"/>
								</defs>
								<clipPath id="SVGID_29_" style="clip-path:url(#SVGID_23_);">
									<use xlink:href="#SVGID_28_"  style="overflow:visible;"/>
								</clipPath>
								<g style="clip-path:url(#SVGID_29_);">
									
										<image style="overflow:visible;" width="11" height="13" xlink:href="B064F563.jpg"  transform="matrix(1 0 0 1 0.9199 -0.6436)">
									</image>
								</g>
							</g>
						</g>
					</g>
				</mask>
				<g style="opacity:0.75;clip-path:url(#SVGID_23_);mask:url(#SVGID_27_);">
					<g>
						<defs>
							<rect id="SVGID_30_" x="3.004" y="1.461" width="6.504" height="8.072"/>
						</defs>
						<clipPath id="SVGID_31_">
							<use xlink:href="#SVGID_30_"  style="overflow:visible;"/>
						</clipPath>
						<path style="clip-path:url(#SVGID_31_);fill:#E1C501;" d="M9.508,5.497c0,2.229-1.456,4.036-3.252,4.036
							S3.004,7.726,3.004,5.497c0-2.23,1.456-4.036,3.252-4.036S9.508,3.267,9.508,5.497"/>
					</g>
				</g>
			</g>
		</g>
	</g>
</g>
</svg>
