<?xml version="1.0" encoding="iso-8859-1"?>
<!-- Generator: Adobe Illustrator 22.0.1, SVG Export Plug-In . SVG Version: 6.00 Build 0)  -->
<svg version="1.1" id="&#x56FE;&#x5C42;_1" xmlns="http://www.w3.org/2000/svg" xmlns:xlink="http://www.w3.org/1999/xlink" x="0px"
	 y="0px" viewBox="0 0 31.31 22.376" style="enable-background:new 0 0 31.31 22.376;" xml:space="preserve">
<g>
	<defs>
		<rect id="SVGID_1_" width="31.31" height="22.376"/>
	</defs>
	<clipPath id="SVGID_2_">
		<use xlink:href="#SVGID_1_"  style="overflow:visible;"/>
	</clipPath>
	<g style="clip-path:url(#SVGID_2_);">
		<defs>
			<rect id="SVGID_3_" y="0" width="31.31" height="22.376"/>
		</defs>
		<clipPath id="SVGID_4_">
			<use xlink:href="#SVGID_3_"  style="overflow:visible;"/>
		</clipPath>
		<path style="clip-path:url(#SVGID_4_);fill:#FFDF43;" d="M7.037,2.558L6.568,2.951H5.689L4.636,3.622L3.581,4.244L2.878,4.76
			L2.351,6.207L1.59,7.499c0,0-0.645,1.138-0.586,1.397c0.058,0.258,0.546,3.973,0.546,3.973l0.436,1.241l0.248-0.653l0.59,2.092
			c0,0,0.448-1.2,0.317-1.045c-0.13,0.155,0.557,2.507,0.557,2.507l0.586-0.918l0.557,1.745l0.453-0.711l0.65,1.643l0.252-0.714
			l0.46,1.669l0.381-0.698V2.558z"/>
		<path style="clip-path:url(#SVGID_4_);fill:none;stroke:#FF0903;stroke-width:2;stroke-miterlimit:10;" d="M7.037,2.558
			L6.568,2.951H5.689L4.636,3.622L3.581,4.244L2.878,4.76L2.351,6.207L1.59,7.499c0,0-0.645,1.138-0.586,1.397
			c0.058,0.258,0.546,3.973,0.546,3.973l0.436,1.241l0.248-0.653l0.59,2.092c0,0,0.448-1.2,0.317-1.045
			c-0.13,0.155,0.557,2.507,0.557,2.507l0.586-0.918l0.557,1.745l0.453-0.711l0.65,1.643l0.252-0.714l0.46,1.669l0.381-0.698V2.558z
			"/>
		<path style="clip-path:url(#SVGID_4_);fill:#FFDF43;" d="M7.037,2.558l0.469,0.393h0.878l1.054,0.671l1.054,0.622l0.703,0.516
			l0.528,1.447l0.761,1.292c0,0,0.644,1.138,0.585,1.397c-0.058,0.258-0.545,3.973-0.545,3.973l-0.436,1.241l-0.248-0.653
			l-0.59,2.092c0,0-0.449-1.2-0.318-1.045c0.13,0.155-0.557,2.507-0.557,2.507L9.79,16.093l-0.557,1.745l-0.454-0.711L8.13,18.77
			l-0.253-0.714l-0.459,1.669l-0.381-0.698V2.558z"/>
		<path style="clip-path:url(#SVGID_4_);fill:none;stroke:#FF0903;stroke-width:2;stroke-miterlimit:10;" d="M7.037,2.558
			l0.469,0.393h0.878l1.054,0.671l1.054,0.622l0.703,0.516l0.528,1.447l0.761,1.292c0,0,0.644,1.138,0.585,1.397
			c-0.058,0.258-0.545,3.973-0.545,3.973l-0.436,1.241l-0.248-0.653l-0.59,2.092c0,0-0.449-1.2-0.318-1.045
			c0.13,0.155-0.557,2.507-0.557,2.507L9.79,16.093l-0.557,1.745l-0.454-0.711L8.13,18.77l-0.253-0.714l-0.459,1.669l-0.381-0.698
			V2.558z"/>
		<path style="clip-path:url(#SVGID_4_);fill:#F71919;" d="M7.037,0.862l-0.469,0.43H5.689L4.636,2.028L3.581,2.707L2.878,3.273
			L2.351,4.858L1.59,6.272c0,0-0.645,1.245-0.586,1.528c0.058,0.284,0.32,4.974,0.32,4.974L1.55,12.15l0.436,1.359l0.248-0.714
			l0.59,2.291c0,0,0.448-1.315,0.317-1.145c-0.13,0.17,0.557,2.745,0.557,2.745l0.586-1.005l0.557,1.91l0.453-0.778l0.65,1.799
			l0.252-0.782l0.46,1.827l0.381-0.764V0.862z"/>
		<path style="clip-path:url(#SVGID_4_);fill:none;stroke:#FF3E03;stroke-width:0.5;stroke-miterlimit:10;" d="M7.037,0.862
			l-0.469,0.43H5.689L4.636,2.028L3.581,2.707L2.878,3.273L2.351,4.858L1.59,6.272c0,0-0.645,1.245-0.586,1.528
			c0.058,0.284,0.32,4.974,0.32,4.974L1.55,12.15l0.436,1.359l0.248-0.714l0.59,2.291c0,0,0.448-1.315,0.317-1.145
			c-0.13,0.17,0.557,2.745,0.557,2.745l0.586-1.005l0.557,1.91l0.453-0.778l0.65,1.799l0.252-0.782l0.46,1.827l0.381-0.764V0.862z"
			/>
		<path style="clip-path:url(#SVGID_4_);fill:#F71919;" d="M7.037,0.862l0.469,0.43h0.878l1.054,0.736l1.054,0.679l0.703,0.566
			l0.528,1.585l0.761,1.414c0,0,0.644,1.245,0.585,1.528c-0.058,0.284-0.32,4.974-0.32,4.974l-0.225-0.624l-0.436,1.359
			l-0.248-0.714l-0.59,2.291c0,0-0.449-1.315-0.318-1.145c0.13,0.17-0.557,2.745-0.557,2.745L9.79,15.681l-0.557,1.91l-0.454-0.778
			L8.13,18.612L7.877,17.83l-0.459,1.827l-0.381-0.764V0.862z"/>
		<path style="clip-path:url(#SVGID_4_);fill:none;stroke:#FF3E03;stroke-width:0.5;stroke-miterlimit:10;" d="M7.037,0.862
			l0.469,0.43h0.878l1.054,0.736l1.054,0.679l0.703,0.566l0.528,1.585l0.761,1.414c0,0,0.644,1.245,0.585,1.528
			c-0.058,0.284-0.32,4.974-0.32,4.974l-0.225-0.624l-0.436,1.359l-0.248-0.714l-0.59,2.291c0,0-0.449-1.315-0.318-1.145
			c0.13,0.17-0.557,2.745-0.557,2.745L9.79,15.681l-0.557,1.91l-0.454-0.778L8.13,18.612L7.877,17.83l-0.459,1.827l-0.381-0.764
			V0.862z"/>
		<path style="clip-path:url(#SVGID_4_);fill:#FF0903;" d="M13.755,8.339c0,4.605-6.718,8.612-6.718,12.103
			c0-3.491-6.719-7.498-6.719-12.103S3.326,0,7.037,0C10.747,0,13.755,3.734,13.755,8.339"/>
		<defs>
			<filter id="Adobe_OpacityMaskFilter" filterUnits="userSpaceOnUse" x="0.318" y="0" width="13.438" height="20.442">
				
					<feColorMatrix  type="matrix" values="-1 0 0 0 1  0 -1 0 0 1  0 0 -1 0 1  0 0 0 1 0" color-interpolation-filters="sRGB" result="source"/>
			</filter>
		</defs>
		<mask maskUnits="userSpaceOnUse" x="0.318" y="0" width="13.438" height="20.442" id="SVGID_5_">
			<g style="filter:url(#Adobe_OpacityMaskFilter);">
				<g style="enable-background:new    ;">
					<g>
						<defs>
							<rect id="SVGID_6_" x="-2.409" y="-2.873" width="19" height="26"/>
						</defs>
						<clipPath id="SVGID_7_" style="clip-path:url(#SVGID_4_);">
							<use xlink:href="#SVGID_6_"  style="overflow:visible;"/>
						</clipPath>
						<g style="clip-path:url(#SVGID_7_);">
							
								<image style="overflow:visible;" width="19" height="26" xlink:href="F0988DFB.jpg"  transform="matrix(1 0 0 1 -2.4092 -2.8726)">
							</image>
						</g>
					</g>
				</g>
			</g>
		</mask>
		<g style="opacity:0.75;clip-path:url(#SVGID_4_);mask:url(#SVGID_5_);">
			<g>
				<defs>
					<rect id="SVGID_8_" x="0.318" y="0" width="13.437" height="20.441"/>
				</defs>
				<clipPath id="SVGID_9_">
					<use xlink:href="#SVGID_8_"  style="overflow:visible;"/>
				</clipPath>
				<path style="clip-path:url(#SVGID_9_);fill:#E1C501;" d="M13.755,8.339c0,4.605-6.718,8.612-6.718,12.103
					c0-3.491-6.719-7.498-6.719-12.103S3.326,0,7.037,0C10.747,0,13.755,3.734,13.755,8.339"/>
			</g>
		</g>
		<g style="clip-path:url(#SVGID_4_);">
			<g>
				<defs>
					<rect id="SVGID_10_" x="3.302" y="1.678" width="7.47" height="9.271"/>
				</defs>
				<clipPath id="SVGID_11_">
					<use xlink:href="#SVGID_10_"  style="overflow:visible;"/>
				</clipPath>
				<g style="clip-path:url(#SVGID_11_);">
					<defs>
						<path id="SVGID_12_" d="M10.771,6.314c0,2.559-1.672,4.635-3.734,4.635c-2.064,0-3.735-2.076-3.735-4.635
							c0-2.561,1.671-4.636,3.735-4.636C9.099,1.678,10.771,3.753,10.771,6.314"/>
					</defs>
					<clipPath id="SVGID_13_">
						<use xlink:href="#SVGID_12_"  style="overflow:visible;"/>
					</clipPath>
					
						<linearGradient id="SVGID_14_" gradientUnits="userSpaceOnUse" x1="0" y1="22.3764" x2="1" y2="22.3764" gradientTransform="matrix(-0.0279 -9.6629 -9.6629 0.0279 223.2706 10.5055)">
						<stop  offset="0" style="stop-color:#3F0A00"/>
						<stop  offset="1" style="stop-color:#941D00"/>
					</linearGradient>
					<polygon style="clip-path:url(#SVGID_13_);fill:url(#SVGID_14_);" points="3.302,10.971 3.275,1.678 10.771,1.657 
						10.798,10.949 					"/>
				</g>
				<defs>
					<filter id="Adobe_OpacityMaskFilter_1_" filterUnits="userSpaceOnUse" x="3.301" y="1.678" width="7.47" height="9.271">
						<feFlood  style="flood-color:white;flood-opacity:1" result="back"/>
						<feBlend  in="SourceGraphic" in2="back" mode="normal"/>
					</filter>
				</defs>
				<mask maskUnits="userSpaceOnUse" x="3.301" y="1.678" width="7.47" height="9.271" id="SVGID_15_">
					<g style="filter:url(#Adobe_OpacityMaskFilter_1_);">
						<g style="enable-background:new    ;">
							<g>
								<defs>
									<rect id="SVGID_16_" x="0.591" y="-0.873" width="13" height="14"/>
								</defs>
								<clipPath id="SVGID_17_" style="clip-path:url(#SVGID_11_);">
									<use xlink:href="#SVGID_16_"  style="overflow:visible;"/>
								</clipPath>
								<g style="clip-path:url(#SVGID_17_);">
									
										<image style="overflow:visible;" width="13" height="14" xlink:href="F0988DF9.jpg"  transform="matrix(1 0 0 1 0.5908 -0.8726)">
									</image>
								</g>
							</g>
						</g>
					</g>
				</mask>
				<g style="opacity:0.75;clip-path:url(#SVGID_11_);mask:url(#SVGID_15_);">
					<g>
						<defs>
							<rect id="SVGID_18_" x="3.302" y="1.678" width="7.47" height="9.271"/>
						</defs>
						<clipPath id="SVGID_19_">
							<use xlink:href="#SVGID_18_"  style="overflow:visible;"/>
						</clipPath>
						<path style="clip-path:url(#SVGID_19_);fill:#E1C501;" d="M10.771,6.314c0,2.56-1.672,4.635-3.734,4.635
							c-2.064,0-3.736-2.075-3.736-4.635c0-2.561,1.672-4.636,3.736-4.636C9.099,1.678,10.771,3.753,10.771,6.314"/>
					</g>
				</g>
			</g>
		</g>
		<path style="clip-path:url(#SVGID_4_);fill:#FFDF43;" d="M24.273,2.558l-0.469,0.393h-0.878l-1.054,0.671l-1.055,0.622
			L20.115,4.76l-0.528,1.447l-0.761,1.292c0,0-0.645,1.138-0.586,1.397c0.058,0.258,0.546,3.973,0.546,3.973l0.436,1.241
			l0.248-0.653l0.59,2.092c0,0,0.448-1.2,0.318-1.045c-0.13,0.155,0.556,2.507,0.556,2.507l0.586-0.918l0.557,1.745l0.454-0.711
			l0.649,1.643l0.253-0.714l0.459,1.669l0.381-0.698V2.558z"/>
		<path style="clip-path:url(#SVGID_4_);fill:none;stroke:#FF0903;stroke-width:2;stroke-miterlimit:10;" d="M24.273,2.558
			l-0.469,0.393h-0.878l-1.054,0.671l-1.055,0.622L20.115,4.76l-0.528,1.447l-0.761,1.292c0,0-0.645,1.138-0.586,1.397
			c0.058,0.258,0.546,3.973,0.546,3.973l0.436,1.241l0.248-0.653l0.59,2.092c0,0,0.448-1.2,0.318-1.045
			c-0.13,0.155,0.556,2.507,0.556,2.507l0.586-0.918l0.557,1.745l0.454-0.711l0.649,1.643l0.253-0.714l0.459,1.669l0.381-0.698
			V2.558z"/>
		<path style="clip-path:url(#SVGID_4_);fill:#FFDF43;" d="M24.273,2.558l0.469,0.393h0.879l1.053,0.671l1.055,0.622l0.702,0.516
			l0.528,1.447l0.761,1.292c0,0,0.645,1.138,0.586,1.397c-0.058,0.258-0.546,3.973-0.546,3.973l-0.436,1.241l-0.248-0.653
			l-0.59,2.092c0,0-0.448-1.2-0.317-1.045c0.129,0.155-0.557,2.507-0.557,2.507l-0.586-0.918l-0.557,1.745l-0.454-0.711
			l-0.649,1.643l-0.253-0.714l-0.459,1.669l-0.381-0.698V2.558z"/>
		<path style="clip-path:url(#SVGID_4_);fill:none;stroke:#FF0903;stroke-width:2;stroke-miterlimit:10;" d="M24.273,2.558
			l0.469,0.393h0.879l1.053,0.671l1.055,0.622l0.702,0.516l0.528,1.447l0.761,1.292c0,0,0.645,1.138,0.586,1.397
			c-0.058,0.258-0.546,3.973-0.546,3.973l-0.436,1.241l-0.248-0.653l-0.59,2.092c0,0-0.448-1.2-0.317-1.045
			c0.129,0.155-0.557,2.507-0.557,2.507l-0.586-0.918l-0.557,1.745l-0.454-0.711l-0.649,1.643l-0.253-0.714l-0.459,1.669
			l-0.381-0.698V2.558z"/>
		<path style="clip-path:url(#SVGID_4_);fill:#F71919;" d="M24.273,0.862l-0.469,0.43h-0.878l-1.054,0.736l-1.055,0.679
			l-0.702,0.566l-0.528,1.585l-0.761,1.414c0,0-0.645,1.245-0.586,1.528c0.058,0.284,0.321,4.974,0.321,4.974l0.225-0.624
			l0.436,1.359l0.248-0.714l0.59,2.291c0,0,0.448-1.315,0.318-1.145c-0.13,0.17,0.556,2.745,0.556,2.745l0.586-1.005l0.557,1.91
			l0.454-0.778l0.649,1.799l0.253-0.782l0.459,1.827l0.381-0.764V0.862z"/>
		<path style="clip-path:url(#SVGID_4_);fill:none;stroke:#FF3E03;stroke-width:0.5;stroke-miterlimit:10;" d="M24.273,0.862
			l-0.469,0.43h-0.878l-1.054,0.736l-1.055,0.679l-0.702,0.566l-0.528,1.585l-0.761,1.414c0,0-0.645,1.245-0.586,1.528
			c0.058,0.284,0.321,4.974,0.321,4.974l0.225-0.624l0.436,1.359l0.248-0.714l0.59,2.291c0,0,0.448-1.315,0.318-1.145
			c-0.13,0.17,0.556,2.745,0.556,2.745l0.586-1.005l0.557,1.91l0.454-0.778l0.649,1.799l0.253-0.782l0.459,1.827l0.381-0.764V0.862z
			"/>
		<path style="clip-path:url(#SVGID_4_);fill:#F71919;" d="M24.273,0.862l0.469,0.43h0.879l1.053,0.736l1.055,0.679l0.702,0.566
			l0.528,1.585l0.761,1.414c0,0,0.645,1.245,0.586,1.528c-0.058,0.284-0.32,4.974-0.32,4.974L29.76,12.15l-0.436,1.359l-0.248-0.714
			l-0.59,2.291c0,0-0.448-1.315-0.317-1.145c0.129,0.17-0.557,2.745-0.557,2.745l-0.586-1.005l-0.557,1.91l-0.454-0.778
			l-0.649,1.799l-0.253-0.782l-0.459,1.827l-0.381-0.764V0.862z"/>
		<path style="clip-path:url(#SVGID_4_);fill:none;stroke:#FF3E03;stroke-width:0.5;stroke-miterlimit:10;" d="M24.273,0.862
			l0.469,0.43h0.879l1.053,0.736l1.055,0.679l0.702,0.566l0.528,1.585l0.761,1.414c0,0,0.645,1.245,0.586,1.528
			c-0.058,0.284-0.32,4.974-0.32,4.974L29.76,12.15l-0.436,1.359l-0.248-0.714l-0.59,2.291c0,0-0.448-1.315-0.317-1.145
			c0.129,0.17-0.557,2.745-0.557,2.745l-0.586-1.005l-0.557,1.91l-0.454-0.778l-0.649,1.799l-0.253-0.782l-0.459,1.827l-0.381-0.764
			V0.862z"/>
		<path style="clip-path:url(#SVGID_4_);fill:#FF0903;" d="M30.992,8.339c0,4.605-6.719,8.612-6.719,12.103
			c0-3.491-6.719-7.498-6.719-12.103S20.562,0,24.273,0S30.992,3.734,30.992,8.339"/>
		<defs>
			<filter id="Adobe_OpacityMaskFilter_2_" filterUnits="userSpaceOnUse" x="17.554" y="0" width="13.438" height="20.442">
				
					<feColorMatrix  type="matrix" values="-1 0 0 0 1  0 -1 0 0 1  0 0 -1 0 1  0 0 0 1 0" color-interpolation-filters="sRGB" result="source"/>
			</filter>
		</defs>
		<mask maskUnits="userSpaceOnUse" x="17.554" y="0" width="13.438" height="20.442" id="SVGID_20_">
			<g style="filter:url(#Adobe_OpacityMaskFilter_2_);">
				<g style="enable-background:new    ;">
					<g>
						<defs>
							<rect id="SVGID_21_" x="14.591" y="-2.873" width="19" height="26"/>
						</defs>
						<clipPath id="SVGID_22_" style="clip-path:url(#SVGID_4_);">
							<use xlink:href="#SVGID_21_"  style="overflow:visible;"/>
						</clipPath>
						<g style="clip-path:url(#SVGID_22_);">
							
								<image style="overflow:visible;" width="19" height="26" xlink:href="F0988DFF.jpg"  transform="matrix(1 0 0 1 14.5908 -2.8726)">
							</image>
						</g>
					</g>
				</g>
			</g>
		</mask>
		<g style="opacity:0.75;clip-path:url(#SVGID_4_);mask:url(#SVGID_20_);">
			<g>
				<defs>
					<rect id="SVGID_23_" x="17.555" y="0" width="13.437" height="20.441"/>
				</defs>
				<clipPath id="SVGID_24_">
					<use xlink:href="#SVGID_23_"  style="overflow:visible;"/>
				</clipPath>
				<path style="clip-path:url(#SVGID_24_);fill:#E1C501;" d="M30.992,8.339c0,4.605-6.719,8.612-6.719,12.103
					c0-3.491-6.719-7.498-6.719-12.103S20.562,0,24.273,0S30.992,3.734,30.992,8.339"/>
			</g>
		</g>
		<g style="clip-path:url(#SVGID_4_);">
			<g>
				<defs>
					<rect id="SVGID_25_" x="20.538" y="1.678" width="7.47" height="9.271"/>
				</defs>
				<clipPath id="SVGID_26_">
					<use xlink:href="#SVGID_25_"  style="overflow:visible;"/>
				</clipPath>
				<g style="clip-path:url(#SVGID_26_);">
					<defs>
						<path id="SVGID_27_" d="M28.009,6.314c0,2.559-1.673,4.635-3.736,4.635c-2.062,0-3.735-2.076-3.735-4.635
							c0-2.561,1.673-4.636,3.735-4.636C26.336,1.678,28.009,3.753,28.009,6.314"/>
					</defs>
					<clipPath id="SVGID_28_">
						<use xlink:href="#SVGID_27_"  style="overflow:visible;"/>
					</clipPath>
					
						<linearGradient id="SVGID_29_" gradientUnits="userSpaceOnUse" x1="0" y1="22.3764" x2="1" y2="22.3764" gradientTransform="matrix(-0.0279 -9.6629 -9.6629 0.0279 240.5074 10.5055)">
						<stop  offset="0" style="stop-color:#3F0A00"/>
						<stop  offset="1" style="stop-color:#941D00"/>
					</linearGradient>
					<polygon style="clip-path:url(#SVGID_28_);fill:url(#SVGID_29_);" points="20.538,10.971 20.511,1.678 28.009,1.657 
						28.036,10.949 					"/>
				</g>
				<defs>
					<filter id="Adobe_OpacityMaskFilter_3_" filterUnits="userSpaceOnUse" x="20.538" y="1.678" width="7.471" height="9.271">
						<feFlood  style="flood-color:white;flood-opacity:1" result="back"/>
						<feBlend  in="SourceGraphic" in2="back" mode="normal"/>
					</filter>
				</defs>
				<mask maskUnits="userSpaceOnUse" x="20.538" y="1.678" width="7.471" height="9.271" id="SVGID_30_">
					<g style="filter:url(#Adobe_OpacityMaskFilter_3_);">
						<g style="enable-background:new    ;">
							<g>
								<defs>
									<rect id="SVGID_31_" x="17.591" y="-0.873" width="13" height="14"/>
								</defs>
								<clipPath id="SVGID_32_" style="clip-path:url(#SVGID_26_);">
									<use xlink:href="#SVGID_31_"  style="overflow:visible;"/>
								</clipPath>
								<g style="clip-path:url(#SVGID_32_);">
									
										<image style="overflow:visible;" width="13" height="14" xlink:href="F0988DF8.jpg"  transform="matrix(1 0 0 1 17.5908 -0.8726)">
									</image>
								</g>
							</g>
						</g>
					</g>
				</mask>
				<g style="opacity:0.75;clip-path:url(#SVGID_26_);mask:url(#SVGID_30_);">
					<g>
						<defs>
							<rect id="SVGID_33_" x="20.538" y="1.678" width="7.47" height="9.271"/>
						</defs>
						<clipPath id="SVGID_34_">
							<use xlink:href="#SVGID_33_"  style="overflow:visible;"/>
						</clipPath>
						<path style="clip-path:url(#SVGID_34_);fill:#E1C501;" d="M28.009,6.314c0,2.56-1.673,4.635-3.735,4.635
							c-2.063,0-3.736-2.075-3.736-4.635c0-2.561,1.673-4.636,3.736-4.636C26.336,1.678,28.009,3.753,28.009,6.314"/>
					</g>
				</g>
			</g>
		</g>
	</g>
</g>
</svg>
