<?xml version="1.0" encoding="iso-8859-1"?>
<!-- Generator: Adobe Illustrator 22.0.1, SVG Export Plug-In . SVG Version: 6.00 Build 0)  -->
<svg version="1.1" id="&#x56FE;&#x5C42;_1" xmlns="http://www.w3.org/2000/svg" xmlns:xlink="http://www.w3.org/1999/xlink" x="0px"
	 y="0px" viewBox="0 0 38.367 45.958" style="enable-background:new 0 0 38.367 45.958;" xml:space="preserve">
<g>
	<defs>
		<rect id="SVGID_1_" y="0" width="38.367" height="45.958"/>
	</defs>
	<clipPath id="SVGID_2_">
		<use xlink:href="#SVGID_1_"  style="overflow:visible;"/>
	</clipPath>
	<path style="clip-path:url(#SVGID_2_);" d="M14.164,18.25c2.035-3.878,4.035-7.878,5.035-11.878c-5,2-11,3-11,10c2-2,3-3,5-5
		c0,4,0,7-0.328,10.663L14.164,18.25z"/>
	<path style="clip-path:url(#SVGID_2_);fill:#336699;" d="M7.043,19.456c0.156-0.085-0.844-1.085-0.844-1.085c1,8,9,13,17,10
		c3-1,0-2-1-3c-2,4-6,1-7.57,2.061C9.702,26.134,7.043,19.456,7.043,19.456"/>
	<path style="clip-path:url(#SVGID_2_);" d="M22.292,35.188c0.907-0.816,1.907-1.816,2.907-2.816c0,3-1,5-3,7h4
		c-3,3-8,6-11.768,1.431L22.292,35.188z"/>
	<path style="clip-path:url(#SVGID_2_);" d="M15.97,23.239c8.229,1.132,10.229,7.132,13.229,14.132c0,1,4-2,7-2c-2,3-4,7-6,10
		c8-7,11-19,5-29c-3-5-9-7-14-5c-3,2-6,5-6,9c0,0,0-1-0.358-0.819C14.927,20.833,15.29,22.091,15.97,23.239"/>
	<path style="clip-path:url(#SVGID_2_);fill:#303030;" d="M30.177,45.958c3.022-3.587,6.022-8.587,6.022-13.587c-2,3-5,5-8,4
		c-1-1-1-3-1-5c1,2-1,5,1,6c3,1,6-1,7.588-2.405L30.177,45.958z"/>
	<path style="clip-path:url(#SVGID_2_);fill:#303030;" d="M22.319,35.179c-0.12,0.192,0.88-0.808,0.88-0.808c-3,2-6,4-8,7
		c2,1,3,1,5,2c-1-2-5,1-5.801-2.561L22.319,35.179z"/>
	<path style="clip-path:url(#SVGID_2_);fill:#303030;" d="M27.57,31.894c-8.371,6.478-20.371,5.478-25.371-4.522c-3-8-2-16,2-23
		c0,3-2,5-2,8c8-11,24-17,36-8c-8-3-20-2-22,7c-1,4-2,11,3.747,12.844C23.274,24.443,26.498,26.708,27.57,31.894"/>
	<path style="clip-path:url(#SVGID_2_);fill:#424242;" d="M27.395,28.568c-4.196,9.803-17.196,8.803-23.196,1.803c-7-8-4-18,0-26
		c-4,7-5,15-2,23c4,9,18,12,25.379,4.486L27.395,28.568z"/>
	<path style="clip-path:url(#SVGID_2_);fill:#FFFFFF;" d="M21.622,32.897c0.577-1.526,0.577-2.526,1.577-4.526c-9,5-7-1-12-7
		c0,2-1,4-1,6c-3-5,1-11-2-16c-2,5,0,11,0,16c-1-2-3-4-5-6c0,6,5,8,9.794,9.996L21.622,32.897z"/>
</g>
</svg>
