<?xml version="1.0" encoding="iso-8859-1"?>
<!-- Generator: Adobe Illustrator 22.0.1, SVG Export Plug-In . SVG Version: 6.00 Build 0)  -->
<svg version="1.1" id="&#x56FE;&#x5C42;_1" xmlns="http://www.w3.org/2000/svg" xmlns:xlink="http://www.w3.org/1999/xlink" x="0px"
	 y="0px" viewBox="0 0 20.089 18.789" style="enable-background:new 0 0 20.089 18.789;" xml:space="preserve">
<g>
	<defs>
		<rect id="SVGID_1_" y="0" width="20.089" height="18.789"/>
	</defs>
	<clipPath id="SVGID_2_">
		<use xlink:href="#SVGID_1_"  style="overflow:visible;"/>
	</clipPath>
	<path style="clip-path:url(#SVGID_2_);" d="M8.832,11.931c-3.194-1.478-2.793-5.078-1.194-7.478c1.6-1.6,3.6-2,5.6-1.6
		c-2.8-0.4-5.199,0.8-7.199,2.4c-0.401-1.6,1.599-0.8,2-1.6c-0.401,0.8-1.201,1.6-1.601,2.4c-0.8,3.2,2,5.6,4.713,6.252
		L8.832,11.931z"/>
	<path style="clip-path:url(#SVGID_2_);fill:#336699;" d="M5.816,5.182c0.622-1.129,1.422-1.929,2.222-2.729
		c-2.8,2.8-4.4,7.6-0.4,10c1.6,0.8,3.6,1.6,5.2,0c1.2-1.2,1.6-2.4,1.2-4c-0.4-0.8-1.2-1.6-2.4-1.2c-0.4,0.4-0.8,1.2-0.8,1.6v-1.2
		c1.2-0.8,2.4,0,2.8,0.8c0.8,2.4-1.6,4.4-3.6,4.4c-2.8,0-4.8-2.8-4.586-5.606C5.571,5.93,5.816,5.182,5.816,5.182"/>
	<path style="clip-path:url(#SVGID_2_);" d="M14.124,12.05c0.714-1.998,1.114-4.397-0.886-5.998c1.2,2,2.4,4.801,0,6.801
		c-2.8,2-6.4,1.199-8.8-1.2c0.4,0.399,0.8,0.8,1.2,1.2c-2-2.4-2.8-6-0.8-8.4c-0.8,2.4-1.2,5.599,0.8,7.599
		c2,1.601,4.8,2.401,7.174,0.952C13.656,12.488,14.124,12.05,14.124,12.05"/>
	<path style="clip-path:url(#SVGID_2_);" d="M13.081,9.732c-0.643-0.479-2.643-0.879-2.243-2.479c0.4-0.4,0.8-0.8,1.201-0.8
		c2,0.4,3.199,2,3.199,4c-0.8,5.2-7.199,5.6-10.8,2.8c-2.8-2.8-2.8-7.2-0.399-10c-2.401,2.8-2,6.4-0.401,9.2c2.8,4,8,4.8,11.6,1.2
		c2.4-2.4,2.801-6.8,0-9.2c-2.4-2-5.199-1.6-7.199,0.4c-2.801,2.4-1.601,6.8,2.504,7.187C11.699,11.684,12.634,10.87,13.081,9.732"
		/>
	<path style="clip-path:url(#SVGID_2_);fill:#303030;" d="M7.468,0c-3.43,1.252-4.63,5.652-4.63,8.853c0.4,3.6,3.6,6.799,7.6,6.399
		h-1.2c4-0.399,7.6-5.2,4.4-8.799c2.4,2.4,1.6,6-0.8,7.599c-3.2,1.6-7.6,0.401-9.6-2.8c1.6,1.601,2.8,3.601,5.2,4
		c-4.4-2-6.8-7.6-4.434-12.016C5.824,1.1,7.468,0,7.468,0"/>
	<path style="clip-path:url(#SVGID_2_);fill:#303030;" d="M14.138,12.033c-0.1-0.38,0.3-0.78,0.3-1.18c-1.2,2.8-4.8,4.4-7.6,2.4
		c-3.2-2.4-4-7.6-1.2-10.8c-0.8,1.2-1.2,2.4-1.6,3.6c0.4-1.2,1.2-2,1.6-3.2c-2,2.8-2.4,6.8,0,9.2c2,1.6,4.8,2.8,7.212,0.91
		C13.668,12.47,14.138,12.033,14.138,12.033"/>
	<path style="clip-path:url(#SVGID_2_);fill:#303030;" d="M14.838,7.681c0.4,2.771-1.2,5.971-4,6.371c-4.4,0.8-7.6-3.6-6.8-7.6
		c0.8-3.2,3.2-6,6.4-6c4.8,0,8.8,3.2,9.6,8c0.4,3.6-2,6.8-4.8,8.8c-4,2.4-9.2,1.6-12.8-1.2c4.4,2.8,10.4,4,14-0.8
		c-3.2,1.6-7.2,3.2-10.8,1.6c-3.2-1.6-6-4.8-5.6-8.8c-0.4,6.4,6,11.2,12,10c5.2-1.2,8.4-7.2,5.2-12.4c-1.6-2.4-3.6-3.2-6-3.2
		s-4.4,2-4.8,4c-0.4,2,0,4.4,2.4,5.2c1.2,0.4,2.8,0,3.2-1.6c0-1.2-3.2-2.4-1.362-3.528C11.672,6.093,13.19,6.283,14.838,7.681"/>
	<path style="clip-path:url(#SVGID_2_);fill:#424242;" d="M11.092,5.764c0.946,1.088,3.346,1.088,3.346,3.088c0,2.4-2,4.8-4.4,5.2
		c-2.8,0.4-5.2-1.6-6-4.4c-0.8-3.2,0.8-5.6,2.8-7.6c4.8-4,12,0,12.8,6c0.8,5.2-3.2,10-8.4,10.4c-3.2,0.4-6.4-0.4-8.8-2.4
		c6,5.2,16.4,2.8,17.6-5.6c0.4-4-1.6-7.6-5.2-9.2c-4-1.6-8.8,0-10.4,4c-1.6,4.4,2,9.2,6.4,8.8c2.8-0.4,5.2-3.6,3.978-6.417
		L11.092,5.764z"/>
	<path style="clip-path:url(#SVGID_2_);fill:#FFFFFF;" d="M14.385,8.016c-1.547-0.363-2.748-1.963-4.347-0.363
		c1.2-1.2,2.8-0.8,3.2,0.8c0.8,2-0.8,3.2-2.4,4.4c0.4-0.4,0.4-0.4,0.799-0.8c-4,1.2-7.199-2.8-6-6c1.201-3.2,5.201-4.8,8.401-3.6
		c-2-0.8-4.8-0.8-6.401,0.8c-2.399,2.4-2.799,6.4-0.399,9.2c-3.2-3.2-2.4-8.8,1.6-10.8c-2,1.2-3.6,2.8-4,5.2c-0.4,2.8,1.2,5.6,4,6.4
		c2,0.4,4-1.2,4.831-2.952C14.057,8.929,14.385,8.016,14.385,8.016"/>
</g>
</svg>
