<?xml version="1.0" encoding="iso-8859-1"?>
<!-- Generator: Adobe Illustrator 22.0.1, SVG Export Plug-In . SVG Version: 6.00 Build 0)  -->
<svg version="1.1" id="&#x56FE;&#x5C42;_1" xmlns="http://www.w3.org/2000/svg" xmlns:xlink="http://www.w3.org/1999/xlink" x="0px"
	 y="0px" viewBox="0 0 36.775 37.84" style="enable-background:new 0 0 36.775 37.84;" xml:space="preserve">
<g>
	<defs>
		<rect id="SVGID_1_" y="0" width="36.775" height="37.84"/>
	</defs>
	<clipPath id="SVGID_2_">
		<use xlink:href="#SVGID_1_"  style="overflow:visible;"/>
	</clipPath>
	<path style="clip-path:url(#SVGID_2_);" d="M28.176,19.448C28.8,25.04,24.8,29.04,20,31.44c6.4-1.6,11.2-5.6,12-12
		c-1.6,2.4-1.6,5.6-4,8c1.6-4,0.8-8-0.911-12.017L28.176,19.448z"/>
	<path style="clip-path:url(#SVGID_2_);fill:#336699;" d="M32.015,17.572C32.8,18.64,32.8,19.44,33.6,20.24c-2.4-4-4.8-8.8-9.6-8.8
		c-4,0-6.4,4-5.6,8c0.8-4.8,5.6-9.6,10.445-5.357C30.871,15.757,32.015,17.572,32.015,17.572"/>
	<path style="clip-path:url(#SVGID_2_);" d="M15.765,11.113c-0.564,1.127-0.564,2.727-1.365,3.527c0-4,2.4-8,6.4-9.6
		c-0.8,0-0.8-0.8-1.599-0.8C22.4,5.04,25.6,1.04,28,5.04c-2.4,0.8-4.799,1.6-7.048,2.071C17.891,8.914,15.765,11.113,15.765,11.113"
		/>
	<path style="clip-path:url(#SVGID_2_);" d="M24.91,15.861c-2.51,2.779-5.709,2.779-8.11,1.179c-4.8-3.2-1.599-10.4,0-14.4
		c-0.8,0-0.8,0.8-1.599,0.8C20-0.56,26.4,0.24,32,1.04c-8-2.4-16.799-0.8-22.4,6.4c-4,5.6-3.2,13.6,2.4,18.4
		c4.8,4,12.8,3.2,15.201-3.2c0-1.6,0-2.4,0.218-4.169C26.821,17.318,25.958,16.407,24.91,15.861"/>
	<path style="clip-path:url(#SVGID_2_);fill:#303030;" d="M32.685,1.232C25.6-1.36,17.6,0.24,12.8,5.84c1.6-2.4,2.4,0.8,2.4,0.8
		c0.8,3.2-3.2,5.6-2.4,8.8c0.8-4.8,4.8-8,4.8-12.8c0,0-1.6,0-2.4,0.8c2.4-1.6,4.8-2.4,7.219-2.969
		C27.281,0.138,32.685,1.232,32.685,1.232"/>
	<path style="clip-path:url(#SVGID_2_);fill:#303030;" d="M15.75,11.127C16,11.44,15.2,12.24,15.2,12.24c2.4-5.6,9.6-8.8,15.2-6.4
		c-0.8-0.8-2.4-1.6-3.2-2.4c0,0.8,0.8,0.8,0.8,1.6c-2.4,0.8-4.8,1.6-7.039,2.074C17.884,8.922,15.75,11.127,15.75,11.127"/>
	<path style="clip-path:url(#SVGID_2_);fill:#303030;" d="M13.399,14.705c1-4.064,4.201-5.664,7.4-7.264c5.6-1.6,12,1.6,14.401,6.4
		c4,10.4-3.2,22.4-14.401,24c4.801-0.8,7.201-4.8,10.401-7.2c-12,8-29.6,0.8-31.2-13.6c2.399,8,8.799,15.2,17.6,14.4
		c5.6,0,12-5.6,10.4-11.2c-1.601-4-6.4-2.4-9.125-0.212C16.82,19.738,14.705,18.007,13.399,14.705"/>
	<path style="clip-path:url(#SVGID_2_);fill:#424242;" d="M14.851,18.671C15.201,14.64,16,10.64,20,9.041
		c8.8-4,16.8,4.799,16,12.799c-0.799,8-7.2,14.4-15.2,16c9.6-2.399,20-13.6,14.401-24c-2.401-5.6-9.6-7.2-15.201-5.6
		c-3.2,1.6-4.799,4-6.599,6.51L14.851,18.671z"/>
	<path style="clip-path:url(#SVGID_2_);fill:#FFFFFF;" d="M16.069,14.191C16,15.441,16.8,17.84,18.4,18.64
		c-2.4-2.4,0.8-5.599,3.2-5.599s4,1.599,5.6,2.4c0-0.801-0.8-2.4-0.8-3.201c6.4,2.4,4.8,9.6,4.8,14.4c1.6-4.8,2.4-12-3.2-15.199
		c4,0.799,4.8,4.799,6.4,8c0.8-7.201-7.2-10.4-12.58-9.209L16.069,14.191z"/>
</g>
</svg>
