<?xml version="1.0" encoding="iso-8859-1"?>
<!-- Generator: Adobe Illustrator 22.0.1, SVG Export Plug-In . SVG Version: 6.00 Build 0)  -->
<svg version="1.1" id="&#x56FE;&#x5C42;_1" xmlns="http://www.w3.org/2000/svg" xmlns:xlink="http://www.w3.org/1999/xlink" x="0px"
	 y="0px" viewBox="0 0 255.443 135.886" style="enable-background:new 0 0 255.443 135.886;" xml:space="preserve">
<g>
	<defs>
		<rect id="SVGID_1_" width="255.443" height="135.886"/>
	</defs>
	<clipPath id="SVGID_2_">
		<use xlink:href="#SVGID_1_"  style="overflow:visible;"/>
	</clipPath>
	<path style="clip-path:url(#SVGID_2_);fill:#F2100C;" d="M58.221,29.32v2.016c0,14.905-12.097,27.003-27.002,27.003
		S4.288,46.241,4.288,31.336S16.313,4.334,31.219,4.334c7.416,0,14.113,3.024,19.01,7.849l-10.01,9.936c-2.304-2.16-5.328-3.6-9-3.6
		c-6.769,0-12.745,5.401-12.745,12.817c0,7.417,6.12,12.817,12.745,12.817c4.248,0,8.208-2.088,10.44-5.328h-10.44V29.32H58.221z"/>
	<path style="clip-path:url(#SVGID_2_);fill:none;stroke:#000000;stroke-width:8;stroke-miterlimit:10;" d="M58.221,29.32v2.016
		c0,14.905-12.097,27.003-27.002,27.003S4.288,46.241,4.288,31.336S16.313,4.334,31.219,4.334c7.416,0,14.113,3.024,19.01,7.849
		l-10.01,9.936c-2.304-2.16-5.328-3.6-9-3.6c-6.769,0-12.745,5.401-12.745,12.817c0,7.417,6.12,12.817,12.745,12.817
		c4.248,0,8.208-2.088,10.44-5.328h-10.44V29.32H58.221z"/>
	<path style="clip-path:url(#SVGID_2_);fill:#F2100C;" d="M62.391,58.339L87.593,4.334h6.409l25.418,54.005h-14.185l-3.312-7.057
		H79.817l-3.24,7.057H62.391z M85.361,39.329h11.017l-5.472-11.881L85.361,39.329z"/>
	<path style="clip-path:url(#SVGID_2_);fill:none;stroke:#000000;stroke-width:8;stroke-miterlimit:10;" d="M62.391,58.339
		L87.593,4.334h6.409l25.418,54.005h-14.185l-3.312-7.057H79.817l-3.24,7.057H62.391z M85.361,39.329h11.017l-5.472-11.881
		L85.361,39.329z"/>
	<polygon style="clip-path:url(#SVGID_2_);fill:#F2100C;" points="161.15,24.351 183.112,4.333 189.52,4.333 189.52,58.338 
		175.263,58.338 175.263,30.616 161.15,43.504 146.964,30.688 146.964,58.338 132.708,58.338 132.708,4.333 139.116,4.333 	"/>
	<polygon style="clip-path:url(#SVGID_2_);fill:none;stroke:#000000;stroke-width:8;stroke-miterlimit:10;" points="161.15,24.351 
		183.112,4.333 189.52,4.333 189.52,58.338 175.263,58.338 175.263,30.616 161.15,43.504 146.964,30.688 146.964,58.338 
		132.708,58.338 132.708,4.333 139.116,4.333 	"/>
	<path style="clip-path:url(#SVGID_2_);fill:#F2100C;" d="M30.93,77.881c14.905,0,27.002,12.169,27.002,27.074
		s-12.097,26.931-27.002,26.931S3.999,119.86,3.999,104.955S16.025,77.881,30.93,77.881 M30.93,91.994
		c-7.057,0-12.817,5.761-12.817,12.89c0,7.056,5.76,12.888,12.817,12.888c7.128,0,12.889-5.832,12.889-12.888
		C43.819,97.755,38.058,91.994,30.93,91.994"/>
	<path style="clip-path:url(#SVGID_2_);fill:none;stroke:#000000;stroke-width:8;stroke-miterlimit:10;" d="M30.93,77.881
		c14.905,0,27.002,12.169,27.002,27.074s-12.097,26.931-27.002,26.931S3.999,119.86,3.999,104.955S16.025,77.881,30.93,77.881z
		 M30.93,91.994c-7.057,0-12.817,5.761-12.817,12.89c0,7.056,5.76,12.888,12.817,12.888c7.128,0,12.889-5.832,12.889-12.888
		C43.819,97.755,38.058,91.994,30.93,91.994z"/>
	<polygon style="clip-path:url(#SVGID_2_);fill:#F2100C;" points="119.276,77.809 94.146,131.885 87.666,131.885 62.463,77.809 
		76.72,77.809 90.906,108.556 105.163,77.809 	"/>
	<polygon style="clip-path:url(#SVGID_2_);fill:none;stroke:#000000;stroke-width:8;stroke-miterlimit:10;" points="119.276,77.809 
		94.146,131.885 87.666,131.885 62.463,77.809 76.72,77.809 90.906,108.556 105.163,77.809 	"/>
	<polygon style="clip-path:url(#SVGID_2_);fill:#F2100C;" points="138.325,77.881 180.525,77.881 180.525,89.618 151.121,89.618 
		151.121,98.403 177.718,98.403 177.718,110.356 151.121,110.356 151.121,120.293 180.525,120.293 180.525,131.886 138.325,131.886 
			"/>
	<polygon style="clip-path:url(#SVGID_2_);fill:none;stroke:#000000;stroke-width:8;stroke-miterlimit:10;" points="138.325,77.881 
		180.525,77.881 180.525,89.618 151.121,89.618 151.121,98.403 177.718,98.403 177.718,110.356 151.121,110.356 151.121,120.293 
		180.525,120.293 180.525,131.886 138.325,131.886 	"/>
	<polygon style="clip-path:url(#SVGID_2_);fill:#F2100C;" points="202.169,4 244.369,4 244.369,15.737 214.965,15.737 
		214.965,24.523 241.562,24.523 241.562,36.475 214.965,36.475 214.965,46.413 244.369,46.413 244.369,58.005 202.169,58.005 	"/>
	<polygon style="clip-path:url(#SVGID_2_);fill:none;stroke:#000000;stroke-width:8;stroke-miterlimit:10;" points="202.169,4 
		244.369,4 244.369,15.737 214.965,15.737 214.965,24.523 241.562,24.523 241.562,36.475 214.965,36.475 214.965,46.413 
		244.369,46.413 244.369,58.005 202.169,58.005 	"/>
	<path style="clip-path:url(#SVGID_2_);fill:#F2100C;" d="M232.126,131.552l-8.353-14.329h-8.785v14.329h-14.185V77.547h22.754
		c10.945,0,19.874,8.929,19.874,19.874c0,5.761-2.52,10.946-6.409,14.545l11.449,19.586H232.126z M214.988,104.982h8.785
		c4.32,0,7.777-3.385,7.777-7.705c0-4.32-3.457-7.776-7.777-7.776h-8.785V104.982z"/>
	<path style="clip-path:url(#SVGID_2_);fill:none;stroke:#000000;stroke-width:8;stroke-miterlimit:10;" d="M232.126,131.552
		l-8.353-14.329h-8.785v14.329h-14.185V77.547h22.754c10.945,0,19.874,8.929,19.874,19.874c0,5.761-2.52,10.946-6.409,14.545
		l11.449,19.586H232.126z M214.988,104.982h8.785c4.32,0,7.777-3.385,7.777-7.705c0-4.32-3.457-7.776-7.777-7.776h-8.785V104.982z"
		/>
	<path style="clip-path:url(#SVGID_2_);fill:#EF0000;" d="M58.221,29.32v2.016c0,14.905-12.097,27.003-27.002,27.003
		S4.288,46.241,4.288,31.336S16.313,4.334,31.219,4.334c7.416,0,14.113,3.024,19.01,7.849l-10.01,9.936c-2.304-2.16-5.328-3.6-9-3.6
		c-6.769,0-12.745,5.401-12.745,12.817c0,7.417,6.12,12.817,12.745,12.817c4.248,0,8.208-2.088,10.44-5.328h-10.44V29.32H58.221z"/>
	<path style="clip-path:url(#SVGID_2_);fill:#EF0000;" d="M62.391,58.339L87.593,4.334h6.409l25.418,54.005h-14.185l-3.312-7.057
		H79.817l-3.24,7.057H62.391z M85.361,39.329h11.017l-5.472-11.881L85.361,39.329z"/>
	<polygon style="clip-path:url(#SVGID_2_);fill:#EF0000;" points="161.15,24.351 183.112,4.333 189.52,4.333 189.52,58.338 
		175.263,58.338 175.263,30.616 161.15,43.504 146.964,30.688 146.964,58.338 132.708,58.338 132.708,4.333 139.116,4.333 	"/>
	<path style="clip-path:url(#SVGID_2_);fill:#EF0000;" d="M30.93,77.881c14.905,0,27.002,12.169,27.002,27.074
		s-12.097,26.931-27.002,26.931S3.999,119.86,3.999,104.955S16.025,77.881,30.93,77.881 M30.93,91.994
		c-7.057,0-12.817,5.761-12.817,12.89c0,7.056,5.76,12.888,12.817,12.888c7.128,0,12.889-5.832,12.889-12.888
		C43.819,97.755,38.058,91.994,30.93,91.994"/>
	<polygon style="clip-path:url(#SVGID_2_);fill:#EF0000;" points="119.276,77.809 94.146,131.885 87.666,131.885 62.463,77.809 
		76.72,77.809 90.906,108.556 105.163,77.809 	"/>
	<polygon style="clip-path:url(#SVGID_2_);fill:#EF0000;" points="138.325,77.881 180.525,77.881 180.525,89.618 151.121,89.618 
		151.121,98.403 177.718,98.403 177.718,110.356 151.121,110.356 151.121,120.293 180.525,120.293 180.525,131.886 138.325,131.886 
			"/>
	<polygon style="clip-path:url(#SVGID_2_);fill:#EF0000;" points="202.169,4 244.369,4 244.369,15.737 214.965,15.737 
		214.965,24.523 241.562,24.523 241.562,36.475 214.965,36.475 214.965,46.413 244.369,46.413 244.369,58.005 202.169,58.005 	"/>
	<path style="clip-path:url(#SVGID_2_);fill:#EF0000;" d="M232.126,131.552l-8.353-14.329h-8.785v14.329h-14.185V77.547h22.754
		c10.945,0,19.874,8.929,19.874,19.874c0,5.761-2.52,10.946-6.409,14.545l11.449,19.586H232.126z M214.988,104.982h8.785
		c4.32,0,7.777-3.385,7.777-7.705c0-4.32-3.457-7.776-7.777-7.776h-8.785V104.982z"/>
</g>
</svg>
