<?xml version="1.0" encoding="iso-8859-1"?>
<!-- Generator: Adobe Illustrator 22.0.1, SVG Export Plug-In . SVG Version: 6.00 Build 0)  -->
<svg version="1.1" id="&#x56FE;&#x5C42;_1" xmlns="http://www.w3.org/2000/svg" xmlns:xlink="http://www.w3.org/1999/xlink" x="0px"
	 y="0px" viewBox="0 0 33.587 47.48" style="enable-background:new 0 0 33.587 47.48;" xml:space="preserve">
<polygon style="fill:#336699;" points="0,31.037 0.195,32.691 5.31,37.449 5.309,37.449 7.058,39.075 8.022,36.343 3.071,31.859 
	8.112,26.809 6.543,24.189 "/>
<polygon style="fill:#336699;" points="10.637,37.118 12.278,39.105 19.196,25.68 16.999,24.588 "/>
<polygon style="fill:#336699;" points="29.317,15.04 30.217,21.162 24.87,24.519 25.691,27.054 32.975,23.09 33.569,21.759 
	31.684,13.25 "/>
<g>
	<defs>
		<rect id="SVGID_1_" y="0" width="33.587" height="47.48"/>
	</defs>
	<clipPath id="SVGID_2_">
		<use xlink:href="#SVGID_1_"  style="overflow:visible;"/>
	</clipPath>
	<path style="clip-path:url(#SVGID_2_);fill:#336699;" d="M10.698,23.537c7.286,0.269,13.134-0.19,15.574-2.369
		c2.005-2.139,2.149-4.79,0.696-7.881c-0.799-2.017-2.043-3.846-4.061-5.349c-1.739-1.354-3.6-2.323-5.635-2.737l-2.287-4.94
		c-0.067-0.258-0.11-0.346-0.078-0.167c0.136,0.753,0.132,1.423-0.028,2.058c-0.181,0.655-0.528,1.29-1.04,1.908
		c-0.34,0.401-0.756,0.805-1.261,1.227c-4.636,0.806-7.04,3.482-9.014,6.521c-1.504,2.498-2.556,5.896-0.88,8.41
		c0.027,0.05,0.051,0.102,0.078,0.152c0.142,0.195,0.317,0.389,0.515,0.58c0.983,1.012,2.53,1.821,4.835,2.278
		c-0.075-0.031-0.143-0.068-0.216-0.1C8.73,23.313,9.657,23.457,10.698,23.537"/>
	<path style="clip-path:url(#SVGID_2_);fill:#274B63;" d="M14.867,0.035c0.994,2.408,1.745,4.546,1.554,5.626
		c8.357,2.394,14.546,12.77,8.533,16.373c6.391-3.112,1.838-14.76-7.714-16.875L14.867,0.035z"/>
	<polygon style="clip-path:url(#SVGID_2_);fill:#274B63;" points="25.695,27.03 25.45,26.277 32.692,22.684 33.266,21.659 
		31.689,13.22 33.588,21.74 32.995,23.071 	"/>
	<path style="clip-path:url(#SVGID_2_);fill:#EF3F3F;" d="M25.499,21.731l5.287,22.681c-8.381-5.11-19.448,7.699-30.787,1.166
		l5.44-23.169C11.275,24.258,17.985,23.604,25.499,21.731"/>
	<polygon style="clip-path:url(#SVGID_2_);fill:#FFC501;" points="15.401,31.074 20.426,26.494 21.893,26.494 21.893,38.851 
		18.63,38.851 18.63,32.509 15.401,35.457 12.155,32.524 12.155,38.851 8.893,38.851 8.893,26.494 10.359,26.494 	"/>
	<polygon style="clip-path:url(#SVGID_2_);fill:#D32929;" points="23.316,22.245 30.787,44.412 25.479,21.731 	"/>
</g>
</svg>
