<?xml version="1.0" encoding="iso-8859-1"?>
<!-- Generator: Adobe Illustrator 22.0.1, SVG Export Plug-In . SVG Version: 6.00 Build 0)  -->
<svg version="1.1" id="&#x56FE;&#x5C42;_1" xmlns="http://www.w3.org/2000/svg" xmlns:xlink="http://www.w3.org/1999/xlink" x="0px"
	 y="0px" viewBox="0 0 374.616 126.998" style="enable-background:new 0 0 374.616 126.998;" xml:space="preserve">
<polygon style="fill:#FFC501;" points="72.635,21.679 90.934,5 96.274,5 96.274,49.998 84.395,49.998 84.395,26.899 72.635,37.638 
	60.816,26.959 60.816,49.998 48.936,49.998 48.936,5 54.276,5 "/>
<g>
	<defs>
		<rect id="SVGID_1_" width="374.616" height="126.998"/>
	</defs>
	<clipPath id="SVGID_2_">
		<use xlink:href="#SVGID_1_"  style="overflow:visible;"/>
	</clipPath>
	<polygon style="clip-path:url(#SVGID_2_);fill:none;stroke:#000000;stroke-width:10;stroke-miterlimit:10;" points="72.635,21.679 
		90.934,5 96.274,5 96.274,49.998 84.395,49.998 84.395,26.899 72.635,37.638 60.816,26.959 60.816,49.998 48.936,49.998 48.936,5 
		54.276,5 	"/>
</g>
<rect x="109.276" y="5" style="fill:#FFC501;" width="11.819" height="44.998"/>
<g>
	<defs>
		<rect id="SVGID_3_" width="374.616" height="126.998"/>
	</defs>
	<clipPath id="SVGID_4_">
		<use xlink:href="#SVGID_3_"  style="overflow:visible;"/>
	</clipPath>
	
		<rect x="109.276" y="5" style="clip-path:url(#SVGID_4_);fill:none;stroke:#000000;stroke-width:10;stroke-miterlimit:10;" width="11.819" height="44.998"/>
	<path style="clip-path:url(#SVGID_4_);fill:#FFC501;" d="M151.997,18.799c0-1.86-1.766-3.42-3.872-3.42s-3.804,1.56-3.804,3.42
		c0,1.86,1.698,3.36,3.804,3.36c4.959,0,9.442,2.1,12.295,5.34c2.173,2.4,3.396,5.4,3.396,8.699c0,7.68-6.996,13.8-15.691,13.8
		c-8.694,0-15.69-6.06-15.69-13.98h11.886c0,1.92,1.698,3.42,3.804,3.42s3.872-1.5,3.872-3.36c0-1.86-1.766-3.42-3.872-3.42
		c-8.694,0-15.623-6.119-15.623-13.799S139.431,5,148.125,5c8.695,0,15.691,6.119,15.691,13.799H151.997z"/>
	<path style="clip-path:url(#SVGID_4_);fill:none;stroke:#000000;stroke-width:10;stroke-miterlimit:10;" d="M151.997,18.799
		c0-1.86-1.766-3.42-3.872-3.42s-3.804,1.56-3.804,3.42c0,1.86,1.698,3.36,3.804,3.36c4.959,0,9.442,2.1,12.295,5.34
		c2.173,2.4,3.396,5.4,3.396,8.699c0,7.68-6.996,13.8-15.691,13.8c-8.694,0-15.69-6.06-15.69-13.98h11.886
		c0,1.92,1.698,3.42,3.804,3.42s3.872-1.5,3.872-3.36c0-1.86-1.766-3.42-3.872-3.42c-8.694,0-15.623-6.119-15.623-13.799
		S139.431,5,148.125,5c8.695,0,15.691,6.119,15.691,13.799H151.997z"/>
	<path style="clip-path:url(#SVGID_4_);fill:#FFC501;" d="M196.075,18.799c0-1.86-1.766-3.42-3.872-3.42
		c-2.105,0-3.803,1.56-3.803,3.42c0,1.86,1.698,3.36,3.803,3.36c4.959,0,9.442,2.1,12.296,5.34c2.173,2.4,3.396,5.4,3.396,8.699
		c0,7.68-6.997,13.8-15.692,13.8c-8.694,0-15.69-6.06-15.69-13.98H188.4c0,1.92,1.698,3.42,3.803,3.42c2.106,0,3.872-1.5,3.872-3.36
		c0-1.86-1.766-3.42-3.872-3.42c-8.694,0-15.622-6.119-15.622-13.799S183.509,5,192.203,5c8.695,0,15.692,6.119,15.692,13.799
		H196.075z"/>
	<path style="clip-path:url(#SVGID_4_);fill:none;stroke:#000000;stroke-width:10;stroke-miterlimit:10;" d="M196.075,18.799
		c0-1.86-1.766-3.42-3.872-3.42c-2.105,0-3.803,1.56-3.803,3.42c0,1.86,1.698,3.36,3.803,3.36c4.959,0,9.442,2.1,12.296,5.34
		c2.173,2.4,3.396,5.4,3.396,8.699c0,7.68-6.997,13.8-15.692,13.8c-8.694,0-15.69-6.06-15.69-13.98H188.4
		c0,1.92,1.698,3.42,3.803,3.42c2.106,0,3.872-1.5,3.872-3.36c0-1.86-1.766-3.42-3.872-3.42c-8.694,0-15.622-6.119-15.622-13.799
		S183.509,5,192.203,5c8.695,0,15.692,6.119,15.692,13.799H196.075z"/>
	<rect x="219.543" y="5" style="clip-path:url(#SVGID_4_);fill:#FFC501;" width="11.818" height="44.998"/>
	
		<rect x="219.543" y="5" style="clip-path:url(#SVGID_4_);fill:none;stroke:#000000;stroke-width:10;stroke-miterlimit:10;" width="11.818" height="44.998"/>
	<path style="clip-path:url(#SVGID_4_);fill:#FFC501;" d="M264.961,5c12.42,0,22.498,10.139,22.498,22.559
		c0,12.419-10.078,22.439-22.498,22.439c-12.42,0-22.439-10.02-22.439-22.439C242.522,15.139,252.541,5,264.961,5 M264.961,16.759
		c-5.881,0-10.68,4.8-10.68,10.74c0,5.88,4.799,10.739,10.68,10.739c5.939,0,10.74-4.859,10.74-10.739
		C275.701,21.559,270.9,16.759,264.961,16.759"/>
	<path style="clip-path:url(#SVGID_4_);fill:none;stroke:#000000;stroke-width:10;stroke-miterlimit:10;" d="M264.961,5
		c12.42,0,22.498,10.139,22.498,22.559c0,12.419-10.078,22.439-22.498,22.439c-12.42,0-22.439-10.02-22.439-22.439
		C242.522,15.139,252.541,5,264.961,5z M264.961,16.759c-5.881,0-10.68,4.8-10.68,10.74c0,5.88,4.799,10.739,10.68,10.739
		c5.939,0,10.74-4.859,10.74-10.739C275.701,21.559,270.9,16.759,264.961,16.759z"/>
	<polygon style="clip-path:url(#SVGID_4_);fill:#FFC501;" points="331.739,49.998 310.501,28.699 310.501,49.998 298.68,49.998 
		298.68,5 303.481,5 324.78,26.239 324.78,5 336.6,5 336.6,49.998 	"/>
	<polygon style="clip-path:url(#SVGID_4_);fill:none;stroke:#000000;stroke-width:10;stroke-miterlimit:10;" points="
		331.739,49.998 310.501,28.699 310.501,49.998 298.68,49.998 298.68,5 303.481,5 324.78,26.239 324.78,5 336.6,5 336.6,49.998 	"/>
	<path style="clip-path:url(#SVGID_4_);fill:#FFC501;" d="M35.059,91.879c-1.86-1.86-4.5-2.94-7.56-2.94
		c-6.119,0-10.559,4.44-10.559,10.56c0,6.119,4.44,10.559,10.559,10.559c3.06,0,5.7-1.08,7.56-3l8.4,8.28
		c-4.08,4.08-9.72,6.66-15.96,6.66C15.08,121.998,5,111.918,5,99.499C5,87.079,15.08,77,27.499,77c6.18,0,11.76,2.46,15.84,6.539
		L35.059,91.879z"/>
	<path style="clip-path:url(#SVGID_4_);fill:none;stroke:#000000;stroke-width:10;stroke-miterlimit:10;" d="M35.059,91.879
		c-1.86-1.86-4.5-2.94-7.56-2.94c-6.119,0-10.559,4.44-10.559,10.56c0,6.119,4.44,10.559,10.559,10.559c3.06,0,5.7-1.08,7.56-3
		l8.4,8.28c-4.08,4.08-9.72,6.66-15.96,6.66C15.08,121.998,5,111.918,5,99.499C5,87.079,15.08,77,27.499,77
		c6.18,0,11.76,2.46,15.84,6.539L35.059,91.879z"/>
	<path style="clip-path:url(#SVGID_4_);fill:#FFC501;" d="M76.099,77c12.419,0,22.499,10.139,22.499,22.559
		c0,12.419-10.08,22.439-22.499,22.439c-12.42,0-22.439-10.02-22.439-22.439C53.66,87.139,63.679,77,76.099,77 M76.099,88.759
		c-5.88,0-10.68,4.8-10.68,10.74c0,5.88,4.8,10.739,10.68,10.739c5.939,0,10.739-4.859,10.739-10.739
		C86.838,93.559,82.038,88.759,76.099,88.759"/>
	<path style="clip-path:url(#SVGID_4_);fill:none;stroke:#000000;stroke-width:10;stroke-miterlimit:10;" d="M76.099,77
		c12.419,0,22.499,10.139,22.499,22.559c0,12.419-10.08,22.439-22.499,22.439c-12.42,0-22.439-10.02-22.439-22.439
		C53.66,87.139,63.679,77,76.099,77z M76.099,88.759c-5.88,0-10.68,4.8-10.68,10.74c0,5.88,4.8,10.739,10.68,10.739
		c5.939,0,10.739-4.859,10.739-10.739C86.838,93.559,82.038,88.759,76.099,88.759z"/>
	<polygon style="clip-path:url(#SVGID_4_);fill:#FFC501;" points="133.518,93.679 151.817,77 157.157,77 157.157,121.998 
		145.278,121.998 145.278,98.899 133.518,109.638 121.699,98.959 121.699,121.998 109.819,121.998 109.819,77 115.159,77 	"/>
	<polygon style="clip-path:url(#SVGID_4_);fill:none;stroke:#000000;stroke-width:10;stroke-miterlimit:10;" points="
		133.518,93.679 151.817,77 157.157,77 157.157,121.998 145.278,121.998 145.278,98.899 133.518,109.638 121.699,98.959 
		121.699,121.998 109.819,121.998 109.819,77 115.159,77 	"/>
	<path style="clip-path:url(#SVGID_4_);fill:#FFC501;" d="M169.218,77h18.96c9.119,0,16.559,7.44,16.559,16.559
		c0,9.06-7.38,16.5-16.32,16.5h-7.379v11.939h-11.82V77z M181.038,99.859h7.32c3.599,0,6.479-2.82,6.479-6.42
		c0-3.6-2.88-6.479-6.479-6.479h-7.32V99.859z"/>
	<path style="clip-path:url(#SVGID_4_);fill:none;stroke:#000000;stroke-width:10;stroke-miterlimit:10;" d="M169.218,77h18.96
		c9.119,0,16.559,7.44,16.559,16.559c0,9.06-7.38,16.5-16.32,16.5h-7.379v11.939h-11.82V77z M181.038,99.859h7.32
		c3.599,0,6.479-2.82,6.479-6.42c0-3.6-2.88-6.479-6.479-6.479h-7.32V99.859z"/>
	<polygon style="clip-path:url(#SVGID_4_);fill:#FFC501;" points="217.097,77 228.916,77 228.916,110.119 245.117,110.119 
		245.117,121.998 217.097,121.998 	"/>
	<polygon style="clip-path:url(#SVGID_4_);fill:none;stroke:#000000;stroke-width:10;stroke-miterlimit:10;" points="217.097,77 
		228.916,77 228.916,110.119 245.117,110.119 245.117,121.998 217.097,121.998 	"/>
	<polygon style="clip-path:url(#SVGID_4_);fill:#FFC501;" points="256.577,77 284.536,77 284.536,86.779 268.396,86.779 
		268.396,94.099 282.677,94.099 282.677,104.059 268.396,104.059 268.396,112.338 284.536,112.338 284.536,121.998 256.577,121.998 
			"/>
	<polygon style="clip-path:url(#SVGID_4_);fill:none;stroke:#000000;stroke-width:10;stroke-miterlimit:10;" points="256.577,77 
		284.536,77 284.536,86.779 268.396,86.779 268.396,94.099 282.677,94.099 282.677,104.059 268.396,104.059 268.396,112.338 
		284.536,112.338 284.536,121.998 256.577,121.998 	"/>
	<polygon style="clip-path:url(#SVGID_4_);fill:#FFC501;" points="295.037,76.94 330.496,76.94 330.496,88.699 318.557,88.699 
		318.557,121.998 306.737,121.998 306.737,88.699 295.037,88.699 	"/>
	<polygon style="clip-path:url(#SVGID_4_);fill:none;stroke:#000000;stroke-width:10;stroke-miterlimit:10;" points="295.037,76.94 
		330.496,76.94 330.496,88.699 318.557,88.699 318.557,121.998 306.737,121.998 306.737,88.699 295.037,88.699 	"/>
	<polygon style="clip-path:url(#SVGID_4_);fill:#FFC501;" points="341.657,77 369.616,77 369.616,86.779 353.476,86.779 
		353.476,94.099 367.757,94.099 367.757,104.059 353.476,104.059 353.476,112.338 369.616,112.338 369.616,121.998 341.657,121.998 
			"/>
	<polygon style="clip-path:url(#SVGID_4_);fill:none;stroke:#000000;stroke-width:10;stroke-miterlimit:10;" points="341.657,77 
		369.616,77 369.616,86.779 353.476,86.779 353.476,94.099 367.757,94.099 367.757,104.059 353.476,104.059 353.476,112.338 
		369.616,112.338 369.616,121.998 341.657,121.998 	"/>
</g>
<g>
	<defs>
		<polygon id="SVGID_5_" points="90.934,5 72.635,21.679 54.276,5 48.937,5 48.937,49.998 60.816,49.998 60.816,26.958 
			72.635,37.639 84.395,26.899 84.395,49.998 96.275,49.998 96.275,5 		"/>
	</defs>
	<clipPath id="SVGID_6_">
		<use xlink:href="#SVGID_5_"  style="overflow:visible;"/>
	</clipPath>
	
		<linearGradient id="SVGID_7_" gradientUnits="userSpaceOnUse" x1="1.007305e-05" y1="126.998" x2="1" y2="126.998" gradientTransform="matrix(47.3379 0 0 -47.3379 48.9365 6039.3164)">
		<stop  offset="0" style="stop-color:#FFC501"/>
		<stop  offset="1" style="stop-color:#FF812E"/>
	</linearGradient>
	<rect x="48.937" y="5" style="clip-path:url(#SVGID_6_);fill:url(#SVGID_7_);" width="47.338" height="44.998"/>
</g>
<g>
	<defs>
		<rect id="SVGID_8_" x="109.276" y="5.001" width="11.819" height="44.997"/>
	</defs>
	<clipPath id="SVGID_9_">
		<use xlink:href="#SVGID_8_"  style="overflow:visible;"/>
	</clipPath>
	
		<linearGradient id="SVGID_10_" gradientUnits="userSpaceOnUse" x1="1.032802e-05" y1="126.998" x2="1" y2="126.998" gradientTransform="matrix(11.8193 0 0 -11.8193 109.2759 1528.531)">
		<stop  offset="0" style="stop-color:#FFC501"/>
		<stop  offset="1" style="stop-color:#FF812E"/>
	</linearGradient>
	<rect x="109.276" y="5.001" style="clip-path:url(#SVGID_9_);fill:url(#SVGID_10_);" width="11.819" height="44.997"/>
</g>
<g>
	<defs>
		<path id="SVGID_11_" d="M132.503,18.859c0,7.68,6.928,13.799,15.623,13.799c2.105,0,3.871,1.561,3.871,3.42
			c0,1.86-1.766,3.361-3.871,3.361c-2.106,0-3.805-1.501-3.805-3.42h-11.886c0,7.92,6.996,13.979,15.691,13.979
			c8.694,0,15.69-6.12,15.69-13.799c0-3.301-1.223-6.3-3.396-8.7c-2.853-3.24-7.336-5.34-12.294-5.34c-2.106,0-3.805-1.5-3.805-3.36
			c0-1.859,1.699-3.42,3.805-3.42c2.105,0,3.871,1.561,3.871,3.42h11.819c0-7.68-6.996-13.799-15.69-13.799
			C139.431,5,132.503,11.18,132.503,18.859"/>
	</defs>
	<clipPath id="SVGID_12_">
		<use xlink:href="#SVGID_11_"  style="overflow:visible;"/>
	</clipPath>
	
		<linearGradient id="SVGID_13_" gradientUnits="userSpaceOnUse" x1="1.312830e-05" y1="126.998" x2="1" y2="126.998" gradientTransform="matrix(31.3816 0 0 -31.3816 132.4346 4012.9019)">
		<stop  offset="0" style="stop-color:#FFC501"/>
		<stop  offset="1" style="stop-color:#FF812E"/>
	</linearGradient>
	<rect x="132.435" y="5" style="clip-path:url(#SVGID_12_);fill:url(#SVGID_13_);" width="31.381" height="44.998"/>
</g>
<g>
	<defs>
		<path id="SVGID_14_" d="M176.581,18.859c0,7.68,6.928,13.799,15.622,13.799c2.106,0,3.872,1.561,3.872,3.42
			c0,1.86-1.766,3.361-3.872,3.361c-2.105,0-3.803-1.501-3.803-3.42h-11.888c0,7.92,6.997,13.979,15.691,13.979
			c8.695,0,15.692-6.12,15.692-13.799c0-3.301-1.224-6.3-3.396-8.7c-2.854-3.24-7.338-5.34-12.296-5.34
			c-2.105,0-3.803-1.5-3.803-3.36c0-1.859,1.698-3.42,3.803-3.42c2.106,0,3.872,1.561,3.872,3.42h11.82
			c0-7.68-6.997-13.799-15.692-13.799C183.509,5,176.581,11.18,176.581,18.859"/>
	</defs>
	<clipPath id="SVGID_15_">
		<use xlink:href="#SVGID_14_"  style="overflow:visible;"/>
	</clipPath>
	
		<linearGradient id="SVGID_16_" gradientUnits="userSpaceOnUse" x1="-1.215562e-05" y1="126.998" x2="1" y2="126.998" gradientTransform="matrix(31.3822 0 0 -31.3822 176.5124 4012.9719)">
		<stop  offset="0" style="stop-color:#FFC501"/>
		<stop  offset="1" style="stop-color:#FF812E"/>
	</linearGradient>
	<rect x="176.512" y="5" style="clip-path:url(#SVGID_15_);fill:url(#SVGID_16_);" width="31.383" height="44.998"/>
</g>
<g>
	<defs>
		<rect id="SVGID_17_" x="219.543" y="5.001" width="11.819" height="44.997"/>
	</defs>
	<clipPath id="SVGID_18_">
		<use xlink:href="#SVGID_17_"  style="overflow:visible;"/>
	</clipPath>
	
		<linearGradient id="SVGID_19_" gradientUnits="userSpaceOnUse" x1="2.582005e-06" y1="126.998" x2="1" y2="126.998" gradientTransform="matrix(11.8193 0 0 -11.8193 219.543 1528.531)">
		<stop  offset="0" style="stop-color:#FFC501"/>
		<stop  offset="1" style="stop-color:#FF812E"/>
	</linearGradient>
	<rect x="219.543" y="5.001" style="clip-path:url(#SVGID_18_);fill:url(#SVGID_19_);" width="11.819" height="44.997"/>
</g>
<g>
	<defs>
		<path id="SVGID_20_" d="M254.281,27.499c0-5.94,4.799-10.74,10.681-10.74c5.939,0,10.739,4.8,10.739,10.74
			c0,5.88-4.8,10.739-10.739,10.739C259.08,38.238,254.281,33.379,254.281,27.499 M242.522,27.559
			c0,12.42,10.02,22.439,22.44,22.439c12.419,0,22.497-10.019,22.497-22.439C287.459,15.14,277.381,5,264.962,5
			C252.542,5,242.522,15.14,242.522,27.559"/>
	</defs>
	<clipPath id="SVGID_21_">
		<use xlink:href="#SVGID_20_"  style="overflow:visible;"/>
	</clipPath>
	
		<linearGradient id="SVGID_22_" gradientUnits="userSpaceOnUse" x1="-1.086579e-05" y1="126.998" x2="1" y2="126.998" gradientTransform="matrix(44.9375 0 0 -44.9375 242.5225 5734.4717)">
		<stop  offset="0" style="stop-color:#FFC501"/>
		<stop  offset="1" style="stop-color:#FF812E"/>
	</linearGradient>
	<rect x="242.522" y="5" style="clip-path:url(#SVGID_21_);fill:url(#SVGID_22_);" width="44.937" height="44.998"/>
</g>
<g>
	<defs>
		<polygon id="SVGID_23_" points="324.779,5 324.779,26.238 303.481,5 298.68,5 298.68,49.998 310.501,49.998 310.501,28.698 
			331.739,49.998 336.6,49.998 336.6,5 		"/>
	</defs>
	<clipPath id="SVGID_24_">
		<use xlink:href="#SVGID_23_"  style="overflow:visible;"/>
	</clipPath>
	
		<linearGradient id="SVGID_25_" gradientUnits="userSpaceOnUse" x1="-1.851065e-05" y1="126.998" x2="1" y2="126.998" gradientTransform="matrix(37.9189 0 0 -37.9189 298.6807 4843.1294)">
		<stop  offset="0" style="stop-color:#FFC501"/>
		<stop  offset="1" style="stop-color:#FF812E"/>
	</linearGradient>
	<rect x="298.68" y="5" style="clip-path:url(#SVGID_24_);fill:url(#SVGID_25_);" width="37.92" height="44.998"/>
</g>
<g>
	<defs>
		<path id="SVGID_26_" d="M5,99.499c0,12.42,10.079,22.499,22.499,22.499c6.24,0,11.88-2.58,15.959-6.66l-8.399-8.279
			c-1.861,1.919-4.5,2.999-7.56,2.999c-6.119,0-10.559-4.44-10.559-10.559c0-6.12,4.44-10.559,10.559-10.559
			c3.06,0,5.699,1.08,7.56,2.939l8.28-8.339c-4.081-4.08-9.66-6.54-15.84-6.54C15.079,77,5,87.079,5,99.499"/>
	</defs>
	<clipPath id="SVGID_27_">
		<use xlink:href="#SVGID_26_"  style="overflow:visible;"/>
	</clipPath>
	
		<linearGradient id="SVGID_28_" gradientUnits="userSpaceOnUse" x1="0" y1="127.0569" x2="1" y2="127.0569" gradientTransform="matrix(27.6652 -26.715 -26.715 -27.6652 3404.3181 3628.3044)">
		<stop  offset="0" style="stop-color:#FFC501"/>
		<stop  offset="1" style="stop-color:#FF812E"/>
	</linearGradient>
	<polygon style="clip-path:url(#SVGID_27_);fill:url(#SVGID_28_);" points="-17.485,98.713 24.901,57.783 65.943,100.285 
		23.557,141.215 	"/>
</g>
<g>
	<defs>
		<path id="SVGID_29_" d="M65.419,99.499c0-5.94,4.8-10.74,10.681-10.74c5.939,0,10.738,4.8,10.738,10.74
			c0,5.88-4.799,10.739-10.738,10.739C70.219,110.238,65.419,105.379,65.419,99.499 M53.66,99.559
			c0,12.42,10.02,22.439,22.44,22.439c12.419,0,22.498-10.019,22.498-22.439C98.598,87.14,88.519,77,76.1,77
			C63.68,77,53.66,87.14,53.66,99.559"/>
	</defs>
	<clipPath id="SVGID_30_">
		<use xlink:href="#SVGID_29_"  style="overflow:visible;"/>
	</clipPath>
	
		<linearGradient id="SVGID_31_" gradientUnits="userSpaceOnUse" x1="7.300290e-06" y1="126.998" x2="1" y2="126.998" gradientTransform="matrix(44.9385 0 0 -44.9385 53.6597 5806.5957)">
		<stop  offset="0" style="stop-color:#FFC501"/>
		<stop  offset="1" style="stop-color:#FF812E"/>
	</linearGradient>
	<rect x="53.66" y="77" style="clip-path:url(#SVGID_30_);fill:url(#SVGID_31_);" width="44.938" height="44.998"/>
</g>
<g>
	<defs>
		<polygon id="SVGID_32_" points="151.817,77 133.518,93.679 115.159,77 109.819,77 109.819,121.998 121.699,121.998 
			121.699,98.958 133.518,109.639 145.278,98.899 145.278,121.998 157.157,121.998 157.157,77 		"/>
	</defs>
	<clipPath id="SVGID_33_">
		<use xlink:href="#SVGID_32_"  style="overflow:visible;"/>
	</clipPath>
	
		<linearGradient id="SVGID_34_" gradientUnits="userSpaceOnUse" x1="3.223345e-06" y1="126.998" x2="1" y2="126.998" gradientTransform="matrix(47.3384 0 0 -47.3384 109.8188 6111.3784)">
		<stop  offset="0" style="stop-color:#FFC501"/>
		<stop  offset="1" style="stop-color:#FF812E"/>
	</linearGradient>
	<rect x="109.819" y="77" style="clip-path:url(#SVGID_33_);fill:url(#SVGID_34_);" width="47.338" height="44.998"/>
</g>
<g>
	<defs>
		<path id="SVGID_35_" d="M181.038,86.96h7.32c3.599,0,6.479,2.879,6.479,6.479s-2.88,6.42-6.479,6.42h-7.32V86.96z M169.218,77
			v44.998h11.82v-11.94h7.38c8.938,0,16.318-7.439,16.318-16.499c0-9.119-7.439-16.559-16.559-16.559H169.218z"/>
	</defs>
	<clipPath id="SVGID_36_">
		<use xlink:href="#SVGID_35_"  style="overflow:visible;"/>
	</clipPath>
	
		<linearGradient id="SVGID_37_" gradientUnits="userSpaceOnUse" x1="-7.732810e-06" y1="126.998" x2="1" y2="126.998" gradientTransform="matrix(35.5186 0 0 -35.5186 169.2183 4610.2847)">
		<stop  offset="0" style="stop-color:#FFC501"/>
		<stop  offset="1" style="stop-color:#FF812E"/>
	</linearGradient>
	<rect x="169.218" y="77" style="clip-path:url(#SVGID_36_);fill:url(#SVGID_37_);" width="35.518" height="44.998"/>
</g>
<g>
	<defs>
		<polygon id="SVGID_38_" points="217.097,77 217.097,121.998 245.117,121.998 245.117,110.118 228.917,110.118 228.917,77 		"/>
	</defs>
	<clipPath id="SVGID_39_">
		<use xlink:href="#SVGID_38_"  style="overflow:visible;"/>
	</clipPath>
	
		<linearGradient id="SVGID_40_" gradientUnits="userSpaceOnUse" x1="-6.534923e-06" y1="126.998" x2="1" y2="126.998" gradientTransform="matrix(28.0195 0 0 -28.0195 217.0972 3657.9233)">
		<stop  offset="0" style="stop-color:#FFC501"/>
		<stop  offset="1" style="stop-color:#FF812E"/>
	</linearGradient>
	<rect x="217.097" y="77" style="clip-path:url(#SVGID_39_);fill:url(#SVGID_40_);" width="28.02" height="44.998"/>
</g>
<g>
	<defs>
		<polygon id="SVGID_41_" points="256.576,77 256.576,121.998 284.536,121.998 284.536,112.338 268.396,112.338 268.396,104.059 
			282.676,104.059 282.676,94.099 268.396,94.099 268.396,86.779 284.536,86.779 284.536,77 		"/>
	</defs>
	<clipPath id="SVGID_42_">
		<use xlink:href="#SVGID_41_"  style="overflow:visible;"/>
	</clipPath>
	
		<linearGradient id="SVGID_43_" gradientUnits="userSpaceOnUse" x1="-2.510479e-05" y1="126.998" x2="1" y2="126.998" gradientTransform="matrix(27.959 0 0 -27.959 256.5767 3650.2341)">
		<stop  offset="0" style="stop-color:#FFC501"/>
		<stop  offset="1" style="stop-color:#FF812E"/>
	</linearGradient>
	<rect x="256.576" y="77" style="clip-path:url(#SVGID_42_);fill:url(#SVGID_43_);" width="27.96" height="44.998"/>
</g>
<g>
	<defs>
		<polygon id="SVGID_44_" points="295.036,76.94 295.036,88.699 306.737,88.699 306.737,121.998 318.556,121.998 318.556,88.699 
			330.495,88.699 330.495,76.94 		"/>
	</defs>
	<clipPath id="SVGID_45_">
		<use xlink:href="#SVGID_44_"  style="overflow:visible;"/>
	</clipPath>
	
		<linearGradient id="SVGID_46_" gradientUnits="userSpaceOnUse" x1="-1.721289e-05" y1="126.998" x2="1" y2="126.998" gradientTransform="matrix(35.459 0 0 -35.459 295.0366 4602.689)">
		<stop  offset="0" style="stop-color:#FFC501"/>
		<stop  offset="1" style="stop-color:#FF812E"/>
	</linearGradient>
	<rect x="295.036" y="76.94" style="clip-path:url(#SVGID_45_);fill:url(#SVGID_46_);" width="35.459" height="45.058"/>
</g>
<g>
	<defs>
		<polygon id="SVGID_47_" points="341.657,77 341.657,121.998 369.616,121.998 369.616,112.338 353.476,112.338 353.476,104.059 
			367.756,104.059 367.756,94.099 353.476,94.099 353.476,86.779 369.616,86.779 369.616,77 		"/>
	</defs>
	<clipPath id="SVGID_48_">
		<use xlink:href="#SVGID_47_"  style="overflow:visible;"/>
	</clipPath>
	
		<linearGradient id="SVGID_49_" gradientUnits="userSpaceOnUse" x1="9.823611e-06" y1="126.998" x2="1" y2="126.998" gradientTransform="matrix(27.959 0 0 -27.959 341.6567 3650.2341)">
		<stop  offset="0" style="stop-color:#FFC501"/>
		<stop  offset="1" style="stop-color:#FF812E"/>
	</linearGradient>
	<rect x="341.657" y="77" style="clip-path:url(#SVGID_48_);fill:url(#SVGID_49_);" width="27.959" height="44.998"/>
</g>
</svg>
